<?xml version="1.0" standalone="no"?>
<!DOCTYPE svg PUBLIC "-//W3C//DTD SVG 1.1//EN" "http://www.w3.org/Graphics/SVG/1.1/DTD/svg11.dtd" >
<svg>
<metadata>
Created by FontForge 20090914 at Mon Oct  5 09:56:04 2020
 By www-data
Copyright (c) 2008 by FTPI. All rights reserved.
</metadata>
<defs>
<font id="TFSrivichai-Bold" horiz-adv-x="369" >
  <font-face 
    font-family="TF Srivichai"
    font-weight="700"
    font-stretch="normal"
    units-per-em="1000"
    panose-1="2 0 5 6 0 0 0 2 0 4"
    ascent="800"
    descent="-200"
    x-height="343"
    cap-height="473"
    bbox="-531.001 -433 882 848.999"
    underline-thickness="30"
    underline-position="-20"
    unicode-range="U+0020-U+FE69"
  />
<missing-glyph horiz-adv-x="500" 
d="M402 35v625h-305v-625h305zM436 0h-373v695h373v-695z" />
    <glyph glyph-name="ffj" unicode="ffj" horiz-adv-x="578" 
d="M535 -29c0 -71.333 -32.6689 -107 -98.002 -107c-12.667 0 -24 1 -34 3v59c13.333 -1.33301 22 -2 26 -2c13.333 0 21.833 3.66699 25.5 11s5.5 20.333 5.5 39v312h-113v-286h-76v286h-133v-286h-76v286h-56v57h56v28c0 68 31.667 102 95 102
c24.667 0 42.334 -1.33301 53.001 -4v-59c-13.333 2.66699 -25 4 -35 4c-24.667 0 -37 -12 -37 -36v-35h133v28c0 68 31.667 102 95 102c24.667 0 42.334 -1.33301 53.001 -4v-59c-13.333 2.66699 -25 4 -35 4c-24.667 0 -37 -12 -37 -36v-35h188v-372zM546.998 437
c0 -14 -4.66699 -25.833 -14 -35.5s-21 -14.5 -35 -14.5s-25.833 4.83301 -35.5 14.5s-14.5 21.5 -14.5 35.5s4.83301 25.667 14.5 35s21.5 14 35.5 14s25.667 -4.66699 35 -14s14 -21 14 -35z" />
    <glyph glyph-name="fj" unicode="fj" 
d="M326 -29c0 -71.333 -32.668 -107 -98.001 -107c-12.667 0 -24 1 -34 3v59c13.333 -1.33301 22 -2 26 -2c13.333 0 21.833 3.66699 25.5 11s5.5 20.333 5.5 39v312h-113v-286h-76v286h-56v57h56v28c0 68 31.667 102 95 102c24.667 0 42.334 -1.33301 53.001 -4v-59
c-13.333 2.66699 -25 4 -35 4c-24.667 0 -37 -12 -37 -36v-35h188v-372zM337.999 437c0 -14 -4.66699 -25.833 -14 -35.5s-21 -14.5 -35 -14.5s-25.833 4.83301 -35.5 14.5s-14.5 21.5 -14.5 35.5s4.83301 25.667 14.5 35s21.5 14 35.5 14s25.667 -4.66699 35 -14
s14 -21 14 -35z" />
    <glyph glyph-name="uni0E24.liga" unicode="&#xe24;&#xe32;" horiz-adv-x="666" 
d="M382 -144h-65.9971v418c0 50 -32.333 75 -97 75c-30.667 0 -56.334 -7 -77.001 -21c24 -9.33301 45 -22.333 63 -39c-9.33301 -4 -21 -13 -35 -27c-21.333 -20.667 -32 -42 -32 -64v-54c5.33301 0.666992 10.666 1 15.999 1c21.333 0 40 -6.5 56 -19.5
s24 -31.167 24 -54.5c0 -24 -8.66699 -43 -26 -57c-14.667 -12 -32 -18 -52 -18c-30.667 0 -53 10 -67 30c-11.333 14.667 -17 33 -17 55v123c0 19.333 5.33301 37 16 53s20.667 25.333 30 28c-20 18 -48 30 -84 36c43.333 54.667 103.666 82 180.999 82
c111.333 0 167 -44.333 167 -133v-414zM184.003 72c0 8 -2.66699 14.667 -8 20s-12 8 -20 8s-14.667 -2.66699 -20 -8s-8 -12 -8 -20s2.66699 -14.667 8 -20s12 -8 20 -8s14.667 2.66699 20 8s8 12 8 20zM610.003 -144h-66v408c0 56.667 -26.667 85 -80 85
c-58 0 -87 -24 -87 -72h-61c6 83.333 53.333 125 142 125c101.333 0 152 -45.333 152 -136v-410z" />
    <glyph glyph-name="uni0E26.liga" unicode="&#xe26;&#xe32;" horiz-adv-x="712" 
d="M428 -144h-66v418c0 50 -31 75 -93 75c-30.667 0 -55 -7 -73 -21c24.667 -9.33301 45.667 -22.333 63 -39c-11.333 -4.66699 -23.666 -13.667 -36.999 -27c-20 -20.667 -30 -42 -30 -64v-121c0 -22 -5.33301 -40.333 -16 -55c-14.667 -20 -37.334 -30 -68.001 -30
c-20 0 -37.333 6 -52 18c-17.333 14 -26 33 -26 57c0 23.333 8.33301 41.666 25 54.999c14.667 12.667 32.667 19 54 19c6 0 11.667 -0.333008 17 -1v64c0 18.667 6.33301 37 19 55c10 14.667 19 23.334 27 26.001c-22.667 14.667 -50.667 26.667 -84 36
c43.333 54.667 102.333 82 177 82c108.667 0 163 -44.333 163 -133v-414zM136 68c0 8 -2.66699 14.667 -8 20s-12 8 -20 8s-14.667 -2.66699 -20 -8s-8 -12 -8 -20s2.66699 -14.667 8 -20s12 -8 20 -8s14.667 2.66699 20 8s8 12 8 20zM656 -144h-66v408
c0 56.667 -26.667 85 -80 85c-58 0 -87 -24 -87 -72h-61c6 83.333 53.333 125 142 125c101.333 0 152 -45.333 152 -136v-410z" />
    <glyph glyph-name="ff" unicode="ff" horiz-adv-x="418" 
d="M411 286h-64.002v-286h-76v286h-133v-286h-76v286h-56v57h56v28c0 68 31.667 102 95 102c24.667 0 42.334 -1.33301 53.001 -4v-59c-13.333 2.66699 -25 4 -35 4c-24.667 0 -37 -12 -37 -36v-35h133v28c0 68 31.667 102 95 102c24.667 0 42.334 -1.33301 53.001 -4v-59
c-13.333 2.66699 -25 4 -35 4c-24.667 0 -37 -12 -37 -36v-35h64v-57z" />
    <glyph glyph-name="fi" unicode="fi" 
d="M326 0h-75.001v286h-113v-286h-76v286h-56v57h56v28c0 68 31.667 102 95 102c24.667 0 42.334 -1.33301 53.001 -4v-59c-13.333 2.66699 -25 4 -35 4c-24.667 0 -37 -12 -37 -36v-35h188v-343zM337.999 437c0 -14 -4.66699 -25.833 -14 -35.5s-21 -14.5 -35 -14.5
s-25.833 4.83301 -35.5 14.5s-14.5 21.5 -14.5 35.5s4.83301 25.667 14.5 35s21.5 14 35.5 14s25.667 -4.66699 35 -14s14 -21 14 -35z" />
    <glyph glyph-name="fl" unicode="fl" 
d="M326 0h-75v414h-76c-24.667 0 -37 -12 -37 -36v-35h64v-57h-64v-286h-76v286h-56v57h56v28c0 68 31.667 102 95 102h169v-473z" />
    <glyph glyph-name="ffi" unicode="ffi" horiz-adv-x="578" 
d="M535 0h-75.002v286h-113v-286h-76v286h-133v-286h-76v286h-56v57h56v28c0 68 31.667 102 95 102c24.667 0 42.334 -1.33301 53.001 -4v-59c-13.333 2.66699 -25 4 -35 4c-24.667 0 -37 -12 -37 -36v-35h133v28c0 68 31.667 102 95 102
c24.667 0 42.334 -1.33301 53.001 -4v-59c-13.333 2.66699 -25 4 -35 4c-24.667 0 -37 -12 -37 -36v-35h188v-343zM546.998 437c0 -14 -4.66699 -25.833 -14 -35.5s-21 -14.5 -35 -14.5s-25.833 4.83301 -35.5 14.5s-14.5 21.5 -14.5 35.5s4.83301 25.667 14.5 35
s21.5 14 35.5 14s25.667 -4.66699 35 -14s14 -21 14 -35z" />
    <glyph glyph-name="ffl" unicode="ffl" horiz-adv-x="578" 
d="M535 0h-75.001v414h-76c-24.667 0 -37 -12 -37 -36v-35h64v-57h-64v-286h-76v286h-133v-286h-76v286h-56v57h56v28c0 68 31.667 102 95 102c24.667 0 42.334 -1.33301 53.001 -4v-59c-13.333 2.66699 -25 4 -35 4c-24.667 0 -37 -12 -37 -36v-35h133v28
c0 68 31.667 102 95 102h169v-473z" />
    <glyph glyph-name="RSAD" unicode="RSADLogo" horiz-adv-x="723" 
d="M154 189c-3.33301 10 -9.33301 15.999 -18 17.999c8.66699 2 14.334 7 17.001 15c1.33301 -5.33301 4 -9.5 8 -12.5s8.66699 -5.5 14 -7.5c9.33301 -3.33301 18.166 -5.66602 26.499 -6.99902s12.5 -4.33301 12.5 -9c0 -5.33301 -5 -8 -15 -8
c-8.66699 0 -14 3.66699 -16 11h-29zM108 238.999c9.33301 0 14 -3.33301 14 -10c0 -8 -4.66699 -12 -14 -12h-24v22h24zM289 287.999c-10.667 -10 -19.167 -21.832 -25.5 -35.499s-9.5 -28.167 -9.5 -43.5s3.16699 -29.833 9.5 -43.5s14.833 -25.167 25.5 -34.5h-233
c-8 0 -15 2.66699 -21 8s-9 11.666 -9 18.999v102c0 7.33301 3 13.833 9 19.5s13 8.5 21 8.5h233zM245 232c-1.33301 9.33301 -5.66992 17.502 -13.0029 24.502s-18.666 10.5 -33.999 10.5c-9.33301 0 -18.333 -1.83301 -27 -5.5s-14.667 -9.83398 -18 -18.501
c-3.33301 14 -18.666 21 -45.999 21h-36c-7.33301 0 -12.5 -2.33301 -15.5 -7s-4.5 -9.66699 -4.5 -15v-68c0 -7.33301 1.5 -12.166 4.5 -14.499s7.16699 -3.5 12.5 -3.5h16v37h19c8 0 13 -1.33301 15 -4s3 -7.33398 3 -14.001c0 -10.667 1.66699 -17 5 -19h32l-3 16
c5.33301 -7.33301 11.833 -12.333 19.5 -15s15.167 -4 22.5 -4c15.333 0 27.5 3 36.5 9s13.5 15.333 13.5 28c0 10 -3.16699 17.167 -9.5 21.5s-13.5 7.5 -21.5 9.5l-21.5 5.5c-6.33301 1.66699 -9.5 4.5 -9.5 8.5c0 4.66699 4 7 12 7c2 0 5 -0.666992 9 -2
c2.66699 -2.66699 4.33398 -5.33398 5.00098 -8.00098h34zM682.996 140.002c-3.33301 0 -5 1.66699 -5 5s1.66699 5 5 5s5 -1.66699 5 -5s-1.66699 -5 -5 -5zM691.996 171.002c-4 0 -6 1.66699 -6 5s2 5 6 5c3.33301 0 5 -1.66699 5 -5s-1.66699 -5 -5 -5zM693.996 202.002
c-3.33301 0 -5 1.66699 -5 5s1.66699 5 5 5s5 -1.66699 5 -5s-1.66699 -5 -5 -5zM691.996 236.002c-4 0 -6 1.66699 -6 5s2 5 6 5c3.33301 0 5 -1.66699 5 -5s-1.66699 -5 -5 -5zM682.996 269.002c-3.33301 0 -5 1.66699 -5 5s1.66699 5 5 5s5 -1.66699 5 -5
s-1.66699 -5 -5 -5zM648.996 138.002c-4 0 -6 2.33301 -6 7c0 4 2 6 6 6c4.66699 0 7 -2 7 -6c0 -4.66699 -2.33301 -7 -7 -7zM657.996 169.002c-4.66699 0 -7 2.33301 -7 7c0 4 2.33301 6 7 6c4 0 6 -2 6 -6c0 -4.66699 -2 -7 -6 -7zM659.996 201.002c-4.66699 0 -7 2 -7 6
c0 4.66699 2.33301 7 7 7c4 0 6 -2.33301 6 -7c0 -4 -2 -6 -6 -6zM657.996 234.002c-4.66699 0 -7 2.33301 -7 7c0 4 2.33301 6 7 6c4 0 6 -2 6 -6c0 -4.66699 -2 -7 -6 -7zM655.996 274.002c0 -4 -2.33301 -6 -7 -6c-4 0 -6 2 -6 6c0 4.66699 2 7 6 7
c4.66699 0 7 -2.33301 7 -7zM614.996 137.002c-5.33301 0 -8 2.66699 -8 8s2.66699 8 8 8s8 -2.66699 8 -8s-2.66699 -8 -8 -8zM623.996 168.002c-5.33301 0 -8 2.66699 -8 8s2.66699 8 8 8c4.66699 0 7 -2.66699 7 -8s-2.33301 -8 -7 -8zM625.996 199.002
c-5.33301 0 -8 2.66699 -8 8s2.66699 8 8 8c4.66699 0 7 -2.66699 7 -8s-2.33301 -8 -7 -8zM623.996 233.002c-5.33301 0 -8 2.66699 -8 8s2.66699 8 8 8c4.66699 0 7 -2.66699 7 -8s-2.33301 -8 -7 -8zM614.996 266.002c-5.33301 0 -8 2.66699 -8 8s2.66699 8 8 8
s8 -2.66699 8 -8s-2.66699 -8 -8 -8zM580.996 135.002c-6 0 -9 3.33301 -9 10c0 6 3 9 9 9c6.66699 0 10 -3 10 -9c0 -6.66699 -3.33301 -10 -10 -10zM598.996 176.002c0 -6 -3.33301 -9 -10 -9c-6 0 -9 3 -9 9s3 9 9 9c6.66699 0 10 -3 10 -9zM591.996 198.002
c-6.66699 0 -10 3 -10 9c0 6.66699 3.33301 10 10 10c6 0 9 -3.33301 9 -10c0 -6 -3 -9 -9 -9zM588.996 231.002c-6 0 -9 3.33301 -9 10c0 6 3 9 9 9c6.66699 0 10 -3 10 -9c0 -6.66699 -3.33301 -10 -10 -10zM590.996 274.002c0 -6 -3.33301 -9 -10 -9c-6 0 -9 3 -9 9
s3 9 9 9c6.66699 0 10 -3 10 -9zM546.996 134.002c-7.33301 0 -11 3.66699 -11 11c0 6.66699 3.66699 10 11 10s11 -3.33301 11 -10c0 -7.33301 -3.66699 -11 -11 -11zM554.996 165.002c-6.66699 0 -10 3.66699 -10 11s3.33301 11 10 11c7.33301 0 11 -3.66699 11 -11
s-3.66699 -11 -11 -11zM557.996 197.002c-7.33301 0 -11 3.33301 -11 10c0 7.33301 3.66699 11 11 11c6.66699 0 10 -3.66699 10 -11c0 -6.66699 -3.33301 -10 -10 -10zM554.996 230.002c-6.66699 0 -10 3.66699 -10 11c0 6.66699 3.33301 10 10 10
c7.33301 0 11 -3.33301 11 -10c0 -7.33301 -3.66699 -11 -11 -11zM546.996 263.002c-7.33301 0 -11 3.66699 -11 11s3.66699 11 11 11s11 -3.66699 11 -11s-3.66699 -11 -11 -11zM510.996 133.002c-3.33301 0 -6.16504 1.16797 -8.49805 3.50098s-3.5 5.16602 -3.5 8.49902
s1.16699 6.16602 3.5 8.49902s5.16602 3.5 8.49902 3.5s6.16602 -1.16699 8.49902 -3.5s3.5 -5.16602 3.5 -8.49902c0 -8 -4 -12 -12 -12zM533.997 176.003c0 -8 -4.33301 -11.998 -13 -11.998c-3.33301 0 -6.16602 1.16699 -8.49902 3.5s-3.5 5.16602 -3.5 8.49902
s1.16699 6.16602 3.5 8.49902s5.16602 3.5 8.49902 3.5c8.66699 0 13 -4 13 -12zM535.997 207.005c0 -3.33301 -1.33301 -6.16504 -4 -8.49805s-5.66699 -3.5 -9 -3.5s-6.16602 1.16699 -8.49902 3.5s-3.5 5.16602 -3.5 8.49902s1.16699 6.16602 3.5 8.49902
s5.16602 3.5 8.49902 3.5c8.66699 0 13 -4 13 -12zM533.997 241.006c0 -8 -4.33301 -11.999 -13 -11.999c-3.33301 0 -6.16602 1.16699 -8.49902 3.5s-3.5 5.16602 -3.5 8.49902s1.16699 6.16602 3.5 8.49902s5.16602 3.5 8.49902 3.5s6.33301 -1.16699 9 -3.5
s4 -5.16602 4 -8.49902zM510.997 262.007c-3.33301 0 -6.16602 1.16895 -8.49902 3.50195s-3.5 5.16602 -3.5 8.49902s1.16699 6.16602 3.5 8.49902s5.16602 3.5 8.49902 3.5c8 0 12 -4 12 -12s-4 -12 -12 -12zM472.997 131.009c-8.66699 0 -13 4.66699 -13 14
c0 8.66699 4.33301 13 13 13c9.33301 0 14 -4.33301 14 -13c0 -9.33301 -4.66699 -14 -14 -14zM484.997 162.009c-8.66699 0 -13 4.66699 -13 14c0 3.33301 1.33301 6.5 4 9.5s5.66699 4.5 9 4.5c4 0 7.33301 -1.5 10 -4.5s4 -6.16699 4 -9.5
c0 -9.33301 -4.66699 -14 -14 -14zM502.997 207.009c0 -8.66699 -4.66699 -13 -14 -13c-8.66699 0 -13 4.33301 -13 13c0 9.33301 4.33301 14 13 14c9.33301 0 14 -4.66699 14 -14zM484.997 227.009c-8.66699 0 -13 4.66699 -13 14c0 8.66699 4.33301 13 13 13
c9.33301 0 14 -4.33301 14 -13c0 -9.33301 -4.66699 -14 -14 -14zM472.997 260.009c-3.33301 0 -6.33301 1.5 -9 4.5s-4 6.16699 -4 9.5c0 9.33301 4.33301 14 13 14c9.33301 0 14 -4.66699 14 -14c0 -3.33301 -1.33301 -6.5 -4 -9.5s-6 -4.5 -10 -4.5zM367.997 172.009
h31.001c9.33301 0 16.666 3.66699 21.999 11s8 16 8 26c0 11.333 -2.66699 20.5 -8 27.5s-14.333 10.5 -27 10.5h-26v-75zM374.998 178.009l8.00195 62.998h9c5.33301 -0.666992 9.16602 -1.16699 11.499 -1.5s4.16602 -0.833008 5.49902 -1.5
c5.33301 -3.33301 8.83301 -7.66602 10.5 -12.999s2.5 -10.666 2.5 -15.999s-1.33301 -11.833 -4 -19.5s-9.66699 -11.5 -21 -11.5h-22zM343 200.007l-13 1h-14l16 38zM361 172.007l-29 75h-8l-29 -75h13l6 20l19 1l13 1l7 -22h8zM361 110.007c-28 0 -51.5 9.5 -70.5 28.5
s-28.5 42.5 -28.5 70.5s9.5 51.5 28.5 70.5s42.5 28.5 70.5 28.5s51.5 -9.5 70.5 -28.5s28.5 -42.5 28.5 -70.5s-9.5 -51.5 -28.5 -70.5s-42.5 -28.5 -70.5 -28.5zM451 209.007c0 25.333 -8.66699 46.666 -26 63.999s-38.666 26 -63.999 26s-46.666 -8.66699 -63.999 -26
s-26 -38.666 -26 -63.999s8.66699 -46.666 26 -63.999s38.666 -26 63.999 -26s46.666 8.66699 63.999 26s26 38.666 26 63.999zM361 125.007c-23.333 0 -43.166 8.16699 -59.499 24.5s-24.5 36.166 -24.5 59.499s8.16699 43.166 24.5 59.499s36.166 24.5 59.499 24.5
s43.166 -8.16699 59.499 -24.5s24.5 -36.166 24.5 -59.499s-8.16699 -43.166 -24.5 -59.499s-36.166 -24.5 -59.499 -24.5z" />
    <glyph glyph-name=".notdef" horiz-adv-x="500" 
d="M402 35v625h-305v-625h305zM436 0h-373v695h373v-695z" />
    <glyph glyph-name="space" unicode=" " horiz-adv-x="240" 
 />
    <glyph glyph-name="exclam" unicode="!" horiz-adv-x="184" 
d="M112 132h-39l-22 205v136h83v-136zM143 44c0 -14 -4.83301 -25.833 -14.5 -35.5s-21.5 -14.5 -35.5 -14.5s-25.833 4.83301 -35.5 14.5s-14.5 21.5 -14.5 35.5s4.83301 25.833 14.5 35.5s21.5 14.5 35.5 14.5s25.833 -4.83301 35.5 -14.5s14.5 -21.5 14.5 -35.5z" />
    <glyph glyph-name="quotedbl" unicode="&#x22;" horiz-adv-x="294" 
d="M123 286h-68v187h68v-187zM239 286h-67v187h67v-187z" />
    <glyph glyph-name="numbersign" unicode="#" 
d="M328 139h-63l-20 -139h-53l19 139h-72l-20 -139h-53l19 139h-62v50h69l12 86h-62v50h69l19 139h54l-20 -139h73l20 139h53l-20 -139h57v-50h-63l-12 -86h56v-50zM219 189l12 86h-74l-12 -86h74z" />
    <glyph glyph-name="dollar" unicode="$" 
d="M282 127c0 36 -27.333 61.333 -82 76v-155c54.667 4.66699 82 31 82 79zM357 138c0 -47.333 -14.501 -83.502 -43.501 -108.502s-66.833 -38.5 -113.5 -40.5v-52h-28v52c-49.333 1.33301 -88.666 15.333 -117.999 42s-43.666 64.334 -42.999 113.001h76
c-1.33301 -62 27 -94 85 -96v161c-46.667 12.667 -81 27.334 -103 44.001c-32 24.667 -48 58.667 -48 102c0 40 15.333 72.333 46 97c28 22 63 33 105 33v51h28v-51c42 0 76.333 -10.667 103 -32c28 -23.333 42 -56 42 -98h-75c-2 46.667 -25.333 70 -70 70v-140
c49.333 -13.333 85.666 -28.333 108.999 -45c32 -24.667 48 -58.667 48 -102zM171.999 291.998v133c-50 0 -75 -21.667 -75 -65c0 -32 25 -54.667 75 -68z" />
    <glyph glyph-name="percent" unicode="%" horiz-adv-x="663" 
d="M172 -16l258 496h51l-257 -496h-52zM276 341c0 -87.333 -37 -131 -111 -131s-111 43.667 -111 131s37 131 111 131s111 -43.667 111 -131zM216 341c0 58.667 -17.333 88 -52 88c-33.333 0 -50 -29.333 -50 -88s16.667 -88 50 -88c34.667 0 52 29.333 52 88zM609 122
c0 -87.333 -37 -131 -111 -131s-111 43.667 -111 131s37 131 111 131s111 -43.667 111 -131zM549 122c0 58.667 -17.333 88 -52 88c-33.333 0 -50 -29.333 -50 -88s16.667 -88 50 -88c34.667 0 52 29.333 52 88z" />
    <glyph glyph-name="ampersand" unicode="&#x26;" horiz-adv-x="430" 
d="M249 374c0 15.333 -4.5 28.167 -13.5 38.5s-20.833 15.5 -35.5 15.5c-14 0 -25.833 -4.66699 -35.5 -14s-14.5 -22 -14.5 -38c0 -13.333 4.83301 -26.833 14.5 -40.5l28.5 -38.5c37.333 25.333 56 51 56 77zM263 103.001l-93 116c-48.667 -21.333 -73 -51 -73 -89
c0 -24.667 7 -44.167 21 -58.5s32.333 -21.5 55 -21.5c32.667 0 62.667 17.667 90 53zM346 0.000976562l-43.001 53.001c-33.333 -41.333 -77.666 -62 -132.999 -62c-44 0 -79.833 12.5 -107.5 37.5s-41.5 59.167 -41.5 102.5c0 54 36.333 100 109 138
c-32 40 -48 74.333 -48 103c0 33.333 11.167 60.5 33.5 81.5s49.833 31.5 82.5 31.5s60 -9.33301 82 -28c24 -21.333 36 -50 36 -86c0 -48.667 -28.333 -88.667 -85 -120l73 -89c7.33301 19.333 12.333 40.666 15 63.999h66c-4.66699 -45.333 -17 -84 -37 -116l91 -110h-93z
" />
    <glyph glyph-name="quotesingle" unicode="'" horiz-adv-x="184" 
d="M126 286h-68v187h68v-187z" />
    <glyph glyph-name="parenleft" unicode="(" horiz-adv-x="184" 
d="M190 -127h-62c-64 102.667 -96 204.667 -96 306c0 104.667 32 206.667 96 306h62c-54.667 -98 -82 -200 -82 -306c0 -111.333 27.333 -213.333 82 -306z" />
    <glyph glyph-name="parenright" unicode=")" horiz-adv-x="184" 
d="M152 178c0 -106 -32 -207.667 -96 -305h-61c54 96.667 81 198.334 81 305.001c0 111.333 -27 213.666 -81 306.999h61c64 -102.667 96 -205 96 -307z" />
    <glyph glyph-name="asterisk" unicode="*" horiz-adv-x="245" 
d="M86 354l-73 25l14 43l73 -28v79h45v-79l72 28l16 -43l-75 -25l46 -62l-35 -26l-47 65l-45 -65l-37 26z" />
    <glyph glyph-name="plus" unicode="+" horiz-adv-x="398" 
d="M366 134h-133v-134h-68v134h-133v68h133v133h68v-133h133v-68z" />
    <glyph glyph-name="comma" unicode="," horiz-adv-x="184" 
d="M144 32c0 -18 -6.33301 -36.9971 -19 -56.9971s-30.667 -37.667 -54 -53l-36 24c10 6 19.833 14.167 29.5 24.5s17.167 20.166 22.5 29.499c-19.333 0 -32.5 4.66699 -39.5 14s-10.5 19.666 -10.5 30.999c0 15.333 5.33301 27 16 35s22.667 12 36 12
s25.833 -4.83301 37.5 -14.5s17.5 -24.834 17.5 -45.501z" />
    <glyph glyph-name="hyphen" unicode="-" horiz-adv-x="258" 
d="M225 145h-193v71h193v-71z" />
    <glyph glyph-name="period" unicode="." horiz-adv-x="184" 
d="M145 44c0 -14.667 -5 -27.167 -15 -37.5s-22.333 -15.5 -37 -15.5s-27.167 5.16699 -37.5 15.5s-15.5 22.833 -15.5 37.5s5.16699 27 15.5 37s22.833 15 37.5 15s27 -5 37 -15s15 -22.333 15 -37z" />
    <glyph glyph-name="slash" unicode="/" horiz-adv-x="233" 
d="M58 -11h-73l191 496h72z" />
    <glyph glyph-name="zero" unicode="0" 
d="M269 232c0 118.667 -28.333 178 -85 178s-85 -59.333 -85 -178s28.333 -178 85 -178s85 59.333 85 178zM345 232c0 -160.667 -53.667 -241 -161 -241c-106.667 0 -160 80.333 -160 241s53.333 241 160 241c107.333 0 161 -80.333 161 -241z" />
    <glyph glyph-name="one" unicode="1" 
d="M232 0h-83v328h-114v59c80 0 125 25.667 135 77h62v-464z" />
    <glyph glyph-name="two" unicode="2" 
d="M343 0l-316.999 -0.00195312c0.666992 70.667 34.667 129.334 102 176.001c59.333 41.333 90 63 92 65c31.333 27.333 47.333 56.333 48 87c1.33301 54.667 -24.667 82 -78 82c-50.667 0 -77.334 -38.667 -80.001 -116h-76c0 53.333 14.167 96.5 42.5 129.5
s67.5 49.5 117.5 49.5c51.333 0 90.333 -16 117 -48c21.333 -26 32 -57.333 32 -94c0 -57.333 -34.333 -109.666 -103 -156.999l-76.5 -53c-25.667 -18 -41.167 -35.667 -46.5 -53h226v-68z" />
    <glyph glyph-name="three" unicode="3" 
d="M348 133c0 -42.667 -16.001 -77.002 -48.001 -103.002s-70.667 -39 -116 -39c-52.667 0 -93 15 -121 45c-26.667 28 -40.667 66.667 -42 116h75c-1.33301 -28.667 5.83398 -52.167 21.501 -70.5s37.834 -27.5 66.501 -27.5c26 0 47.167 7.33301 63.5 22s24.5 35 24.5 61
c0 56 -40.333 82 -121 78v57c28.667 -1.33301 52.334 3.33398 71.001 14.001c21.333 12.667 32 32.334 32 59.001c0 19.333 -6.83301 35 -20.5 47s-30.834 18 -51.501 18c-25.333 0 -44.833 -9.33301 -58.5 -28s-19.834 -40.667 -18.501 -66h-76
c2 46 16.833 83.667 44.5 113s64.167 44 109.5 44c39.333 0 73 -10.333 101 -31c30.667 -22.667 46 -53.667 46 -93c0 -50 -22 -83 -66 -99v-1c26 -5.33301 46.5 -18.5 61.5 -39.5s22.5 -46.5 22.5 -76.5z" />
    <glyph glyph-name="four" unicode="4" 
d="M346 110h-60v-110h-71v110h-199v75l199 279h71v-294h60v-60zM215 170v204h-2l-139 -204h141z" />
    <glyph glyph-name="five" unicode="5" 
d="M23 132l76 0.000976562c4 -52 32.333 -78 85 -78c58 0 87 34 87 102c0 27.333 -7.66699 50.333 -23 69s-37.333 28 -66 28c-39.333 0 -64.333 -14.333 -75 -43h-75l50 254h240v-68h-184l-24 -118l1 -1c21.333 23.333 50 35 86 35c44.667 0 80 -14.5 106 -43.5
s39 -66.167 39 -111.5c0 -42.667 -12.333 -79.667 -37 -111c-29.333 -36.667 -70.333 -55 -123 -55c-46.667 0 -85 12.167 -115 36.5s-46 59.166 -48 104.499z" />
    <glyph glyph-name="six" unicode="6" 
d="M271 151c0 26 -7.16602 48.167 -21.499 66.5s-34.5 27.5 -60.5 27.5c-26.667 0 -47.334 -9 -62.001 -27s-22 -40.333 -22 -67c0 -27.333 7.5 -50.333 22.5 -69s35.5 -28 61.5 -28s46.333 10 61 30c14 18 21 40.333 21 67zM346.001 149
c0 -45.333 -14.335 -82.999 -43.002 -112.999s-65.667 -45 -111 -45c-63.333 0 -108.666 23.333 -135.999 70c-22 38.667 -33 96 -33 172c0 64.667 12.667 118.667 38 162c30.667 52 76.334 78 137.001 78c37.333 0 69.333 -11.833 96 -35.5s41 -53.834 43 -90.501h-75
c-3.33301 42 -26 63 -68 63c-36 0 -61.667 -19 -77 -57c-8.66699 -21.333 -15 -55.333 -19 -102l1 -1c21.333 36.667 55 55 101 55c44.667 0 80.667 -15 108 -45c25.333 -28.667 38 -65.667 38 -111z" />
    <glyph glyph-name="seven" unicode="7" 
d="M168 0h-82.999c9.33301 142 69 274 179 396h-241v68h318v-63c-104.667 -117.333 -162.334 -251 -173.001 -401z" />
    <glyph glyph-name="eight" unicode="8" 
d="M272 137c0 25.333 -8.16699 45.168 -24.5 59.501s-37.5 21.5 -63.5 21.5c-25.333 0 -46.333 -7.33301 -63 -22s-25 -34.334 -25 -59.001c0 -26.667 8.16699 -47.834 24.5 -63.501s37.5 -23.5 63.5 -23.5s47.167 7.83301 63.5 23.5s24.5 36.834 24.5 63.501zM348 137.002
c0 -44.667 -15.333 -80.168 -46 -106.501s-70 -39.5 -118 -39.5s-87.167 13.167 -117.5 39.5s-45.5 61.833 -45.5 106.5c0 61.333 28 99 84 113v1c-43.333 16.667 -65 48.667 -65 96c0 40 12.5 71 37.5 93s60.5 33 106.5 33s81.667 -11.167 107 -33.5s38 -53.166 38 -92.499
c0 -47.333 -22 -79.333 -66 -96v-1c56.667 -14 85 -51.667 85 -113zM257 343.001c0 22 -6.83301 39.333 -20.5 52s-31.167 19 -52.5 19c-20.667 0 -38 -6.33301 -52 -19s-21 -30 -21 -52c0 -21.333 6.83301 -38.166 20.5 -50.499s31.167 -18.5 52.5 -18.5
s38.833 6.16699 52.5 18.5s20.5 29.166 20.5 50.499z" />
    <glyph glyph-name="nine" unicode="9" 
d="M263 316c0 26 -7.33203 48.167 -21.999 66.5s-35.334 27.5 -62.001 27.5c-26 0 -46 -9 -60 -27s-21 -40.333 -21 -67c0 -27.333 6.66699 -50 20 -68c14.667 -20 35 -30 61 -30c26.667 0 47.667 10 63 30c14 18 21 40.667 21 68zM346.001 231
c0 -64.667 -12.665 -118.668 -37.998 -162.001c-31.333 -52 -77 -78 -137 -78c-37.333 0 -69.5 11.833 -96.5 35.5s-41.5 53.834 -43.5 90.501h76c3.33301 -42 25.666 -63 66.999 -63c36 0 62 19 78 57c8.66699 21.333 15 55.333 19 102l-2 1
c-20.667 -37.333 -54 -56 -100 -56c-43.333 0 -78.5 14.333 -105.5 43s-40.5 66.667 -40.5 114c0 46 14.167 83.833 42.5 113.5s67.166 44.5 116.499 44.5c61.333 0 105.333 -23.333 132 -70c21.333 -38.667 32 -96 32 -172z" />
    <glyph glyph-name="colon" unicode=":" horiz-adv-x="184" 
d="M145 44c0 -14.667 -5 -27.167 -15 -37.5s-22.333 -15.5 -37 -15.5s-27.167 5.16699 -37.5 15.5s-15.5 22.833 -15.5 37.5s5.16699 27 15.5 37s22.833 15 37.5 15s27 -5 37 -15s15 -22.333 15 -37zM145 290c0 -14.667 -5 -27.167 -15 -37.5s-22.333 -15.5 -37 -15.5
s-27.167 5.16699 -37.5 15.5s-15.5 22.833 -15.5 37.5s5.16699 27 15.5 37s22.833 15 37.5 15s27 -5 37 -15s15 -22.333 15 -37z" />
    <glyph glyph-name="semicolon" unicode=";" horiz-adv-x="184" 
d="M145 290c0 -14.667 -5 -27.167 -15 -37.5s-22.333 -15.5 -37 -15.5s-27.167 5.16699 -37.5 15.5s-15.5 22.833 -15.5 37.5s5.16699 27 15.5 37s22.833 15 37.5 15s27 -5 37 -15s15 -22.333 15 -37zM144 32c0 -18 -6.33301 -36.9971 -19 -56.9971s-30.667 -37.667 -54 -53
l-36 24c10 6 19.833 14.167 29.5 24.5s17.167 20.166 22.5 29.499c-19.333 0 -32.5 4.66699 -39.5 14s-10.5 19.666 -10.5 30.999c0 15.333 5.33301 27 16 35s22.667 12 36 12s25.833 -4.83301 37.5 -14.5s17.5 -24.834 17.5 -45.501z" />
    <glyph glyph-name="less" unicode="&#x3c;" horiz-adv-x="398" 
d="M367 -5l-337 149v48l337 149v-68l-248 -105l248 -106v-67z" />
    <glyph glyph-name="equal" unicode="=" horiz-adv-x="398" 
d="M366 201h-334v68h334v-68zM366 67h-334v68h334v-68z" />
    <glyph glyph-name="greater" unicode="&#x3e;" horiz-adv-x="398" 
d="M367 144l-337 -149v67l248 106l-248 105v68l337 -149v-48z" />
    <glyph glyph-name="question" unicode="?" 
d="M336 351c0 -28 -5.99902 -51.334 -17.999 -70.001c-6.66699 -10 -20.334 -23.667 -41.001 -41s-34.334 -31.333 -41.001 -42c-11.333 -17.333 -17 -40.333 -17 -69h-71c0 36.667 4.33301 64.667 13 84c6.66699 16.667 19.834 33.5 39.501 50.5s31.834 28.5 36.501 34.5
c10.667 14 16 30.667 16 50c0 24 -7.66699 43 -23 57c-12.667 11.333 -26.667 17 -42 17c-53.333 0 -80 -33 -80 -99h-76c0 48.667 14.5 87.834 43.5 117.501s67.833 44.5 116.5 44.5c41.333 0 75.666 -12 102.999 -36s41 -56.667 41 -98zM232.001 42.999
c0 -14 -4.83301 -25.833 -14.5 -35.5s-21.5 -14.5 -35.5 -14.5s-25.833 4.83301 -35.5 14.5s-14.5 21.5 -14.5 35.5s4.83301 25.833 14.5 35.5s21.5 14.5 35.5 14.5s25.833 -4.83301 35.5 -14.5s14.5 -21.5 14.5 -35.5z" />
    <glyph glyph-name="at" unicode="@" horiz-adv-x="530" 
d="M330 189c0 15.333 -5.16797 28.999 -15.501 40.999s-22.5 18 -36.5 18c-26 0 -48.333 -13.333 -67 -40c-16.667 -24 -25 -49.333 -25 -76c0 -18 4.83301 -32.667 14.5 -44s22.5 -17 38.5 -17c24.667 0 46.334 13.667 65.001 41c17.333 24.667 26 50.334 26 77.001z
M476.999 24.999c-44.667 -72 -110.667 -108.003 -198 -108.003c-69.333 0 -127.333 23.667 -174 71c-48.667 48.667 -73 110.334 -73 185.001c0 66.667 24 123.334 72 170.001s105.333 70 172 70c60.667 0 112.834 -18.5 156.501 -55.5s65.5 -83.5 65.5 -139.5
c0 -60 -19.333 -109.333 -58 -148c-32.667 -32.667 -65.667 -49 -99 -49c-24 0 -37 12.667 -39 38h-1c-22.667 -25.333 -47.334 -38 -74.001 -38c-27.333 0 -50.333 10.333 -69 31s-28 45.334 -28 74.001c0 44 13.667 83.5 41 118.5s62 52.5 104 52.5
c34 0 58.667 -15.667 74 -47l12 37h47l-48 -174c-3.33301 -13.333 -5 -23.333 -5 -30c0 -10.667 4 -16 12 -16c21.333 0 41 14.167 59 42.5s27 61.833 27 100.5c0 48 -17 86.667 -51 116s-76 44 -126 44c-55.333 0 -100.833 -19.167 -136.5 -57.5s-53.5 -85.5 -53.5 -141.5
c0 -64 18.333 -115.167 55 -153.5s83.667 -57.5 141 -57.5c61.333 0 111 21.667 149 65h46z" />
    <glyph glyph-name="A" unicode="A" horiz-adv-x="442" 
d="M292 188l-71 204h-2l-71 -204h144zM448 0h-89l-45 125h-189l-44 -125h-86l182 473h88z" />
    <glyph glyph-name="B" unicode="B" horiz-adv-x="467" 
d="M359 143c0 48 -26.333 72 -79 72h-147v-147h147c52.667 0 79 25 79 75zM442 132c0 -39.333 -13.667 -70.667 -41 -94c-30 -25.333 -74.333 -38 -133 -38h-218v473h230c94 0 141 -39 141 -117c0 -47.333 -22.667 -81 -68 -101v-1c59.333 -13.333 89 -54 89 -122z
M338 340.999c0 43.333 -23 64.999 -69 64.999h-136v-131h136c20 0 36.5 5.83301 49.5 17.5s19.5 27.834 19.5 48.501z" />
    <glyph glyph-name="C" unicode="C" horiz-adv-x="479" 
d="M453 180c-3.33301 -56.667 -23.333 -102.667 -60 -138s-83.667 -53 -141 -53c-68.667 0 -124.334 24.333 -167.001 73c-40 46.667 -60 105 -60 175s20 128.333 60 175c42.667 48.667 98.334 73 167.001 73c54.667 0 100.667 -14.5 138 -43.5s58.333 -68.5 63 -118.5h-83
c-16 62.667 -55.333 94 -118 94c-47.333 0 -84 -18.667 -110 -56c-22.667 -32.667 -34 -74 -34 -124s11.333 -91.667 34 -125c26 -37.333 62.667 -56 110 -56c35.333 0 64 12 86 36c19.333 22 31 51.333 35 88h80z" />
    <glyph glyph-name="D" unicode="D" horiz-adv-x="479" 
d="M373 237c0 53.333 -10 93.333 -30 120c-25.333 32.667 -68 49 -128 49h-82v-338h82c60 0 102.667 16.333 128 49c20 26 30 66 30 120zM455 237c0 -70 -16.667 -126 -50 -168c-36 -46 -88.667 -69 -158 -69h-197v473h197c69.333 0 122 -23 158 -69
c33.333 -42 50 -97.667 50 -167z" />
    <glyph glyph-name="E" unicode="E" horiz-adv-x="418" 
d="M396 0h-346v473h341v-71h-258v-124h239v-68h-239v-138h263v-72z" />
    <glyph glyph-name="F" unicode="F" horiz-adv-x="393" 
d="M347 210h-214v-210h-83v473h327v-71h-244v-124h214v-68z" />
    <glyph glyph-name="G" unicode="G" horiz-adv-x="503" 
d="M463 0l-53 -0.000976562l-12 56c-39.333 -44.667 -87 -67 -143 -67c-68.667 0 -124 24.333 -166 73c-40 46 -60 104.333 -60 175c0 70 20.5 128.833 61.5 176.5s95.833 71.5 164.5 71.5c54 0 99.333 -13.667 136 -41c38.667 -29.333 61 -69.666 67 -120.999h-81
c-4 30 -17.5 53.167 -40.5 69.5s-50.167 24.5 -81.5 24.5c-47.333 0 -84 -18.667 -110 -56c-22.667 -32.667 -34 -74 -34 -124s11.333 -91.333 34 -124c26 -38 62.667 -57 110 -57c42 0 74.5 11.5 97.5 34.5s34.833 54.833 35.5 95.5h-126v63h201v-249z" />
    <glyph glyph-name="H" unicode="H" horiz-adv-x="479" 
d="M430 0h-83v213h-216v-213h-83v473h83v-188h216v188h83v-473z" />
    <glyph glyph-name="I" unicode="I" horiz-adv-x="184" 
d="M133 0h-83v473h83v-473z" />
    <glyph glyph-name="J" unicode="J" horiz-adv-x="356" 
d="M306 152c0 -50 -9 -87.333 -27 -112c-24.667 -34 -67.667 -51 -129 -51c-94 0 -141 50.667 -141 152v25h82v-25c0 -56.667 21.667 -85 65 -85c25.333 0 43.333 8 54 24c8.66699 14 13 36.667 13 68v325h83v-321z" />
    <glyph glyph-name="K" unicode="K" horiz-adv-x="454" 
d="M459 0h-103l-155 226l-68 -67v-159h-83v473h83v-215l211 215h102l-189 -189z" />
    <glyph glyph-name="L" unicode="L" horiz-adv-x="381" 
d="M374 0h-324v473h83v-401h241v-72z" />
    <glyph glyph-name="M" unicode="M" horiz-adv-x="589" 
d="M540 0h-79v365h-1l-131 -365h-68l-132 365h-1v-365h-79v473h117l130 -370h2l127 370h115v-473z" />
    <glyph glyph-name="N" unicode="N" horiz-adv-x="479" 
d="M431 0h-88l-215 348h-2v-348h-79v473h88l216 -348h1v348h79v-473z" />
    <glyph glyph-name="O" unicode="O" horiz-adv-x="504" 
d="M479 237c0 -70 -20 -128.333 -60 -175c-42.667 -48.667 -98.334 -73 -167.001 -73s-124.334 24.333 -167.001 73c-40 46.667 -60 105 -60 175s20 128.333 60 175c42.667 48.667 98.334 73 167.001 73s124.334 -24.333 167.001 -73c40 -46.667 60 -105 60 -175zM396 237
c0 50 -11.333 91.333 -34 124c-26 37.333 -62.667 56 -110 56s-84 -18.667 -110 -56c-22.667 -32.667 -34 -74 -34 -124s11.333 -91.667 34 -125c26 -37.333 62.667 -56 110 -56s84 18.667 110 56c22.667 33.333 34 75 34 125z" />
    <glyph glyph-name="P" unicode="P" horiz-adv-x="442" 
d="M337 328c0 52 -27 78 -81 78h-123v-157h122c22 0 40.333 5.66699 55 17c18 14 27 34.667 27 62zM420 327c0 -38 -10 -69.332 -30 -93.999c-27.333 -34 -71 -51 -131 -51h-126v-182h-83v473h209c60 0 103.667 -17 131 -51c20 -24.667 30 -56.334 30 -95.001z" />
    <glyph glyph-name="Q" unicode="Q" horiz-adv-x="504" 
d="M396 237c0 50 -11.334 91.333 -34.001 124c-26 37.333 -62.667 56 -110 56s-84 -18.667 -110 -56c-22.667 -32.667 -34 -74 -34 -124s11.333 -91.667 34 -125c26 -37.333 62.667 -56 110 -56c18.667 0 36.334 4 53.001 12l-48 41l40 46l58 -50
c27.333 32.667 41 76.667 41 132zM472.999 2l-41.001 -44.999l-69 60c-32.667 -18.667 -69.667 -28 -111 -28c-68.667 0 -124.334 24.333 -167.001 73c-40 46.667 -60 105 -60 175s20 128.333 60 175c42.667 48.667 98.334 73 167.001 73s124.334 -24.333 167.001 -73
c40 -46.667 60 -105 60 -175c0 -78.667 -22.333 -139.334 -67 -182.001z" />
    <glyph glyph-name="R" unicode="R" horiz-adv-x="467" 
d="M350 333c0 48.667 -27.333 73 -82 73h-135v-148h136c54 0 81 25 81 75zM451 0h-89c-8.66699 14 -13 37.333 -13 70c0 45.333 -6 77 -18 95c-14 20 -39.333 30 -76 30h-122v-195h-83v473h226c104.667 0 157 -42.667 157 -128c0 -62 -26 -101.667 -78 -119v-1
c46.667 -6.66699 70 -40 70 -100c0 -65.333 8.66699 -107 26 -125z" />
    <glyph glyph-name="S" unicode="S" horiz-adv-x="430" 
d="M408 137c0 -49.333 -19.667 -87.333 -59 -114c-34 -22.667 -77.333 -34 -130 -34c-57.333 0 -103.333 13.333 -138 40c-38.667 30 -58.334 73 -59.001 129h83c0 -68 40 -102 120 -102c34 0 59.667 7.66699 77 23c15.333 12.667 23 29 23 49c0 28.667 -13 48 -39 58
c-7.33301 2.66699 -54.333 15.667 -141 39c-70 18.667 -105 58.667 -105 120c0 44.667 18 80 54 106c32.667 22.667 72.334 34 119.001 34c52 0 95.167 -13.333 129.5 -40s51.5 -64 51.5 -112h-82c-4 56 -38 84 -102 84c-58 0 -87 -20.667 -87 -62c0 -30 18.667 -50 56 -60
l137 -37c29.333 -8.66699 52 -24.5 68 -47.5s24 -47.5 24 -73.5z" />
    <glyph glyph-name="T" unicode="T" horiz-adv-x="393" 
d="M238 0h-83v402h-150v71h384v-71h-151v-402z" />
    <glyph glyph-name="U" unicode="U" horiz-adv-x="479" 
d="M434 170c0 -59.333 -17.5 -104.333 -52.5 -135s-82.5 -46 -142.5 -46s-106.667 15 -140 45c-36 32 -54 77.333 -54 136v303h83v-275c0 -43.333 5 -74.333 15 -93c16.667 -30 48.667 -45 96 -45c48 0 80.333 15 97 45c10 18.667 15 49.667 15 93v275h83v-303z" />
    <glyph glyph-name="V" unicode="V" horiz-adv-x="405" 
d="M247 0h-93l-157 473h86l119 -374h1l121 374h84z" />
    <glyph glyph-name="W" unicode="W" horiz-adv-x="626" 
d="M491 0h-84l-95 362h-1l-97 -362h-85l-125 473h84l86 -362h1l96 362h84l93 -362h2l88 362h84z" />
    <glyph glyph-name="X" unicode="X" horiz-adv-x="430" 
d="M432 0h-101l-118 181l-120 -181h-95l168 245l-157 228h99l107 -167l113 167h92l-156 -228z" />
    <glyph glyph-name="Y" unicode="Y" horiz-adv-x="430" 
d="M257 0h-83v186l-178 287h96l125 -212l124 212h93l-177 -287v-186z" />
    <glyph glyph-name="Z" unicode="Z" horiz-adv-x="418" 
d="M403 0h-388v68l276 334h-255v71h360v-63l-275 -338h282v-72z" />
    <glyph glyph-name="bracketleft" unicode="[" horiz-adv-x="226" 
d="M196 -127h-148v612h148v-60h-77v-492h77v-60z" />
    <glyph glyph-name="backslash" unicode="\" horiz-adv-x="233" 
d="M248 -11h-72l-191 496h73z" />
    <glyph glyph-name="bracketright" unicode="]" horiz-adv-x="226" 
d="M178 -127h-148v60h76v492h-76v60h148v-612z" />
    <glyph glyph-name="asciicircum" unicode="^" horiz-adv-x="398" 
d="M342 222h-68l-75 164l-76 -164h-67l119 242h48z" />
    <glyph glyph-name="underscore" unicode="_" horiz-adv-x="331" 
d="M331 -83h-331v33h331v-33z" />
    <glyph glyph-name="grave" unicode="`" horiz-adv-x="160" 
d="M130 506h-55l-94 95h89z" />
    <glyph glyph-name="a" unicode="a" 
d="M251 115v57.001c-9.33301 -6.66699 -23 -11.334 -41 -14.001s-35.333 -5 -52 -7c-40.667 -6.66699 -61 -25.667 -61 -57c0 -15.333 8 -27 24 -35c13.333 -6 28.333 -9 45 -9c20.667 0 39 5 55 15c20 12 30 28.667 30 50zM363 -0.999023
c-14.667 -5.33301 -30.334 -8 -47.001 -8c-34 0 -53.667 13.667 -59 41c-28 -27.333 -67.333 -41 -118 -41c-33.333 0 -60.666 8.33301 -81.999 25c-24 18 -36 43 -36 75c0 38 14 65.333 42 82c18 10 48 18.333 90 25c24 3.33301 48 7 72 11c20.667 6 31 18.333 31 37
c0 30.667 -23.667 46 -71 46c-46.667 0 -72 -18 -76 -54h-75c4 76 56 114 156 114c38 0 69.333 -7.33301 94 -22c28.667 -18 43 -43.667 43 -77v-177c0 -17.333 6 -26 18 -26c6.66699 0 12.667 0.666992 18 2v-53z" />
    <glyph glyph-name="b" unicode="b" horiz-adv-x="405" 
d="M306 171c0 33.333 -8 61.333 -24 84c-18 24.667 -41.667 37 -71 37c-64 0 -96 -40.333 -96 -121c0 -35.333 8.5 -64.333 25.5 -87s40.5 -34 70.5 -34c32 0 56.333 12.667 73 38c14.667 22 22 49.667 22 83zM381 170c0 -50 -12 -91.333 -36 -124
c-26.667 -36.667 -64 -55 -112 -55c-60.667 0 -100 18.667 -118 56h-2v-47h-71v473h75v-175h2c22 36 56 54 102 54c52 0 92.333 -17.667 121 -53c26 -33.333 39 -76.333 39 -129z" />
    <glyph glyph-name="c" unicode="c" 
d="M347 129c-14.667 -92 -67 -138 -157 -138c-52.667 0 -94 17 -124 51c-28.667 32 -43 74 -43 126c0 54 14.667 98.167 44 132.5s71 51.5 125 51.5c42 0 77 -10 105 -30c29.333 -22.667 46 -54 50 -94h-76c-6 42.667 -32 64 -78 64c-62.667 0 -94 -41.333 -94 -124
c0 -32 7 -58.667 21 -80c16 -25.333 39.333 -38 70 -38c46.667 0 73.667 26.333 81 79h76z" />
    <glyph glyph-name="d" unicode="d" horiz-adv-x="405" 
d="M290 172c0 37.333 -8.49902 66.667 -25.499 88s-40.167 32 -69.5 32c-32.667 0 -57.667 -13 -75 -39c-14 -22 -21 -50.333 -21 -85c0 -32.667 7.66699 -59.667 23 -81c17.333 -24.667 41.333 -37 72 -37c31.333 0 55.666 13 72.999 39c15.333 22 23 49.667 23 83z
M363.001 0.000976562h-71.999v46h-1c-18.667 -36.667 -54 -55 -106 -55s-92.333 17.667 -121 53c-26.667 32.667 -40 76 -40 130c0 58 15.333 103.333 46 136c27.333 28 61.666 42 102.999 42c54 0 92 -18 114 -54h1v175h76v-473z" />
    <glyph glyph-name="e" unicode="e" 
d="M346 107c-8 -36.667 -26.167 -65.167 -54.5 -85.5s-61.833 -30.5 -100.5 -30.5c-52.667 0 -94 17 -124 51c-29.333 32 -44 75 -44 129c0 50.667 15.333 93.5 46 128.5s70.667 52.5 120 52.5c48 0 87.667 -17.667 119 -53c29.333 -33.333 44 -74.333 44 -123
c0 -8 -0.333008 -16 -1 -24h-252c0 -29.333 7.33301 -53 22 -71c16.667 -20.667 40 -31 70 -31c42 0 69.667 19 83 57h72zM275 202c-1.33301 24.667 -9.83203 45.833 -25.499 63.5s-35.834 26.5 -60.501 26.5c-25.333 0 -46.333 -8.5 -63 -25.5s-25.667 -38.5 -27 -64.5h176
z" />
    <glyph glyph-name="f" unicode="f" horiz-adv-x="209" 
d="M202 286h-64.001v-286h-76v286h-56v57h56v28c0 68 31.667 102 95 102c24.667 0 42.334 -1.33301 53.001 -4v-59c-13.333 2.66699 -25 4 -35 4c-24.667 0 -37 -12 -37 -36v-35h64v-57z" />
    <glyph glyph-name="g" unicode="g" horiz-adv-x="393" 
d="M281 179c0 32.667 -6.99902 59.001 -20.999 79.001c-16.667 22.667 -40.334 34 -71.001 34s-54 -12.667 -70 -38c-13.333 -21.333 -20 -48.333 -20 -81c0 -30.667 7 -56.334 21 -77.001c16.667 -24 39.667 -36 69 -36c31.333 0 55 12.667 71 38
c14 21.333 21 48.333 21 81zM357.001 18.001c0 -102.667 -56.334 -154 -169.001 -154c-39.333 0 -72.666 7.66699 -99.999 23c-32 19.333 -49.667 47.333 -53 84h76c7.33301 -34 34.666 -51 81.999 -51c58.667 0 88 29.333 88 88v52h-1c-22.667 -40 -57 -60 -103 -60
c-51.333 0 -90.666 17.667 -117.999 53c-24 32 -36 74.333 -36 127c0 48 14.167 88.667 42.5 122s65.833 50 112.5 50c49.333 0 83.333 -18.667 102 -56h1v47h76v-325z" />
    <glyph glyph-name="h" unicode="h" horiz-adv-x="381" 
d="M341 0h-76v215c0 51.333 -22.333 77 -67 77c-24.667 0 -44.667 -8.5 -60 -25.5s-23 -38.5 -23 -64.5v-202h-75v473h75v-175h2c20.667 36 54.667 54 102 54c81.333 0 122 -39 122 -117v-235z" />
    <glyph glyph-name="i" unicode="i" horiz-adv-x="160" 
d="M117 0h-75v343h75v-343zM129 437c0 -14 -4.66699 -25.833 -14 -35.5s-21 -14.5 -35 -14.5s-25.833 4.83301 -35.5 14.5s-14.5 21.5 -14.5 35.5s4.83301 25.667 14.5 35s21.5 14 35.5 14s25.667 -4.66699 35 -14s14 -21 14 -35z" />
    <glyph glyph-name="j" unicode="j" horiz-adv-x="160" 
d="M117 -29c0 -71.333 -32.667 -107 -98 -107c-12.667 0 -24 1 -34 3v59c13.333 -1.33301 22 -2 26 -2c13.333 0 21.833 3.66699 25.5 11s5.5 20.333 5.5 39v369h75v-372zM129 437c0 -14 -4.66699 -25.833 -14 -35.5s-21 -14.5 -35 -14.5s-25.833 4.83301 -35.5 14.5
s-14.5 21.5 -14.5 35.5s4.83301 25.667 14.5 35s21.5 14 35.5 14s25.667 -4.66699 35 -14s14 -21 14 -35z" />
    <glyph glyph-name="k" unicode="k" horiz-adv-x="356" 
d="M359 0h-92l-105 166l-45 -43v-123h-75v473h75v-269l137 139h93l-132 -126z" />
    <glyph glyph-name="l" unicode="l" horiz-adv-x="160" 
d="M117 0h-75v473h75v-473z" />
    <glyph glyph-name="m" unicode="m" horiz-adv-x="577" 
d="M537 0h-75.998v200c0 32.667 -3 55 -9 67c-8.66699 16.667 -26.334 25 -53.001 25c-48.667 0 -73 -30.333 -73 -91v-201h-75v220c0 48 -20.333 72 -61 72c-20.667 0 -38.334 -7.83301 -53.001 -23.5s-22 -37.167 -22 -64.5v-204h-75v343h71v-48h2c26 38 61.333 57 106 57
c49.333 0 81.333 -19 96 -57c27.333 38 63 57 107 57c76.667 0 115 -38.333 115 -115v-237z" />
    <glyph glyph-name="n" unicode="n" horiz-adv-x="381" 
d="M341 0h-75.999v215c0 51.333 -22.333 77 -67 77c-24.667 0 -44.667 -8.5 -60 -25.5s-23 -38.5 -23 -64.5v-202h-75v343h71v-51l2 -1c23.333 40.667 58.666 61 105.999 61c81.333 0 122 -39 122 -117v-235z" />
    <glyph glyph-name="o" unicode="o" horiz-adv-x="393" 
d="M294 172c0 32.667 -7.66699 60 -23 82c-17.333 25.333 -42 38 -74 38s-56.667 -12.667 -74 -38c-16 -22 -24 -49.333 -24 -82c0 -33.333 8 -61 24 -83c17.333 -26 42 -39 74 -39s56.667 13 74 39c15.333 22 23 49.667 23 83zM370 172c0 -54 -15.333 -97.667 -46 -131
s-73 -50 -127 -50s-96.333 16.667 -127 50s-46 77 -46 131c0 53.333 15.333 96.666 46 129.999s73 50 127 50s96.333 -16.667 127 -50s46 -76.666 46 -129.999z" />
    <glyph glyph-name="p" unicode="p" horiz-adv-x="405" 
d="M306 171c0 33.333 -8 61.333 -24 84c-18 24.667 -41.667 37 -71 37c-64 0 -96 -40.333 -96 -121c0 -35.333 8.5 -64.333 25.5 -87s40.5 -34 70.5 -34c32 0 56.333 12.667 73 38c14.667 22 22 49.667 22 83zM381 170c0 -50 -12 -91.333 -36 -124
c-26.667 -36.667 -64 -55 -112 -55c-53.333 0 -91.333 17.667 -114 53h-2v-171h-75v470h71v-47h2c20 37.333 55.333 56 106 56c52 0 92.333 -17.667 121 -53c26 -33.333 39 -76.333 39 -129z" />
    <glyph glyph-name="q" unicode="q" horiz-adv-x="405" 
d="M290 171c0 80.667 -32 121 -96 121c-30 0 -53.333 -11.833 -70 -35.5s-25 -52.167 -25 -85.5s7.33301 -61 22 -83c16.667 -25.333 41 -38 73 -38c64 0 96 40.333 96 121zM363 -127h-76v171h-1c-22.667 -35.333 -61 -53 -115 -53c-48 0 -85.333 18.333 -112 55
c-24 32.667 -36 74 -36 124c0 52.667 13.833 96.167 41.5 130.5s67.5 51.5 119.5 51.5c50.667 0 86 -18.667 106 -56h1v47h72v-470z" />
    <glyph glyph-name="r" unicode="r" horiz-adv-x="233" 
d="M40 0l-0.000976562 343.001h71v-67h1c4.66699 19.333 17 36.833 37 52.5s41 23.5 63 23.5c10 0 19.667 -0.666992 29 -2v-73c-49.333 2 -82.666 -7.33301 -99.999 -28s-26 -49.334 -26 -86.001v-163h-75z" />
    <glyph glyph-name="s" unicode="s" horiz-adv-x="344" 
d="M326 102c0 -37.333 -16.667 -65.998 -50 -85.998c-28 -16.667 -62.333 -25 -103 -25c-44.667 0 -80.334 9.66699 -107.001 29c-29.333 20.667 -44.333 50.667 -45 90h76c3.33301 -40 29 -60 77 -60c52.667 0 78.334 15 77.001 45c-1.33301 21.333 -21 36.666 -59 45.999
c-65.333 15.333 -100.666 24.333 -105.999 27c-38 17.333 -57 46 -57 86c0 34 16 59.667 48 77c25.333 14 57 21 95 21c87.333 0 135 -35 143 -105h-79c-6 30 -29.333 45 -70 45c-41.333 0 -62 -11.667 -62 -35c0 -16 11.667 -28.333 35 -37
c5.33301 -2 30.666 -8 75.999 -18c34.667 -8 60 -17.667 76 -29c23.333 -16.667 35 -40.334 35 -71.001z" />
    <glyph glyph-name="t" unicode="t" horiz-adv-x="221" 
d="M206 1c-21.333 -2.66699 -37.668 -4.00098 -49.001 -4.00098c-37.333 0 -63 7.33301 -77 22c-12 12.667 -18 34.334 -18 65.001v202h-57v57h57v103h76v-103h68v-57h-68v-183c0 -17.333 2 -29 6 -35c4.66699 -8 14.667 -12 30 -12c14.667 0 25.334 1 32.001 3v-58z" />
    <glyph glyph-name="u" unicode="u" horiz-adv-x="381" 
d="M341 0l-74.001 -0.000976562v48h-2c-8.66699 -17.333 -22.167 -31.166 -40.5 -41.499s-37.166 -15.5 -56.499 -15.5c-85.333 0 -128 44.667 -128 134v218h75v-210c0 -55.333 22 -83 66 -83c56 0 84 31.333 84 94v199h76v-343z" />
    <glyph glyph-name="v" unicode="v" horiz-adv-x="344" 
d="M215 0h-84l-125 343h82l87 -263h1l84 263h78z" />
    <glyph glyph-name="w" unicode="w" horiz-adv-x="516" 
d="M400 0h-78l-63 255h-2l-63 -255h-79l-106 343h80l67 -256h1l64 256h77l61 -256h2l69 256h77z" />
    <glyph glyph-name="x" unicode="x" horiz-adv-x="356" 
d="M353 0h-90l-87 127l-85 -127h-88l129 180l-119 163h92l71 -106l75 106h88l-117 -159z" />
    <glyph glyph-name="y" unicode="y" horiz-adv-x="344" 
d="M208 -19c-14.667 -40.667 -27.668 -68 -39.001 -82c-19.333 -23.333 -46.666 -35 -81.999 -35c-19.333 0 -37 1.33301 -53 4v64c20 -3.33301 32 -5 36 -5c16 0 28 4.33301 36 13c5.33301 6 11 17.667 17 35l9 26l-130 342h83l89 -256h2l87 256h78z" />
    <glyph glyph-name="z" unicode="z" horiz-adv-x="331" 
d="M316 0h-301v53l189 230h-176v60h278v-53l-196 -230h206v-60z" />
    <glyph glyph-name="braceleft" unicode="{" horiz-adv-x="236" 
d="M222 -127h-60.001c-18 0 -35.667 7.33301 -53 22c-21.333 18 -32 41 -32 69v131c0 16.667 -6.16699 29.834 -18.5 39.501s-27.166 14.5 -44.499 14.5v60c16 0 30.5 4.16699 43.5 12.5s19.5 20.166 19.5 35.499v137c0 28 10.667 51 32 69c17.333 14.667 35 22 53 22h60
v-60h-37c-24.667 0 -37 -15.333 -37 -46v-130c0 -20 -6.5 -36 -19.5 -48s-29.5 -19 -49.5 -21v-2c46 -4 69 -28.333 69 -73v-126c0 -30.667 12.333 -46 37 -46h37v-60z" />
    <glyph glyph-name="bar" unicode="|" horiz-adv-x="176" 
d="M121 -142h-67v663h67v-663z" />
    <glyph glyph-name="braceright" unicode="}" horiz-adv-x="236" 
d="M222 149c-16 0 -30.333 -4.16699 -43 -12.5s-19 -20.166 -19 -35.499v-137c0 -28 -10.667 -51 -32 -69c-17.333 -14.667 -35 -22 -53 -22h-61v60h37c24.667 0 37 15.333 37 46v130c0 20 6.5 36 19.5 48s29.5 19 49.5 21v2c-46 4.66699 -69 29 -69 73v126
c0 30.667 -12.333 46 -37 46h-37v60h61c18 0 35.667 -7.33301 53 -22c21.333 -18 32 -41 32 -69v-131c0 -16.667 6 -29.834 18 -39.501s26.667 -14.5 44 -14.5v-60z" />
    <glyph glyph-name="asciitilde" unicode="~" horiz-adv-x="398" 
d="M352 168c-28 -38 -55.667 -57 -83 -57c-16.667 0 -39.334 7.5 -68.001 22.5s-54 22.5 -76 22.5c-22.667 0 -41 -15 -55 -45l-24 56c19.333 38 47 57 83 57c16.667 0 41 -7 73 -21c36.667 -16 59.334 -24 68.001 -24c16 0 35.333 15 58 45z" />
    <glyph glyph-name="nonbreakingspace" unicode="&#xa0;" horiz-adv-x="197" 
 />
    <glyph glyph-name="exclamdown" unicode="&#xa1;" horiz-adv-x="184" 
d="M134 -121h-83v135l22 206h39l22 -206v-135zM142 310c0 -14 -4.83301 -25.833 -14.5 -35.5s-21.5 -14.5 -35.5 -14.5s-25.833 4.83301 -35.5 14.5s-14.5 21.5 -14.5 35.5s4.83301 25.833 14.5 35.5s21.5 14.5 35.5 14.5s25.833 -4.83301 35.5 -14.5s14.5 -21.5 14.5 -35.5
z" />
    <glyph glyph-name="cent" unicode="&#xa2;" 
d="M178 50v242c-14.667 -1.33301 -27 -6 -37 -14s-18 -17.833 -24 -29.5s-10.333 -24.5 -13 -38.5s-4 -28 -4 -42c0 -13.333 1.5 -26.5 4.5 -39.5s7.5 -25 13.5 -36s14 -20.333 24 -28s22 -12.5 36 -14.5zM350 129c-7.33301 -42 -22.835 -75.498 -46.502 -100.498
s-56.167 -37.5 -97.5 -37.5v-60h-28v60c-24 0 -45.5 4.66699 -64.5 14s-35 22.166 -48 38.499s-23 35.166 -30 56.499s-10.5 44 -10.5 68c0 28 3.66699 53.333 11 76s17.833 42 31.5 58s29.834 28.333 48.501 37s39.334 13 62.001 13v60h28v-60c37.333 0 69.333 -11 96 -33
s41.667 -52.333 45 -91h-75c-2.66699 19.333 -10 34.833 -22 46.5s-26.667 17.5 -44 17.5v-242c20.667 3.33301 36.5 11.833 47.5 25.5s17.833 31.5 20.5 53.5h76z" />
    <glyph glyph-name="sterling" unicode="&#xa3;" 
d="M367 26c-16.667 -14.667 -33.1699 -24.499 -49.5029 -29.499s-35.166 -7.5 -56.499 -7.5c-11.333 0 -22.5 1.16699 -33.5 3.5s-22 5 -33 8s-22.167 5.66699 -33.5 8s-23 3.5 -35 3.5c-11.333 0 -23.166 -2 -35.499 -6s-22.833 -9.66699 -31.5 -17l-35 54
c8 5.33301 16.167 12 24.5 20s16 16.833 23 26.5s12.667 19.667 17 30s6.5 20.833 6.5 31.5c0 21.333 -4.33301 41.333 -13 60h-61v44h41c-10 12 -17.667 26.5 -23 43.5s-8 33.5 -8 49.5c0 20.667 4.5 39.5 13.5 56.5s20.667 31.5 35 43.5s30.833 21.167 49.5 27.5
s37.667 9.5 57 9.5c51.333 0 91.833 -13.667 121.5 -41s44.834 -68.333 45.501 -123h-76c-1.33301 28.667 -8.5 52.667 -21.5 72s-35.5 29 -67.5 29c-20.667 0 -38.167 -6.66699 -52.5 -20s-21.5 -32.666 -21.5 -57.999c0 -15.333 3.33301 -30.833 10 -46.5
s13.667 -29.834 21 -42.501h97v-44h-82c7.33301 -12.667 11 -27.334 11 -44.001c0 -24 -6.66699 -44.833 -20 -62.5s-29 -33.167 -47 -46.5l1 -1l30 12c10 4 20.333 6 31 6c11.333 0 21.166 -1.16699 29.499 -3.5s16.333 -5 24 -8s15.334 -5.66699 23.001 -8
s16.5 -3.5 26.5 -3.5c24 0 45.333 8.33301 64 25z" />
    <glyph glyph-name="currency" unicode="&#xa4;" 
d="M349 233c0 -18.667 -2.66504 -36.4971 -7.99805 -53.4971s-13 -31.5 -23 -43.5l36 -39l-36 -37l-38 39c-11.333 -10.667 -25.5 -18.834 -42.5 -24.501s-34.5 -8.5 -52.5 -8.5c-19.333 0 -37.5 2.66699 -54.5 8s-31.167 13.333 -42.5 24l-38 -38l-37 37l38 40
c-22 25.333 -33 56.666 -33 93.999c0 18.667 2.66699 36.5 8 53.5s13.666 31.167 24.999 42.5l-38 40l38 38l38 -37c11.333 9.33301 25.666 16.666 42.999 21.999s35.333 8 54 8c17.333 0 34.333 -2.5 51 -7.5s29.667 -12.167 39 -21.5l39 37l40 -40l-37 -38
c10 -11.333 17.667 -25.5 23 -42.5s8 -34.5 8 -52.5zM278.002 233.003c0 12.667 -2.33301 25 -7 37s-11 22.5 -19 31.5s-17.667 16.167 -29 21.5s-23.666 8 -36.999 8c-28 0 -51 -9.66699 -69 -29s-27 -43 -27 -71c0 -27.333 9 -50.5 27 -69.5s40.667 -28.5 68 -28.5
s49.666 9.83301 66.999 29.5s26 43.167 26 70.5z" />
    <glyph glyph-name="yen" unicode="&#xa5;" 
d="M147 109h-91v43h91v46h-91v43h65l-124 232h84l103 -212l106 212h82l-125 -232h66v-43h-91v-46h91v-43h-91v-109h-75v109z" />
    <glyph glyph-name="brokenbar" unicode="&#xa6;" horiz-adv-x="147" 
d="M107 -59h-67v166h67v-166zM107 272h-67v166h67v-166z" />
    <glyph glyph-name="section" unicode="&#xa7;" 
d="M283 151c0 9.33301 -3.16699 18.167 -9.5 26.5s-18.5 17.833 -36.5 28.5l-110 63c-12 -3.33301 -21.833 -9.83301 -29.5 -19.5s-11.5 -21.167 -11.5 -34.5c0 -2 0.333008 -5 1 -9s2.16699 -8.33301 4.5 -13s6 -9.5 11 -14.5s11.833 -9.83301 20.5 -14.5l120 -68
c12 5.33301 21.667 12.333 29 21s11 20 11 34zM355 158.001c0 -21.333 -6.82812 -40.833 -20.4951 -58.5s-30.5 -30.167 -50.5 -37.5c12 -10 21.167 -21.5 27.5 -34.5s9.5 -29.833 9.5 -50.5c0 -18.667 -3.66699 -35 -11 -49s-17 -25.833 -29 -35.5s-26 -16.834 -42 -21.501
s-32.333 -7 -49 -7c-40.667 0 -74.5 11.667 -101.5 35s-41.167 57 -42.5 101h72c1.33301 -23.333 7.66602 -41.833 18.999 -55.5s28.333 -20.5 51 -20.5c16.667 0 30.334 4 41.001 12s16 21.667 16 41c0 12 -3.33301 22.833 -10 32.5s-15.334 18.5 -26.001 26.5
s-22.834 15.5 -36.501 22.5l-41.5 21.5c-14 7.33301 -28 15.166 -42 23.499s-26.5 17.5 -37.5 27.5s-19.833 21.167 -26.5 33.5s-10 26.5 -10 42.5c0 24.667 6.33301 45 19 61s30 28.667 52 38c-9.33301 10 -16.333 20.167 -21 30.5s-7 22.5 -7 36.5
c0 18 3.83301 33.833 11.5 47.5s17.667 25.334 30 35.001s26.166 17 41.499 22s31 7.5 47 7.5c38 0 69.667 -11 95 -33s38.333 -53 39 -93h-72c-0.666992 18.667 -6.5 34.334 -17.5 47.001s-25.833 19 -44.5 19c-14 0 -26.667 -4.5 -38 -13.5s-17 -21.167 -17 -36.5
c0 -10.667 3.16699 -20.167 9.5 -28.5s14.666 -16 24.999 -23s22 -13.833 35 -20.5l40.5 -20l41 -22.5c13.333 -7.66699 25.166 -16.5 35.499 -26.5s18.833 -21.167 25.5 -33.5s10 -26.5 10 -42.5z" />
    <glyph glyph-name="dieresis" unicode="&#xa8;" horiz-adv-x="160" 
d="M51 437c0 -13.333 -4.5 -24.666 -13.5 -33.999s-20.167 -14 -33.5 -14s-24.666 4.66699 -33.999 14s-14 20.666 -14 33.999s4.66699 24.5 14 33.5s20.666 13.5 33.999 13.5s24.5 -4.5 33.5 -13.5s13.5 -20.167 13.5 -33.5zM204 437c0 -13.333 -4.5 -24.666 -13.5 -33.999
s-20.167 -14 -33.5 -14s-24.666 4.66699 -33.999 14s-14 20.666 -14 33.999s4.66699 24.5 14 33.5s20.666 13.5 33.999 13.5s24.5 -4.5 33.5 -13.5s13.5 -20.167 13.5 -33.5z" />
    <glyph glyph-name="copyright" unicode="&#xa9;" horiz-adv-x="530" 
d="M485 237c0 -33.333 -5.83105 -63.833 -17.498 -91.5s-27.667 -51.167 -48 -70.5s-43.5 -34.5 -69.5 -45.5s-54 -16.5 -84 -16.5c-32 0 -61.5 5.66699 -88.5 17s-50.333 27 -70 47s-34.834 43.667 -45.501 71s-16 57 -16 89c0 33.333 5.83301 63.833 17.5 91.5
s27.667 51.167 48 70.5s43.666 34.5 69.999 45.5s54.5 16.5 84.5 16.5s58 -5.5 84 -16.5s49.167 -26.167 69.5 -45.5s36.333 -42.833 48 -70.5s17.5 -58.167 17.5 -91.5zM437.002 237c0 27.333 -4.5 52.166 -13.5 74.499s-21 41.833 -36 58.5s-33 29.5 -54 38.5
s-43.5 13.5 -67.5 13.5c-24.667 0 -47.5 -4.5 -68.5 -13.5s-39.167 -21.833 -54.5 -38.5s-27.333 -36.167 -36 -58.5s-13 -47.166 -13 -74.499c0 -25.333 3.83301 -49.166 11.5 -71.499s19 -42 34 -59s33.167 -30.333 54.5 -40s45.333 -14.5 72 -14.5
c24 0 46.5 4.5 67.5 13.5s39 21.667 54 38s27 35.666 36 57.999s13.5 47.5 13.5 75.5zM379.002 193c-5.33301 -28 -17.6699 -50.334 -37.0029 -67.001s-42 -25 -68 -25c-20 0 -37.667 3.5 -53 10.5s-28.666 16.5 -39.999 28.5s-20 26.333 -26 43s-9 34.667 -9 54
c0 18 2.83301 34.833 8.5 50.5s14 29.167 25 40.5s24.167 20.333 39.5 27s33 10 53 10c27.333 0 50.833 -7.66699 70.5 -23s31.834 -37.666 36.501 -66.999h-42c-3.33301 16 -10.833 28.5 -22.5 37.5s-25.834 13.5 -42.501 13.5c-25.333 0 -44.666 -8.5 -57.999 -25.5
s-20 -38.167 -20 -63.5c0 -26.667 7.16699 -49.5 21.5 -68.5s33.833 -28.5 58.5 -28.5c16.667 0 30.834 5 42.501 15s18.5 22.667 20.5 38h42z" />
    <glyph glyph-name="ordfeminine" unicode="&#xaa;" horiz-adv-x="252" 
d="M162 355c-6.66699 -3.33301 -15.168 -6.00195 -25.501 -8.00195s-20.5 -3.66699 -30.5 -5s-18.833 -4.16602 -26.5 -8.49902s-11.5 -11.5 -11.5 -21.5c0 -9.33301 3.66699 -15.333 11 -18s16 -4 26 -4c6.66699 0 13.334 0.5 20.001 1.5s12.667 2.83301 18 5.5
s9.83301 6.33398 13.5 11.001s5.5 10.667 5.5 18v29zM218.999 311.998c0 -5.33301 0.668945 -9.33301 2.00195 -12s4.66602 -3.66699 9.99902 -3h4.5c1.66699 0 3.5 0.333008 5.5 1v-45c-3.33301 -1.33301 -8.33301 -2.66602 -15 -3.99902s-12 -2 -16 -2
c-11.333 0 -20.5 2.33301 -27.5 7s-11.5 13.334 -13.5 26.001c-6.66699 -9.33301 -18 -17.166 -34 -23.499s-30.667 -9.5 -44 -9.5c-20.667 0 -39.167 5.33301 -55.5 16s-24.5 26 -24.5 46c0 12.667 2.66699 23 8 31s12.166 14.167 20.499 18.5s17.833 7.66602 28.5 9.99902
s21.334 4.5 32.001 6.5l44 8.5c12 2.33301 18 7.83301 18 16.5c0 7.33301 -1.33301 13 -4 17s-6 7 -10 9s-8.33301 3.16699 -13 3.5s-9 0.5 -13 0.5c-13.333 0 -24 -1.83301 -32 -5.5s-12.667 -11.167 -14 -22.5h-57c1.33301 14 5.33301 25.5 12 34.5s15 16.167 25 21.5
s21 9.16602 33 11.499s24 3.5 36 3.5c11.333 0 22.666 -1.16699 33.999 -3.5s21.5 -6 30.5 -11s16.167 -11.333 21.5 -19s8 -16.834 8 -27.501v-100z" />
    <glyph glyph-name="guillemotleft" unicode="&#xab;" horiz-adv-x="307" 
d="M136 62l-103 81v74l103 82v-68l-63 -51l63 -50v-68zM267 62l-103 81v74l103 82v-68l-63 -51l63 -50v-68z" />
    <glyph glyph-name="logicalnot" unicode="&#xac;" horiz-adv-x="398" 
d="M366 72h-68v129h-266v68h334v-197z" />
    <glyph glyph-name="uni00AD" unicode="&#xad;" horiz-adv-x="398" 
d="M366 134h-334v68h334v-68z" />
    <glyph glyph-name="registered" unicode="&#xae;" horiz-adv-x="335" 
d="M224 304h-25l-36 58h-21v-58h-22v137h52c33.333 0 50 -13.333 50 -40c0 -12 -3.5 -20.833 -10.5 -26.5s-15.5 -9.16699 -25.5 -10.5zM199 403c0 8.66699 -3.16797 14 -9.50098 16s-13.166 3 -20.499 3h-27v-40h25c9.33301 0 17 1 23 3s9 8 9 18zM264.999 374
c0 27.333 -9.5 50.5 -28.5 69.5s-42.167 28.5 -69.5 28.5s-50.5 -9.5 -69.5 -28.5s-28.5 -42.167 -28.5 -69.5s9.5 -50.5 28.5 -69.5s42.167 -28.5 69.5 -28.5s50.5 9.5 69.5 28.5s28.5 42.167 28.5 69.5zM296.999 374c0 -18 -3.5 -34.833 -10.5 -50.5
s-16.333 -29.5 -28 -41.5s-25.334 -21.333 -41.001 -28s-32.5 -10 -50.5 -10s-34.833 3.33301 -50.5 10s-29.5 16 -41.5 28s-21.333 25.833 -28 41.5s-10 32.5 -10 50.5s3.33301 34.833 10 50.5s16 29.334 28 41.001s25.833 21 41.5 28s32.5 10.5 50.5 10.5
s34.833 -3.5 50.5 -10.5s29.334 -16.333 41.001 -28s21 -25.334 28 -41.001s10.5 -32.5 10.5 -50.5z" />
    <glyph glyph-name="macron" unicode="&#xaf;" horiz-adv-x="160" 
d="M176 410h-191v43h191v-43z" />
    <glyph glyph-name="degree" unicode="&#xb0;" horiz-adv-x="265" 
d="M232 374c0 -28 -9.5 -51.667 -28.5 -71s-42.5 -29 -70.5 -29s-51.667 9.66699 -71 29s-29 43 -29 71s9.66699 51.5 29 70.5s43 28.5 71 28.5s51.5 -9.5 70.5 -28.5s28.5 -42.5 28.5 -70.5zM195 374c0 17.333 -6 32 -18 44s-26.667 18 -44 18s-32.166 -6 -44.499 -18
s-18.5 -26.667 -18.5 -44s6.16699 -32 18.5 -44s27.166 -18 44.499 -18s32 6 44 18s18 26.667 18 44z" />
    <glyph glyph-name="plusminus" unicode="&#xb1;" horiz-adv-x="398" 
d="M366 185h-133v-83h-68v83h-133v68h133v82h68v-82h133v-68zM366 0h-334v68h334v-68z" />
    <glyph glyph-name="two.superior" unicode="&#xb2;" horiz-adv-x="239" 
d="M223 181h-209.002c0.666992 27.333 6.83398 49.833 18.501 67.5s27.5 32.834 47.5 45.501c10 6.66699 20.333 13.167 31 19.5s20.5 13.166 29.5 20.499s16.333 15.166 22 23.499s8.83398 17.833 9.50098 28.5c0 14 -4.83301 24.333 -14.5 31s-21.167 10 -34.5 10
c-17.333 0 -29.5 -6.5 -36.5 -19.5s-10.833 -27.167 -11.5 -42.5h-58c0 34 9.66699 60.5 29 79.5s46 28.5 80 28.5c28 0 52.167 -6.66699 72.5 -20s30.5 -35.333 30.5 -66c0 -22 -6.83301 -40.167 -20.5 -54.5s-29.167 -27.166 -46.5 -38.499l-50 -32
c-16 -10 -26 -21.667 -30 -35h141v-46z" />
    <glyph glyph-name="three.superior" unicode="&#xb3;" horiz-adv-x="239" 
d="M97 353c16.667 -0.666992 31.998 2.16602 45.998 8.49902s21 17.166 21 32.499c0 12 -5 20.5 -15 25.5s-20.333 7.5 -31 7.5c-14.667 0 -26.667 -4.66699 -36 -14s-13.333 -21.333 -12 -36h-53c1.33301 30.667 11 54.334 29 71.001s42.333 25 73 25
c12 0 24 -1.33301 36 -4s22.5 -7 31.5 -13s16.333 -14 22 -24s8.5 -22 8.5 -36c0 -13.333 -3.5 -25.166 -10.5 -35.499s-17.833 -18.166 -32.5 -23.499v-2c17.333 -2.66699 30.833 -10.334 40.5 -23.001s14.5 -28 14.5 -46c0 -29.333 -10.667 -51.833 -32 -67.5
s-47.333 -23.5 -78 -23.5c-36 0 -62.833 9 -80.5 27s-26.834 43.333 -27.501 76h53c-1.33301 -15.333 2.83398 -28.666 12.501 -39.999s23.834 -17 42.501 -17c16 0 29.5 4.16699 40.5 12.5s16.5 20.166 16.5 35.499c0 10.667 -2.33301 19 -7 25s-10.667 10.667 -18 14
s-15.666 5.33301 -24.999 6s-19 1 -29 1v38z" />
    <glyph glyph-name="acute" unicode="&#xb4;" horiz-adv-x="160" 
d="M90 483h89l-94 -95h-55z" />
    <glyph glyph-name="mu" unicode="&#xb5;" horiz-adv-x="381" 
d="M341 0h-73.999v48h-2c-9.33301 -17.333 -22.833 -31.166 -40.5 -41.499s-34.167 -15.5 -49.5 -15.5c-10.667 0 -21.334 1.66699 -32.001 5s-20 9.66602 -28 18.999v-142h-75v470h75v-210c0 -30.667 5.83301 -52.167 17.5 -64.5s27.834 -18.5 48.501 -18.5
c31.333 0 53.166 9 65.499 27s18.5 40.333 18.5 67v199h76v-343z" />
    <glyph glyph-name="paragraph" unicode="&#xb6;" horiz-adv-x="398" 
d="M347 -106h-53v536h-78v-536h-53v334c-43.333 0 -77.833 11.333 -103.5 34s-38.5 51.667 -38.5 87c0 44.667 14.167 76.5 42.5 95.5s65.5 28.5 111.5 28.5h172v-579z" />
    <glyph glyph-name="periodcentered" unicode="&#xb7;" horiz-adv-x="184" 
d="M142 200c0 -13.333 -5 -25 -15 -35s-21.667 -15 -35 -15s-25 5 -35 15s-15 21.667 -15 35s5 24.833 15 34.5s21.667 14.5 35 14.5s25 -4.83301 35 -14.5s15 -21.167 15 -34.5z" />
    <glyph glyph-name="cedilla" unicode="&#xb8;" horiz-adv-x="160" 
d="M154 -87c0 -11.333 -2.33301 -20.8311 -7 -28.498s-10.834 -13.834 -18.501 -18.501s-16.167 -8 -25.5 -10s-19 -3 -29 -3s-21.667 1 -35 3s-24.333 5.66699 -33 11l12 27l21.5 -7.5c7 -2.33301 14.167 -3.5 21.5 -3.5c9.33301 0 18.333 1.66699 27 5
s13 10.666 13 21.999c0 8.66699 -3.16699 15.167 -9.5 19.5s-13.166 6.5 -20.499 6.5c-10 0 -18.667 -2.33301 -26 -7l-15 13l44 58h32l-30 -38v-2c3.33301 1.33301 6.5 2 9.5 2h12.5c13.333 0 26 -3.83301 38 -11.5s18 -20.167 18 -37.5z" />
    <glyph glyph-name="one.superior" unicode="&#xb9;" horiz-adv-x="239" 
d="M24 421c22 0 41.667 3.5 59 10.5s28 18.833 32 35.5h47v-286h-58v202h-80v38z" />
    <glyph glyph-name="ordmasculine" unicode="&#xba;" horiz-adv-x="252" 
d="M188 360c0 16.667 -5 32.5 -15 47.5s-25 22.5 -45 22.5c-20.667 0 -35.834 -7.5 -45.501 -22.5s-14.5 -30.833 -14.5 -47.5s4.83301 -32.5 14.5 -47.5s24.834 -22.5 45.501 -22.5s35.5 7.5 44.5 22.5s14.167 30.833 15.5 47.5zM246 360c0 -34 -10 -61.333 -30 -82
s-49.333 -31 -88 -31s-68 10.333 -88 31s-30 48 -30 82s10 61.333 30 82s49.333 31 88 31s68 -10.333 88 -31s30 -48 30 -82z" />
    <glyph glyph-name="guillemotright" unicode="&#xbb;" horiz-adv-x="307" 
d="M143 143l-103 -81v68l63 50l-63 51v68l103 -82v-74zM274 143l-103 -81v68l63 50l-63 51v68l103 -82v-74z" />
    <glyph glyph-name="onequarter" unicode="&#xbc;" horiz-adv-x="579" 
d="M162 181h-58v202h-80v38c22 0 41.667 3.5 59 10.5s28 18.833 32 35.5h47v-286zM183 -16h-53l278 496h52zM547 67h-38v-65h-53v65h-126v49l128 167h51v-174h38v-42zM456 109c0 19.333 -0.166992 37.333 -0.5 54s-0.5 34.667 -0.5 54c-14.667 -18.667 -28 -36.5 -40 -53.5
l-40 -54.5h81z" />
    <glyph glyph-name="onehalf" unicode="&#xbd;" horiz-adv-x="579" 
d="M162 181h-58v202h-80v38c22 0 41.667 3.5 59 10.5s28 18.833 32 35.5h47v-286zM561 0l-207.996 -0.000976562c0 16.667 2.16699 31.167 6.5 43.5s10.166 23.333 17.499 33s15.666 18.167 24.999 25.5s19 14 29 20l29 17.5c9.33301 5.66699 17.666 11.5 24.999 17.5
s13.333 12.833 18 20.5s7 16.834 7 27.501c0 14 -4.66699 24.833 -14 32.5s-20.666 11.5 -33.999 11.5c-9.33301 0 -17 -2 -23 -6s-10.833 -9 -14.5 -15s-6.33398 -12.833 -8.00098 -20.5s-2.5 -15.5 -2.5 -23.5h-58c0 34.667 9.33301 62 28 82s45.667 30 81 30
c28.667 0 53 -7.33301 73 -22s30 -37.334 30 -68.001c0 -22 -6.83301 -40.167 -20.5 -54.5s-29.5 -27.166 -47.5 -38.499l-49.5 -32c-15.667 -10 -25.834 -21.667 -30.501 -35h141v-46zM183.004 -16.001h-53l278 496h52z" />
    <glyph glyph-name="threequarters" unicode="&#xbe;" horiz-adv-x="579" 
d="M235 266c0 -29.333 -10.6689 -51.835 -32.002 -67.502s-47.333 -23.5 -78 -23.5c-36 0 -62.833 9 -80.5 27s-26.834 43.333 -27.501 76h53c-1.33301 -15.333 2.83398 -28.666 12.501 -39.999s23.834 -17 42.501 -17c16 0 29.5 4.16699 40.5 12.5s16.5 20.166 16.5 35.499
c0 10 -2.33301 18.167 -7 24.5s-10.667 11 -18 14s-15.666 5 -24.999 6s-19 1.16699 -29 0.5v39c16.667 -1.33301 32 1.16699 46 7.5s21 17.5 21 33.5c0 12 -5 20.5 -15 25.5s-20.333 7.5 -31 7.5c-14.667 0 -26.667 -4.66699 -36 -14s-13.333 -21.333 -12 -36h-53
c1.33301 30.667 11 54.334 29 71.001s42.333 25 73 25c12 0 24 -1.33301 36 -4s22.5 -7 31.5 -13s16.333 -14 22 -24s8.5 -22 8.5 -36c0 -13.333 -3.5 -25.166 -10.5 -35.499s-17.833 -18.166 -32.5 -23.499v-2c17.333 -2.66699 30.833 -10.334 40.5 -23.001
s14.5 -28 14.5 -46zM182.998 -16.002h-53l278 496h52zM546.998 66.998h-38v-65h-53v65h-126v49l128 167h51v-174h38v-42zM455.998 108.998c0 19.333 -0.166992 37.333 -0.5 54s-0.5 34.667 -0.5 54c-14.667 -18.667 -28 -36.5 -40 -53.5l-40 -54.5h81z" />
    <glyph glyph-name="questiondown" unicode="&#xbf;" 
d="M336 26c0 -23.333 -3.66602 -44.8291 -10.999 -64.4961s-18 -36.5 -32 -50.5s-30.833 -24.833 -50.5 -32.5s-41.5 -11.5 -65.5 -11.5c-20 0 -38.833 3 -56.5 9s-33 14.667 -46 26s-23.333 25 -31 41s-11.5 34.333 -11.5 55c0 15.333 1.66699 28.666 5 39.999
s7.83301 21.166 13.5 29.499s12 15.666 19 21.999s14.167 12.5 21.5 18.5c8.66699 7.33301 16.5 14.333 23.5 21s13 14 18 22s9 17.5 12 28.5s4.5 24.5 4.5 40.5h72c0 -19.333 -1 -35.833 -3 -49.5s-5.16699 -25.5 -9.5 -35.5s-9.83301 -18.833 -16.5 -26.5
s-14.334 -15.167 -23.001 -22.5l-20.5 -17.5c-6.33301 -5.66699 -12 -11.667 -17 -18s-9 -13.5 -12 -21.5s-4.5 -17.333 -4.5 -28c0 -12.667 2.33301 -23.5 7 -32.5s10.167 -16.333 16.5 -22s13.333 -9.83398 21 -12.501s14.5 -4 20.5 -4c28 0 48.5 9 61.5 27
s19.5 41 19.5 69h75zM233.001 307.004c0 -14 -4.83301 -25.833 -14.5 -35.5s-21.5 -14.5 -35.5 -14.5s-25.833 4.83301 -35.5 14.5s-14.5 21.5 -14.5 35.5s4.83301 25.833 14.5 35.5s21.5 14.5 35.5 14.5s25.833 -4.83301 35.5 -14.5s14.5 -21.5 14.5 -35.5z" />
    <glyph glyph-name="Agrave" unicode="&#xc0;" horiz-adv-x="442" 
d="M292 188l-71 204h-2l-71 -204h144zM448 0h-89l-45 125h-189l-44 -125h-86l182 473h88zM289 522h-55l-94 95h89z" />
    <glyph glyph-name="Aacute" unicode="&#xc1;" horiz-adv-x="442" 
d="M292 188l-71 204h-2l-71 -204h144zM448 0h-89l-45 125h-189l-44 -125h-86l182 473h88zM227 617h89l-94 -95h-55z" />
    <glyph glyph-name="Acircumflex" unicode="&#xc2;" horiz-adv-x="442" 
d="M292 188l-71 204h-2l-71 -204h144zM448 0h-89l-45 125h-189l-44 -125h-86l182 473h88zM329 522h-61l-47 60l-47 -60h-61l71 95h74z" />
    <glyph glyph-name="Atilde" unicode="&#xc3;" horiz-adv-x="442" 
d="M292 188l-71 204h-2l-71 -204h144zM448 0h-89l-45 125h-189l-44 -125h-86l182 473h88zM338 607c-1.33301 -10.667 -3.83496 -21.832 -7.50195 -33.499s-8.5 -20.834 -14.5 -27.501c-12 -15.333 -29.333 -23 -52 -23c-7.33301 0 -15.166 1.33301 -23.499 4
s-16.833 5.66699 -25.5 9s-16.834 6.16602 -24.501 8.49902s-14.5 3.5 -20.5 3.5c-8 0 -14.667 -3 -20 -9s-8 -12.333 -8 -19h-38c0 8.66699 1.66699 17.834 5 27.501s8 18.667 14 27s13.333 15.166 22 20.499s18 8 28 8c10.667 0 20.334 -1.16699 29.001 -3.5
s17 -5.16602 25 -8.49902c7.33301 -3.33301 14.333 -6.33301 21 -9s13.334 -4 20.001 -4c9.33301 0 16.5 2.66699 21.5 8s8.83301 12.333 11.5 21h37z" />
    <glyph glyph-name="Adieresis" unicode="&#xc4;" horiz-adv-x="442" 
d="M292 188l-71 204h-2l-71 -204h144zM448 0h-89l-45 125h-189l-44 -125h-86l182 473h88zM192 559c0 -13.333 -4.5 -24.666 -13.5 -33.999s-20.167 -14 -33.5 -14s-24.666 4.66699 -33.999 14s-14 20.666 -14 33.999s4.66699 24.5 14 33.5s20.666 13.5 33.999 13.5
s24.5 -4.5 33.5 -13.5s13.5 -20.167 13.5 -33.5zM345 559c0 -13.333 -4.5 -24.666 -13.5 -33.999s-20.167 -14 -33.5 -14s-24.666 4.66699 -33.999 14s-14 20.666 -14 33.999s4.66699 24.5 14 33.5s20.666 13.5 33.999 13.5s24.5 -4.5 33.5 -13.5s13.5 -20.167 13.5 -33.5z
" />
    <glyph glyph-name="Aring" unicode="&#xc5;" horiz-adv-x="442" 
d="M292 188l-71 204h-2l-71 -204h144zM448 0h-89l-45 125h-189l-44 -125h-86l182 473h88zM294 577c0 -20 -7 -36.833 -21 -50.5s-31 -20.5 -51 -20.5s-36.833 6.83301 -50.5 20.5s-20.5 30.5 -20.5 50.5s6.83301 37 20.5 51s30.5 21 50.5 21s37 -7 51 -21s21 -31 21 -51z
M261 577c0 10.667 -3.83301 19.834 -11.5 27.501s-16.834 11.5 -27.501 11.5s-19.667 -3.83301 -27 -11.5s-11 -16.834 -11 -27.501s3.66699 -19.667 11 -27s16.333 -11 27 -11s19.834 3.66699 27.501 11s11.5 16.333 11.5 27z" />
    <glyph glyph-name="AE" unicode="&#xc6;" horiz-adv-x="638" 
d="M303 184v218h-24l-104 -218h128zM617 0h-314v121h-158l-57 -121h-93l236 473h382v-71h-231v-124h216v-68h-216v-138h235v-72z" />
    <glyph glyph-name="Ccedilla" unicode="&#xc7;" horiz-adv-x="479" 
d="M453 180c-3.33301 -56.667 -23.333 -102.667 -60 -138s-83.667 -53 -141 -53c-68.667 0 -124.334 24.333 -167.001 73c-40 46.667 -60 105 -60 175s20 128.333 60 175c42.667 48.667 98.334 73 167.001 73c54.667 0 100.667 -14.5 138 -43.5s58.333 -68.5 63 -118.5h-83
c-16 62.667 -55.333 94 -118 94c-47.333 0 -84 -18.667 -110 -56c-22.667 -32.667 -34 -74 -34 -124s11.333 -91.667 34 -125c26 -37.333 62.667 -56 110 -56c35.333 0 64 12 86 36c19.333 22 31 51.333 35 88h80zM313 -87c0 -11.333 -2.33301 -20.8311 -7 -28.498
s-10.834 -13.834 -18.501 -18.501s-16.167 -8 -25.5 -10s-19 -3 -29 -3s-21.667 1 -35 3s-24.333 5.66699 -33 11l12 27l21.5 -7.5c7 -2.33301 14.167 -3.5 21.5 -3.5c9.33301 0 18.333 1.66699 27 5s13 10.666 13 21.999c0 8.66699 -3.16699 15.167 -9.5 19.5
s-13.166 6.5 -20.499 6.5c-10 0 -18.667 -2.33301 -26 -7l-15 13l44 58h32l-30 -38v-2c3.33301 1.33301 6.5 2 9.5 2h12.5c13.333 0 26 -3.83301 38 -11.5s18 -20.167 18 -37.5z" />
    <glyph glyph-name="Egrave" unicode="&#xc8;" horiz-adv-x="418" 
d="M396 0h-346v473h341v-71h-258v-124h239v-68h-239v-138h263v-72zM284 522h-55l-94 95h89z" />
    <glyph glyph-name="Eacute" unicode="&#xc9;" horiz-adv-x="418" 
d="M396 0h-346v473h341v-71h-258v-124h239v-68h-239v-138h263v-72zM227 617h89l-94 -95h-55z" />
    <glyph glyph-name="Ecircumflex" unicode="&#xca;" horiz-adv-x="418" 
d="M396 0h-346v473h341v-71h-258v-124h239v-68h-239v-138h263v-72zM317 522h-61l-47 60l-47 -60h-61l71 95h74z" />
    <glyph glyph-name="Edieresis" unicode="&#xcb;" horiz-adv-x="418" 
d="M396 0h-346v473h341v-71h-258v-124h239v-68h-239v-138h263v-72zM180 563c0 -13.333 -4.5 -24.666 -13.5 -33.999s-20.167 -14 -33.5 -14s-24.666 4.66699 -33.999 14s-14 20.666 -14 33.999s4.66699 24.5 14 33.5s20.666 13.5 33.999 13.5s24.5 -4.5 33.5 -13.5
s13.5 -20.167 13.5 -33.5zM333 563c0 -13.333 -4.5 -24.666 -13.5 -33.999s-20.167 -14 -33.5 -14s-24.666 4.66699 -33.999 14s-14 20.666 -14 33.999s4.66699 24.5 14 33.5s20.666 13.5 33.999 13.5s24.5 -4.5 33.5 -13.5s13.5 -20.167 13.5 -33.5z" />
    <glyph glyph-name="Igrave" unicode="&#xcc;" horiz-adv-x="184" 
d="M134 0h-83v473h83v-473zM167 522h-55l-94 95h89z" />
    <glyph glyph-name="Iacute" unicode="&#xcd;" horiz-adv-x="184" 
d="M134 0h-83v473h83v-473zM166 617l-94 -95h-55l60 95h89z" />
    <glyph glyph-name="Icircumflex" unicode="&#xce;" horiz-adv-x="184" 
d="M134 0h-83v473h83v-473zM200 522h-61l-47 60l-47 -60h-61l71 95h74z" />
    <glyph glyph-name="Idieresis" unicode="&#xcf;" horiz-adv-x="184" 
d="M134 0h-83v473h83v-473zM63 559c0 -13.333 -4.5 -24.666 -13.5 -33.999s-20.167 -14 -33.5 -14s-24.666 4.66699 -33.999 14s-14 20.666 -14 33.999s4.66699 24.5 14 33.5s20.666 13.5 33.999 13.5s24.5 -4.5 33.5 -13.5s13.5 -20.167 13.5 -33.5zM216 559
c0 -13.333 -4.5 -24.666 -13.5 -33.999s-20.167 -14 -33.5 -14s-24.666 4.66699 -33.999 14s-14 20.666 -14 33.999s4.66699 24.5 14 33.5s20.666 13.5 33.999 13.5s24.5 -4.5 33.5 -13.5s13.5 -20.167 13.5 -33.5z" />
    <glyph glyph-name="Eth" unicode="&#xd0;" horiz-adv-x="479" 
d="M455 237c0 -32.667 -4 -63.332 -12 -91.999s-20.5 -53.834 -37.5 -75.501s-38.667 -38.667 -65 -51s-57.5 -18.5 -93.5 -18.5h-197v210h-44v68h44v195h197c36 0 67.167 -6.16699 93.5 -18.5s48 -29.166 65 -50.499s29.5 -46.333 37.5 -75s12 -59.334 12 -92.001z
M373 237.002c0 23.333 -2.16699 45.334 -6.5 66.001s-12.333 38.667 -24 54s-27.667 27.333 -48 36s-46.833 13 -79.5 13h-82v-128h130v-68h-130v-142h82c32.667 0 59.167 4.33301 79.5 13s36.333 20.667 48 36s19.667 33.166 24 53.499s6.5 42.5 6.5 66.5z" />
    <glyph glyph-name="Ntilde" unicode="&#xd1;" horiz-adv-x="479" 
d="M431 0h-88l-215 348h-2v-348h-79v473h88l216 -348h1v348h79v-473zM356 607c-1.33301 -10.667 -3.83496 -21.832 -7.50195 -33.499s-8.5 -20.834 -14.5 -27.501c-12 -15.333 -29.333 -23 -52 -23c-7.33301 0 -15.166 1.33301 -23.499 4s-16.833 5.66699 -25.5 9
s-16.834 6.16602 -24.501 8.49902s-14.5 3.5 -20.5 3.5c-8 0 -14.667 -3 -20 -9s-8 -12.333 -8 -19h-38c0 8.66699 1.66699 17.834 5 27.501s8 18.667 14 27s13.333 15.166 22 20.499s18 8 28 8c10.667 0 20.334 -1.16699 29.001 -3.5s17 -5.16602 25 -8.49902
c7.33301 -3.33301 14.333 -6.33301 21 -9s13.334 -4 20.001 -4c9.33301 0 16.5 2.66699 21.5 8s8.83301 12.333 11.5 21h37z" />
    <glyph glyph-name="Ograve" unicode="&#xd2;" horiz-adv-x="504" 
d="M479 237c0 -70 -20 -128.333 -60 -175c-42.667 -48.667 -98.334 -73 -167.001 -73s-124.334 24.333 -167.001 73c-40 46.667 -60 105 -60 175s20 128.333 60 175c42.667 48.667 98.334 73 167.001 73s124.334 -24.333 167.001 -73c40 -46.667 60 -105 60 -175zM396 237
c0 50 -11.333 91.333 -34 124c-26 37.333 -62.667 56 -110 56s-84 -18.667 -110 -56c-22.667 -32.667 -34 -74 -34 -124s11.333 -91.667 34 -125c26 -37.333 62.667 -56 110 -56s84 18.667 110 56c22.667 33.333 34 75 34 125zM326 522h-55l-94 95h89z" />
    <glyph glyph-name="Oacute" unicode="&#xd3;" horiz-adv-x="504" 
d="M479 237c0 -70 -20 -128.333 -60 -175c-42.667 -48.667 -98.334 -73 -167.001 -73s-124.334 24.333 -167.001 73c-40 46.667 -60 105 -60 175s20 128.333 60 175c42.667 48.667 98.334 73 167.001 73s124.334 -24.333 167.001 -73c40 -46.667 60 -105 60 -175zM396 237
c0 50 -11.333 91.333 -34 124c-26 37.333 -62.667 56 -110 56s-84 -18.667 -110 -56c-22.667 -32.667 -34 -74 -34 -124s11.333 -91.667 34 -125c26 -37.333 62.667 -56 110 -56s84 18.667 110 56c22.667 33.333 34 75 34 125zM326 617l-94 -95h-55l60 95h89z" />
    <glyph glyph-name="Ocircumflex" unicode="&#xd4;" horiz-adv-x="504" 
d="M479 237c0 -70 -20 -128.333 -60 -175c-42.667 -48.667 -98.334 -73 -167.001 -73s-124.334 24.333 -167.001 73c-40 46.667 -60 105 -60 175s20 128.333 60 175c42.667 48.667 98.334 73 167.001 73s124.334 -24.333 167.001 -73c40 -46.667 60 -105 60 -175zM396 237
c0 50 -11.333 91.333 -34 124c-26 37.333 -62.667 56 -110 56s-84 -18.667 -110 -56c-22.667 -32.667 -34 -74 -34 -124s11.333 -91.667 34 -125c26 -37.333 62.667 -56 110 -56s84 18.667 110 56c22.667 33.333 34 75 34 125zM360 522h-61l-47 60l-47 -60h-61l71 95h74z
" />
    <glyph glyph-name="Otilde" unicode="&#xd5;" horiz-adv-x="504" 
d="M479 237c0 -70 -20 -128.333 -60 -175c-42.667 -48.667 -98.334 -73 -167.001 -73s-124.334 24.333 -167.001 73c-40 46.667 -60 105 -60 175s20 128.333 60 175c42.667 48.667 98.334 73 167.001 73s124.334 -24.333 167.001 -73c40 -46.667 60 -105 60 -175zM396 237
c0 50 -11.333 91.333 -34 124c-26 37.333 -62.667 56 -110 56s-84 -18.667 -110 -56c-22.667 -32.667 -34 -74 -34 -124s11.333 -91.667 34 -125c26 -37.333 62.667 -56 110 -56s84 18.667 110 56c22.667 33.333 34 75 34 125zM369 595
c-3.33301 -21.333 -10.6699 -39.334 -22.0029 -54.001s-28.666 -22 -51.999 -22c-7.33301 0 -15.166 1.33301 -23.499 4s-16.666 5.5 -24.999 8.5l-24.5 8.5c-8 2.66699 -15 4 -21 4c-8 0 -14.667 -3 -20 -9s-8 -12.333 -8 -19h-38
c1.33301 8.66699 3.66602 17.334 6.99902 26.001s8 16.667 14 24s13 13.333 21 18s17 7 27 7s19.5 -1.33301 28.5 -4s17.333 -5.5 25 -8.5l21.5 -8.5c6.66699 -2.66699 13.334 -4 20.001 -4c9.33301 0 16.5 2.66699 21.5 8s8.83301 12.333 11.5 21h37z" />
    <glyph glyph-name="Odieresis" unicode="&#xd6;" horiz-adv-x="504" 
d="M479 237c0 -70 -20 -128.333 -60 -175c-42.667 -48.667 -98.334 -73 -167.001 -73s-124.334 24.333 -167.001 73c-40 46.667 -60 105 -60 175s20 128.333 60 175c42.667 48.667 98.334 73 167.001 73s124.334 -24.333 167.001 -73c40 -46.667 60 -105 60 -175zM396 237
c0 50 -11.333 91.333 -34 124c-26 37.333 -62.667 56 -110 56s-84 -18.667 -110 -56c-22.667 -32.667 -34 -74 -34 -124s11.333 -91.667 34 -125c26 -37.333 62.667 -56 110 -56s84 18.667 110 56c22.667 33.333 34 75 34 125zM223 560
c0 -13.333 -4.5 -24.666 -13.5 -33.999s-20.167 -14 -33.5 -14s-24.666 4.66699 -33.999 14s-14 20.666 -14 33.999s4.66699 24.5 14 33.5s20.666 13.5 33.999 13.5s24.5 -4.5 33.5 -13.5s13.5 -20.167 13.5 -33.5zM376 560c0 -13.333 -4.5 -24.666 -13.5 -33.999
s-20.167 -14 -33.5 -14s-24.666 4.66699 -33.999 14s-14 20.666 -14 33.999s4.66699 24.5 14 33.5s20.666 13.5 33.999 13.5s24.5 -4.5 33.5 -13.5s13.5 -20.167 13.5 -33.5z" />
    <glyph glyph-name="multiply" unicode="&#xd7;" horiz-adv-x="398" 
d="M361 52l-57 -37l-106 106l-105 -106l-57 37l116 116l-116 115l57 37l105 -105l106 105l57 -37l-116 -115z" />
    <glyph glyph-name="Oslash" unicode="&#xd8;" horiz-adv-x="504" 
d="M350 375c-11.333 12.667 -25 22.833 -41 30.5s-35 11.5 -57 11.5c-25.333 0 -47 -5.16699 -65 -15.5s-32.833 -23.833 -44.5 -40.5s-20.334 -35.834 -26.001 -57.501s-8.5 -43.834 -8.5 -66.501c0 -19.333 1.83301 -38.166 5.5 -56.499s9.83398 -35.166 18.501 -50.499z
M396 236.999c0 18.667 -1.83398 37.166 -5.50098 55.499s-10.167 35.166 -19.5 50.499l-217 -245c12 -13.333 26 -23.666 42 -30.999s34.667 -11 56 -11c25.333 0 47 5.16699 65 15.5s32.833 24 44.5 41s20.334 36.333 26.001 58s8.5 43.834 8.5 66.501zM478.999 236.998
c0 -34 -5.16309 -65.9971 -15.4961 -95.9971s-25.333 -56.333 -45 -79s-43.5 -40.5 -71.5 -53.5s-59.667 -19.5 -95 -19.5c-30 0 -57.5 4.66699 -82.5 14s-46.5 22.666 -64.5 39.999l-51 -56l-27 24l52 59c-36 45.333 -54 101 -54 167c0 34 5.16699 66 15.5 96
s25.166 56.167 44.499 78.5s43.166 40.166 71.499 53.499s60.166 20 95.499 20c30 0 57.5 -4.83301 82.5 -14.5s46.5 -22.834 64.5 -39.501l50 56l28 -24l-52 -59c17.333 -22.667 30.666 -48.167 39.999 -76.5s14 -58.5 14 -90.5z" />
    <glyph glyph-name="Ugrave" unicode="&#xd9;" horiz-adv-x="479" 
d="M434 170c0 -59.333 -17.5 -104.333 -52.5 -135s-82.5 -46 -142.5 -46s-106.667 15 -140 45c-36 32 -54 77.333 -54 136v303h83v-275c0 -43.333 5 -74.333 15 -93c16.667 -30 48.667 -45 96 -45c48 0 80.333 15 97 45c10 18.667 15 49.667 15 93v275h83v-303zM313 522h-55
l-94 95h89z" />
    <glyph glyph-name="Uacute" unicode="&#xda;" horiz-adv-x="479" 
d="M434 170c0 -59.333 -17.5 -104.333 -52.5 -135s-82.5 -46 -142.5 -46s-106.667 15 -140 45c-36 32 -54 77.333 -54 136v303h83v-275c0 -43.333 5 -74.333 15 -93c16.667 -30 48.667 -45 96 -45c48 0 80.333 15 97 45c10 18.667 15 49.667 15 93v275h83v-303zM313 617
l-94 -95h-55l60 95h89z" />
    <glyph glyph-name="Ucircumflex" unicode="&#xdb;" horiz-adv-x="479" 
d="M434 170c0 -59.333 -17.5 -104.333 -52.5 -135s-82.5 -46 -142.5 -46s-106.667 15 -140 45c-36 32 -54 77.333 -54 136v303h83v-275c0 -43.333 5 -74.333 15 -93c16.667 -30 48.667 -45 96 -45c48 0 80.333 15 97 45c10 18.667 15 49.667 15 93v275h83v-303zM347 522h-61
l-47 60l-47 -60h-61l71 95h74z" />
    <glyph glyph-name="Udieresis" unicode="&#xdc;" horiz-adv-x="479" 
d="M434 170c0 -59.333 -17.5 -104.333 -52.5 -135s-82.5 -46 -142.5 -46s-106.667 15 -140 45c-36 32 -54 77.333 -54 136v303h83v-275c0 -43.333 5 -74.333 15 -93c16.667 -30 48.667 -45 96 -45c48 0 80.333 15 97 45c10 18.667 15 49.667 15 93v275h83v-303zM210 559
c0 -13.333 -4.5 -24.666 -13.5 -33.999s-20.167 -14 -33.5 -14s-24.666 4.66699 -33.999 14s-14 20.666 -14 33.999s4.66699 24.5 14 33.5s20.666 13.5 33.999 13.5s24.5 -4.5 33.5 -13.5s13.5 -20.167 13.5 -33.5zM363 559c0 -13.333 -4.5 -24.666 -13.5 -33.999
s-20.167 -14 -33.5 -14s-24.666 4.66699 -33.999 14s-14 20.666 -14 33.999s4.66699 24.5 14 33.5s20.666 13.5 33.999 13.5s24.5 -4.5 33.5 -13.5s13.5 -20.167 13.5 -33.5z" />
    <glyph glyph-name="Yacute" unicode="&#xdd;" horiz-adv-x="430" 
d="M257 0h-83v186l-178 287h96l125 -212l124 212h93l-177 -287v-186zM311 617l-94 -95h-55l60 95h89z" />
    <glyph glyph-name="Thorn" unicode="&#xde;" horiz-adv-x="442" 
d="M420 255c0 -14.667 -2 -30.499 -6 -47.499s-11.833 -32.667 -23.5 -47s-28 -26.333 -49 -36s-48.5 -14.5 -82.5 -14.5h-126v-110h-83v473h83v-71h126c34 0 61.5 -4.83301 82.5 -14.5s37.333 -21.834 49 -36.501s19.5 -30.667 23.5 -48s6 -33.333 6 -48zM337 256.001
c0 15.333 -2.16797 28 -6.50098 38s-10.166 18 -17.499 24s-16 10.167 -26 12.5s-20.333 3.5 -31 3.5h-123v-156h122c9.33301 0 18.833 1.16699 28.5 3.5s18.5 6.5 26.5 12.5s14.5 14 19.5 24s7.5 22.667 7.5 38z" />
    <glyph glyph-name="uni00DF" unicode="&#xdf;" horiz-adv-x="391" 
d="M367 149c0 -25.333 -4.00195 -47.4961 -12.002 -66.4961s-19 -34.833 -33 -47.5s-30.667 -22.334 -50 -29.001s-40.333 -10.334 -63 -11.001c-5.33301 0 -11.333 0.166992 -18 0.5s-17.667 1.16602 -33 2.49902v67c17.333 -4 28.166 -6.33301 32.499 -7s7.5 -1 9.5 -1h7
c10.667 0 20.834 1.5 30.501 4.5s18.334 7.83301 26.001 14.5s13.834 15.5 18.501 26.5s7 24.167 7 39.5c0 18.667 -3.16699 33.834 -9.5 45.501s-15.333 20.667 -27 27s-25.5 10.5 -41.5 12.5s-33.667 3 -53 3v61c14 0 27.5 1 40.5 3s24.5 5.66699 34.5 11
s18.167 12.333 24.5 21s9.5 19.667 9.5 33c0 18.667 -7.66699 34 -23 46s-32 18 -50 18c-50.667 0 -76 -26 -76 -78v-345h-79v349c0 22.667 4 42.5 12 59.5s18.833 31.167 32.5 42.5s29.834 19.666 48.501 24.999s39 8 61 8c19.333 0 38.166 -2.83301 56.499 -8.5
s34.5 -13.667 48.5 -24s25.333 -23.166 34 -38.499s13 -33 13 -53c0 -18.667 -3.83301 -35.834 -11.5 -51.501s-19.167 -28.834 -34.5 -39.501c22.667 -11.333 39.667 -27.833 51 -49.5s17 -45.167 17 -70.5z" />
    <glyph glyph-name="agrave" unicode="&#xe0;" 
d="M251 115v57.001c-9.33301 -6.66699 -23 -11.334 -41 -14.001s-35.333 -5 -52 -7c-40.667 -6.66699 -61 -25.667 -61 -57c0 -15.333 8 -27 24 -35c13.333 -6 28.333 -9 45 -9c20.667 0 39 5 55 15c20 12 30 28.667 30 50zM363 -0.999023
c-14.667 -5.33301 -30.334 -8 -47.001 -8c-34 0 -53.667 13.667 -59 41c-28 -27.333 -67.333 -41 -118 -41c-33.333 0 -60.666 8.33301 -81.999 25c-24 18 -36 43 -36 75c0 38 14 65.333 42 82c18 10 48 18.333 90 25c24 3.33301 48 7 72 11c20.667 6 31 18.333 31 37
c0 30.667 -23.667 46 -71 46c-46.667 0 -72 -18 -76 -54h-75c4 76 56 114 156 114c38 0 69.333 -7.33301 94 -22c28.667 -18 43 -43.667 43 -77v-177c0 -17.333 6 -26 18 -26c6.66699 0 12.667 0.666992 18 2v-53zM243 391.001h-55l-94 95h89z" />
    <glyph glyph-name="aacute" unicode="&#xe1;" 
d="M251 115v57.001c-9.33301 -6.66699 -23 -11.334 -41 -14.001s-35.333 -5 -52 -7c-40.667 -6.66699 -61 -25.667 -61 -57c0 -15.333 8 -27 24 -35c13.333 -6 28.333 -9 45 -9c20.667 0 39 5 55 15c20 12 30 28.667 30 50zM363 -0.999023
c-14.667 -5.33301 -30.334 -8 -47.001 -8c-34 0 -53.667 13.667 -59 41c-28 -27.333 -67.333 -41 -118 -41c-33.333 0 -60.666 8.33301 -81.999 25c-24 18 -36 43 -36 75c0 38 14 65.333 42 82c18 10 48 18.333 90 25c24 3.33301 48 7 72 11c20.667 6 31 18.333 31 37
c0 30.667 -23.667 46 -71 46c-46.667 0 -72 -18 -76 -54h-75c4 76 56 114 156 114c38 0 69.333 -7.33301 94 -22c28.667 -18 43 -43.667 43 -77v-177c0 -17.333 6 -26 18 -26c6.66699 0 12.667 0.666992 18 2v-53zM175 483.001h89l-94 -95h-55z" />
    <glyph glyph-name="acircumflex" unicode="&#xe2;" 
d="M251 115v57.001c-9.33301 -6.66699 -23 -11.334 -41 -14.001s-35.333 -5 -52 -7c-40.667 -6.66699 -61 -25.667 -61 -57c0 -15.333 8 -27 24 -35c13.333 -6 28.333 -9 45 -9c20.667 0 39 5 55 15c20 12 30 28.667 30 50zM363 -0.999023
c-14.667 -5.33301 -30.334 -8 -47.001 -8c-34 0 -53.667 13.667 -59 41c-28 -27.333 -67.333 -41 -118 -41c-33.333 0 -60.666 8.33301 -81.999 25c-24 18 -36 43 -36 75c0 38 14 65.333 42 82c18 10 48 18.333 90 25c24 3.33301 48 7 72 11c20.667 6 31 18.333 31 37
c0 30.667 -23.667 46 -71 46c-46.667 0 -72 -18 -76 -54h-75c4 76 56 114 156 114c38 0 69.333 -7.33301 94 -22c28.667 -18 43 -43.667 43 -77v-177c0 -17.333 6 -26 18 -26c6.66699 0 12.667 0.666992 18 2v-53zM299 388.001h-61l-47 60l-47 -60h-61l71 95h74z" />
    <glyph glyph-name="atilde" unicode="&#xe3;" 
d="M251 115v57.001c-9.33301 -6.66699 -23 -11.334 -41 -14.001s-35.333 -5 -52 -7c-40.667 -6.66699 -61 -25.667 -61 -57c0 -15.333 8 -27 24 -35c13.333 -6 28.333 -9 45 -9c20.667 0 39 5 55 15c20 12 30 28.667 30 50zM363 -0.999023
c-14.667 -5.33301 -30.334 -8 -47.001 -8c-34 0 -53.667 13.667 -59 41c-28 -27.333 -67.333 -41 -118 -41c-33.333 0 -60.666 8.33301 -81.999 25c-24 18 -36 43 -36 75c0 38 14 65.333 42 82c18 10 48 18.333 90 25c24 3.33301 48 7 72 11c20.667 6 31 18.333 31 37
c0 30.667 -23.667 46 -71 46c-46.667 0 -72 -18 -76 -54h-75c4 76 56 114 156 114c38 0 69.333 -7.33301 94 -22c28.667 -18 43 -43.667 43 -77v-177c0 -17.333 6 -26 18 -26c6.66699 0 12.667 0.666992 18 2v-53zM312 473.001
c-1.33301 -10.667 -3.83496 -21.832 -7.50195 -33.499s-8.5 -20.834 -14.5 -27.501c-12 -15.333 -29.333 -23 -52 -23c-7.33301 0 -15.166 1.33301 -23.499 4s-16.833 5.66699 -25.5 9s-16.834 6.16602 -24.501 8.49902s-14.5 3.5 -20.5 3.5c-8 0 -14.667 -3 -20 -9
s-8 -12.333 -8 -19h-38c0 8.66699 1.66699 17.834 5 27.501s8 18.667 14 27s13.333 15.166 22 20.499s18 8 28 8c10.667 0 20.334 -1.16699 29.001 -3.5s17 -5.16602 25 -8.49902c7.33301 -3.33301 14.333 -6.33301 21 -9s13.334 -4 20.001 -4
c9.33301 0 16.5 2.66699 21.5 8s8.83301 12.333 11.5 21h37z" />
    <glyph glyph-name="adieresis" unicode="&#xe4;" 
d="M251 115v57.001c-9.33301 -6.66699 -23 -11.334 -41 -14.001s-35.333 -5 -52 -7c-40.667 -6.66699 -61 -25.667 -61 -57c0 -15.333 8 -27 24 -35c13.333 -6 28.333 -9 45 -9c20.667 0 39 5 55 15c20 12 30 28.667 30 50zM363 -0.999023
c-14.667 -5.33301 -30.334 -8 -47.001 -8c-34 0 -53.667 13.667 -59 41c-28 -27.333 -67.333 -41 -118 -41c-33.333 0 -60.666 8.33301 -81.999 25c-24 18 -36 43 -36 75c0 38 14 65.333 42 82c18 10 48 18.333 90 25c24 3.33301 48 7 72 11c20.667 6 31 18.333 31 37
c0 30.667 -23.667 46 -71 46c-46.667 0 -72 -18 -76 -54h-75c4 76 56 114 156 114c38 0 69.333 -7.33301 94 -22c28.667 -18 43 -43.667 43 -77v-177c0 -17.333 6 -26 18 -26c6.66699 0 12.667 0.666992 18 2v-53zM158 427.001c0 -13.333 -4.5 -24.666 -13.5 -33.999
s-20.167 -14 -33.5 -14s-24.666 4.66699 -33.999 14s-14 20.666 -14 33.999s4.66699 24.5 14 33.5s20.666 13.5 33.999 13.5s24.5 -4.5 33.5 -13.5s13.5 -20.167 13.5 -33.5zM311 427.001c0 -13.333 -4.5 -24.666 -13.5 -33.999s-20.167 -14 -33.5 -14
s-24.666 4.66699 -33.999 14s-14 20.666 -14 33.999s4.66699 24.5 14 33.5s20.666 13.5 33.999 13.5s24.5 -4.5 33.5 -13.5s13.5 -20.167 13.5 -33.5z" />
    <glyph glyph-name="aring" unicode="&#xe5;" 
d="M251 115v57.001c-9.33301 -6.66699 -23 -11.334 -41 -14.001s-35.333 -5 -52 -7c-40.667 -6.66699 -61 -25.667 -61 -57c0 -15.333 8 -27 24 -35c13.333 -6 28.333 -9 45 -9c20.667 0 39 5 55 15c20 12 30 28.667 30 50zM363 -0.999023
c-14.667 -5.33301 -30.334 -8 -47.001 -8c-34 0 -53.667 13.667 -59 41c-28 -27.333 -67.333 -41 -118 -41c-33.333 0 -60.666 8.33301 -81.999 25c-24 18 -36 43 -36 75c0 38 14 65.333 42 82c18 10 48 18.333 90 25c24 3.33301 48 7 72 11c20.667 6 31 18.333 31 37
c0 30.667 -23.667 46 -71 46c-46.667 0 -72 -18 -76 -54h-75c4 76 56 114 156 114c38 0 69.333 -7.33301 94 -22c28.667 -18 43 -43.667 43 -77v-177c0 -17.333 6 -26 18 -26c6.66699 0 12.667 0.666992 18 2v-53zM256 445.001c0 -20 -7 -36.833 -21 -50.5
s-31 -20.5 -51 -20.5s-36.833 6.83301 -50.5 20.5s-20.5 30.5 -20.5 50.5s6.83301 37 20.5 51s30.5 21 50.5 21s37 -7 51 -21s21 -31 21 -51zM223 445.001c0 10.667 -3.83301 19.834 -11.5 27.501s-16.834 11.5 -27.501 11.5s-19.667 -3.83301 -27 -11.5
s-11 -16.834 -11 -27.501s3.66699 -19.667 11 -27s16.333 -11 27 -11s19.834 3.66699 27.501 11s11.5 16.333 11.5 27z" />
    <glyph glyph-name="ae" unicode="&#xe6;" horiz-adv-x="589" 
d="M496 202c0 27.333 -7.33398 49.168 -22.001 65.501s-36.334 24.5 -65.001 24.5c-27.333 0 -48.166 -8.83301 -62.499 -26.5s-22.166 -38.834 -23.499 -63.501h173zM250.999 119.002l0.00195312 50.9971c-8 -7.33301 -20.5 -11.666 -37.5 -12.999
s-34.167 -3.16602 -51.5 -5.49902s-32.5 -7.5 -45.5 -15.5s-19.5 -22 -19.5 -42c0 -8.66699 2.16699 -15.834 6.5 -21.501s9.66602 -10.167 15.999 -13.5s13.666 -5.66602 21.999 -6.99902s16.5 -2 24.5 -2c10.667 0 21 1.5 31 4.5s19 7.33301 27 13
s14.5 12.834 19.5 21.501s7.5 18.667 7.5 30zM569.001 107.999c-9.33301 -36.667 -27.9951 -65.3359 -55.9951 -86.0029s-61 -31 -99 -31c-25.333 0 -49.333 4.66699 -72 14s-40.667 25.666 -54 48.999c-15.333 -22.667 -35.666 -38.834 -60.999 -48.501
s-52.666 -14.5 -81.999 -14.5c-34 0 -63.167 8.33301 -87.5 25s-36.5 41.667 -36.5 75c0 26 5.66699 46 17 60s25.666 24.333 42.999 31s35.833 11.167 55.5 13.5s38.167 4.83301 55.5 7.5s31.666 7 42.999 13s17 16 17 30c0 10 -2.16699 18 -6.5 24
s-9.66602 10.667 -15.999 14s-13.5 5.5 -21.5 6.5s-15.667 1.5 -23 1.5c-21.333 0 -38.833 -4.33301 -52.5 -13s-21.5 -22.334 -23.5 -41.001h-75c1.33301 22 6.66602 40.333 15.999 55s21.166 26.334 35.499 35.001s30.333 14.834 48 18.501s35.834 5.5 54.501 5.5
c21.333 0 42.666 -2.83301 63.999 -8.5s38.666 -18.167 51.999 -37.5c12.667 16.667 28.667 28.5 48 35.5s39.333 10.5 60 10.5c27.333 0 51.166 -4.5 71.499 -13.5s37.166 -21.5 50.499 -37.5s23.166 -35 29.499 -57s9.5 -46 9.5 -72
c0 -3.33301 -0.166992 -6.66602 -0.5 -9.99902s-0.5 -6.66602 -0.5 -9.99902h-249c0 -13.333 1.66699 -26.166 5 -38.499s8.66602 -23.166 15.999 -32.499s16.5 -16.833 27.5 -22.5s24.5 -8.5 40.5 -8.5c20.667 0 37.834 5.16699 51.501 15.5s23.5 24.5 29.5 42.5h76z" />
    <glyph glyph-name="ccedilla" unicode="&#xe7;" 
d="M347 129c-14.667 -92 -67 -138 -157 -138c-52.667 0 -94 17 -124 51c-28.667 32 -43 74 -43 126c0 54 14.667 98.167 44 132.5s71 51.5 125 51.5c42 0 77 -10 105 -30c29.333 -22.667 46 -54 50 -94h-76c-6 42.667 -32 64 -78 64c-62.667 0 -94 -41.333 -94 -124
c0 -32 7 -58.667 21 -80c16 -25.333 39.333 -38 70 -38c46.667 0 73.667 26.333 81 79h76zM258 -87c0 -11.333 -2.33301 -20.8311 -7 -28.498s-10.834 -13.834 -18.501 -18.501s-16.167 -8 -25.5 -10s-19 -3 -29 -3s-21.667 1 -35 3s-24.333 5.66699 -33 11l12 27l21.5 -7.5
c7 -2.33301 14.167 -3.5 21.5 -3.5c9.33301 0 18.333 1.66699 27 5s13 10.666 13 21.999c0 8.66699 -3.16699 15.167 -9.5 19.5s-13.166 6.5 -20.499 6.5c-10 0 -18.667 -2.33301 -26 -7l-15 13l44 58h32l-30 -38v-2c3.33301 1.33301 6.5 2 9.5 2h12.5
c13.333 0 26 -3.83301 38 -11.5s18 -20.167 18 -37.5z" />
    <glyph glyph-name="egrave" unicode="&#xe8;" 
d="M346 107c-8 -36.667 -26.167 -65.167 -54.5 -85.5s-61.833 -30.5 -100.5 -30.5c-52.667 0 -94 17 -124 51c-29.333 32 -44 75 -44 129c0 50.667 15.333 93.5 46 128.5s70.667 52.5 120 52.5c48 0 87.667 -17.667 119 -53c29.333 -33.333 44 -74.333 44 -123
c0 -8 -0.333008 -16 -1 -24h-252c0 -29.333 7.33301 -53 22 -71c16.667 -20.667 40 -31 70 -31c42 0 69.667 19 83 57h72zM275 202c-1.33301 24.667 -9.83203 45.833 -25.499 63.5s-35.834 26.5 -60.501 26.5c-25.333 0 -46.333 -8.5 -63 -25.5s-25.667 -38.5 -27 -64.5h176
zM243.001 390.999h-55l-94 95h89z" />
    <glyph glyph-name="eacute" unicode="&#xe9;" 
d="M346 107c-8 -36.667 -26.167 -65.167 -54.5 -85.5s-61.833 -30.5 -100.5 -30.5c-52.667 0 -94 17 -124 51c-29.333 32 -44 75 -44 129c0 50.667 15.333 93.5 46 128.5s70.667 52.5 120 52.5c48 0 87.667 -17.667 119 -53c29.333 -33.333 44 -74.333 44 -123
c0 -8 -0.333008 -16 -1 -24h-252c0 -29.333 7.33301 -53 22 -71c16.667 -20.667 40 -31 70 -31c42 0 69.667 19 83 57h72zM275 202c-1.33301 24.667 -9.83203 45.833 -25.499 63.5s-35.834 26.5 -60.501 26.5c-25.333 0 -46.333 -8.5 -63 -25.5s-25.667 -38.5 -27 -64.5h176
zM258.001 485.999l-94 -95h-55l60 95h89z" />
    <glyph glyph-name="ecircumflex" unicode="&#xea;" 
d="M346 107c-8 -36.667 -26.167 -65.167 -54.5 -85.5s-61.833 -30.5 -100.5 -30.5c-52.667 0 -94 17 -124 51c-29.333 32 -44 75 -44 129c0 50.667 15.333 93.5 46 128.5s70.667 52.5 120 52.5c48 0 87.667 -17.667 119 -53c29.333 -33.333 44 -74.333 44 -123
c0 -8 -0.333008 -16 -1 -24h-252c0 -29.333 7.33301 -53 22 -71c16.667 -20.667 40 -31 70 -31c42 0 69.667 19 83 57h72zM275 202c-1.33301 24.667 -9.83203 45.833 -25.499 63.5s-35.834 26.5 -60.501 26.5c-25.333 0 -46.333 -8.5 -63 -25.5s-25.667 -38.5 -27 -64.5h176
zM292.001 387.999h-61l-47 60l-47 -60h-61l71 95h74z" />
    <glyph glyph-name="edieresis" unicode="&#xeb;" 
d="M346 107c-8 -36.667 -26.167 -65.167 -54.5 -85.5s-61.833 -30.5 -100.5 -30.5c-52.667 0 -94 17 -124 51c-29.333 32 -44 75 -44 129c0 50.667 15.333 93.5 46 128.5s70.667 52.5 120 52.5c48 0 87.667 -17.667 119 -53c29.333 -33.333 44 -74.333 44 -123
c0 -8 -0.333008 -16 -1 -24h-252c0 -29.333 7.33301 -53 22 -71c16.667 -20.667 40 -31 70 -31c42 0 69.667 19 83 57h72zM275 202c-1.33301 24.667 -9.83203 45.833 -25.499 63.5s-35.834 26.5 -60.501 26.5c-25.333 0 -46.333 -8.5 -63 -25.5s-25.667 -38.5 -27 -64.5h176
zM155.001 426.999c0 -13.333 -4.5 -24.666 -13.5 -33.999s-20.167 -14 -33.5 -14s-24.666 4.66699 -33.999 14s-14 20.666 -14 33.999s4.66699 24.5 14 33.5s20.666 13.5 33.999 13.5s24.5 -4.5 33.5 -13.5s13.5 -20.167 13.5 -33.5zM308.001 426.999
c0 -13.333 -4.5 -24.666 -13.5 -33.999s-20.167 -14 -33.5 -14s-24.666 4.66699 -33.999 14s-14 20.666 -14 33.999s4.66699 24.5 14 33.5s20.666 13.5 33.999 13.5s24.5 -4.5 33.5 -13.5s13.5 -20.167 13.5 -33.5z" />
    <glyph glyph-name="igrave" unicode="&#xec;" horiz-adv-x="160" 
d="M137 391h-55l-94 95h89zM118 0h-75v343h75v-343z" />
    <glyph glyph-name="iacute" unicode="&#xed;" horiz-adv-x="160" 
d="M84 483h89l-94 -95h-55zM118 0h-75v343h75v-343z" />
    <glyph glyph-name="icircumflex" unicode="&#xee;" horiz-adv-x="160" 
d="M188 388h-61l-47 60l-47 -60h-61l71 95h74zM118 0h-75v343h75v-343z" />
    <glyph glyph-name="idieresis" unicode="&#xef;" horiz-adv-x="160" 
d="M51 427c0 -13.333 -4.5 -24.666 -13.5 -33.999s-20.167 -14 -33.5 -14s-24.666 4.66699 -33.999 14s-14 20.666 -14 33.999s4.66699 24.5 14 33.5s20.666 13.5 33.999 13.5s24.5 -4.5 33.5 -13.5s13.5 -20.167 13.5 -33.5zM204 427c0 -13.333 -4.5 -24.666 -13.5 -33.999
s-20.167 -14 -33.5 -14s-24.666 4.66699 -33.999 14s-14 20.666 -14 33.999s4.66699 24.5 14 33.5s20.666 13.5 33.999 13.5s24.5 -4.5 33.5 -13.5s13.5 -20.167 13.5 -33.5zM118 0h-75v343h75v-343z" />
    <glyph glyph-name="eth" unicode="&#xf0;" horiz-adv-x="393" 
d="M289 162c0 14 -1.66992 27.8311 -5.00293 41.498s-8.66602 25.834 -15.999 36.501s-16.833 19.334 -28.5 26.001s-25.5 10 -41.5 10c-17.333 0 -32.166 -3 -44.499 -9s-22.166 -14.333 -29.499 -25s-12.666 -22.834 -15.999 -36.501s-5 -28.167 -5 -43.5
s1.66699 -29.666 5 -42.999s8.66602 -25.166 15.999 -35.499s16.5 -18.5 27.5 -24.5s24.167 -9 39.5 -9s29 3.16699 41 9.5s22.333 14.666 31 24.999s15.167 22.333 19.5 36s6.5 27.5 6.5 41.5zM364.997 204.998c0 -29.333 -3.16699 -57.0029 -9.5 -83.0029
s-16.666 -48.667 -30.999 -68s-32.833 -34.666 -55.5 -45.999s-50.334 -17 -83.001 -17c-25.333 0 -47.666 4.33301 -66.999 13s-35.833 20.834 -49.5 36.501s-24 34.167 -31 55.5s-10.5 45 -10.5 71c0 22 3.33301 43 10 63s16.5 37.833 29.5 53.5s28.5 28.167 46.5 37.5
s38.667 14 62 14c18 0 34.333 -2.16699 49 -6.5s29.667 -12.166 45 -23.499l1 3c-7.33301 17.333 -17.333 32.833 -30 46.5s-26.334 26.5 -41.001 38.5l-71 -34l-34 32l64 31l-29 12c-9.33301 4 -18.333 7.33301 -27 10l50 41c12.667 -4 24.667 -8.83301 36 -14.5
s22.333 -11.834 33 -18.501l70 33l32 -33l-62 -30c33.333 -27.333 58.833 -59.666 76.5 -96.999s26.5 -77.333 26.5 -120z" />
    <glyph glyph-name="ntilde" unicode="&#xf1;" horiz-adv-x="381" 
d="M341 0h-75.999v215c0 51.333 -22.333 77 -67 77c-24.667 0 -44.667 -8.5 -60 -25.5s-23 -38.5 -23 -64.5v-202h-75v343h71v-51l2 -1c23.333 40.667 58.666 61 105.999 61c81.333 0 122 -39 122 -117v-235zM307.001 464
c-3.33301 -21.333 -10.6699 -39.334 -22.0029 -54.001s-28.666 -22 -51.999 -22c-7.33301 0 -15.166 1.33301 -23.499 4s-16.666 5.5 -24.999 8.5l-24.5 8.5c-8 2.66699 -15 4 -21 4c-8 0 -14.667 -3 -20 -9s-8 -12.333 -8 -19h-38
c1.33301 8.66699 3.66602 17.334 6.99902 26.001s8 16.667 14 24s13 13.333 21 18s17 7 27 7s19.5 -1.33301 28.5 -4s17.333 -5.5 25 -8.5l21.5 -8.5c6.66699 -2.66699 13.334 -4 20.001 -4c9.33301 0 16.5 2.66699 21.5 8s8.83301 12.333 11.5 21h37z" />
    <glyph glyph-name="ograve" unicode="&#xf2;" horiz-adv-x="393" 
d="M294 172c0 32.667 -7.66699 60 -23 82c-17.333 25.333 -42 38 -74 38s-56.667 -12.667 -74 -38c-16 -22 -24 -49.333 -24 -82c0 -33.333 8 -61 24 -83c17.333 -26 42 -39 74 -39s56.667 13 74 39c15.333 22 23 49.667 23 83zM370 172c0 -54 -15.333 -97.667 -46 -131
s-73 -50 -127 -50s-96.333 16.667 -127 50s-46 77 -46 131c0 53.333 15.333 96.666 46 129.999s73 50 127 50s96.333 -16.667 127 -50s46 -76.666 46 -129.999zM270 391h-55l-94 95h89z" />
    <glyph glyph-name="oacute" unicode="&#xf3;" horiz-adv-x="393" 
d="M294 172c0 32.667 -7.66699 60 -23 82c-17.333 25.333 -42 38 -74 38s-56.667 -12.667 -74 -38c-16 -22 -24 -49.333 -24 -82c0 -33.333 8 -61 24 -83c17.333 -26 42 -39 74 -39s56.667 13 74 39c15.333 22 23 49.667 23 83zM370 172c0 -54 -15.333 -97.667 -46 -131
s-73 -50 -127 -50s-96.333 16.667 -127 50s-46 77 -46 131c0 53.333 15.333 96.666 46 129.999s73 50 127 50s96.333 -16.667 127 -50s46 -76.666 46 -129.999zM270 486l-94 -95h-55l60 95h89z" />
    <glyph glyph-name="ocircumflex" unicode="&#xf4;" horiz-adv-x="393" 
d="M294 172c0 32.667 -7.66699 60 -23 82c-17.333 25.333 -42 38 -74 38s-56.667 -12.667 -74 -38c-16 -22 -24 -49.333 -24 -82c0 -33.333 8 -61 24 -83c17.333 -26 42 -39 74 -39s56.667 13 74 39c15.333 22 23 49.667 23 83zM370 172c0 -54 -15.333 -97.667 -46 -131
s-73 -50 -127 -50s-96.333 16.667 -127 50s-46 77 -46 131c0 53.333 15.333 96.666 46 129.999s73 50 127 50s96.333 -16.667 127 -50s46 -76.666 46 -129.999zM304 388h-61l-47 60l-47 -60h-61l71 95h74z" />
    <glyph glyph-name="otilde" unicode="&#xf5;" horiz-adv-x="393" 
d="M294 172c0 32.667 -7.66699 60 -23 82c-17.333 25.333 -42 38 -74 38s-56.667 -12.667 -74 -38c-16 -22 -24 -49.333 -24 -82c0 -33.333 8 -61 24 -83c17.333 -26 42 -39 74 -39s56.667 13 74 39c15.333 22 23 49.667 23 83zM370 172c0 -54 -15.333 -97.667 -46 -131
s-73 -50 -127 -50s-96.333 16.667 -127 50s-46 77 -46 131c0 53.333 15.333 96.666 46 129.999s73 50 127 50s96.333 -16.667 127 -50s46 -76.666 46 -129.999zM313 464c-3.33301 -21.333 -10.6699 -39.334 -22.0029 -54.001s-28.666 -22 -51.999 -22
c-7.33301 0 -15.166 1.33301 -23.499 4s-16.666 5.5 -24.999 8.5l-24.5 8.5c-8 2.66699 -15 4 -21 4c-8 0 -14.667 -3 -20 -9s-8 -12.333 -8 -19h-38c1.33301 8.66699 3.66602 17.334 6.99902 26.001s8 16.667 14 24s13 13.333 21 18s17 7 27 7s19.5 -1.33301 28.5 -4
s17.333 -5.5 25 -8.5l21.5 -8.5c6.66699 -2.66699 13.334 -4 20.001 -4c9.33301 0 16.5 2.66699 21.5 8s8.83301 12.333 11.5 21h37z" />
    <glyph glyph-name="odieresis" unicode="&#xf6;" horiz-adv-x="393" 
d="M294 172c0 32.667 -7.66699 60 -23 82c-17.333 25.333 -42 38 -74 38s-56.667 -12.667 -74 -38c-16 -22 -24 -49.333 -24 -82c0 -33.333 8 -61 24 -83c17.333 -26 42 -39 74 -39s56.667 13 74 39c15.333 22 23 49.667 23 83zM370 172c0 -54 -15.333 -97.667 -46 -131
s-73 -50 -127 -50s-96.333 16.667 -127 50s-46 77 -46 131c0 53.333 15.333 96.666 46 129.999s73 50 127 50s96.333 -16.667 127 -50s46 -76.666 46 -129.999zM167 427c0 -13.333 -4.5 -24.666 -13.5 -33.999s-20.167 -14 -33.5 -14s-24.666 4.66699 -33.999 14
s-14 20.666 -14 33.999s4.66699 24.5 14 33.5s20.666 13.5 33.999 13.5s24.5 -4.5 33.5 -13.5s13.5 -20.167 13.5 -33.5zM320 427c0 -13.333 -4.5 -24.666 -13.5 -33.999s-20.167 -14 -33.5 -14s-24.666 4.66699 -33.999 14s-14 20.666 -14 33.999s4.66699 24.5 14 33.5
s20.666 13.5 33.999 13.5s24.5 -4.5 33.5 -13.5s13.5 -20.167 13.5 -33.5z" />
    <glyph glyph-name="divide" unicode="&#xf7;" horiz-adv-x="398" 
d="M366 134h-334v68h334v-68zM247 304c0 -12 -4.66699 -22.833 -14 -32.5s-20.333 -14.5 -33 -14.5c-13.333 0 -24.833 4.5 -34.5 13.5s-14.5 20.167 -14.5 33.5s4.83301 24.666 14.5 33.999s20.834 14 33.501 14c13.333 0 24.666 -4.66699 33.999 -14
s14 -20.666 14 -33.999zM247 31c0 -12 -4.66699 -22.999 -14 -32.999s-20.333 -15 -33 -15c-13.333 0 -24.833 4.66699 -34.5 14s-14.5 20.666 -14.5 33.999s4.83301 24.666 14.5 33.999s20.834 14 33.501 14c13.333 0 24.666 -4.66699 33.999 -14s14 -20.666 14 -33.999z
" />
    <glyph glyph-name="oslash" unicode="&#xf8;" horiz-adv-x="393" 
d="M294 172c0 12 -1.16797 23.668 -3.50098 35.001s-6.16602 22.333 -11.499 33l-148 -162c8 -8.66699 17.5 -15.5 28.5 -20.5s23.5 -7.5 37.5 -7.5c16.667 0 31.167 3.5 43.5 10.5s22.5 16.333 30.5 28s13.833 24.667 17.5 39s5.5 29.166 5.5 44.499zM369.999 172.001
c0 -26.667 -3.83301 -51 -11.5 -73s-18.834 -41 -33.501 -57s-32.834 -28.5 -54.501 -37.5s-46.167 -13.5 -73.5 -13.5c-46 0 -83.333 12.333 -112 37l-43 -47l-21 19l43 48c-26.667 32.667 -40 74 -40 124c0 26 3.83301 50 11.5 72s18.834 41 33.501 57
s32.834 28.5 54.501 37.5s46.167 13.5 73.5 13.5c46 0 83.667 -12 113 -36l41 45l22 -18l-43 -47c26.667 -34 40 -75.333 40 -124zM262.999 265.001c-16.667 18 -38.668 26.999 -66.001 26.999c-17.333 0 -32.166 -3.5 -44.499 -10.5s-22.5 -16.167 -30.5 -27.5
s-13.833 -24.166 -17.5 -38.499s-5.5 -28.833 -5.5 -43.5c0 -12 1.33301 -24 4 -36s6.66699 -23 12 -33z" />
    <glyph glyph-name="ugrave" unicode="&#xf9;" horiz-adv-x="381" 
d="M341 0l-74.001 -0.000976562v48h-2c-8.66699 -17.333 -22.167 -31.166 -40.5 -41.499s-37.166 -15.5 -56.499 -15.5c-85.333 0 -128 44.667 -128 134v218h75v-210c0 -55.333 22 -83 66 -83c56 0 84 31.333 84 94v199h76v-343zM263.999 390.999h-55l-94 95h89z" />
    <glyph glyph-name="uacute" unicode="&#xfa;" horiz-adv-x="381" 
d="M341 0l-74.001 -0.000976562v48h-2c-8.66699 -17.333 -22.167 -31.166 -40.5 -41.499s-37.166 -15.5 -56.499 -15.5c-85.333 0 -128 44.667 -128 134v218h75v-210c0 -55.333 22 -83 66 -83c56 0 84 31.333 84 94v199h76v-343zM263.999 485.999l-94 -95h-55l60 95h89z" />
    <glyph glyph-name="ucircumflex" unicode="&#xfb;" horiz-adv-x="381" 
d="M341 0l-74.001 -0.000976562v48h-2c-8.66699 -17.333 -22.167 -31.166 -40.5 -41.499s-37.166 -15.5 -56.499 -15.5c-85.333 0 -128 44.667 -128 134v218h75v-210c0 -55.333 22 -83 66 -83c56 0 84 31.333 84 94v199h76v-343zM297.999 387.999h-61l-47 60l-47 -60h-61
l71 95h74z" />
    <glyph glyph-name="udieresis" unicode="&#xfc;" horiz-adv-x="381" 
d="M341 0l-74.001 -0.000976562v48h-2c-8.66699 -17.333 -22.167 -31.166 -40.5 -41.499s-37.166 -15.5 -56.499 -15.5c-85.333 0 -128 44.667 -128 134v218h75v-210c0 -55.333 22 -83 66 -83c56 0 84 31.333 84 94v199h76v-343zM160.999 426.999
c0 -13.333 -4.5 -24.666 -13.5 -33.999s-20.167 -14 -33.5 -14s-24.666 4.66699 -33.999 14s-14 20.666 -14 33.999s4.66699 24.5 14 33.5s20.666 13.5 33.999 13.5s24.5 -4.5 33.5 -13.5s13.5 -20.167 13.5 -33.5zM313.999 426.999c0 -13.333 -4.5 -24.666 -13.5 -33.999
s-20.167 -14 -33.5 -14s-24.666 4.66699 -33.999 14s-14 20.666 -14 33.999s4.66699 24.5 14 33.5s20.666 13.5 33.999 13.5s24.5 -4.5 33.5 -13.5s13.5 -20.167 13.5 -33.5z" />
    <glyph glyph-name="yacute" unicode="&#xfd;" horiz-adv-x="344" 
d="M208 -19c-14.667 -40.667 -27.668 -68 -39.001 -82c-19.333 -23.333 -46.666 -35 -81.999 -35c-19.333 0 -37 1.33301 -53 4v64c20 -3.33301 32 -5 36 -5c16 0 28 4.33301 36 13c5.33301 6 11 17.667 17 35l9 26l-130 342h83l89 -256h2l87 256h78zM245.999 486l-94 -95
h-55l60 95h89z" />
    <glyph glyph-name="thorn" unicode="&#xfe;" horiz-adv-x="405" 
d="M381 170c0 -23.333 -3 -45.6689 -9 -67.002s-15 -40.333 -27 -57s-27.333 -30 -46 -40s-40.667 -15 -66 -15c-21.333 0 -42.666 4 -63.999 12s-38 21.667 -50 41h-2v-171h-75v600h75v-175h2c10 16.667 24.667 29.834 44 39.501s38.666 14.5 57.999 14.5
c26.667 0 50.167 -4.83301 70.5 -14.5s37 -22.667 50 -39s22.833 -35.666 29.5 -57.999s10 -45.833 10 -70.5zM306 170.997c0 15.333 -2.00098 30.335 -6.00098 45.002s-10 27.667 -18 39s-18 20.333 -30 27s-25.667 10 -41 10c-32 0 -56 -11 -72 -33s-24 -51.333 -24 -88
c0 -34.667 8.33301 -63.5 25 -86.5s40.334 -34.5 71.001 -34.5c17.333 0 32 3.5 44 10.5s21.833 16.167 29.5 27.5s13.167 24.166 16.5 38.499s5 29.166 5 44.499z" />
    <glyph glyph-name="ydieresis" unicode="&#xff;" horiz-adv-x="344" 
d="M208 -19c-14.667 -40.667 -27.668 -68 -39.001 -82c-19.333 -23.333 -46.666 -35 -81.999 -35c-19.333 0 -37 1.33301 -53 4v64c20 -3.33301 32 -5 36 -5c16 0 28 4.33301 36 13c5.33301 6 11 17.667 17 35l9 26l-130 342h83l89 -256h2l87 256h78zM142.999 427
c0 -13.333 -4.5 -24.666 -13.5 -33.999s-20.167 -14 -33.5 -14s-24.666 4.66699 -33.999 14s-14 20.666 -14 33.999s4.66699 24.5 14 33.5s20.666 13.5 33.999 13.5s24.5 -4.5 33.5 -13.5s13.5 -20.167 13.5 -33.5zM295.999 427c0 -13.333 -4.5 -24.666 -13.5 -33.999
s-20.167 -14 -33.5 -14s-24.666 4.66699 -33.999 14s-14 20.666 -14 33.999s4.66699 24.5 14 33.5s20.666 13.5 33.999 13.5s24.5 -4.5 33.5 -13.5s13.5 -20.167 13.5 -33.5z" />
    <glyph glyph-name="Abreve" unicode="&#x102;" horiz-adv-x="442" 
d="M292 188l-71 204h-2l-71 -204h144zM448 0h-89l-45 125h-189l-44 -125h-86l182 473h88zM328 614c-3.33301 -32 -14.832 -55.665 -34.499 -70.998s-44.834 -23 -75.501 -23s-55 8 -73 24s-28.333 39.333 -31 70h38c4 -18.667 12.5 -31.834 25.5 -39.501
s28.167 -11.5 45.5 -11.5s32 4.16699 44 12.5s19.667 21.166 23 38.499h38z" />
    <glyph glyph-name="abreve" unicode="&#x103;" 
d="M251 115v57.001c-9.33301 -6.66699 -23 -11.334 -41 -14.001s-35.333 -5 -52 -7c-40.667 -6.66699 -61 -25.667 -61 -57c0 -15.333 8 -27 24 -35c13.333 -6 28.333 -9 45 -9c20.667 0 39 5 55 15c20 12 30 28.667 30 50zM363 -0.999023
c-14.667 -5.33301 -30.334 -8 -47.001 -8c-34 0 -53.667 13.667 -59 41c-28 -27.333 -67.333 -41 -118 -41c-33.333 0 -60.666 8.33301 -81.999 25c-24 18 -36 43 -36 75c0 38 14 65.333 42 82c18 10 48 18.333 90 25c24 3.33301 48 7 72 11c20.667 6 31 18.333 31 37
c0 30.667 -23.667 46 -71 46c-46.667 0 -72 -18 -76 -54h-75c4 76 56 114 156 114c38 0 69.333 -7.33301 94 -22c28.667 -18 43 -43.667 43 -77v-177c0 -17.333 6 -26 18 -26c6.66699 0 12.667 0.666992 18 2v-53zM298 481.001
c-3.33301 -32 -14.832 -55.665 -34.499 -70.998s-44.834 -23 -75.501 -23s-55 8 -73 24s-28.333 39.333 -31 70h38c4 -18.667 12.5 -31.834 25.5 -39.501s28.167 -11.5 45.5 -11.5s32 4.16699 44 12.5s19.667 21.166 23 38.499h38z" />
    <glyph glyph-name="Cacute" unicode="&#x106;" horiz-adv-x="479" 
d="M313 617l-94 -95h-55l60 95h89zM453 180c-3.33301 -56.667 -23.333 -102.667 -60 -138s-83.667 -53 -141 -53c-68.667 0 -124.334 24.333 -167.001 73c-40 46.667 -60 105 -60 175s20 128.333 60 175c42.667 48.667 98.334 73 167.001 73
c54.667 0 100.667 -14.5 138 -43.5s58.333 -68.5 63 -118.5h-83c-16 62.667 -55.333 94 -118 94c-47.333 0 -84 -18.667 -110 -56c-22.667 -32.667 -34 -74 -34 -124s11.333 -91.667 34 -125c26 -37.333 62.667 -56 110 -56c35.333 0 64 12 86 36c19.333 22 31 51.333 35 88
h80z" />
    <glyph glyph-name="cacute" unicode="&#x107;" 
d="M347 129c-14.667 -92 -67 -138 -157 -138c-52.667 0 -94 17 -124 51c-28.667 32 -43 74 -43 126c0 54 14.667 98.167 44 132.5s71 51.5 125 51.5c42 0 77 -10 105 -30c29.333 -22.667 46 -54 50 -94h-76c-6 42.667 -32 64 -78 64c-62.667 0 -94 -41.333 -94 -124
c0 -32 7 -58.667 21 -80c16 -25.333 39.333 -38 70 -38c46.667 0 73.667 26.333 81 79h76zM249 486l-94 -95h-55l60 95h89z" />
    <glyph glyph-name="Ccaron" unicode="&#x10c;" horiz-adv-x="479" 
d="M453 180c-3.33301 -56.667 -23.333 -102.667 -60 -138s-83.667 -53 -141 -53c-68.667 0 -124.334 24.333 -167.001 73c-40 46.667 -60 105 -60 175s20 128.333 60 175c42.667 48.667 98.334 73 167.001 73c54.667 0 100.667 -14.5 138 -43.5s58.333 -68.5 63 -118.5h-83
c-16 62.667 -55.333 94 -118 94c-47.333 0 -84 -18.667 -110 -56c-22.667 -32.667 -34 -74 -34 -124s11.333 -91.667 34 -125c26 -37.333 62.667 -56 110 -56c35.333 0 64 12 86 36c19.333 22 31 51.333 35 88h80zM289 522h-74l-71 95h61l47 -59l47 59h61z" />
    <glyph glyph-name="ccaron" unicode="&#x10d;" 
d="M347 129c-14.667 -92 -67 -138 -157 -138c-52.667 0 -94 17 -124 51c-28.667 32 -43 74 -43 126c0 54 14.667 98.167 44 132.5s71 51.5 125 51.5c42 0 77 -10 105 -30c29.333 -22.667 46 -54 50 -94h-76c-6 42.667 -32 64 -78 64c-62.667 0 -94 -41.333 -94 -124
c0 -32 7 -58.667 21 -80c16 -25.333 39.333 -38 70 -38c46.667 0 73.667 26.333 81 79h76zM209 390h-74l-71 95h61l47 -59l47 59h61z" />
    <glyph glyph-name="Dcroat" unicode="&#x110;" horiz-adv-x="479" 
d="M455 237c0 -32.667 -4 -63.332 -12 -91.999s-20.5 -53.834 -37.5 -75.501s-38.667 -38.667 -65 -51s-57.5 -18.5 -93.5 -18.5h-197v210h-44v68h44v195h197c36 0 67.167 -6.16699 93.5 -18.5s48 -29.166 65 -50.499s29.5 -46.333 37.5 -75s12 -59.334 12 -92.001z
M373 237.002c0 23.333 -2.16699 45.334 -6.5 66.001s-12.333 38.667 -24 54s-27.667 27.333 -48 36s-46.833 13 -79.5 13h-82v-128h130v-68h-130v-142h82c32.667 0 59.167 4.33301 79.5 13s36.333 20.667 48 36s19.667 33.166 24 53.499s6.5 42.5 6.5 66.5z" />
    <glyph glyph-name="dcroat" unicode="&#x111;" horiz-adv-x="405" 
d="M405 392h-41.999v-392h-72v46h-1c-18.667 -36.667 -54 -55 -106 -55s-92.333 17.667 -121 53c-26.667 32.667 -40 76 -40 130c0 58 15.333 103.333 46 136c27.333 28 61.666 42 102.999 42c54 0 92 -18 114 -54h1v94h-115v49h115v32h76v-32h42v-49zM290.001 172
c0 37.333 -8.49902 66.667 -25.499 88s-40.167 32 -69.5 32c-32.667 0 -57.667 -13 -75 -39c-14 -22 -21 -50.333 -21 -85c0 -32.667 7.66699 -59.667 23 -81c17.333 -24.667 41.333 -37 72 -37c31.333 0 55.666 13 72.999 39c15.333 22 23 49.667 23 83z" />
    <glyph glyph-name="Gbreve" unicode="&#x11e;" horiz-adv-x="503" 
d="M463 0l-53 -0.000976562l-12 56c-39.333 -44.667 -87 -67 -143 -67c-68.667 0 -124 24.333 -166 73c-40 46 -60 104.333 -60 175c0 70 20.5 128.833 61.5 176.5s95.833 71.5 164.5 71.5c54 0 99.333 -13.667 136 -41c38.667 -29.333 61 -69.666 67 -120.999h-81
c-4 30 -17.5 53.167 -40.5 69.5s-50.167 24.5 -81.5 24.5c-47.333 0 -84 -18.667 -110 -56c-22.667 -32.667 -34 -74 -34 -124s11.333 -91.333 34 -124c26 -38 62.667 -57 110 -57c42 0 74.5 11.5 97.5 34.5s34.833 54.833 35.5 95.5h-126v63h201v-249zM371 616.999
c-3.33301 -32 -14.832 -55.665 -34.499 -70.998s-44.834 -23 -75.501 -23s-55 8 -73 24s-28.333 39.333 -31 70h38c4 -18.667 12.5 -31.834 25.5 -39.501s28.167 -11.5 45.5 -11.5s32 4.16699 44 12.5s19.667 21.166 23 38.499h38z" />
    <glyph glyph-name="gbreve" unicode="&#x11f;" horiz-adv-x="393" 
d="M281 179c0 32.667 -6.99902 59.001 -20.999 79.001c-16.667 22.667 -40.334 34 -71.001 34s-54 -12.667 -70 -38c-13.333 -21.333 -20 -48.333 -20 -81c0 -30.667 7 -56.334 21 -77.001c16.667 -24 39.667 -36 69 -36c31.333 0 55 12.667 71 38
c14 21.333 21 48.333 21 81zM357.001 18.001c0 -102.667 -56.334 -154 -169.001 -154c-39.333 0 -72.666 7.66699 -99.999 23c-32 19.333 -49.667 47.333 -53 84h76c7.33301 -34 34.666 -51 81.999 -51c58.667 0 88 29.333 88 88v52h-1c-22.667 -40 -57 -60 -103 -60
c-51.333 0 -90.666 17.667 -117.999 53c-24 32 -36 74.333 -36 127c0 48 14.167 88.667 42.5 122s65.833 50 112.5 50c49.333 0 83.333 -18.667 102 -56h1v47h76v-325zM302 482.001c-3.33301 -32 -14.832 -55.665 -34.499 -70.998s-44.834 -23 -75.501 -23s-55 8 -73 24
s-28.333 39.333 -31 70h38c4 -18.667 12.5 -31.834 25.5 -39.501s28.167 -11.5 45.5 -11.5s32 4.16699 44 12.5s19.667 21.166 23 38.499h38z" />
    <glyph glyph-name="Itilde" unicode="&#x128;" horiz-adv-x="184" 
d="M134 0h-83v473h83v-473zM209 595c-3.33301 -21.333 -10.6699 -39.334 -22.0029 -54.001s-28.666 -22 -51.999 -22c-7.33301 0 -15.166 1.33301 -23.499 4s-16.666 5.5 -24.999 8.5l-24.5 8.5c-8 2.66699 -15 4 -21 4c-8 0 -14.667 -3 -20 -9s-8 -12.333 -8 -19h-38
c1.33301 8.66699 3.66602 17.334 6.99902 26.001s8 16.667 14 24s13 13.333 21 18s17 7 27 7s19.5 -1.33301 28.5 -4s17.333 -5.5 25 -8.5l21.5 -8.5c6.66699 -2.66699 13.334 -4 20.001 -4c9.33301 0 16.5 2.66699 21.5 8s8.83301 12.333 11.5 21h37z" />
    <glyph glyph-name="itilde" unicode="&#x129;" horiz-adv-x="147" 
d="M114 0h-75v343h75v-343zM190 464c-3.33301 -21.333 -10.6699 -39.334 -22.0029 -54.001s-28.666 -22 -51.999 -22c-7.33301 0 -15.166 1.33301 -23.499 4s-16.666 5.5 -24.999 8.5l-24.5 8.5c-8 2.66699 -15 4 -21 4c-8 0 -14.667 -3 -20 -9s-8 -12.333 -8 -19h-38
c1.33301 8.66699 3.66602 17.334 6.99902 26.001s8 16.667 14 24s13 13.333 21 18s17 7 27 7s19.5 -1.33301 28.5 -4s17.333 -5.5 25 -8.5l21.5 -8.5c6.66699 -2.66699 13.334 -4 20.001 -4c9.33301 0 16.5 2.66699 21.5 8s8.83301 12.333 11.5 21h37z" />
    <glyph glyph-name="Idotaccent" unicode="&#x130;" horiz-adv-x="184" 
d="M134 0h-83v473h83v-473zM148 567c0 -14.667 -5 -27.167 -15 -37.5s-22.333 -15.5 -37 -15.5s-27.167 5.16699 -37.5 15.5s-15.5 22.833 -15.5 37.5s5.16699 27 15.5 37s22.833 15 37.5 15s27 -5 37 -15s15 -22.333 15 -37z" />
    <glyph glyph-name="dotlessi" unicode="&#x131;" horiz-adv-x="160" 
d="M117 0h-75v343h75v-343z" />
    <glyph glyph-name="Lslash" unicode="&#x141;" horiz-adv-x="381" 
d="M374 0h-324v151l-50 -36v59l50 36v263h83v-202l133 94v-62l-133 -94v-137h241v-72z" />
    <glyph glyph-name="lslash" unicode="&#x142;" horiz-adv-x="160" 
d="M117 0h-75v211l-45 -35v47l45 36v214h75v-155l45 35v-47l-45 -36v-270z" />
    <glyph glyph-name="OE" unicode="&#x152;" horiz-adv-x="725" 
d="M366 145v176.999c0 24.667 -9.33301 46.667 -28 66s-47 29 -85 29c-25.333 0 -47 -5.33301 -65 -16s-32.833 -24.5 -44.5 -41.5s-20.167 -36.333 -25.5 -58s-8 -43.5 -8 -65.5s2.66699 -43.833 8 -65.5s13.833 -41 25.5 -58s26.5 -30.667 44.5 -41s39.667 -15.5 65 -15.5
c18 0 34 2.83301 48 8.5s25.833 12.834 35.5 21.501s17 18.167 22 28.5s7.5 20.5 7.5 30.5zM697 -0.000976562l-328 0.000976562v42c-16 -18.667 -34.833 -32.167 -56.5 -40.5s-44.167 -12.5 -67.5 -12.5c-35.333 0 -66.5 6.66699 -93.5 20s-49.833 31.166 -68.5 53.499
s-32.667 48.333 -42 78s-14 61.167 -14 94.5s5 65 15 95s24.5 56.5 43.5 79.5s42.333 41.333 70 55s59.167 20.5 94.5 20.5c24 0 45.833 -3.5 65.5 -10.5s37.5 -19.833 53.5 -38.5v37h324v-71h-248v-124h227v-68h-227v-138h252v-72z" />
    <glyph glyph-name="oe" unicode="&#x153;" horiz-adv-x="601" 
d="M581 109c-9.33301 -38.667 -27.666 -67.999 -54.999 -87.999s-60.666 -30 -99.999 -30c-26 0 -49.833 4.33301 -71.5 13s-38.834 25.334 -51.501 50.001c-12.667 -24.667 -29.667 -41.334 -51 -50.001s-45 -13 -71 -13c-26.667 0 -49.834 4.83301 -69.501 14.5
s-36 22.667 -49 39s-22.833 35.5 -29.5 57.5s-10 45.333 -10 70s3.66699 48 11 70s18 41.167 32 57.5s31.167 29.166 51.5 38.499s43.5 14 69.5 14c24 0 46.833 -4.16699 68.5 -12.5s38.834 -23.5 51.501 -45.5c13.333 20.667 30.833 35.5 52.5 44.5s44.167 13.5 67.5 13.5
c30 0 55 -5.33301 75 -16s36.167 -25.167 48.5 -43.5s21.166 -39.666 26.499 -63.999s8 -49.833 8 -76.5h-250c0 -28.667 7.16699 -52.834 21.5 -72.501s36.833 -29.5 67.5 -29.5c19.333 0 37 5 53 15s25.667 24.667 29 44h75zM510 202.001
c-1.33301 28 -9.16992 50 -23.5029 66s-36.166 24 -65.499 24c-25.333 0 -45.666 -9 -60.999 -27s-23.666 -39 -24.999 -63h175zM273.996 174.001c0 14 -1.49805 28 -4.49805 42s-8 26.667 -15 38s-16.167 20.5 -27.5 27.5s-25 10.5 -41 10.5s-29.5 -3.5 -40.5 -10.5
s-20 -16.167 -27 -27.5s-12 -24 -15 -38s-4.5 -28 -4.5 -42c0 -15.333 1.33301 -30.333 4 -45s7.16699 -27.834 13.5 -39.501s15.166 -21.167 26.499 -28.5s25.666 -11 42.999 -11s31.666 3.66699 42.999 11s20.333 16.833 27 28.5s11.334 24.834 14.001 39.501
s4 29.667 4 45z" />
    <glyph glyph-name="Scedilla" unicode="&#x15e;" horiz-adv-x="430" 
d="M408 137c0 -49.333 -19.667 -87.333 -59 -114c-34 -22.667 -77.333 -34 -130 -34c-57.333 0 -103.333 13.333 -138 40c-38.667 30 -58.334 73 -59.001 129h83c0 -68 40 -102 120 -102c34 0 59.667 7.66699 77 23c15.333 12.667 23 29 23 49c0 28.667 -13 48 -39 58
c-7.33301 2.66699 -54.333 15.667 -141 39c-70 18.667 -105 58.667 -105 120c0 44.667 18 80 54 106c32.667 22.667 72.334 34 119.001 34c52 0 95.167 -13.333 129.5 -40s51.5 -64 51.5 -112h-82c-4 56 -38 84 -102 84c-58 0 -87 -20.667 -87 -62c0 -30 18.667 -50 56 -60
l137 -37c29.333 -8.66699 52 -24.5 68 -47.5s24 -47.5 24 -73.5zM300 -87c0 -11.333 -2.33301 -20.8311 -7 -28.498s-10.834 -13.834 -18.501 -18.501s-16.167 -8 -25.5 -10s-19 -3 -29 -3s-21.667 1 -35 3s-24.333 5.66699 -33 11l12 27l21.5 -7.5
c7 -2.33301 14.167 -3.5 21.5 -3.5c9.33301 0 18.333 1.66699 27 5s13 10.666 13 21.999c0 8.66699 -3.16699 15.167 -9.5 19.5s-13.166 6.5 -20.499 6.5c-10 0 -18.667 -2.33301 -26 -7l-15 13l44 58h32l-30 -38v-2c3.33301 1.33301 6.5 2 9.5 2h12.5
c13.333 0 26 -3.83301 38 -11.5s18 -20.167 18 -37.5z" />
    <glyph glyph-name="scedilla" unicode="&#x15f;" horiz-adv-x="344" 
d="M326 102c0 -37.333 -16.667 -65.998 -50 -85.998c-28 -16.667 -62.333 -25 -103 -25c-44.667 0 -80.334 9.66699 -107.001 29c-29.333 20.667 -44.333 50.667 -45 90h76c3.33301 -40 29 -60 77 -60c52.667 0 78.334 15 77.001 45c-1.33301 21.333 -21 36.666 -59 45.999
c-65.333 15.333 -100.666 24.333 -105.999 27c-38 17.333 -57 46 -57 86c0 34 16 59.667 48 77c25.333 14 57 21 95 21c87.333 0 135 -35 143 -105h-79c-6 30 -29.333 45 -70 45c-41.333 0 -62 -11.667 -62 -35c0 -16 11.667 -28.333 35 -37
c5.33301 -2 30.666 -8 75.999 -18c34.667 -8 60 -17.667 76 -29c23.333 -16.667 35 -40.334 35 -71.001zM250 -86.998c0 -11.333 -2.33301 -20.8311 -7 -28.498s-10.834 -13.834 -18.501 -18.501s-16.167 -8 -25.5 -10s-19 -3 -29 -3s-21.667 1 -35 3
s-24.333 5.66699 -33 11l12 27l21.5 -7.5c7 -2.33301 14.167 -3.5 21.5 -3.5c9.33301 0 18.333 1.66699 27 5s13 10.666 13 21.999c0 8.66699 -3.16699 15.167 -9.5 19.5s-13.166 6.5 -20.499 6.5c-10 0 -18.667 -2.33301 -26 -7l-15 13l44 58h32l-30 -38v-2
c3.33301 1.33301 6.5 2 9.5 2h12.5c13.333 0 26 -3.83301 38 -11.5s18 -20.167 18 -37.5z" />
    <glyph glyph-name="Scaron" unicode="&#x160;" horiz-adv-x="430" 
d="M408 137c0 -49.333 -19.667 -87.333 -59 -114c-34 -22.667 -77.333 -34 -130 -34c-57.333 0 -103.333 13.333 -138 40c-38.667 30 -58.334 73 -59.001 129h83c0 -68 40 -102 120 -102c34 0 59.667 7.66699 77 23c15.333 12.667 23 29 23 49c0 28.667 -13 48 -39 58
c-7.33301 2.66699 -54.333 15.667 -141 39c-70 18.667 -105 58.667 -105 120c0 44.667 18 80 54 106c32.667 22.667 72.334 34 119.001 34c52 0 95.167 -13.333 129.5 -40s51.5 -64 51.5 -112h-82c-4 56 -38 84 -102 84c-58 0 -87 -20.667 -87 -62c0 -30 18.667 -50 56 -60
l137 -37c29.333 -8.66699 52 -24.5 68 -47.5s24 -47.5 24 -73.5zM252 522h-74l-71 95h61l47 -59l47 59h61z" />
    <glyph glyph-name="scaron" unicode="&#x161;" horiz-adv-x="344" 
d="M326 102c0 -37.333 -16.667 -65.998 -50 -85.998c-28 -16.667 -62.333 -25 -103 -25c-44.667 0 -80.334 9.66699 -107.001 29c-29.333 20.667 -44.333 50.667 -45 90h76c3.33301 -40 29 -60 77 -60c52.667 0 78.334 15 77.001 45c-1.33301 21.333 -21 36.666 -59 45.999
c-65.333 15.333 -100.666 24.333 -105.999 27c-38 17.333 -57 46 -57 86c0 34 16 59.667 48 77c25.333 14 57 21 95 21c87.333 0 135 -35 143 -105h-79c-6 30 -29.333 45 -70 45c-41.333 0 -62 -11.667 -62 -35c0 -16 11.667 -28.333 35 -37
c5.33301 -2 30.666 -8 75.999 -18c34.667 -8 60 -17.667 76 -29c23.333 -16.667 35 -40.334 35 -71.001zM209 390.002h-74l-71 95h61l47 -59l47 59h61z" />
    <glyph glyph-name="Utilde" unicode="&#x168;" horiz-adv-x="479" 
d="M434 170c0 -59.333 -17.5 -104.333 -52.5 -135s-82.5 -46 -142.5 -46s-106.667 15 -140 45c-36 32 -54 77.333 -54 136v303h83v-275c0 -43.333 5 -74.333 15 -93c16.667 -30 48.667 -45 96 -45c48 0 80.333 15 97 45c10 18.667 15 49.667 15 93v275h83v-303zM356 595
c-3.33301 -21.333 -10.6699 -39.334 -22.0029 -54.001s-28.666 -22 -51.999 -22c-7.33301 0 -15.166 1.33301 -23.499 4s-16.666 5.5 -24.999 8.5l-24.5 8.5c-8 2.66699 -15 4 -21 4c-8 0 -14.667 -3 -20 -9s-8 -12.333 -8 -19h-38
c1.33301 8.66699 3.66602 17.334 6.99902 26.001s8 16.667 14 24s13 13.333 21 18s17 7 27 7s19.5 -1.33301 28.5 -4s17.333 -5.5 25 -8.5l21.5 -8.5c6.66699 -2.66699 13.334 -4 20.001 -4c9.33301 0 16.5 2.66699 21.5 8s8.83301 12.333 11.5 21h37z" />
    <glyph glyph-name="utilde" unicode="&#x169;" horiz-adv-x="381" 
d="M341 0l-74.001 -0.000976562v48h-2c-8.66699 -17.333 -22.167 -31.166 -40.5 -41.499s-37.166 -15.5 -56.499 -15.5c-85.333 0 -128 44.667 -128 134v218h75v-210c0 -55.333 22 -83 66 -83c56 0 84 31.333 84 94v199h76v-343zM306.999 463.999
c-3.33301 -21.333 -10.6699 -39.334 -22.0029 -54.001s-28.666 -22 -51.999 -22c-7.33301 0 -15.166 1.33301 -23.499 4s-16.666 5.5 -24.999 8.5l-24.5 8.5c-8 2.66699 -15 4 -21 4c-8 0 -14.667 -3 -20 -9s-8 -12.333 -8 -19h-38
c1.33301 8.66699 3.66602 17.334 6.99902 26.001s8 16.667 14 24s13 13.333 21 18s17 7 27 7s19.5 -1.33301 28.5 -4s17.333 -5.5 25 -8.5l21.5 -8.5c6.66699 -2.66699 13.334 -4 20.001 -4c9.33301 0 16.5 2.66699 21.5 8s8.83301 12.333 11.5 21h37z" />
    <glyph glyph-name="Ydieresis" unicode="&#x178;" horiz-adv-x="430" 
d="M257 0h-83v186l-178 287h96l125 -212l124 212h93l-177 -287v-186zM186 560c0 -13.333 -4.5 -24.666 -13.5 -33.999s-20.167 -14 -33.5 -14s-24.666 4.66699 -33.999 14s-14 20.666 -14 33.999s4.66699 24.5 14 33.5s20.666 13.5 33.999 13.5s24.5 -4.5 33.5 -13.5
s13.5 -20.167 13.5 -33.5zM339 560c0 -13.333 -4.5 -24.666 -13.5 -33.999s-20.167 -14 -33.5 -14s-24.666 4.66699 -33.999 14s-14 20.666 -14 33.999s4.66699 24.5 14 33.5s20.666 13.5 33.999 13.5s24.5 -4.5 33.5 -13.5s13.5 -20.167 13.5 -33.5z" />
    <glyph glyph-name="Zcaron" unicode="&#x17d;" horiz-adv-x="418" 
d="M403 0h-388v68l276 334h-255v71h360v-63l-275 -338h282v-72zM246 522h-74l-71 95h61l47 -59l47 59h61z" />
    <glyph glyph-name="zcaron" unicode="&#x17e;" horiz-adv-x="331" 
d="M316 0h-301v53l189 230h-176v60h278v-53l-196 -230h206v-60zM202 390h-74l-71 95h61l47 -59l47 59h61z" />
    <glyph glyph-name="florin" unicode="&#x192;" horiz-adv-x="356" 
d="M282 234l-68.002 -0.000976562l-48 -253c-5.33301 -25.333 -18.5 -47.333 -39.5 -66s-45.833 -28 -74.5 -28c-8.66699 0 -17.167 0.333008 -25.5 1s-17.166 1.66699 -26.499 3l10 59c10.667 -2 21.334 -3 32.001 -3c12 0 21.833 2.33301 29.5 7s13.167 14.667 16.5 30
l49 250h-60l10 56h61l21 112c7.33301 30 21.166 51.333 41.499 64s45.5 19 75.5 19c8 0 16 -0.333008 24 -1s16 -1.66699 24 -3l-11 -59c-9.33301 2 -18.333 3 -27 3c-18.667 0 -31.667 -3.66699 -39 -11s-12.666 -19.666 -15.999 -36.999l-17 -87h68z" />
    <glyph glyph-name="Ohorn" unicode="&#x1a0;" horiz-adv-x="504" 
d="M479 237c0 -70 -19.998 -128.331 -59.998 -174.998c-42.667 -48.667 -98.334 -73 -167.001 -73s-124.334 24.333 -167.001 73c-40 46.667 -60 105 -60 175s20 128.333 60 175c42.667 48.667 98.334 73 167.001 73c56.667 0 104.667 -16.667 144 -50
c7.33301 7.33301 12.166 17.166 14.499 29.499s3.5 24.166 3.5 35.499h77c0 -21.333 -5.5 -43 -16.5 -65s-22.5 -39.333 -34.5 -52c26 -41.333 39 -90 39 -146zM396.002 237.002c0 50 -11.333 91.333 -34 124c-26 37.333 -62.667 56 -110 56s-84 -18.667 -110 -56
c-22.667 -32.667 -34 -74 -34 -124s11.333 -91.667 34 -125c26 -37.333 62.667 -56 110 -56s84 18.667 110 56c22.667 33.333 34 75 34 125z" />
    <glyph glyph-name="ohorn" unicode="&#x1a1;" horiz-adv-x="393" 
d="M370 172c0 -54 -15.333 -97.666 -46 -130.999s-73 -50 -127 -50s-96.333 16.667 -127 50s-46 77 -46 131c0 53.333 15.333 96.666 46 129.999s73 50 127 50c53.333 0 94 -16 122 -48c6 7.33301 9.83301 18.166 11.5 32.499s2.5 26.833 2.5 37.5h72
c0 -21.333 -5.5 -43.166 -16.5 -65.499s-22.833 -39.833 -35.5 -52.5c11.333 -24.667 17 -52.667 17 -84zM294 172.001c0 32.667 -7.66699 60 -23 82c-17.333 25.333 -42 38 -74 38s-56.667 -12.667 -74 -38c-16 -22 -24 -49.333 -24 -82c0 -33.333 8 -61 24 -83
c17.333 -26 42 -39 74 -39s56.667 13 74 39c15.333 22 23 49.667 23 83z" />
    <glyph glyph-name="Uhorn" unicode="&#x1af;" horiz-adv-x="479" 
d="M434 170c0 -59.333 -17.5 -104.333 -52.5 -135s-82.5 -46 -142.5 -46s-106.667 15 -140 45c-36 32 -54 77.333 -54 136v303h83v-275c0 -43.333 5 -74.333 15 -93c16.667 -30 48.667 -45 96 -45c48 0 80.333 15 97 45c10 18.667 15 49.667 15 93v275h83
c12.667 0 23.667 5.16699 33 15.5s14 27.833 14 52.5h70c0 -18 -3.33301 -35.333 -10 -52s-15.5 -31.5 -26.5 -44.5s-23.5 -23.5 -37.5 -31.5s-28.333 -12 -43 -12v-231z" />
    <glyph glyph-name="uhorn" unicode="&#x1b0;" horiz-adv-x="381" 
d="M341 0l-74.001 -0.000976562v48h-2c-8.66699 -17.333 -22.167 -31.166 -40.5 -41.499s-37.166 -15.5 -56.499 -15.5c-85.333 0 -128 44.667 -128 134v218h75v-210c0 -55.333 22 -83 66 -83c56 0 84 31.333 84 94v199h76c12.667 0 22.5 6 29.5 18s10.5 27.333 10.5 46h70
c0 -14 -3.16699 -28 -9.5 -42s-14.5 -26.5 -24.5 -37.5s-21.667 -19.833 -35 -26.5s-27 -10 -41 -10v-291z" />
    <glyph glyph-name="circumflex" unicode="&#x2c6;" horiz-adv-x="160" 
d="M188 388h-61l-47 60l-47 -60h-61l71 95h74z" />
    <glyph glyph-name="caron" unicode="&#x2c7;" horiz-adv-x="160" 
d="M117 390h-74l-71 95h61l47 -59l47 59h61z" />
    <glyph glyph-name="breve" unicode="&#x2d8;" horiz-adv-x="160" 
d="M187 478c-3.33301 -32 -14.832 -55.665 -34.499 -70.998s-44.834 -23 -75.501 -23s-55 8 -73 24s-28.333 39.333 -31 70h38c4 -18.667 12.5 -31.834 25.5 -39.501s28.167 -11.5 45.5 -11.5s32 4.16699 44 12.5s19.667 21.166 23 38.499h38z" />
    <glyph glyph-name="dotaccent" unicode="&#x2d9;" horiz-adv-x="238" 
d="M171 438c0 -14.667 -5 -27.167 -15 -37.5s-22.333 -15.5 -37 -15.5s-27.167 5.16699 -37.5 15.5s-15.5 22.833 -15.5 37.5s5.16699 27 15.5 37s22.833 15 37.5 15s27 -5 37 -15s15 -22.333 15 -37z" />
    <glyph glyph-name="ring" unicode="&#x2da;" horiz-adv-x="158" 
d="M152 432c0 -20 -7 -36.833 -21 -50.5s-31 -20.5 -51 -20.5s-36.833 6.83301 -50.5 20.5s-20.5 30.5 -20.5 50.5s6.83301 37 20.5 51s30.5 21 50.5 21s37 -7 51 -21s21 -31 21 -51zM119 432c0 10.667 -3.83301 19.834 -11.5 27.501s-16.834 11.5 -27.501 11.5
s-19.667 -3.83301 -27 -11.5s-11 -16.834 -11 -27.501s3.66699 -19.667 11 -27s16.333 -11 27 -11s19.834 3.66699 27.501 11s11.5 16.333 11.5 27z" />
    <glyph glyph-name="ogonek" unicode="&#x2db;" horiz-adv-x="160" 
d="M168 -95c-5.33301 -19.333 -14.833 -32.5 -28.5 -39.5s-27.167 -10.5 -40.5 -10.5c-3.33301 0 -8.66602 0.5 -15.999 1.5s-14.833 3.5 -22.5 7.5s-14.334 10 -20.001 18s-8.5 19 -8.5 33c0 2.66699 0.5 6.66699 1.5 12s3.83301 11.833 8.5 19.5s12 16 22 25
s24.333 19.167 43 30.5h36c-25.333 -19.333 -42 -35.333 -50 -48s-12 -24.667 -12 -36c0 -9.33301 2.5 -16.5 7.5 -21.5s11.167 -7.5 18.5 -7.5c6 0 11.833 1.5 17.5 4.5s11.5 8.5 17.5 16.5z" />
    <glyph glyph-name="tilde" unicode="&#x2dc;" horiz-adv-x="160" 
d="M197 473c-1.33301 -10.667 -3.83496 -21.832 -7.50195 -33.499s-8.5 -20.834 -14.5 -27.501c-12 -15.333 -29.333 -23 -52 -23c-7.33301 0 -15.166 1.33301 -23.499 4s-16.833 5.66699 -25.5 9s-16.834 6.16602 -24.501 8.49902s-14.5 3.5 -20.5 3.5
c-8 0 -14.667 -3 -20 -9s-8 -12.333 -8 -19h-38c0 8.66699 1.66699 17.834 5 27.501s8 18.667 14 27s13.333 15.166 22 20.499s18 8 28 8c10.667 0 20.334 -1.16699 29.001 -3.5s17 -5.16602 25 -8.49902c7.33301 -3.33301 14.333 -6.33301 21 -9s13.334 -4 20.001 -4
c9.33301 0 16.5 2.66699 21.5 8s8.83301 12.333 11.5 21h37z" />
    <glyph glyph-name="hungarumlaut" unicode="&#x2dd;" horiz-adv-x="160" 
d="M31 390h-54l59 95h91zM163 390h-54l59 95h91z" />
    <glyph glyph-name="gravecomb" unicode="&#x300;" horiz-adv-x="0" 
d="M-15 522h-55l-94 95h89z" />
    <glyph glyph-name="acutecomb" unicode="&#x301;" horiz-adv-x="0" 
d="M-9 617l-94 -95h-55l60 95h89z" />
    <glyph glyph-name="tildecomb" unicode="&#x303;" horiz-adv-x="0" 
d="M-5 595c-3.33301 -21.333 -10.6699 -39.334 -22.0029 -54.001s-28.666 -22 -51.999 -22c-7.33301 0 -15.166 1.33301 -23.499 4s-16.666 5.5 -24.999 8.5l-24.5 8.5c-8 2.66699 -15 4 -21 4c-8 0 -14.667 -3 -20 -9s-8 -12.333 -8 -19h-38
c1.33301 8.66699 3.66602 17.334 6.99902 26.001s8 16.667 14 24s13 13.333 21 18s17 7 27 7s19.5 -1.33301 28.5 -4s17.333 -5.5 25 -8.5l21.5 -8.5c6.66699 -2.66699 13.334 -4 20.001 -4c9.33301 0 16.5 2.66699 21.5 8s8.83301 12.333 11.5 21h37z" />
    <glyph glyph-name="hookabovecomb" unicode="&#x309;" horiz-adv-x="0" 
d="M-17 603c0 -9.33301 -2.66895 -17.168 -8.00195 -23.501s-11.166 -12.333 -17.499 -18s-12.166 -11.5 -17.499 -17.5s-8 -13.333 -8 -22h-45c0.666992 12 3.33398 21.833 8.00098 29.5s9.66699 14.167 15 19.5l15 14.5c4.66699 4.33301 7 9.5 7 15.5
c0 3.33301 -1.33301 8 -4 14s-9.66699 9 -21 9c-12.667 0 -21.5 -4.66699 -26.5 -14s-7.5 -19.666 -7.5 -30.999h-44c0 24 6.66699 43.667 20 59s34 23 62 23c21.333 0 38.666 -5.33301 51.999 -16s20 -24.667 20 -42z" />
    <glyph glyph-name="dotbelowcomb" unicode="&#x323;" horiz-adv-x="0" 
d="M-192 -87c0 -13.333 -4.5 -24.666 -13.5 -33.999s-20.167 -14 -33.5 -14s-24.666 4.66699 -33.999 14s-14 20.666 -14 33.999s4.66699 24.5 14 33.5s20.666 13.5 33.999 13.5s24.5 -4.5 33.5 -13.5s13.5 -20.167 13.5 -33.5z" />
    <glyph glyph-name="alpha" unicode="&#x3b1;" horiz-adv-x="365" 
d="M343 -2c-5.33301 -2.66699 -10.666 -4.16602 -15.999 -4.49902s-9.66602 -0.5 -12.999 -0.5c-13.333 0 -25.333 3.33301 -36 10s-18.667 20 -24 40c-12.667 -12 -27.334 -23.333 -44.001 -34s-35.667 -16 -57 -16c-40 0 -72.333 14.667 -97 44s-37 69.333 -37 120
c0 26.667 4 51 12 73s18.667 40.667 32 56s28.833 27.166 46.5 35.499s36.167 12.5 55.5 12.5c21.333 0 38.833 -3.33301 52.5 -10s26.167 -17 37.5 -31l7 34h62c-0.666992 -8 -1.5 -20.333 -2.5 -37s-1.83301 -35.667 -2.5 -57s-1.33398 -43.833 -2.00098 -67.5
s-1 -46.5 -1 -68.5c0 -29.333 10.333 -44.333 31 -45zM246 169.001c0 11.333 -1.5 23.168 -4.5 35.501s-7.5 23.5 -13.5 33.5s-13.667 18.333 -23 25s-20 10 -32 10c-23.333 0 -42.5 -11 -57.5 -33s-22.5 -49 -22.5 -81c0 -13.333 1.66699 -26.333 5 -39
s8.33301 -23.834 15 -33.501s14.5 -17.5 23.5 -23.5s19.5 -9 31.5 -9c24 0 43 10 57 30s21 48.333 21 85z" />
    <glyph glyph-name="beta" unicode="&#x3b2;" horiz-adv-x="371" 
d="M346 133c0 -22.667 -3.99902 -42.668 -11.999 -60.001s-18.5 -32 -31.5 -44s-28 -21 -45 -27s-34.5 -9 -52.5 -9c-19.333 0 -36.333 2.66699 -51 8s-28.334 12.666 -41.001 21.999v-25c0 -17.333 0.5 -37.666 1.5 -60.999s3.83301 -44 8.5 -62h-69
c-5.33301 12 -8.83301 28.5 -10.5 49.5s-2.5 42.833 -2.5 65.5v297c0 38.667 4 70.5 12 95.5s18.667 44.5 32 58.5s29 23.667 47 29s36.667 8 56 8c34.667 0 63.167 -10.667 85.5 -32s33.5 -50 33.5 -86c0 -20 -4.5 -38.667 -13.5 -56s-19.167 -31.666 -30.5 -42.999
c22.667 -8 42.167 -22.333 58.5 -43s24.5 -49 24.5 -85zM273.001 132.999c0 30 -9.16797 51.8359 -27.501 65.5029s-40.166 20.5 -65.499 20.5h-26v58h17c23.333 1.33301 40.333 9.16602 51 23.499s16 31.166 16 50.499s-5 35.166 -15 47.499s-23.333 18.5 -40 18.5
c-22.667 0 -40.167 -10.5 -52.5 -31.5s-18.5 -52.167 -18.5 -93.5v-202c8 -11.333 19 -20.333 33 -27s30.333 -10 49 -10c22 0 40.667 7.83301 56 23.5s23 34.5 23 56.5z" />
    <glyph glyph-name="gamma" unicode="&#x3b3;" horiz-adv-x="308" 
d="M184 -125l-74.001 0.000976562c0.666992 8.66699 1 19.5 1 32.5v35.5c0 17.333 -0.5 36.333 -1.5 57s-4.16699 40.667 -9.5 60c-6 24.667 -14 50.167 -24 76.5s-20.5 51.666 -31.5 75.999s-22 46.5 -33 66.5s-20.5 36 -28.5 48h83
c7.33301 -10.667 15.333 -24.167 24 -40.5s17.334 -34.333 26.001 -54s17 -40.667 25 -63s15 -44.5 21 -66.5c6.66699 12.667 13.667 27 21 43s13.833 32.333 19.5 49s10.334 33.5 14.001 50.5s5.5 33.5 5.5 49.5v32h69v-17c0 -28 -2.83301 -54.667 -8.5 -80
s-13.334 -49.666 -23.001 -72.999s-21 -46.333 -34 -69s-27.167 -45.334 -42.5 -68.001c-0.666992 -1.33301 -1 -3 -1 -5v-5c0.666992 -9.33301 1.16699 -19.833 1.5 -31.5s0.5 -23.667 0.5 -36v-36.5v-31z" />
    <glyph glyph-name="delta" unicode="&#x3b4;" horiz-adv-x="362" 
d="M337 159c0 -25.333 -4.17188 -48.3369 -12.5049 -69.0039s-19.666 -38.167 -33.999 -52.5s-31.166 -25.333 -50.499 -33s-40 -11.5 -62 -11.5c-21.333 0 -41.666 3.5 -60.999 10.5s-36.333 17.5 -51 31.5s-26.167 31.167 -34.5 51.5s-12.5 43.833 -12.5 70.5
c0 39.333 10.833 72.833 32.5 100.5s47.834 50.167 78.501 67.5l-4 3c-4 3.33301 -8.5 7.33301 -13.5 12s-9.66699 10 -14 16s-8.16602 12.5 -11.499 19.5s-5 14.167 -5 21.5c0 10 2.5 19.833 7.5 29.5s12.5 18.334 22.5 26.001s22.333 13.834 37 18.501s31.667 7 51 7
c11.333 0 22.666 -1.16699 33.999 -3.5s22 -5.16602 32 -8.49902s19 -7 27 -11s14.333 -8 19 -12l-21 -56c-4 3.33301 -9.5 6.83301 -16.5 10.5s-14.667 7.16699 -23 10.5s-16.833 6 -25.5 8s-17 3 -25 3c-15.333 0 -26.666 -2.16699 -33.999 -6.5s-11 -9.16602 -11 -14.499
c0 -2.66699 1.33301 -5.83398 4 -9.50098s7.5 -8.66699 14.5 -15s16.833 -14.5 29.5 -24.5l48 -39c23.333 -19.333 43.333 -41.666 60 -66.999s25 -53.333 25 -84zM262.995 154.996c0 20 -6.5 39.6699 -19.5 59.0029s-34.833 42.333 -65.5 69
c-10.667 -6 -21 -13.167 -31 -21.5s-19 -17.833 -27 -28.5s-14.5 -22.334 -19.5 -35.001s-7.5 -26.334 -7.5 -41.001c0 -32.667 9 -58.334 27 -77.001s38.333 -28 61 -28c21.333 0 40.333 9.16699 57 27.5s25 43.5 25 75.5z" />
    <glyph glyph-name="theta" unicode="&#x3b8;" horiz-adv-x="354" 
d="M330 239c0 -37.333 -3.16602 -71.168 -9.49902 -101.501s-15.833 -56.166 -28.5 -77.499s-28.667 -37.833 -48 -49.5s-42.333 -17.5 -69 -17.5c-48.667 0 -86.834 20.5 -114.501 61.5s-41.5 102.5 -41.5 184.5c0 34 3.33301 65.5 10 94.5s16.667 54.333 30 76
s29.833 38.5 49.5 50.5s42.5 18 68.5 18s48.667 -5.66699 68 -17s35.333 -27.5 48 -48.5s22 -46.167 28 -75.5s9 -62 9 -98zM257.001 273.998c0 20.667 -1.83301 39.835 -5.5 57.502s-9 33 -16 46s-15.5 23.333 -25.5 31s-22 11.5 -36 11.5c-12 0 -23 -4 -33 -12
s-18.5 -18.833 -25.5 -32.5s-12.5 -29.334 -16.5 -47.001s-6.33301 -35.834 -7 -54.501h165zM257.001 211.999h-165c0 -52 8.16699 -91.667 24.5 -119s36.5 -41 60.5 -41c26 0 45.667 15.167 59 45.5s20.333 68.5 21 114.5z" />
    <glyph glyph-name="lambda" unicode="&#x3bb;" horiz-adv-x="313" 
d="M309 0h-80.001l-77 223l-80 -223h-79l120 302c1.33301 4 2 7 2 9c0 3.33301 -1 7.66602 -3 12.999c-5.33301 12 -10.833 23.333 -16.5 34s-11.667 20.334 -18 29.001s-12.833 15.5 -19.5 20.5s-14 7.5 -22 7.5h-17l6 60c6.66699 1.33301 16 2 28 2
c16 0 30.5 -3.83301 43.5 -11.5s24.833 -18.334 35.5 -32.001s20.334 -29.667 29.001 -48s17 -38.166 25 -59.499z" />
    <glyph glyph-name="pi" unicode="&#x3c0;" horiz-adv-x="368" 
d="M345 266l-45.002 0.00195312v-165c0 -26 1.16699 -46.5 3.5 -61.5s5.5 -28.167 9.5 -39.5h-72c-3.33301 6.66699 -6.33301 17.667 -9 33s-4 36.333 -4 63v170h-84c-0.666992 -20 -2.16699 -42.667 -4.5 -68s-5.5 -50.333 -9.5 -75s-8.5 -47.834 -13.5 -69.501
s-10.833 -39.5 -17.5 -53.5h-73c6 16 11.667 35.167 17 57.5s10 45.666 14 69.999s7.33301 48.5 10 72.5s4.66699 46 6 66c-9.33301 0 -18.666 -0.5 -27.999 -1.5s-19.666 -3.5 -30.999 -7.5l-11 47c10 6.66699 22.5 12.167 37.5 16.5s35.167 6.5 60.5 6.5h250z" />
    <glyph glyph-name="uni0E00" unicode="&#xe00;" horiz-adv-x="428" 
 />
    <glyph glyph-name="uni0E01" unicode="&#xe01;" horiz-adv-x="438" 
d="M382 0h-65.998v274c0 50 -32.333 75 -97 75c-30.667 0 -56.334 -7 -77.001 -21c24 -9.33301 45 -22.333 63 -39c-9.33301 -4 -21 -13 -35 -27c-21.333 -20.667 -32 -42 -32 -64v-198h-66v204c0 19.333 5.33301 37 16 53s20.667 25.333 30 28c-20 18 -48 30 -84 36
c43.333 54.667 103.666 82 180.999 82c111.333 0 167 -44.333 167 -133v-270z" />
    <glyph glyph-name="uni0E02" unicode="&#xe02;" horiz-adv-x="432" 
d="M124 289c0 7.33301 -2.83301 13.833 -8.5 19.5s-12.167 8.5 -19.5 8.5s-13.833 -2.83301 -19.5 -8.5s-8.5 -12.167 -8.5 -19.5s2.83301 -13.833 8.5 -19.5s12.167 -8.5 19.5 -8.5s13.833 2.83301 19.5 8.5s8.5 12.167 8.5 19.5zM376 0h-234.001v57h36v133
c0 16 6 35.833 18 59.5s18 42.167 18 55.5c0 15.333 -6.16699 27.833 -18.5 37.5s-26.833 14.5 -43.5 14.5c-10 0 -19.333 -1.66699 -28 -5c12.667 0 23.834 -6.83301 33.501 -20.5s14.5 -27.5 14.5 -41.5c0 -21.333 -7.16699 -39 -21.5 -53s-31.833 -21 -52.5 -21
c-24 0 -43.5 7 -58.5 21s-22.5 31.667 -22.5 53c0 40 14 70.333 42 91c24 17.333 54.667 26 92 26c36 0 65.667 -8.66699 89 -26c24.667 -19.333 37 -45 37 -77c0 -16 -5.5 -34.833 -16.5 -56.5s-16.5 -41.5 -16.5 -59.5v-131h66v343h66v-400z" />
    <glyph glyph-name="uni0E03" unicode="&#xe03;" horiz-adv-x="437" 
d="M381 0l-233.999 -0.00195312v57h36v133c0 16 6.33301 35.5 19 58.5s19 41.833 19 56.5c0 11.333 -4.66699 23 -14 35l-40 -28l-46 31c-8.66699 0 -16.334 -2.83301 -23.001 -8.5s-10 -10.834 -10 -15.501h9c17.333 0 31.666 -6.16699 42.999 -18.5s17 -27.166 17 -44.499
c0 -18.667 -6.5 -34 -19.5 -46s-28.833 -18 -47.5 -18c-23.333 0 -41.666 8.66699 -54.999 26c-12 15.333 -18 34.333 -18 57c0 37.333 12 68 36 92c20.667 20.667 44.667 32.334 72 35.001l41 -32l45 32c50 -18 75 -49.333 75 -94
c0 -17.333 -6.16699 -37.666 -18.5 -60.999s-18.5 -43 -18.5 -59v-131h66v343h66v-400zM115.001 255.998c0 7.33301 -2.33301 13.333 -7 18s-10.667 7 -18 7s-13.333 -2.33301 -18 -7s-7 -10.667 -7 -18s2.33301 -13.333 7 -18s10.667 -7 18 -7s13.333 2.33301 18 7
s7 10.667 7 18z" />
    <glyph glyph-name="uni0E04" unicode="&#xe04;" horiz-adv-x="443" 
d="M387 0h-66v264c0 56.667 -33 85 -99 85c-66.667 0 -100.334 -28.333 -101.001 -85v-81l-7 -69l36 123c13.333 38 38.333 57 75 57c20.667 0 37.834 -6.66699 51.501 -20s20.5 -31 20.5 -53c0 -19.333 -7 -35.833 -21 -49.5s-31.667 -20.5 -53 -20.5
c-12 0 -26.667 4.33301 -44 13l-54 -164h-69v266c0 90.667 55 136 165 136c110.667 0 166 -45.333 166 -136v-266zM256 221c0 8.66699 -3 16 -9 22s-13.333 9 -22 9s-16 -3 -22 -9s-9 -13.333 -9 -22s3 -16 9 -22s13.333 -9 22 -9s16 3 22 9s9 13.333 9 22z" />
    <glyph glyph-name="uni0E05" unicode="&#xe05;" horiz-adv-x="458" 
d="M402 0l-66 -0.000976562v286c0 17.333 -5.66699 32.333 -17 45c-8.66699 9.33301 -16.334 14 -23.001 14l-67 -35l-66 35c-6 0 -13.333 -3.66699 -22 -11c-12.667 -12 -19 -28 -19 -48v-132l-8 -57l44 122c14 38 39.333 57 76 57c20.667 0 37.834 -6.66699 51.501 -20
s20.5 -31 20.5 -53c0 -19.333 -7 -35.833 -21 -49.5s-31.667 -20.5 -53 -20.5c-12 0 -26.667 4.33301 -44 13l-56 -146h-76v280c0 29.333 9.5 56.5 28.5 81.5s43.5 39.167 73.5 42.5l71 -34l71 34c27.333 -1.33301 50.333 -11.666 69 -30.999c22 -23.333 33 -54.333 33 -93
v-280zM265 203.999c0 8.66699 -3 16 -9 22s-13.333 9 -22 9s-16 -3 -22 -9s-9 -13.333 -9 -22s3 -16 9 -22s13.333 -9 22 -9s16 3 22 9s9 13.333 9 22z" />
    <glyph glyph-name="uni0E06" unicode="&#xe06;" horiz-adv-x="511" 
d="M455 0l-75 -0.00488281c-10 24 -28 47.5 -54 70.5s-50.333 37.167 -73 42.5v-48c0 -47.333 -24.333 -71 -73 -71c-26 0 -46.833 8 -62.5 24s-23.5 37.667 -23.5 65c0 36.667 14.667 63.334 44 80.001c16.667 10 33 15 49 15v60c0 16.667 8.16699 34.334 24.5 53.001
s24.5 28.667 24.5 30c0 7.33301 -8.33301 14.333 -25 21l-40 -28l-46 31c-8.66699 0 -16.334 -2.83301 -23.001 -8.5s-10 -10.834 -10 -15.501h9c17.333 0 31.666 -6.16699 42.999 -18.5s17 -27.166 17 -44.499c0 -18.667 -6.5 -34 -19.5 -46s-28.833 -18 -47.5 -18
c-23.333 0 -41.666 8.66699 -54.999 26c-12 15.333 -18 34.333 -18 57c0 37.333 12 68 36 92c20.667 20.667 44.667 32.334 72 35.001l41 -32l45 32c4.66699 0 19.334 -7 44.001 -21c30.667 -18 46 -36 46 -54c0 -7.33301 -8.66699 -20.666 -26 -39.999s-26 -37 -26 -53v-65
c23.333 -5.33301 48.5 -17.166 75.5 -35.499s47.167 -37.833 60.5 -58.5v323h66v-400zM187 115.995c-2 0.666992 -4.66699 1 -8 1c-17.333 0 -26 -13.667 -26 -41c0 -18.667 6.33301 -28 19 -28c10 0 15 9.66699 15 29v39zM119 258.995c0 7.33301 -2.33301 13.333 -7 18
s-10.667 7 -18 7s-13.333 -2.33301 -18 -7s-7 -10.667 -7 -18s2.33301 -13.333 7 -18s10.667 -7 18 -7s13.333 2.33301 18 7s7 10.667 7 18z" />
    <glyph glyph-name="uni0E07" unicode="&#xe07;" horiz-adv-x="338" 
d="M282 0l-72 0.000976562l-204 208l43 38l167 -171v179c-5.33301 -0.666992 -11 -1 -17 -1c-21.333 0 -39.333 6.33301 -54 19c-16.667 13.333 -25 31.666 -25 54.999c0 24 8.66699 43 26 57c14 11.333 31.333 17 52 17c56 0 84 -28 84 -84v-317zM226 325.001
c0 7.33301 -2.83301 13.833 -8.5 19.5s-12.167 8.5 -19.5 8.5s-13.833 -2.83301 -19.5 -8.5s-8.5 -12.167 -8.5 -19.5s2.83301 -13.833 8.5 -19.5s12.167 -8.5 19.5 -8.5s13.833 2.83301 19.5 8.5s8.5 12.167 8.5 19.5z" />
    <glyph glyph-name="uni0E08" unicode="&#xe08;" horiz-adv-x="421" 
d="M365 0h-69.999l-57 155c-16.667 -8.66699 -31.667 -13 -45 -13c-21.333 0 -38.833 6.83301 -52.5 20.5s-20.5 30.167 -20.5 49.5c0 22 6.66699 39.667 20 53s30.666 20 51.999 20c39.333 0 65.333 -19 78 -57l36 -110l-7 77v69c0 27.333 -9.5 48.333 -28.5 63
s-43.5 22 -73.5 22c-34 0 -60.5 -8.16699 -79.5 -24.5s-28.5 -38.5 -28.5 -66.5v-48h-63v50c0 36 12.667 67.333 38 94c31.333 32 76.333 48 135 48c58 0 101.333 -14.667 130 -44c24 -24 36 -54.667 36 -92v-266zM223.001 212c0 8.66699 -3 16 -9 22s-13.333 9 -22 9
s-16 -3 -22 -9s-9 -13.333 -9 -22s3 -16 9 -22s13.333 -9 22 -9s16 3 22 9s9 13.333 9 22z" />
    <glyph glyph-name="uni0E09" unicode="&#xe09;" horiz-adv-x="460" 
d="M445 69c0 -20.667 -6.66797 -38.498 -20.001 -53.498s-31 -22.5 -53 -22.5c-29.333 0 -50.666 10 -63.999 30c-8 12 -12 25.333 -12 40v5c-27.333 -18.667 -51.333 -41.334 -72 -68.001h-71v99c0 19.333 3.33301 29.666 10 30.999c-18 0 -33.667 7 -47 21s-20 30 -20 48
c0 19.333 7 36.166 21 50.499s32.333 21.5 55 21.5c20 0 37.333 -6.16699 52 -18.5s22 -29.166 22 -50.499c0 -16 -4.5 -31.833 -13.5 -47.5s-13.5 -29.834 -13.5 -42.501v-46c8 8 28 24.667 60 50c19.333 14 39 25.667 59 35v87c0 35.333 -11.5 62.5 -34.5 81.5
s-52.833 28.5 -89.5 28.5c-56.667 0 -96 -19.333 -118 -58c-11.333 -20 -17 -41.667 -17 -65h-59c0 40 9 74 27 102c32.667 50 89.667 75 171 75c60 0 107 -15.667 141 -47c30 -27.333 45 -60.666 45 -99.999v-104l-8 -12c32.667 -14.667 49 -38 49 -70zM197.999 199.002
c0 8 -2.83301 14.833 -8.5 20.5s-12.5 8.5 -20.5 8.5s-14.667 -2.83301 -20 -8.5s-8 -12.5 -8 -20.5s2.66699 -14.667 8 -20s12 -8 20 -8s14.833 2.66699 20.5 8s8.5 12 8.5 20zM398.999 67.002c0 8 -2.83301 14.833 -8.5 20.5s-12.5 8.5 -20.5 8.5
s-14.833 -2.83301 -20.5 -8.5s-8.5 -12.5 -8.5 -20.5s2.83301 -14.833 8.5 -20.5s12.5 -8.5 20.5 -8.5s14.833 2.83301 20.5 8.5s8.5 12.5 8.5 20.5z" />
    <glyph glyph-name="uni0E0A" unicode="&#xe0a;" horiz-adv-x="432" 
d="M376 0l-234 -0.000976562v57h36v165c0 26 5 44.333 15 55l48 52c-6.66699 5.33301 -13.667 9.66602 -21 12.999c-18 8.66699 -37 13.334 -57 14.001c-13.333 0.666992 -26.333 -0.666016 -39 -3.99902c12.667 0 23.834 -6.83301 33.501 -20.5s14.5 -27.5 14.5 -41.5
c0 -22.667 -7.66699 -40.667 -23 -54s-34 -20 -56 -20c-22.667 0 -41 7.16699 -55 21.5s-21 32.833 -21 55.5c0 37.333 14.333 66.333 43 87c25.333 18 56.666 27 93.999 27c45.333 0 87.333 -12 126 -36l82 87l44 -38l-76 -78l46 -39v-303zM310 56.999v231l-18 13l-29 -33
c-12.667 -14.667 -19 -31 -19 -49v-162h66zM124 288.999c0 7.33301 -2.83301 13.833 -8.5 19.5s-12.167 8.5 -19.5 8.5s-13.833 -2.83301 -19.5 -8.5s-8.5 -12.167 -8.5 -19.5s2.83301 -13.833 8.5 -19.5s12.167 -8.5 19.5 -8.5s13.833 2.83301 19.5 8.5
s8.5 12.167 8.5 19.5z" />
    <glyph glyph-name="uni0E0B" unicode="&#xe0b;" horiz-adv-x="438" 
d="M382 0h-233.999v57h36v165c0 26 5 44.333 15 55l48 52l-25 15l-45 -31l-56 37c-8.66699 0 -16.334 -2.83301 -23.001 -8.5s-10 -10.834 -10 -15.501h9c17.333 0 31.666 -6.16699 42.999 -18.5s17 -27.166 17 -44.499c0 -18.667 -6.5 -34 -19.5 -46s-28.833 -18 -47.5 -18
c-23.333 0 -41.666 8.66699 -54.999 26c-12 15.333 -18 34.333 -18 57c0 37.333 12 68 36 92c20.667 20 44.667 31 72 33l50 -36l52 37l59 -37l82 87l44 -38l-76 -78l46 -39v-303zM316.001 57v231l-18 13l-29 -33c-12.667 -14.667 -19 -31 -19 -49v-162h66zM114.001 263
c0 7.33301 -2.33301 13.333 -7 18s-10.667 7 -18 7s-13.166 -2.33301 -17.499 -7s-6.5 -10.667 -6.5 -18s2.16699 -13.166 6.5 -17.499s10.166 -6.5 17.499 -6.5s13.333 2.16699 18 6.5s7 10.166 7 17.499z" />
    <glyph glyph-name="uni0E0C" unicode="&#xe0c;" horiz-adv-x="624" 
d="M568 0l-65.9971 -0.000976562c-19.333 46 -47.333 78 -84 96c2.66699 -11.333 4 -21 4 -29c0 -20.667 -7.16699 -38 -21.5 -52s-31.833 -21 -52.5 -21c-22 0 -40.333 6.33301 -55 19s-22 30.334 -22 53.001c0 33.333 15 57.333 45 72v136c0 50 -32.333 75 -97 75
c-30.667 0 -56.334 -7 -77.001 -21c24 -9.33301 45 -22.333 63 -39c-9.33301 -4 -21 -13 -35 -27c-21.333 -20.667 -32 -42 -32 -64v-54c5.33301 0.666992 10.666 1 15.999 1c21.333 0 40 -6.5 56 -19.5s24 -31.167 24 -54.5c0 -24 -8.66699 -43 -26 -57
c-14.667 -12 -32 -18 -52 -18c-30.667 0 -53 10 -67 30c-11.333 14.667 -17 33 -17 55v123c0 19.333 5.33301 37 16 53s20.667 25.333 30 28c-20 18 -48 30 -84 36c43.333 54.667 103.666 82 180.999 82c111.333 0 167 -44.333 167 -133v-113
c49.333 -6 89.333 -27.667 120 -65v308h66v-400zM373.003 67.999c0 8 -2.66699 14.667 -8 20s-12 8 -20 8s-14.5 -2.66699 -19.5 -8s-7.5 -12 -7.5 -20s2.5 -14.5 7.5 -19.5s11.5 -7.5 19.5 -7.5s14.667 2.5 20 7.5s8 11.5 8 19.5zM184.003 71.999
c0 8 -2.66699 14.667 -8 20s-12 8 -20 8s-14.667 -2.66699 -20 -8s-8 -12 -8 -20s2.66699 -14.667 8 -20s12 -8 20 -8s14.667 2.66699 20 8s8 12 8 20z" />
    <glyph glyph-name="uni0E0D" unicode="&#xe0d;" horiz-adv-x="624" 
d="M566 -41c0 -20.667 -8 -44 -24 -70c-29.333 -44.667 -75.666 -67 -138.999 -67c-31.333 0 -55.333 7 -72 21s-25 31.667 -25 53c0 19.333 6.66699 35.333 20 48s30.333 19 51 19c18 0 33.5 -6 46.5 -18s19.5 -27 19.5 -45c0 -8 -1.33301 -15 -4 -21
c19.333 0 35.166 7 47.499 21s18.5 33.667 18.5 59h61zM568 0h-251.997v274c0 50 -32.333 75 -97 75c-30.667 0 -56.334 -7 -77.001 -21c24 -9.33301 45 -22.333 63 -39c-9.33301 -4 -21 -13 -35 -27c-21.333 -20.667 -32 -42 -32 -64v-54
c5.33301 0.666992 10.666 1 15.999 1c21.333 0 40 -6.5 56 -19.5s24 -31.167 24 -54.5c0 -24 -8.66699 -43 -26 -57c-14.667 -12 -32 -18 -52 -18c-30.667 0 -53 10 -67 30c-11.333 14.667 -17 33 -17 55v123c0 19.333 5.33301 37 16 53s20.667 25.333 30 28
c-20 18 -48 30 -84 36c43.333 54.667 103.666 82 180.999 82c111.333 0 167 -44.333 167 -133v-213h120v343h66v-400zM184.003 72c0 8 -2.66699 14.667 -8 20s-12 8 -20 8s-14.667 -2.66699 -20 -8s-8 -12 -8 -20s2.66699 -14.667 8 -20s12 -8 20 -8s14.667 2.66699 20 8
s8 12 8 20zM403.003 -103c0 8 -2.66699 14.667 -8 20s-12 8 -20 8s-14.667 -2.66699 -20 -8s-8 -12 -8 -20s2.66699 -14.667 8 -20s12 -8 20 -8s14.667 2.66699 20 8s8 12 8 20z" />
    <glyph glyph-name="uni0E0E" unicode="&#xe0e;" horiz-adv-x="484" 
d="M428 -112l-90 -100l-126 68c0 -13.333 -6.66699 -28.333 -20 -45c-18.667 -16.667 -40.334 -25 -65.001 -25c-23.333 0 -42.666 7 -57.999 21c-17.333 16 -26 36.333 -26 61c0 22.667 7.5 41.667 22.5 57s34.833 23 59.5 23c14.667 0 28.667 -3 42 -9v26h54v-49l100 -55
l41 40v373c0 50 -31 75 -93 75c-30.667 0 -55 -7 -73 -21c24.667 -9.33301 45.667 -22.333 63 -39c-11.333 -4.66699 -23.666 -13.667 -36.999 -27c-20 -20.667 -30 -42 -30 -64v-121c0 -22 -5.33301 -40.333 -16 -55c-14.667 -20 -37.334 -30 -68.001 -30
c-20 0 -37.333 6 -52 18c-17.333 14 -26 33 -26 57c0 23.333 8.33301 41.666 25 54.999c14.667 12.667 32.667 19 54 19c6 0 11.667 -0.333008 17 -1v64c0 18.667 6.33301 37 19 55c10 14.667 19 23.334 27 26.001c-22.667 14.667 -50.667 26.667 -84 36
c43.333 54.667 102.333 82 177 82c108.667 0 163 -44.333 163 -133v-382zM136 68c0 8 -2.66699 14.667 -8 20s-12 8 -20 8s-14.667 -2.66699 -20 -8s-8 -12 -8 -20s2.66699 -14.667 8 -20s12 -8 20 -8s14.667 2.66699 20 8s8 12 8 20zM153 -132
c0 8.66699 -2.66699 15.667 -8 21s-12.333 8 -21 8s-15.667 -2.66699 -21 -8s-8 -12.333 -8 -21s2.66699 -15.667 8 -21s12.333 -8 21 -8s15.667 2.66699 21 8s8 12.333 8 21z" />
    <glyph glyph-name="uni0E0F" unicode="&#xe0f;" horiz-adv-x="484" 
d="M428 -112l-89.999 -101.001l-61 62l-57 -62l-50 58c-0.666992 -10.667 -7.66699 -22 -21 -34c-16.667 -14.667 -35.667 -22 -57 -22c-22.667 0 -42 7.33301 -58 22s-24 34.334 -24 59.001c0 22.667 7.66699 41.667 23 57s35.666 23 60.999 23c14.667 0 28 -3 40 -9v27h59
v-60l31 -31l51 49l54 -55l33 37v366c0 50 -31 75 -93 75c-30.667 0 -55 -7 -73 -21c24.667 -9.33301 45.667 -22.333 63 -39c-11.333 -4.66699 -23.666 -13.667 -36.999 -27c-20 -20.667 -30 -42 -30 -64v-121c0 -22 -5.33301 -40.333 -16 -55
c-14.667 -20 -37.334 -30 -68.001 -30c-20 0 -37.333 6 -52 18c-17.333 14 -26 33 -26 57c0 23.333 8.33301 41.666 25 54.999c14.667 12.667 32.667 19 54 19c6 0 11.667 -0.333008 17 -1v64c0 18.667 6.33301 37 19 55c10 14.667 19 23.334 27 26.001
c-22.667 14.667 -50.667 26.667 -84 36c43.333 54.667 102.333 82 177 82c108.667 0 163 -44.333 163 -133v-382zM120.001 -131.001c0 20 -9.66699 30 -29 30s-29 -10 -29 -30c0 -19.333 9.66699 -29 29 -29s29 9.66699 29 29zM136.001 67.999c0 8 -2.66699 14.667 -8 20
s-12 8 -20 8s-14.667 -2.66699 -20 -8s-8 -12 -8 -20s2.66699 -14.667 8 -20s12 -8 20 -8s14.667 2.66699 20 8s8 12 8 20z" />
    <glyph glyph-name="uni0E10" unicode="&#xe10;" horiz-adv-x="400" 
d="M309 0h-106l-20 86c-8.66699 -7.33301 -21 -11 -37 -11c-22 0 -39.667 7 -53 21s-20 31 -20 51c0 20.667 6.83301 38 20.5 52s30.834 21 51.501 21c42.667 0 69 -22 79 -66l22 -97h8l28 121c0.666992 6 1 9.66699 1 11c0 49.333 -48.333 74 -145 74
c-34 0 -66.667 -3.33301 -98 -10c-0.666992 6 -1 10.667 -1 14c0 40 9.66699 72.333 29 97s51.333 37 96 37c12 0 29.167 -1.16699 51.5 -3.5s37.833 -3.5 46.5 -3.5c26.667 0 40 8 40 24c0 0.666992 -0.333008 4 -1 10h65c0 -30.667 -5.83301 -52.5 -17.5 -65.5
s-33.834 -19.5 -66.501 -19.5c-8.66699 0 -26.334 1.16699 -53.001 3.5s-47.667 3.5 -63 3.5c-36.667 0 -55 -13 -55 -39c-2 0 3.33301 0.666992 16 2s25.334 2 38.001 2c122.667 0 184 -37 184 -111c0 -8.66699 -0.666992 -18 -2 -28zM369 -199l-70.999 -57.999l-69 45
l-37 -43l-49 44c-11.333 -34 -35.333 -51 -72 -51c-21.333 0 -39.5 7.5 -54.5 22.5s-22.5 33.167 -22.5 54.5s7.5 39.5 22.5 54.5s33.167 22.5 54.5 22.5c9.33301 0 19 -1.66699 29 -5v68h49v-96l44 -45l29 34l72 -47l11 8v31c-4.66699 -0.666992 -7.66699 -1 -9 -1
c-16.667 0 -31.334 5.66699 -44.001 17c-14.667 12 -22 27.667 -22 47s6.66699 35.166 20 47.499s29 18.5 47 18.5c48 0 72 -28.333 72 -85v-83zM174.001 147.001c0 8 -2.83301 14.833 -8.5 20.5s-12.5 8.5 -20.5 8.5s-14.833 -2.83301 -20.5 -8.5s-8.5 -12.5 -8.5 -20.5
s2.83301 -14.833 8.5 -20.5s12.5 -8.5 20.5 -8.5s14.833 2.83301 20.5 8.5s8.5 12.5 8.5 20.5zM322.001 -95.999c0 7.33301 -2.33301 13.333 -7 18s-10.667 7 -18 7s-13.333 -2.33301 -18 -7s-7 -10.667 -7 -18s2.33301 -13.333 7 -18s10.667 -7 18 -7s13.333 2.33301 18 7
s7 10.667 7 18zM100.001 -184.999c0 8.66699 -2.83301 15.834 -8.5 21.501s-12.834 8.5 -21.501 8.5s-15.834 -2.83301 -21.501 -8.5s-8.5 -12.834 -8.5 -21.501s2.83301 -15.834 8.5 -21.501s12.834 -8.5 21.501 -8.5s15.834 2.83301 21.501 8.5s8.5 12.834 8.5 21.501z
" />
    <glyph glyph-name="uni0E11" unicode="&#xe11;" horiz-adv-x="545" 
d="M489 0l-66.001 -0.000976562v314c0 19.333 -6.33301 29 -19 29l-155 -343h-66v237c0 16 4.83301 30.833 14.5 44.5l29.5 41.5c0.666992 0.666992 1 2 1 4c0 6 -6.66699 11 -20 15l-41 -29l-46 31c-8 0 -15.5 -2.83301 -22.5 -8.5s-10.5 -10.834 -10.5 -15.501h9
c17.333 0 31.666 -6.16699 42.999 -18.5s17 -27.166 17 -44.499c0 -18.667 -6.5 -34 -19.5 -46s-28.833 -18 -47.5 -18c-23.333 0 -41.666 8.66699 -54.999 26c-12 15.333 -18 34.333 -18 57c0 37.333 12 68 36 92c20.667 20.667 44.667 32.334 72 35.001l41 -32l45 32
c12.667 -4 24.667 -9 36 -15c24.667 -14 42.334 -32.333 53.001 -55l-25.5 -34.5c-17 -23 -25.5 -44.167 -25.5 -63.5v-66l-6 -52l124 283h42c23.333 0 42.5 -8.66699 57.5 -26s22.5 -39.333 22.5 -66v-308zM114.999 256.999c0 7.33301 -2.33301 13.333 -7 18
s-10.667 7 -18 7s-13.333 -2.33301 -18 -7s-7 -10.667 -7 -18s2.33301 -13.333 7 -18s10.667 -7 18 -7s13.333 2.33301 18 7s7 10.667 7 18z" />
    <glyph glyph-name="uni0E12" unicode="&#xe12;" horiz-adv-x="632" 
d="M386 65c0 8 -2.66699 14.667 -8 20s-12 8 -20 8s-14.667 -2.66699 -20 -8s-8 -12 -8 -20s2.66699 -14.667 8 -20s12 -8 20 -8s14.667 2.66699 20 8s8 12 8 20zM267 214c0 8.66699 -3 16 -9 22s-13.333 9 -22 9s-16 -3 -22 -9s-9 -13.333 -9 -22s3 -16 9 -22
s13.333 -9 22 -9s16 3 22 9s9 13.333 9 22zM576 0l-68.998 -0.000976562c-14 38.667 -38.667 66.334 -74 83.001c1.33301 -6.66699 2 -12 2 -16c0 -20.667 -7.66699 -38.667 -23 -54s-33.333 -23 -54 -23s-38.667 7.66699 -54 23s-23 33.333 -23 54
c0 18 6.16699 34.167 18.5 48.5s27.166 23.166 44.499 26.499v144c0 20 -6.33301 36 -19 48c-8.66699 7.33301 -16 11 -22 11l-66 -35l-66 35c-6 0 -13.333 -3.66699 -22 -11c-12.667 -12 -19 -28 -19 -48v-215l82 78c-6.66699 0 -15.334 4 -26.001 12
c-16.667 12.667 -25 29.667 -25 51c0 20 6.5 37.167 19.5 51.5s30.833 21.833 53.5 22.5c26.667 0.666992 47 -7.33301 61 -24c10.667 -13.333 16 -29.666 16 -48.999c0 -22.667 -10.333 -44.667 -31 -66l-144 -147h-72v280c0 30.667 6 56.334 18 77.001
c17.333 29.333 45.333 45 84 47l71 -34l71 34c38.667 -2 66.667 -17.667 84 -47c12 -20.667 18 -46.334 18 -77.001v-132c42 -9.33301 75.333 -28 100 -56v308h66v-400z" />
    <glyph glyph-name="uni0E13" unicode="&#xe13;" horiz-adv-x="616" 
d="M599 75c0 -24 -8.3291 -43.666 -24.9961 -58.999s-35.667 -23 -57 -23c-32.667 0 -56.667 11.667 -72 35c-8.66699 13.333 -13 25.666 -13 36.999c-23.333 -16 -41 -37.667 -53 -65h-66v274c0 50 -32.333 75 -97 75c-30.667 0 -56.334 -7 -77.001 -21
c24 -9.33301 45 -22.333 63 -39c-9.33301 -4 -21 -13 -35 -27c-21.333 -20.667 -32 -42 -32 -64v-54c5.33301 0.666992 10.666 1 15.999 1c21.333 0 40 -6.5 56 -19.5s24 -31.167 24 -54.5c0 -24 -8.66699 -43 -26 -57c-14.667 -12 -32 -18 -52 -18c-30.667 0 -53 10 -67 30
c-11.333 14.667 -17 33 -17 55v123c0 19.333 5.33301 37 16 53s20.667 25.333 30 28c-20 18 -48 30 -84 36c43.333 54.667 103.666 82 180.999 82c111.333 0 167 -44.333 167 -133v-179c31.333 38 69.666 68.333 114.999 91v218h66v-226l-25 -18
c42.667 -11.333 64 -38.333 64 -81zM181.004 72.001c0 8 -2.66699 14.667 -8 20s-12 8 -20 8s-14.667 -2.66699 -20 -8s-8 -12 -8 -20s2.66699 -14.667 8 -20s12 -8 20 -8s14.667 2.66699 20 8s8 12 8 20zM546.004 76.001c0 9.33301 -3 17 -9 23s-13.667 9 -23 9
s-16.833 -3 -22.5 -9s-8.5 -13.667 -8.5 -23s2.83301 -16.833 8.5 -22.5s13.167 -8.5 22.5 -8.5s17 2.83301 23 8.5s9 13.167 9 22.5z" />
    <glyph glyph-name="uni0E14" unicode="&#xe14;" horiz-adv-x="458" 
d="M402 0h-65.999v264c0 56.667 -35.667 85 -107 85s-107 -28.333 -107 -85v-187l81 89c-6.66699 0 -15.334 4.33301 -26.001 13c-15.333 12 -23 29 -23 51c0 20.667 6.16699 38 18.5 52s30.166 21.333 53.499 22c26 0.666992 46 -7 60 -23c11.333 -12.667 17 -29 17 -49
c0 -20.667 -10.333 -43 -31 -67l-144 -165h-72v266c0 36 13.333 66.667 40 92c30.667 29.333 74.667 44 132 44c60.667 0 106.334 -14.667 137.001 -44c24.667 -24 37 -54.667 37 -92v-266zM259.001 232c0 8.66699 -3 16 -9 22s-13.333 9 -22 9s-16 -3 -22 -9
s-9 -13.333 -9 -22s3 -16 9 -22s13.333 -9 22 -9s16 3 22 9s9 13.333 9 22z" />
    <glyph glyph-name="uni0E15" unicode="&#xe15;" horiz-adv-x="458" 
d="M402 0l-65.999 -0.000976562v286c0 20 -6.33301 36 -19 48c-8.66699 7.33301 -16 11 -22 11l-66 -35l-66 35c-6 0 -13.333 -3.66699 -22 -11c-12.667 -12 -19 -28 -19 -48v-215l82 78c-6.66699 0 -15.334 4 -26.001 12c-16.667 12.667 -25 29.667 -25 51
c0 20 6.5 37.167 19.5 51.5s30.833 21.833 53.5 22.5c26.667 0.666992 47 -7.33301 61 -24c10.667 -13.333 16 -29.666 16 -48.999c0 -22.667 -10.333 -44.667 -31 -66l-144 -147h-72v280c0 65.333 34 106.666 102 123.999l71 -34l71 34
c68 -17.333 102 -58.666 102 -123.999v-280zM259.001 213.999c0 8.66699 -3 16 -9 22s-13.333 9 -22 9s-16 -3 -22 -9s-9 -13.333 -9 -22s3 -16 9 -22s13.333 -9 22 -9s16 3 22 9s9 13.333 9 22z" />
    <glyph glyph-name="uni0E16" unicode="&#xe16;" horiz-adv-x="438" 
d="M382 0h-65.9971v274c0 50 -32.333 75 -97 75c-30.667 0 -56.334 -7 -77.001 -21c24 -9.33301 45 -22.333 63 -39c-9.33301 -4 -21 -13 -35 -27c-21.333 -20.667 -32 -42 -32 -64v-54c5.33301 0.666992 10.666 1 15.999 1c21.333 0 40 -6.5 56 -19.5s24 -31.167 24 -54.5
c0 -24 -8.66699 -43 -26 -57c-14.667 -12 -32 -18 -52 -18c-30.667 0 -53 10 -67 30c-11.333 14.667 -17 33 -17 55v123c0 19.333 5.33301 37 16 53s20.667 25.333 30 28c-20 18 -48 30 -84 36c43.333 54.667 103.666 82 180.999 82c111.333 0 167 -44.333 167 -133v-270z
M184.003 72c0 8 -2.66699 14.667 -8 20s-12 8 -20 8s-14.667 -2.66699 -20 -8s-8 -12 -8 -20s2.66699 -14.667 8 -20s12 -8 20 -8s14.667 2.66699 20 8s8 12 8 20z" />
    <glyph glyph-name="uni0E17" unicode="&#xe17;" horiz-adv-x="486" 
d="M430 0h-65.999v314c0 20 -9 30 -27 30c-4 0 -7 -0.333008 -9 -1l-138 -343h-66v254c-8 -0.666992 -13.667 -1 -17 -1c-21.333 0 -39.833 6.66699 -55.5 20s-23.5 31.333 -23.5 54c0 21.333 7.16699 39 21.5 53s33.166 21 56.499 21c56 0 84 -28 84 -84v-115l-8 -81
l106 279h50c28.667 0 51.167 -7.83301 67.5 -23.5s24.5 -38.5 24.5 -68.5v-308zM134.001 326c0 8 -2.66699 14.667 -8 20s-12 8 -20 8s-14.667 -2.66699 -20 -8s-8 -12 -8 -20s2.66699 -14.667 8 -20s12 -8 20 -8s14.667 2.66699 20 8s8 12 8 20z" />
    <glyph glyph-name="uni0E18" unicode="&#xe18;" horiz-adv-x="415" 
d="M355 0h-282.001v57h32v170h-55v23c0 38 12.667 71 38 99c32 35.333 77.333 53 136 53c84.667 0 140.667 -25.333 168 -76l-53 -30c-17.333 34.667 -53.333 52 -108 52c-63.333 0 -98.666 -21.333 -105.999 -64h143c58 0 87 -30.667 87 -92v-192zM288.999 57v133
c0 24.667 -11.333 37 -34 37h-84v-170h118z" />
    <glyph glyph-name="uni0E19" unicode="&#xe19;" horiz-adv-x="470" 
d="M444 72c0 -24 -8.3291 -43.498 -24.9961 -58.498s-35.667 -22.5 -57 -22.5c-32.667 0 -56.334 11 -71.001 33c-8.66699 13.333 -13 28.666 -13 45.999v7c-35.333 -16.667 -64 -42.334 -86 -77.001h-68v254c-8 -0.666992 -13.667 -1 -17 -1
c-21.333 0 -39.833 6.66699 -55.5 20s-23.5 31.333 -23.5 54c0 21.333 7.16699 39 21.5 53s33.166 21 56.499 21c56 0 84 -27.667 84 -83v-240c9.33301 8.66699 27.666 21 54.999 37s52.666 29.667 75.999 41c18 10.667 27 26.667 27 48v196h66v-205
c0 -9.33301 -2.66699 -17.833 -8 -25.5s-11 -13.167 -17 -16.5c36.667 -16 55 -43 55 -81zM134.004 326.002c0 8 -2.66699 14.667 -8 20s-12 8 -20 8s-14.667 -2.66699 -20 -8s-8 -12 -8 -20s2.66699 -14.667 8 -20s12 -8 20 -8s14.667 2.66699 20 8s8 12 8 20z
M391.004 73.002c0 9.33301 -3 17 -9 23s-13.667 9 -23 9s-16.833 -3 -22.5 -9s-8.5 -13.667 -8.5 -23s2.83301 -16.833 8.5 -22.5s13.167 -8.5 22.5 -8.5s17 2.83301 23 8.5s9 13.167 9 22.5z" />
    <glyph glyph-name="uni0E1A" unicode="&#xe1a;" horiz-adv-x="486" 
d="M430 0h-337.999v57h32v197c-8 -0.666992 -13.667 -1 -17 -1c-21.333 0 -39.833 6.66699 -55.5 20s-23.5 31.333 -23.5 54c0 21.333 7.16699 39 21.5 53s33.166 21 56.499 21c56 0 84 -27.667 84 -83v-261h174v343h66v-400zM134.001 326c0 8 -2.66699 14.667 -8 20
s-12 8 -20 8s-14.667 -2.66699 -20 -8s-8 -12 -8 -20s2.66699 -14.667 8 -20s12 -8 20 -8s14.667 2.66699 20 8s8 12 8 20z" />
    <glyph glyph-name="uni0E1B" unicode="&#xe1b;" horiz-adv-x="486" 
d="M430 0h-337.999v57h32v197c-8 -0.666992 -13.667 -1 -17 -1c-21.333 0 -39.833 6.66699 -55.5 20s-23.5 31.333 -23.5 54c0 21.333 7.16699 39 21.5 53s33.166 21 56.499 21c56 0 84 -27.667 84 -83v-261h174v567h66v-624zM134.001 326c0 8 -2.66699 14.667 -8 20
s-12 8 -20 8s-14.667 -2.66699 -20 -8s-8 -12 -8 -20s2.66699 -14.667 8 -20s12 -8 20 -8s14.667 2.66699 20 8s8 12 8 20z" />
    <glyph glyph-name="uni0E1C" unicode="&#xe1c;" horiz-adv-x="438" 
d="M382 0h-65.999l-96 128l-96 -128h-66v317c0 56 28 84 84 84c23.333 0 42.166 -7 56.499 -21s21.5 -31.667 21.5 -53c0 -22.667 -7.83301 -40.667 -23.5 -54s-34.167 -20 -55.5 -20c-3.33301 0 -9 0.333008 -17 1v-160l75 95h45l72 -95v306h66v-400zM170.001 326
c0 8 -2.66699 14.667 -8 20s-12 8 -20 8s-14.667 -2.66699 -20 -8s-8 -12 -8 -20s2.66699 -14.667 8 -20s12 -8 20 -8s14.667 2.66699 20 8s8 12 8 20z" />
    <glyph glyph-name="uni0E1D" unicode="&#xe1d;" horiz-adv-x="438" 
d="M382 0h-65.999l-96 128l-96 -128h-66v317c0 56 28 84 84 84c23.333 0 42.166 -7 56.499 -21s21.5 -31.667 21.5 -53c0 -22.667 -7.83301 -40.667 -23.5 -54s-34.167 -20 -55.5 -20c-3.33301 0 -9 0.333008 -17 1v-160l75 95h45l72 -95v530h66v-624zM170.001 326
c0 8 -2.66699 14.667 -8 20s-12 8 -20 8s-14.667 -2.66699 -20 -8s-8 -12 -8 -20s2.66699 -14.667 8 -20s12 -8 20 -8s14.667 2.66699 20 8s8 12 8 20z" />
    <glyph glyph-name="uni0E1E" unicode="&#xe1e;" horiz-adv-x="522" 
d="M466 0h-73.999l-97 298l-97 -298h-74v254c-8 -0.666992 -13.667 -1 -17 -1c-21.333 0 -39.833 6.66699 -55.5 20s-23.5 31.333 -23.5 54c0 21.333 7.16699 39 21.5 53s33.166 21 56.499 21c56 0 84 -28 84 -84v-131l-4 -36l82 250h52l85 -250l-5 36v214h66v-400z
M134.001 326c0 8 -2.66699 14.667 -8 20s-12 8 -20 8s-14.667 -2.66699 -20 -8s-8 -12 -8 -20s2.66699 -14.667 8 -20s12 -8 20 -8s14.667 2.66699 20 8s8 12 8 20z" />
    <glyph glyph-name="uni0E1F" unicode="&#xe1f;" horiz-adv-x="522" 
d="M466 0h-73.999l-97 298l-97 -298h-74v254c-8 -0.666992 -13.667 -1 -17 -1c-21.333 0 -39.833 6.66699 -55.5 20s-23.5 31.333 -23.5 54c0 21.333 7.16699 39 21.5 53s33.166 21 56.499 21c56 0 84 -28 84 -84v-131l-4 -36l82 250h52l85 -250l-5 36v438h66v-624z
M134.001 326c0 8 -2.66699 14.667 -8 20s-12 8 -20 8s-14.667 -2.66699 -20 -8s-8 -12 -8 -20s2.66699 -14.667 8 -20s12 -8 20 -8s14.667 2.66699 20 8s8 12 8 20z" />
    <glyph glyph-name="uni0E20" unicode="&#xe20;" horiz-adv-x="484" 
d="M428 0h-66v274c0 50 -31 75 -93 75c-30.667 0 -55 -7 -73 -21c24.667 -9.33301 45.667 -22.333 63 -39c-11.333 -4.66699 -23.666 -13.667 -36.999 -27c-20 -20.667 -30 -42 -30 -64v-121c0 -22 -5.33301 -40.333 -16 -55c-14.667 -20 -37.334 -30 -68.001 -30
c-20 0 -37.333 6 -52 18c-17.333 14 -26 33 -26 57c0 23.333 8.33301 41.666 25 54.999c14.667 12.667 32.667 19 54 19c6 0 11.667 -0.333008 17 -1v64c0 18.667 6.33301 37 19 55c10 14.667 19 23.334 27 26.001c-22.667 14.667 -50.667 26.667 -84 36
c43.333 54.667 102.333 82 177 82c108.667 0 163 -44.333 163 -133v-270zM136 68c0 8 -2.66699 14.667 -8 20s-12 8 -20 8s-14.667 -2.66699 -20 -8s-8 -12 -8 -20s2.66699 -14.667 8 -20s12 -8 20 -8s14.667 2.66699 20 8s8 12 8 20z" />
    <glyph glyph-name="uni0E21" unicode="&#xe21;" horiz-adv-x="473" 
d="M141 77l0.000976562 39c-2.66699 0.666992 -5.33398 1 -8.00098 1c-17.333 0 -26 -13.667 -26 -41c0 -18.667 6.33301 -28 19 -28c10 0 15 9.66699 15 29zM417.001 0l-74.999 -0.00195312c-37.333 56.667 -82.333 94.334 -135 113.001v-48c0 -47.333 -24.333 -71 -73 -71
c-26 0 -46.833 8 -62.5 24s-23.5 37.667 -23.5 65c0 56.667 31 88.334 93 95.001v76c-8 -0.666992 -13.667 -1 -17 -1c-21.333 0 -39.833 6.66699 -55.5 20s-23.5 31.333 -23.5 54c0 21.333 7.16699 39 21.5 53s33.166 21 56.499 21c56 0 84 -27.667 84 -83v-147
c58 -14 106 -45.333 144 -94v323h66v-400zM151.002 325.998c0 8 -2.66699 14.667 -8 20s-12 8 -20 8s-14.667 -2.66699 -20 -8s-8 -12 -8 -20s2.66699 -14.667 8 -20s12 -8 20 -8s14.667 2.66699 20 8s8 12 8 20z" />
    <glyph glyph-name="uni0E22" unicode="&#xe22;" horiz-adv-x="431" 
d="M375 0l-298 -0.000976562v92c0 32 7.66699 57 23 75c10.667 13.333 20.334 20 29.001 20c-14 0 -29 5 -45 15c-29.333 18.667 -44 48.334 -44 89.001c0 38.667 15.333 68.334 46 89.001c23.333 16 49.333 24 78 24c24 0 44.333 -6 61 -18c19.333 -14 29 -33.333 29 -58
c0 -22.667 -7.5 -40.834 -22.5 -54.501s-33.5 -20.5 -55.5 -20.5c-23.333 0 -42.333 8.33301 -57 25c-10.667 12.667 -16.334 25 -17.001 37c-2 -10.667 -3 -19.667 -3 -27c0 -46.667 36.333 -70 109 -70h42v-48h-33c-49.333 0 -74 -20.667 -74 -62v-51h166v343h66v-400z
M204 325.999c0 7.33301 -2.83301 13.833 -8.5 19.5s-12.167 8.5 -19.5 8.5s-13.833 -2.83301 -19.5 -8.5s-8.5 -12.167 -8.5 -19.5s2.83301 -13.833 8.5 -19.5s12.167 -8.5 19.5 -8.5s13.833 2.83301 19.5 8.5s8.5 12.167 8.5 19.5z" />
    <glyph glyph-name="uni0E23" unicode="&#xe23;" horiz-adv-x="362" 
d="M273 80c0 -22 -5.33203 -40.332 -15.999 -54.999c-14.667 -20 -37.334 -30 -68.001 -30c-20 0 -37.333 6 -52 18c-17.333 14 -26 33 -26 57c0 23.333 8.33301 41.666 25 54.999c14.667 12.667 32.667 19 54 19c6 0 11.667 -0.333008 17 -1v78h-179
c0 57.333 16.333 102.666 49 135.999c30.667 32 70 48 118 48c56.667 0 99.667 -16.667 129 -50c16 -19.333 24.667 -36.666 26 -51.999h-69c-14 30.667 -42 46 -84 46c-52.667 0 -84.667 -24.667 -96 -74h172v-195zM217.001 71.001c0 8 -2.66699 14.667 -8 20s-12 8 -20 8
s-14.667 -2.66699 -20 -8s-8 -12 -8 -20s2.66699 -14.667 8 -20s12 -8 20 -8s14.667 2.66699 20 8s8 12 8 20z" />
    <glyph glyph-name="uni0E24" unicode="&#xe24;" horiz-adv-x="438" 
d="M382 -144h-65.9971v418c0 50 -32.333 75 -97 75c-30.667 0 -56.334 -7 -77.001 -21c24 -9.33301 45 -22.333 63 -39c-9.33301 -4 -21 -13 -35 -27c-21.333 -20.667 -32 -42 -32 -64v-54c5.33301 0.666992 10.666 1 15.999 1c21.333 0 40 -6.5 56 -19.5
s24 -31.167 24 -54.5c0 -24 -8.66699 -43 -26 -57c-14.667 -12 -32 -18 -52 -18c-30.667 0 -53 10 -67 30c-11.333 14.667 -17 33 -17 55v123c0 19.333 5.33301 37 16 53s20.667 25.333 30 28c-20 18 -48 30 -84 36c43.333 54.667 103.666 82 180.999 82
c111.333 0 167 -44.333 167 -133v-414zM184.003 72c0 8 -2.66699 14.667 -8 20s-12 8 -20 8s-14.667 -2.66699 -20 -8s-8 -12 -8 -20s2.66699 -14.667 8 -20s12 -8 20 -8s14.667 2.66699 20 8s8 12 8 20z" />
    <glyph glyph-name="uni0E25" unicode="&#xe25;" horiz-adv-x="441" 
d="M385 0l-69.001 0.00292969c-8.66699 35.333 -26.5 80.666 -53.5 135.999s-46.5 86.333 -58.5 93c-23.333 -23.333 -41 -53.333 -53 -90c16 0 30.667 -4.33301 44 -13c20 -12.667 30 -32.334 30 -59.001c0 -24 -7.83301 -42.5 -23.5 -55.5s-33.5 -19.5 -53.5 -19.5
c-52 0 -78 29 -78 87c0 40 13.667 84 41 132c29.333 51.333 62.666 82.666 99.999 93.999c11.333 -4 29.833 -24.5 55.5 -61.5s43.167 -67.5 52.5 -91.5v86c0 73.333 -37.333 110 -112 110c-49.333 0 -83.666 -17 -102.999 -51c-11.333 -20 -17 -43 -17 -69v-4h-63v7
c0 37.333 9 70 27 98c30.667 48.667 84.334 73 161.001 73c60 0 105 -15.667 135 -47c25.333 -26 38 -59.333 38 -100v-255zM176.999 66.0029c0 8 -2.66699 14.667 -8 20s-12 8 -20 8s-14.667 -2.66699 -20 -8s-8 -12 -8 -20s2.66699 -14.667 8 -20s12 -8 20 -8
s14.667 2.66699 20 8s8 12 8 20z" />
    <glyph glyph-name="uni0E26" unicode="&#xe26;" horiz-adv-x="484" 
d="M428 -144h-66v418c0 50 -31 75 -93 75c-30.667 0 -55 -7 -73 -21c24.667 -9.33301 45.667 -22.333 63 -39c-11.333 -4.66699 -23.666 -13.667 -36.999 -27c-20 -20.667 -30 -42 -30 -64v-121c0 -22 -5.33301 -40.333 -16 -55c-14.667 -20 -37.334 -30 -68.001 -30
c-20 0 -37.333 6 -52 18c-17.333 14 -26 33 -26 57c0 23.333 8.33301 41.666 25 54.999c14.667 12.667 32.667 19 54 19c6 0 11.667 -0.333008 17 -1v64c0 18.667 6.33301 37 19 55c10 14.667 19 23.334 27 26.001c-22.667 14.667 -50.667 26.667 -84 36
c43.333 54.667 102.333 82 177 82c108.667 0 163 -44.333 163 -133v-414zM136 68c0 8 -2.66699 14.667 -8 20s-12 8 -20 8s-14.667 -2.66699 -20 -8s-8 -12 -8 -20s2.66699 -14.667 8 -20s12 -8 20 -8s14.667 2.66699 20 8s8 12 8 20z" />
    <glyph glyph-name="uni0E27" unicode="&#xe27;" horiz-adv-x="378" 
d="M322 80c0 -22 -5.33203 -40.332 -15.999 -54.999c-14.667 -20 -37.334 -30 -68.001 -30c-20 0 -37.333 6 -52 18c-17.333 14 -26 33 -26 57c0 23.333 8.33301 41.666 25 54.999c14.667 12.667 32.667 19 54 19c6 0 11.667 -0.333008 17 -1v121c0 56.667 -28 85 -84 85
s-84 -28.333 -84 -85v-35h-66v37c0 90.667 50 136 150 136s150 -45.333 150 -136v-186zM266.001 71.001c0 8 -2.66699 14.667 -8 20s-12 8 -20 8s-14.667 -2.66699 -20 -8s-8 -12 -8 -20s2.66699 -14.667 8 -20s12 -8 20 -8s14.667 2.66699 20 8s8 12 8 20z" />
    <glyph glyph-name="uni0E28" unicode="&#xe28;" horiz-adv-x="443" 
d="M387 0l-66.002 0.000976562v264c0 20 -4.33301 36.667 -13 50c-15.333 -10.667 -30.666 -20.667 -45.999 -30c5.33301 -2.66699 10 -6 14 -10c14 -13.333 21 -31 21 -53c0 -19.333 -7 -35.833 -21 -49.5s-31.667 -20.5 -53 -20.5c-12 0 -26.667 4.33301 -44 13l-54 -164
h-69v266c0 90.667 55 136 165 136c32.667 0 60.334 -4 83.001 -12c14.667 17.333 22 35.666 22 54.999h75c0 -27.333 -14.333 -57.333 -43 -90c19.333 -22 29 -51.667 29 -89v-266zM265.998 343.001c-12.667 4 -27.332 6 -43.999 6c-66.667 0 -100.334 -28.333 -101.001 -85
v-81l-7 -69l36 123c9.33301 26 24 43.333 44 52c27.333 15.333 51.333 33.333 72 54zM256 221.001c0 8.66699 -3 16 -9 22s-13.333 9 -22 9s-16 -3 -22 -9s-9 -13.333 -9 -22s3 -16 9 -22s13.333 -9 22 -9s16 3 22 9s9 13.333 9 22z" />
    <glyph glyph-name="uni0E29" unicode="&#xe29;" horiz-adv-x="490" 
d="M134 326c0 8 -2.66699 14.667 -8 20s-12 8 -20 8s-14.667 -2.66699 -20 -8s-8 -12 -8 -20s2.66699 -14.667 8 -20s12 -8 20 -8s14.667 2.66699 20 8s8 12 8 20zM430 0h-337.999v57h32v197c-8 -0.666992 -13.667 -1 -17 -1c-21.333 0 -39.833 6.66699 -55.5 20
s-23.5 31.333 -23.5 54c0 21.333 7.16699 39 21.5 53s33.166 21 56.499 21c56 0 84 -28 84 -84v-260h174v89c-15.333 -2.66699 -31 -4 -47 -4c-71.333 0 -107 24.667 -107 74c0 16.667 5.83301 31.167 17.5 43.5s28.167 18.5 49.5 18.5s37.833 -6.16699 49.5 -18.5
s17.5 -26.833 17.5 -43.5c0 -8 -2 -16 -6 -24c9.33301 -0.666992 18 1 26 5v203h66v-165c11.333 8 21 19.333 29 34l38 -43c-18.667 -29.333 -41 -49.333 -67 -60v-166zM301.001 214c0 7.33301 -2.5 13.5 -7.5 18.5s-11.167 7.5 -18.5 7.5s-13.5 -2.5 -18.5 -7.5
s-7.5 -11.167 -7.5 -18.5s2.5 -13.5 7.5 -18.5s11.167 -7.5 18.5 -7.5s13.5 2.5 18.5 7.5s7.5 11.167 7.5 18.5z" />
    <glyph glyph-name="uni0E2A" unicode="&#xe2a;" horiz-adv-x="444" 
d="M398 0l-69.002 0.000976562c-8.66699 35.333 -26.5 80.666 -53.5 135.999s-46.5 86.333 -58.5 93c-8 -5.33301 -18.333 -19.666 -31 -42.999c-11.333 -20.667 -18.666 -36.334 -21.999 -47.001c16 0 30.667 -4.33301 44 -13c20 -12.667 30 -32.334 30 -59.001
c0 -24 -7.83301 -42.5 -23.5 -55.5s-33.5 -19.5 -53.5 -19.5c-52 0 -78 29 -78 87c0 55.333 19 107.333 57 156c33.333 42.667 76.666 78 129.999 106c-16 4.66699 -32.667 7 -50 7c-49.333 0 -83.666 -17 -102.999 -51c-11.333 -20 -17 -43 -17 -69v-4h-63v7
c0 37.333 9 70 27 98c30.667 48.667 84.334 73 161.001 73c30.667 0 58 -4.33301 82 -13c14.667 22.667 22 41.334 22 56.001h75c0 -20.667 -14.333 -51 -43 -91c24.667 -26.667 37 -59.667 37 -99v-255zM331.998 152.001l-0.000976562 86.001c0 28 -5.66699 51.667 -17 71
l-54 -41c34.667 -44.667 58.334 -83.334 71.001 -116.001zM189.997 66.002c0 8 -2.66699 14.667 -8 20s-12 8 -20 8s-14.667 -2.66699 -20 -8s-8 -12 -8 -20s2.66699 -14.667 8 -20s12 -8 20 -8s14.667 2.66699 20 8s8 12 8 20z" />
    <glyph glyph-name="uni0E2B" unicode="&#xe2b;" horiz-adv-x="483" 
d="M432 0h-65.999v211c0 6 -2.66699 11 -8 15l-166 -226h-68v254c-8 -0.666992 -13.667 -1 -17 -1c-21.333 0 -39.833 6.66699 -55.5 20s-23.5 31.333 -23.5 54c0 21.333 7.16699 39 21.5 53s33.166 21 56.499 21c56 0 84 -27.667 84 -83v-227l133 175
c-24 14 -36 34.667 -36 62c0 22 7.16699 40 21.5 54s32.833 21 55.5 21s41.167 -7 55.5 -21s21.5 -32 21.5 -54c0 -30 -12 -51 -36 -63c18 -10 27 -34.333 27 -73v-192zM134.001 326c0 8 -2.66699 14.667 -8 20s-12 8 -20 8s-14.667 -2.66699 -20 -8s-8 -12 -8 -20
s2.66699 -14.667 8 -20s12 -8 20 -8s14.667 2.66699 20 8s8 12 8 20zM391.001 328c0 8 -2.66699 14.667 -8 20s-12 8 -20 8s-14.667 -2.66699 -20 -8s-8 -12 -8 -20s2.66699 -14.667 8 -20s12 -8 20 -8s14.667 2.66699 20 8s8 12 8 20z" />
    <glyph glyph-name="uni0E2C" unicode="&#xe2c;" horiz-adv-x="530" 
d="M466 0h-73.998l-97 218l-97 -218h-74v254c-8 -0.666992 -13.667 -1 -17 -1c-21.333 0 -39.833 6.66699 -55.5 20s-23.5 31.333 -23.5 54c0 21.333 7.16699 39 21.5 53s33.166 21 56.499 21c56 0 84 -28 84 -84v-181l-4 -36l82 187h52l85 -187l-5 36v176
c-2.66699 -0.666992 -7 -1 -13 -1c-20.667 0 -37.5 6.5 -50.5 19.5s-19.5 29.5 -19.5 49.5c0 19.333 6.5 36.5 19.5 51.5s30.167 22.5 51.5 22.5c26.667 0 47 -9.66699 61 -29c16 8 26 19.333 30 34h61c-12.667 -44.667 -37.334 -75.667 -74.001 -93v-366zM134.002 326
c0 8 -2.66699 14.667 -8 20s-12 8 -20 8s-14.667 -2.66699 -20 -8s-8 -12 -8 -20s2.66699 -14.667 8 -20s12 -8 20 -8s14.667 2.66699 20 8s8 12 8 20zM417.002 379c0 8 -2.66699 14.667 -8 20s-12 8 -20 8s-14.667 -2.66699 -20 -8s-8 -12 -8 -20s2.66699 -14.667 8 -20
s12 -8 20 -8s14.667 2.66699 20 8s8 12 8 20z" />
    <glyph glyph-name="uni0E2D" unicode="&#xe2d;" horiz-adv-x="452" 
d="M396 0l-289.999 -0.00195312v192c0 21.333 5.33301 40 16 56c14.667 22.667 38 34 70 34c20 0 37.667 -6.33301 53 -19s23 -31 23 -55c0 -25.333 -9 -44.666 -27 -57.999c-15.333 -10.667 -33.666 -16 -54.999 -16c-4.66699 0 -9.33398 0.333008 -14.001 1v-78h158v181
c0 35.333 -10.333 62.5 -31 81.5s-49.334 28.5 -86.001 28.5c-54.667 0 -93 -16 -115 -48c-13.333 -19.333 -20 -42 -20 -68v-7h-63c0 34 8 65 24 93c32 56 89 84 171 84c60 0 107 -15.667 141 -47c30 -27.333 45 -60.666 45 -99.999v-255zM219.001 205.998
c0 8 -2.66699 14.667 -8 20s-12 8 -20 8s-14.667 -2.66699 -20 -8s-8 -12 -8 -20s2.66699 -14.667 8 -20s12 -8 20 -8s14.667 2.66699 20 8s8 12 8 20z" />
    <glyph glyph-name="uni0E2E" unicode="&#xe2e;" horiz-adv-x="416" 
d="M360 0l-298.001 -0.00195312v154c0 21.333 5.33301 40 16 56c14.667 22.667 38 34 70 34c20 0 37.667 -6.33301 53 -19s23 -31 23 -55c0 -25.333 -9 -44.666 -27 -57.999c-15.333 -10.667 -33.666 -16 -54.999 -16c-4.66699 0 -9.33398 0.333008 -14.001 1v-40h166v205
c0 13.333 -1.66699 23.333 -5 30c-33.333 -18 -74 -27 -122 -27c-36.667 0 -67 5.33301 -91 16c-28 12 -42 29.333 -42 52c0 24.667 16.333 43.667 49 57c26.667 11.333 59.334 17 98.001 17c62 0 105.333 -11 130 -33c18 16 31.667 36.667 41 62l52 -34
c-12 -32 -29.667 -57.333 -53 -76c6 -11.333 9 -29.666 9 -54.999v-271zM265.999 337.998c-22 12 -50.332 18 -84.999 18c-48.667 0 -73 -7 -73 -21c0 -12 20.333 -18 61 -18c55.333 0 87.666 7 96.999 21zM175 167.998c0 8 -2.66699 14.667 -8 20s-12 8 -20 8
s-14.667 -2.66699 -20 -8s-8 -12 -8 -20s2.66699 -14.667 8 -20s12 -8 20 -8s14.667 2.66699 20 8s8 12 8 20z" />
    <glyph glyph-name="uni0E2F" unicode="&#xe2f;" horiz-adv-x="415" 
d="M362 0h-65.999v287c-2.66699 -9.33301 -17.334 -20 -44.001 -32c-30.667 -14 -62 -21 -94 -21s-59.333 7.33301 -82 22c-26.667 16.667 -40 39.667 -40 69c0 21.333 6.83301 39.5 20.5 54.5s33.167 22.5 58.5 22.5c22.667 0 41 -6.83301 55 -20.5s21 -32.167 21 -55.5
c0 -14 -3.66699 -26 -11 -36c28 0 53.833 10.333 77.5 31s36.5 47 38.5 79h66v-400zM144.001 326c0 8.66699 -2.83301 15.834 -8.5 21.501s-12.834 8.5 -21.501 8.5s-15.834 -2.83301 -21.501 -8.5s-8.5 -12.834 -8.5 -21.501s2.83301 -15.834 8.5 -21.501
s12.834 -8.5 21.501 -8.5s15.834 2.83301 21.501 8.5s8.5 12.834 8.5 21.501z" />
    <glyph glyph-name="uni0E30" unicode="&#xe30;" horiz-adv-x="371" 
d="M333 384c0 -38 -8.66797 -68.333 -26.001 -91c-31.333 -40.667 -82 -61 -152 -61c-84 0 -126 27.333 -126 82c0 22 7.16699 39.333 21.5 52s31.833 19 52.5 19s37.834 -6.5 51.501 -19.5s20.5 -30.5 20.5 -52.5c0 -9.33301 -2.33301 -19 -7 -29
c66 2.66699 102.333 36 109 100h56zM131.999 313c0 8.66699 -2.83301 15.834 -8.5 21.501s-12.834 8.5 -21.501 8.5s-15.834 -2.83301 -21.501 -8.5s-8.5 -12.834 -8.5 -21.501s2.83301 -15.834 8.5 -21.501s12.834 -8.5 21.501 -8.5s15.834 2.83301 21.501 8.5
s8.5 12.834 8.5 21.501zM332.999 164c0 -38 -8.66797 -68.333 -26.001 -91c-31.333 -40.667 -82 -61 -152 -61c-84 0 -126 27.333 -126 82c0 22 7.16699 39.333 21.5 52s31.833 19 52.5 19s37.834 -6.5 51.501 -19.5s20.5 -30.5 20.5 -52.5c0 -9.33301 -2.33301 -19 -7 -29
c66 2.66699 102.333 36 109 100h56zM131.998 93c0 8.66699 -2.83301 15.834 -8.5 21.501s-12.834 8.5 -21.501 8.5s-15.834 -2.83301 -21.501 -8.5s-8.5 -12.834 -8.5 -21.501s2.83301 -15.834 8.5 -21.501s12.834 -8.5 21.501 -8.5s15.834 2.83301 21.501 8.5
s8.5 12.834 8.5 21.501z" />
    <glyph glyph-name="uni0E31" unicode="&#xe31;" horiz-adv-x="0" 
d="M87 644c0 -50 -21.332 -90.667 -63.999 -122c-40 -30 -88 -45 -144 -45c-41.333 0 -77 7.66699 -107 23c-35.333 17.333 -53 41.333 -53 72c0 19.333 6.16699 36.5 18.5 51.5s30.5 22.5 54.5 22.5c22.667 0 40.667 -6.5 54 -19.5s20 -28.833 20 -47.5
c0 -20 -7 -35 -21 -45c5.33301 -3.33301 20.666 -5 45.999 -5c31.333 0 59.333 8.33301 84 25c31.333 20.667 47 50.667 47 90h65zM-179.999 575c0 8 -2.66699 14.667 -8 20s-12 8 -20 8s-14.667 -2.66699 -20 -8s-8 -12 -8 -20s2.66699 -14.667 8 -20s12 -8 20 -8
s14.667 2.66699 20 8s8 12 8 20z" />
    <glyph glyph-name="uni0E32" unicode="&#xe32;" horiz-adv-x="356" 
d="M300 0h-66v264c0 56.667 -26.667 85 -80 85c-58 0 -87 -24 -87 -72h-61c6 83.333 53.333 125 142 125c101.333 0 152 -45.333 152 -136v-266z" />
    <glyph glyph-name="uni0E33" unicode="&#xe33;" horiz-adv-x="356" 
d="M300 0h-66v264c0 56.667 -26.667 85 -80 85c-58 0 -87 -24 -87 -72h-61c6 83.333 53.333 125 142 125c101.333 0 152 -45.333 152 -136v-266zM-53 556c0 10.667 -3.5 19.5 -10.5 26.5s-15.833 10.5 -26.5 10.5s-19.5 -3.5 -26.5 -10.5s-10.5 -15.833 -10.5 -26.5
s3.5 -19.5 10.5 -26.5s15.833 -10.5 26.5 -10.5s19.5 3.5 26.5 10.5s10.5 15.833 10.5 26.5zM-6 556c0 -24 -8 -44 -24 -60s-36 -24 -60 -24s-44 8 -60 24s-24 36 -24 60s8 44 24 60s36 24 60 24s44 -8 60 -24s24 -36 24 -60z" />
    <glyph glyph-name="uni0E34" unicode="&#xe34;" horiz-adv-x="0" 
d="M-48 460c-54.667 18 -118.833 29.999 -192.5 35.999s-132.167 7.33301 -175.5 4c21.333 93.333 77.333 140 168 140c52 0 96.333 -17.167 133 -51.5s59 -77.166 67 -128.499zM-138.999 524.999c-26 42 -60.667 63 -104 63c-40 0 -68.667 -13.667 -86 -41
c60 2 123.333 -5.33301 190 -22z" />
    <glyph glyph-name="uni0E35" unicode="&#xe35;" horiz-adv-x="0" 
d="M-48 460c-54.667 18 -118.833 30 -192.5 36s-132.167 7.33301 -175.5 4c21.333 93.333 77.333 140 168 140c48.667 0 90.667 -15.333 126 -46v76h66v-176c3.33301 -10.667 6 -22 8 -34zM-138.999 525c-26 42 -60.667 63 -104 63c-40 0 -68.667 -13.667 -86 -41
c60 2 123.333 -5.33301 190 -22z" />
    <glyph glyph-name="uni0E36" unicode="&#xe36;" horiz-adv-x="0" 
d="M-66 601c0 8.66699 -2.83301 16 -8.5 22s-12.834 9 -21.501 9s-16 -3 -22 -9s-9 -13.333 -9 -22s3 -15.834 9 -21.501s13.333 -8.5 22 -8.5s15.834 2.83301 21.501 8.5s8.5 12.834 8.5 21.501zM-139 525c-26 42 -60.667 63 -104 63c-40 0 -68.667 -13.667 -86 -41
c60 2 123.333 -5.33301 190 -22zM-48 460c-54.667 18 -118.834 29.999 -192.501 35.999s-132.167 7.33301 -175.5 4c21.333 93.333 77.333 140 168 140c32 0 61.333 -6.66699 88 -20c4 14 12 25.667 24 35s25.333 14 40 14c18 0 33.5 -6.5 46.5 -19.5
s19.5 -28.833 19.5 -47.5c0 -15.333 -4.16699 -28.5 -12.5 -39.5s-19.166 -18.833 -32.499 -23.5c13.333 -23.333 22.333 -49.666 27 -78.999z" />
    <glyph glyph-name="uni0E37" unicode="&#xe37;" horiz-adv-x="0" 
d="M-48 460c-54.667 18 -118.833 30.001 -192.5 36.001s-132.167 7.33301 -175.5 4c21.333 93.333 77.333 140 168 140c16 0 31.333 -1.66699 46 -5v35h52v-59c14 -6.66699 25.667 -14.334 35 -23.001l1 -1v83h58v-176c3.33301 -10.667 6 -22 8 -34zM-138.999 525.001
c-26 42 -60.667 63 -104 63c-40 0 -68.667 -13.667 -86 -41c60 2 123.333 -5.33301 190 -22z" />
    <glyph glyph-name="uni0E38" unicode="&#xe38;" horiz-adv-x="0" 
d="M-56 -233l-65.999 0.000976562v48c-4.66699 -1.33301 -10 -2 -16 -2c-16 0 -31 4.66699 -45 14c-18 13.333 -27 32 -27 56c0 21.333 7.16699 38.666 21.5 51.999s32.166 20 53.499 20c52.667 0 79 -29.667 79 -89v-99zM-106.999 -116.999c0 8 -2.83301 14.833 -8.5 20.5
s-12.5 8.5 -20.5 8.5s-14.833 -2.83301 -20.5 -8.5s-8.5 -12.5 -8.5 -20.5s2.83301 -14.833 8.5 -20.5s12.5 -8.5 20.5 -8.5s14.833 2.83301 20.5 8.5s8.5 12.5 8.5 20.5z" />
    <glyph glyph-name="uni0E39" unicode="&#xe39;" horiz-adv-x="0" 
d="M-56 -233l-187.999 0.000976562v48c-4.66699 -1.33301 -10 -2 -16 -2c-16 0 -31 4.66699 -45 14c-18 13.333 -27 32 -27 56c0 21.333 7.16699 38.666 21.5 51.999s32.166 20 53.499 20c52.667 0 79 -29 79 -87v-48h56v128h66v-181zM-228.999 -116.999
c0 8 -2.83301 14.833 -8.5 20.5s-12.5 8.5 -20.5 8.5s-14.833 -2.83301 -20.5 -8.5s-8.5 -12.5 -8.5 -20.5s2.83301 -14.833 8.5 -20.5s12.5 -8.5 20.5 -8.5s14.833 2.83301 20.5 8.5s8.5 12.5 8.5 20.5z" />
    <glyph glyph-name="uni0E3A" unicode="&#xe3a;" horiz-adv-x="0" 
d="M-41 -100c0 -14 -4.5 -25.667 -13.5 -35s-20.5 -14 -34.5 -14s-25.667 4.66699 -35 14s-14 21 -14 35s4.66699 25.5 14 34.5s21 13.5 35 13.5s25.5 -4.5 34.5 -13.5s13.5 -20.5 13.5 -34.5z" />
    <glyph glyph-name="uni0E3F" unicode="&#xe3f;" horiz-adv-x="423" 
d="M400 132c0 -39.333 -12.333 -70.667 -37 -94c-26.667 -25.333 -68 -38 -124 -38h-26v-63h-28v63h-142v473h142v63h28v-63h37c87.333 0 131 -39 131 -117c0 -47.333 -20.333 -81 -61 -101v-1c53.333 -13.333 80 -54 80 -122zM321 142.999c0 48 -23.667 72 -71 72h-37v-147
h37c47.333 0 71 25 71 75zM302 340.999c0 43.333 -20.667 64.999 -62 64.999h-27v-131h27c18 0 32.833 5.83301 44.5 17.5s17.5 27.834 17.5 48.501zM122 67.998h63v147h-63v-147zM122 274.998h63v131h-63v-131z" />
    <glyph glyph-name="uni0E40" unicode="&#xe40;" horiz-adv-x="248" 
d="M180 71c0 8 -2.66699 14.667 -8 20s-12 8 -20 8s-14.667 -2.66699 -20 -8s-8 -12 -8 -20s2.66699 -14.667 8 -20s12 -8 20 -8s14.667 2.66699 20 8s8 12 8 20zM230 70c0 -21.333 -7.16797 -39 -21.501 -53s-33.166 -21 -56.499 -21c-56 0 -84 28 -84 84v320h66v-257
c8 0.666992 13.667 1 17 1c21.333 0 39.833 -6.66699 55.5 -20s23.5 -31.333 23.5 -54z" />
    <glyph glyph-name="uni0E41" unicode="&#xe41;" horiz-adv-x="440" 
d="M372 71c0 8 -2.66699 14.667 -8 20s-12 8 -20 8s-14.667 -2.66699 -20 -8s-8 -12 -8 -20s2.66699 -14.667 8 -20s12 -8 20 -8s14.667 2.66699 20 8s8 12 8 20zM422 70c0 -21.333 -7.16797 -39 -21.501 -53s-33.166 -21 -56.499 -21c-56 0 -84 28 -84 84v320h66v-257
c8 0.666992 13.667 1 17 1c21.333 0 39.833 -6.66699 55.5 -20s23.5 -31.333 23.5 -54zM179.999 71c0 8 -2.66699 14.667 -8 20s-12 8 -20 8s-14.667 -2.66699 -20 -8s-8 -12 -8 -20s2.66699 -14.667 8 -20s12 -8 20 -8s14.667 2.66699 20 8s8 12 8 20zM229.999 70
c0 -21.333 -7.16797 -39 -21.501 -53s-33.166 -21 -56.499 -21c-56 0 -84 28 -84 84v320h66v-257c8 0.666992 13.667 1 17 1c21.333 0 39.833 -6.66699 55.5 -20s23.5 -31.333 23.5 -54z" />
    <glyph glyph-name="uni0E42" unicode="&#xe42;" horiz-adv-x="273" 
d="M204 71c0 8 -2.66699 14.667 -8 20s-12 8 -20 8s-14.667 -2.66699 -20 -8s-8 -12 -8 -20s2.66699 -14.667 8 -20s12 -8 20 -8s14.667 2.66699 20 8s8 12 8 20zM254 70c0 -21.333 -7.16602 -39 -21.499 -53s-33.166 -21 -56.499 -21c-56 0 -84 28 -84 84v390l-130 62
c0 21.333 7 43.666 21 66.999c25.333 43.333 68.333 65 129 65c43.333 0 78.666 -14.667 105.999 -44c24.667 -27.333 37 -60.666 37 -99.999h-59c0 26 -6.33301 47.667 -19 65c-14.667 19.333 -36.334 29 -65.001 29c-42.667 0 -70.667 -18 -84 -54l130 -66v-351
c8 0.666992 13.667 1 17 1c21.333 0 39.833 -6.66699 55.5 -20s23.5 -31.333 23.5 -54z" />
    <glyph glyph-name="uni0E43" unicode="&#xe43;" horiz-adv-x="318" 
d="M300 70c0 -21.333 -7.16797 -38.999 -21.501 -52.999s-33.166 -21 -56.499 -21c-56 0 -84 28 -84 84v454c0 52.667 -16.667 79 -50 79c-0.666992 0 -3.66699 -0.333008 -9 -1c17.333 -8.66699 26 -30.334 26 -65.001c0 -24.667 -7 -43.667 -21 -57s-30.667 -20 -50 -20
c-21.333 0 -40 7.5 -56 22.5s-24 35.5 -24 61.5c0 34.667 10.5 61.5 31.5 80.5s49.167 28.5 84.5 28.5c89.333 0 134 -44.333 134 -133v-387c8 0.666992 13.667 1 17 1c21.333 0 39.833 -6.66699 55.5 -20s23.5 -31.333 23.5 -54zM249.999 71.001c0 8 -2.66699 14.667 -8 20
s-12 8 -20 8s-14.667 -2.66699 -20 -8s-8 -12 -8 -20s2.66699 -14.667 8 -20s12 -8 20 -8s14.667 2.66699 20 8s8 12 8 20zM59.999 553.001c0 10 -2.83301 18.667 -8.5 26s-12.834 11 -21.501 11s-15.667 -3.66699 -21 -11s-8 -16 -8 -26s2.66699 -18.5 8 -25.5
s12.333 -10.5 21 -10.5s15.834 3.5 21.501 10.5s8.5 15.5 8.5 25.5z" />
    <glyph glyph-name="uni0E44" unicode="&#xe44;" horiz-adv-x="297" 
d="M279 70c0 -21.333 -7.16797 -39.002 -21.501 -53.002s-33.166 -21 -56.499 -21c-56 0 -84 28 -84 84v495l-44 -91h-81c0.666992 7.33301 1 20.666 1 39.999c0 22.667 -1.83301 48.334 -5.5 77.001s-12.5 58 -26.5 88h64c8 -15.333 13.667 -33.166 17 -53.499
s5 -51.166 5 -92.499l62 120h74v-520c8 0.666992 13.667 1 17 1c21.333 0 39.833 -6.66699 55.5 -20s23.5 -31.333 23.5 -54zM228.999 70.998c0 8 -2.66699 14.667 -8 20s-12 8 -20 8s-14.667 -2.66699 -20 -8s-8 -12 -8 -20s2.66699 -14.667 8 -20s12 -8 20 -8
s14.667 2.66699 20 8s8 12 8 20z" />
    <glyph glyph-name="uni0E45" unicode="&#xe45;" horiz-adv-x="233" 
d="M177 -144h-66v408c0 56.667 -26.667 85 -80 85c-58 0 -87 -24 -87 -72h-61c6 83.333 53.333 125 142 125c101.333 0 152 -45.333 152 -136v-410z" />
    <glyph glyph-name="uni0E46" unicode="&#xe46;" horiz-adv-x="528" 
d="M457 -144l-65.998 0.00195312v479h-20c-8.66699 0 -17.667 -6.33301 -27 -19l-17 -23c-3.33301 4 -12.333 13.333 -27 28c-20.667 17.333 -38.667 26 -54 26c-12.667 0 -24.334 -8 -35.001 -24c6 0.666992 10.333 1 13 1c15.333 0 29.333 -4.66699 42 -14
c17.333 -12.667 26 -31.667 26 -57c0 -21.333 -6.66699 -38.833 -20 -52.5s-31.333 -20.5 -54 -20.5c-20.667 0 -38.334 7.5 -53.001 22.5s-22 36.833 -22 65.5c0 33.333 9.5 63.833 28.5 91.5s42.167 41.5 69.5 41.5c24 0 45 -7 63 -21c14 -10.667 21 -18.334 21 -23.001
c3.33301 9.33301 11.5 19.166 24.5 29.499s26.167 15.5 39.5 15.5h68v-546zM250.002 253.002c0 19.333 -9.66699 29 -29 29s-29 -9.66699 -29 -29s9.66699 -29 29 -29s29 9.66699 29 29z" />
    <glyph glyph-name="uni0E47" unicode="&#xe47;" horiz-adv-x="0" 
d="M-67 540c0 -20 -6.99902 -35.1699 -20.999 -45.5029s-30.667 -15.5 -50 -15.5c-39.333 0 -68 16 -86 48c-16 -15.333 -25.667 -31 -29 -47h-24c-28.667 0 -43 23.667 -43 71c0 62 32.333 93 97 93h56c45.333 0 68 9.33301 68 28v5h50
c0 -21.333 -7.33301 -38.166 -22 -50.499s-33.334 -18.5 -56.001 -18.5h-82c-42.667 0 -64 -17.333 -64 -52c0 -16.667 1 -26 3 -28c3.33301 6.66699 7.83301 13 13.5 19s12.834 11.667 21.501 17h35c9.33301 -25.333 24.333 -40.666 45 -45.999
c-8 6.66699 -12 15.334 -12 26.001c0 14 4.66699 25.167 14 33.5s21 12.5 35 12.5c15.333 0 27.666 -5 36.999 -15s14 -21.667 14 -35zM-96.999 541.997c0 13.333 -6.66699 20 -20 20s-20 -6.66699 -20 -20s6.66699 -20 20 -20s20 6.66699 20 20z" />
    <glyph glyph-name="uni0E48" unicode="&#xe48;" horiz-adv-x="0" 
d="M-56 700h-66v117h66v-117z" />
    <glyph glyph-name="uni0E49" unicode="&#xe49;" horiz-adv-x="0" 
d="M53 837c0 -48.667 -23.667 -87.001 -71 -115.001s-104.666 -41.333 -171.999 -40v34c24.667 5.33301 40.334 14.333 47.001 27l-6 -1c-14 0 -26.667 4.83301 -38 14.5s-17 22.167 -17 37.5c0 16 5.5 29.167 16.5 39.5s25.5 15.5 43.5 15.5c40 0 60 -19.333 60 -58
c0 -23.333 -10.333 -44.666 -31 -63.999c15.333 0 38.166 9 68.499 27s46.166 45.667 47.499 83h52zM-123 793.999c0 7.33301 -2 13 -6 17s-9.33301 6 -16 6s-12.167 -2 -16.5 -6s-6.5 -9.66699 -6.5 -17s2.16699 -12.833 6.5 -16.5s9.83301 -5.5 16.5 -5.5
s12 1.83301 16 5.5s6 9.16699 6 16.5z" />
    <glyph glyph-name="uni0E4A" unicode="&#xe4a;" horiz-adv-x="0" 
d="M76 840c-4 -26 -11.166 -48.668 -21.499 -68.001s-23 -35.333 -38 -48s-31.833 -22.167 -50.5 -28.5s-38.334 -9.5 -59.001 -9.5h-9c-2.66699 0 -4.66699 0.333008 -6 1c18 16 27 40.667 27 74c0 22.667 -6 36.667 -18 42l-40 -24l-42 28
c-14.667 -10 -22 -24.667 -22 -44c7.33301 7.33301 17.666 11 30.999 11c14.667 0 26.167 -3.5 34.5 -10.5s12.5 -17.833 12.5 -32.5c0 -16 -4.66699 -28 -14 -36s-22.333 -12 -39 -12c-46.667 0 -70 25.667 -70 77c0 48 22.667 76 68 84l42 -29l43 29
c14.667 0 27.834 -6.66699 39.501 -20s17.5 -29.666 17.5 -48.999c0 -7.33301 -0.833008 -15 -2.5 -23s-4.16699 -15.667 -7.5 -23c15.333 3.33301 30.333 13.333 45 30s22 43.667 22 81h57zM-153.999 728.999c0 5.33301 -1.83398 10.166 -5.50098 14.499
s-8.16699 6.5 -13.5 6.5s-10.166 -2.16699 -14.499 -6.5s-6.5 -9.16602 -6.5 -14.499s2 -9.83301 6 -13.5s8.66699 -5.5 14 -5.5s10 1.83301 14 5.5s6 8.16699 6 13.5z" />
    <glyph glyph-name="uni0E4B" unicode="&#xe4b;" horiz-adv-x="0" 
d="M7 742h-63v-42h-66v42h-63v45h63v42h66v-42h63v-45z" />
    <glyph glyph-name="uni0E4C" unicode="&#xe4c;" horiz-adv-x="0" 
d="M-69 678c0 6.66699 -2.16699 12.167 -6.5 16.5s-9.5 6.5 -15.5 6.5s-11.333 -2.16699 -16 -6.5s-7 -9.83301 -7 -16.5s2.33301 -12 7 -16s10 -6 16 -6s11.167 2 15.5 6s6.5 9.33301 6.5 16zM32 800c0 -33.333 -12 -56.666 -36 -69.999c-16 -8.66699 -33.333 -13 -52 -13
c12.667 -8.66699 19 -21.334 19 -38.001c0 -15.333 -5 -28.166 -15 -38.499s-23 -15.5 -39 -15.5s-29 5.16699 -39 15.5s-15 23.166 -15 38.499c0 32.667 22 53.5 66 62.5s66 28.5 66 58.5h45z" />
    <glyph glyph-name="uni0E4D" unicode="&#xe4d;" horiz-adv-x="0" 
d="M-53 556c0 10.667 -3.5 19.5 -10.5 26.5s-15.833 10.5 -26.5 10.5s-19.5 -3.5 -26.5 -10.5s-10.5 -15.833 -10.5 -26.5s3.5 -19.5 10.5 -26.5s15.833 -10.5 26.5 -10.5s19.5 3.5 26.5 10.5s10.5 15.833 10.5 26.5zM-6 556c0 -24 -8 -44 -24 -60s-36 -24 -60 -24
s-44 8 -60 24s-24 36 -24 60s8 44 24 60s36 24 60 24s44 -8 60 -24s24 -36 24 -60z" />
    <glyph glyph-name="uni0E4E" unicode="&#xe4e;" horiz-adv-x="0" 
d="M-94 543c6.66699 -8.66699 11.0039 -16.167 13.0039 -22.5s3 -11.166 3 -14.499c0 -14 -7.83301 -25.333 -23.5 -34s-33.5 -13 -53.5 -13c-17.333 0 -31.333 1.66699 -42 5s-19 7.66602 -25 12.999s-10.167 11 -12.5 17s-3.5 11.667 -3.5 17
c0 11.333 2.33301 21.166 7 29.499s10.834 15.5 18.501 21.5s16.167 11 25.5 15s18.666 7.33301 27.999 10c-25.333 6 -38 18.667 -38 38c0 8.66699 3.66699 17.667 11 27s17 17.666 29 24.999s25.667 13.333 41 18s30.666 7 45.999 7c7.33301 0 17.166 -0.666992 29.499 -2
s28.166 -4.66602 47.499 -9.99902l-21 -32c-4.66699 2.66699 -11 5 -19 7s-15.333 3 -22 3c-8 0 -16.667 -0.5 -26 -1.5s-18.166 -2.83301 -26.499 -5.5s-15.166 -6.5 -20.499 -11.5s-8 -11.833 -8 -20.5c0 -6 5.16699 -11.667 15.5 -17s25.166 -8 44.499 -8l-10 -32
c-26.667 -5.33301 -49.334 -11.833 -68.001 -19.5s-28 -19.5 -28 -35.5c0 -9.33301 3.5 -16.166 10.5 -20.499s14.5 -6.5 22.5 -6.5c7.33301 0 13.666 1.66699 18.999 5s8 8.33301 8 15c0 2 -0.333008 4.83301 -1 8.5s-3 7.16699 -7 10.5z" />
    <glyph glyph-name="uni0E4F" unicode="&#xe4f;" horiz-adv-x="453" 
d="M290 163c0 17.333 -6.16699 32.333 -18.5 45s-27.5 19 -45.5 19s-33.167 -6.33301 -45.5 -19s-18.5 -27.667 -18.5 -45c0 -18 6.16699 -33.167 18.5 -45.5s27.5 -18.5 45.5 -18.5s33.167 6.16699 45.5 18.5s18.5 27.5 18.5 45.5zM325 163c0 -28 -9.5 -51.667 -28.5 -71
s-42.5 -29 -70.5 -29s-51.5 9.66699 -70.5 29s-28.5 43 -28.5 71s9.5 51.5 28.5 70.5s42.5 28.5 70.5 28.5s51.5 -9.5 70.5 -28.5s28.5 -42.5 28.5 -70.5zM360 163c0 18.667 -3.5 36.168 -10.5 52.501s-16.5 30.5 -28.5 42.5s-26.167 21.5 -42.5 28.5
s-33.833 10.5 -52.5 10.5c-18 0 -35.167 -3.5 -51.5 -10.5s-30.666 -16.5 -42.999 -28.5s-22 -26.167 -29 -42.5s-10.5 -33.833 -10.5 -52.5s3.5 -36.167 10.5 -52.5s16.5 -30.666 28.5 -42.999s26.167 -22 42.5 -29s33.833 -10.5 52.5 -10.5c18 0 35.167 3.66699 51.5 11
s30.666 17.166 42.999 29.499s22 26.666 29 42.999s10.5 33.5 10.5 51.5zM395 163.001c0 -23.333 -4.49707 -45.1689 -13.4971 -65.502s-21.167 -38.166 -36.5 -53.499s-33.333 -27.5 -54 -36.5s-42.334 -13.5 -65.001 -13.5c-23.333 0 -45.333 4.33301 -66 13
s-38.667 20.667 -54 36s-27.333 33.333 -36 54s-13 42.667 -13 66c0 22.667 4.5 44.334 13.5 65.001s21.167 38.667 36.5 54s33.166 27.5 53.499 36.5s42.166 13.5 65.499 13.5c22.667 0 44.167 -4.5 64.5 -13.5s38.333 -21.333 54 -37s28 -33.667 37 -54
s13.5 -41.833 13.5 -64.5z" />
    <glyph glyph-name="uni0E50" unicode="&#xe50;" horiz-adv-x="425" 
d="M378 140c0 -43.333 -14.499 -78.167 -43.499 -104.5s-69.167 -39.5 -120.5 -39.5c-50.667 0 -90.667 13.333 -120 40s-44 61.334 -44 104.001c0 40 14.667 74 44 102s68.666 42 117.999 42c50.667 0 91 -13.833 121 -41.5s45 -61.834 45 -102.501zM314.001 138.999
c0 26.667 -9 48.332 -27 64.999s-42.667 25 -74 25c-30.667 0 -55 -8.16699 -73 -24.5s-27 -38.166 -27 -65.499c0 -58.667 33.333 -88 100 -88c67.333 0 101 29.333 101 88z" />
    <glyph glyph-name="uni0E51" unicode="&#xe51;" horiz-adv-x="436" 
d="M215 72c0 8.66699 -2.83301 15.834 -8.5 21.501s-12.834 8.5 -21.501 8.5s-15.667 -2.83301 -21 -8.5s-8 -12.834 -8 -21.501s2.66699 -15.667 8 -21s12.333 -8 21 -8s15.834 2.66699 21.501 8s8.5 12.333 8.5 21zM176 -3c-40 0 -71.668 12.666 -95.001 37.999
s-35 57.333 -35 96c0 43.333 15.333 79.333 46 108s72.667 43 126 43c52 0 93.667 -14.5 125 -43.5s47 -65.5 47 -109.5c0 -49.333 -17 -93.666 -51 -132.999c-20 -23.333 -38.667 -39.333 -56 -48l-36 31c14.667 8 31.5 25.5 50.5 52.5s28.5 57.167 28.5 90.5
c0 30 -10.167 55.333 -30.5 76s-47.166 31 -80.499 31c-34.667 0 -61.667 -11.333 -81 -34c-16 -18.667 -24 -38.667 -24 -60c0 -16.667 3.33301 -31.667 10 -45c0 14.667 5.5 27.167 16.5 37.5s25.167 15.5 42.5 15.5c25.333 0.666992 44.666 -5.83301 57.999 -19.5
s20 -31.167 20 -52.5c0 -19.333 -6.66699 -36.5 -20 -51.5s-33.666 -22.5 -60.999 -22.5z" />
    <glyph glyph-name="uni0E52" unicode="&#xe52;" horiz-adv-x="466" 
d="M421 0h-344.999v329c0 22 -8 40.333 -24 55c-11.333 10.667 -20.333 16 -27 16l54 42c42 -26 63 -61.667 63 -107v-278h213v137c0 28 -7 42 -21 42c-8.66699 0 -17 -4.33301 -25 -13s-12 -14.667 -12 -18c0 3.33301 -3.66699 9 -11 17
c-9.33301 9.33301 -18.333 14 -27 14c-19.333 0 -29 -16.333 -29 -49c10.667 4.66699 20.667 7 30 7c16.667 0 30.167 -5.5 40.5 -16.5s15.5 -24.5 15.5 -40.5c0 -17.333 -6.33301 -31.333 -19 -42s-27 -16 -43 -16c-51.333 0 -77 33.667 -77 101
c0 66.667 24.667 101 74 103c20 0.666992 35.667 -9.33301 47 -30c12.667 20 29.667 30 51 30c23.333 0 41.666 -8.33301 54.999 -25c11.333 -15.333 17 -35 17 -59v-199zM281.001 137c0 6.66699 -2.16699 12.167 -6.5 16.5s-9.83301 6.5 -16.5 6.5
s-12.167 -2.16699 -16.5 -6.5s-6.5 -9.83301 -6.5 -16.5s2.16699 -12.167 6.5 -16.5s9.83301 -6.5 16.5 -6.5s12.167 2.16699 16.5 6.5s6.5 9.83301 6.5 16.5z" />
    <glyph glyph-name="uni0E53" unicode="&#xe53;" horiz-adv-x="448" 
d="M389 0h-65.998v194c0 27.333 -8.33301 41 -25 41c-25.333 0 -38 -21.667 -38 -65h-50c-3.33301 43.333 -17.666 65 -42.999 65c-16.667 0 -29.334 -11.333 -38.001 -34c-6.66699 -17.333 -10 -36.666 -10 -57.999c0 -22 2.66699 -41 8 -57
c7.33301 28.667 26.666 43 57.999 43c18 0 33.333 -5.33301 46 -16c14.667 -12.667 22 -29.334 22 -50.001c0 -44.667 -25.667 -67 -77 -67c-36.667 0 -66 12.667 -88 38s-33 62.333 -33 111c0 44 10.667 78.667 32 104c19.333 23.333 44.666 35 75.999 35
c41.333 0 65.333 -18 72 -54c0 8 4 17.333 12 28c13.333 17.333 34.333 26 63 26c24 0 43.167 -8.66699 57.5 -26s21.5 -39.333 21.5 -66v-192zM212.002 63c0 7.33301 -2.5 13.5 -7.5 18.5s-11.167 7.5 -18.5 7.5s-13.333 -2.5 -18 -7.5s-7 -11.167 -7 -18.5
s2.33301 -13.333 7 -18s10.667 -7 18 -7s13.5 2.33301 18.5 7s7.5 10.667 7.5 18z" />
    <glyph glyph-name="uni0E54" unicode="&#xe54;" horiz-adv-x="460" 
d="M451 414c0 -30.667 -7.99707 -62.667 -23.9971 -96c-29.333 -61.333 -77.333 -92 -144 -92h-80c-25.333 0 -46.333 -8.16699 -63 -24.5s-25 -37.5 -25 -63.5c0 -23.333 6.66699 -42.833 20 -58.5s30.666 -23.5 51.999 -23.5h54c-6 0 -15.333 6 -28 18
c-18 16 -27 35.333 -27 58c0 18.667 6 34.5 18 47.5s28.667 19.5 50 19.5c19.333 0 35.333 -5.66699 48 -17s19 -26.666 19 -45.999c0 -16.667 -5.66699 -31.334 -17 -44.001c-8.66699 -9.33301 -16.334 -14 -23.001 -14c5.33301 -4 15.666 -9.66699 30.999 -17
c10.667 -3.33301 25.334 -5 44.001 -5h39v-56h-200c-42.667 0 -77.667 11.667 -105 35c-30 26 -45 61.667 -45 107s16 80 48 104c29.333 22.667 69.666 34 120.999 34h63c45.333 0 78.333 21.667 99 65c10 21.333 15 44.333 15 69h60zM283.003 134
c0 8 -2.66699 14.667 -8 20s-12 8 -20 8s-14.667 -2.66699 -20 -8s-8 -12 -8 -20s2.66699 -14.667 8 -20s12 -8 20 -8s14.667 2.66699 20 8s8 12 8 20z" />
    <glyph glyph-name="uni0E55" unicode="&#xe55;" horiz-adv-x="460" 
d="M451 408c0 -31.333 -7.66504 -63 -22.998 -95c-28.667 -58 -77 -87 -145 -87h-80c-25.333 0 -46.333 -8.16699 -63 -24.5s-25 -37.5 -25 -63.5c0 -23.333 6.66699 -42.833 20 -58.5s30.666 -23.5 51.999 -23.5h54c-6 0 -15.333 6 -28 18c-18 16 -27 35.333 -27 58
c0 18.667 6 34.5 18 47.5s28.667 19.5 50 19.5c19.333 0 35.333 -5.66699 48 -17s19 -26.666 19 -45.999c0 -16.667 -5.66699 -31.334 -17 -44.001c-8.66699 -9.33301 -16.334 -14 -23.001 -14c5.33301 -4 15.666 -9.66699 30.999 -17c10.667 -3.33301 25.334 -5 44.001 -5
h39v-56h-200c-42.667 0 -77.667 11.667 -105 35c-30 26 -45 61.667 -45 107c0 69.333 34 112.666 102 129.999c-10 5.33301 -17.5 12.5 -22.5 21.5s-7.5 18.5 -7.5 28.5c0 21.333 7.5 39.333 22.5 54s34.833 22 59.5 22c22 0 40.5 -6.5 55.5 -19.5s22.5 -31.5 22.5 -55.5
c0 -14 -4 -27.667 -12 -41c1.33301 -0.666992 3.33301 -1 6 -1c23.333 0 46.333 7.66699 69 23c33.333 22.667 50 57.334 50 104.001h61zM283.002 134c0 8 -2.66699 14.667 -8 20s-12 8 -20 8s-14.667 -2.66699 -20 -8s-8 -12 -8 -20s2.66699 -14.667 8 -20s12 -8 20 -8
s14.667 2.66699 20 8s8 12 8 20zM234.002 322c0 10 -3.5 18.5 -10.5 25.5s-15.5 10.5 -25.5 10.5s-18.5 -3.5 -25.5 -10.5s-10.5 -15.5 -10.5 -25.5s3.5 -18.5 10.5 -25.5s15.5 -10.5 25.5 -10.5s18.5 3.5 25.5 10.5s10.5 15.5 10.5 25.5z" />
    <glyph glyph-name="uni0E56" unicode="&#xe56;" horiz-adv-x="464" 
d="M274 56c21.333 0 38.999 8 52.999 24s21 36.333 21 61c0 26 -9.66699 46.667 -29 62s-42.333 23 -69 23h-78c-31.333 0 -53.333 -8.66699 -66 -26h-56c1.33301 17.333 2 36 2 56c0 26 -1.66699 52 -5 78c-4 32 -16.333 54 -37 66l49 39
c6.66699 -5.33301 12.667 -11 18 -17c13.333 -15.333 22.333 -32.333 27 -51c6 -24 9 -49 9 -75c0 -8 -0.333008 -17.667 -1 -29c26.667 8.66699 51.334 13 74.001 13h79c44.667 0 80.5 -12.667 107.5 -38s40.833 -58 41.5 -98c0.666992 -42 -10.833 -76.5 -34.5 -103.5
s-54.167 -40.5 -91.5 -40.5h-90c-82 0 -123 30 -123 90c0 20 6.33301 37.333 19 52s29.667 22 51 22c53.333 0 80 -23 80 -69c0 -18 -4 -31 -12 -39h61zM181.999 89c0 8.66699 -3 16 -9 22s-13.333 9 -22 9s-16 -3 -22 -9s-9 -13.333 -9 -22s3 -16 9 -22s13.333 -9 22 -9
s16 3 22 9s9 13.333 9 22z" />
    <glyph glyph-name="uni0E57" unicode="&#xe57;" horiz-adv-x="550" 
d="M539 402c-26.667 -13.333 -39.999 -46.6699 -39.999 -100.003v-174c0 -41.333 -14 -73.666 -42 -96.999c-26 -20.667 -58.333 -31 -97 -31h-66v52c6.66699 0 13 3.66699 19 11s9 23 9 47v84c0 27.333 -8.33301 41 -25 41c-18.667 0 -31.334 -21.667 -38.001 -65h-50
c-3.33301 43.333 -17.666 65 -42.999 65c-16.667 0 -29.334 -11.333 -38.001 -34c-6.66699 -17.333 -10 -36.666 -10 -57.999c0 -22 2.66699 -41 8 -57c6.66699 28.667 26 43 58 43c18 0 33.667 -5.66699 47 -17s20 -27.666 20 -48.999s-7 -38.333 -21 -51s-32 -19 -54 -19
c-35.333 0 -64 12.667 -86 38c-24 28 -36 65.667 -36 113c0 44.667 10.333 79.667 31 105c19.333 23.333 45 35 77 35c41.333 0 65.333 -18 72 -54c0 8 4 17.333 12 28c13.333 17.333 34.333 26 63 26c24 0 43.167 -8.66699 57.5 -26s21.5 -39.333 21.5 -66v-82
c0 -12 -1.66699 -24.333 -5 -37c-2.66699 -8.66699 -7.66699 -15.667 -15 -21c43.333 0 65 24.667 65 74v182c0 64 18.333 109.667 55 137zM211.001 62.9961c0 7.33301 -2.5 13.5 -7.5 18.5s-11.167 7.5 -18.5 7.5s-13.333 -2.5 -18 -7.5s-7 -11.167 -7 -18.5
s2.33301 -13.333 7 -18s10.667 -7 18 -7s13.5 2.33301 18.5 7s7.5 10.667 7.5 18z" />
    <glyph glyph-name="uni0E58" unicode="&#xe58;" horiz-adv-x="496" 
d="M476 400c0 -55.333 -16.1689 -98.166 -48.502 -128.499s-74.166 -45.5 -125.499 -45.5h-84c-27.333 0 -49.5 -7.83301 -66.5 -23.5s-25.5 -37.167 -25.5 -64.5c0 -53.333 11.333 -80 34 -80c0 4 4.66699 15.167 14 33.5s22.333 33.833 39 46.5
c29.333 -48.667 66.333 -77.667 111 -87c-19.333 13.333 -29 31.666 -29 54.999c0 18 6.66699 34.167 20 48.5s30.333 21.5 51 21.5c23.333 0 42.5 -8.16699 57.5 -24.5s22.5 -34.833 22.5 -55.5c0 -32 -12 -57.333 -36 -76c-21.333 -17.333 -47.666 -26 -78.999 -26
c-22 0 -46.667 8 -74 24c-24 14 -38 25.667 -42 35c-14 -16 -21.333 -35 -22 -57c-42 2 -73.333 11.667 -94 29c-26 21.333 -39 56.333 -39 105c0 100 54.333 150 163 150h63c46 0 80.667 12 104 36c21.333 22 30.333 62 27 120zM400.998 101c0 8.66699 -3 16 -9 22
s-13.333 9 -22 9s-16 -3 -22 -9s-9 -13.333 -9 -22s3 -16 9 -22s13.333 -9 22 -9s16 3 22 9s9 13.333 9 22z" />
    <glyph glyph-name="uni0E59" unicode="&#xe59;" horiz-adv-x="516" 
d="M460 0c-34 1.33301 -54.667 3.00098 -62 5.00098c-20 4 -37.667 14.333 -53 31c-13.333 14 -30 43.333 -50 88c-17.333 39.333 -40 69.333 -68 90c-11.333 8.66699 -25.333 13 -42 13c-22.667 0 -41.334 -8.5 -56.001 -25.5s-22 -37.5 -22 -61.5
c0 -18.667 2.66699 -33.334 8 -44.001c0 15.333 7.66699 28.333 23 39c13.333 9.33301 28 14 44 14c20 0 37.167 -6.66699 51.5 -20s21.5 -31 21.5 -53c0 -25.333 -10 -45.333 -30 -60c-18 -12 -39.333 -18 -64 -18c-34 0 -62 11 -84 33c-24 24 -36 57.667 -36 101
c0 44.667 13.333 80.834 40 108.501s59.334 41.5 98.001 41.5c65.333 0 108 -26 128 -78c1.33301 52 16.666 78 45.999 78c7.33301 0 17.833 -2.16699 31.5 -6.5s22.834 -6.5 27.501 -6.5c18.667 0 28 34 28 102c0 37.333 -1.66699 57.666 -5 60.999l60 -32
c1.33301 -1.33301 2 -9.33301 2 -24c0 -38 -4.33301 -72 -13 -102c-12 -40 -30 -60 -54 -60c-8 0 -17 2.33301 -27 7s-17.333 7 -22 7c-15.333 0 -23 -16.333 -23 -49c0 -82 26.667 -123 80 -123c6.66699 0 14 0.666992 22 2v-58zM211 80.001c0 8 -2.66699 14.667 -8 20
s-12 8 -20 8s-14.667 -2.66699 -20 -8s-8 -12 -8 -20s2.66699 -14.667 8 -20s12 -8 20 -8s14.667 2.66699 20 8s8 12 8 20z" />
    <glyph glyph-name="uni0E5A" unicode="&#xe5a;" horiz-adv-x="522" 
d="M362 0h-65.999v287c-2.66699 -9.33301 -17.334 -20 -44.001 -32c-30.667 -14 -62 -21 -94 -21s-59.333 7.33301 -82 22c-26.667 16.667 -40 39.667 -40 69c0 21.333 6.83301 39.5 20.5 54.5s33.167 22.5 58.5 22.5c22.667 0 41 -6.83301 55 -20.5s21 -32.167 21 -55.5
c0 -14 -3.66699 -26 -11 -36c28 0 53.833 10.333 77.5 31s36.5 47 38.5 79h66v-400zM144.001 326c0 8.66699 -2.83301 15.834 -8.5 21.501s-12.834 8.5 -21.501 8.5s-15.834 -2.83301 -21.501 -8.5s-8.5 -12.834 -8.5 -21.501s2.83301 -15.834 8.5 -21.501
s12.834 -8.5 21.501 -8.5s15.834 2.83301 21.501 8.5s8.5 12.834 8.5 21.501zM469.001 0h-66v400h66v-400z" />
    <glyph glyph-name="uni0E5B" unicode="&#xe5b;" horiz-adv-x="732" 
d="M188 320v6h3c2 0 3 -1 3 -3s-1 -3 -3 -3h-3zM188 313v6h3c3.33301 0 5 1.33301 5 4s-1.66699 4 -5 4h-5v-14h2zM217 320v6h3c2 0 3 -1 3 -3s-1 -3 -3 -3h-3zM184 313v2h-7v12h-2v-14h9zM212 323c0 2.66699 -1.33301 4 -4 4c-3.33301 0 -5 -1.33301 -5 -4
c0 -2 1.33301 -3.33301 4 -4s4 -1.33398 4 -2.00098c0 -2 -1 -3 -3 -3s-3 1.33301 -3 4h-2c0 -3.33301 1.66699 -5 5 -5s5 1.33301 5 4c0 2 -1.33301 3.33301 -4 4s-4 1.33398 -4 2.00098c0 2 1 3 3 3c1.33301 0 2 -1 2 -3h2zM172 313v14h-2v-6h-7v6h-2v-14h2v7h7v-7h2z
M239 313l-6 8l5 6h-3l-5 -7v7h-2v-14h2v5l2 2l4 -7h3zM217 313v6h3c3.33301 0 5 1.33301 5 4s-1.66699 4 -5 4h-5v-14h2zM149 320c0 4 1.33301 6 4 6s4 -1.33301 4 -4h2c0 3.33301 -2 5 -6 5s-6 -2.33301 -6 -7s2 -7 6 -7s6 1.66699 6 5h-2c0 -2.66699 -1.33301 -4 -4 -4
s-4 2 -4 6zM244 185c0 6.66699 -2.16699 12.167 -6.5 16.5s-9.83301 6.5 -16.5 6.5s-12 -2.16699 -16 -6.5s-6 -9.83301 -6 -16.5c0 -14.667 7.33301 -22 22 -22c6.66699 0 12.167 2 16.5 6s6.5 9.33301 6.5 16zM197 343c14.667 0 29.1699 -2.50195 43.5029 -7.50195
s27 -12 38 -21s19.833 -20 26.5 -33s10 -27.833 10 -44.5c0 -32.667 -8.16699 -59.334 -24.5 -80.001s-38.5 -31 -66.5 -31c-17.333 0 -32.5 6 -45.5 18s-19.5 25.667 -19.5 41c0 17.333 6 31.5 18 42.5s27.667 16.5 47 16.5c6 0 13 -1 21 -3s14.667 -5.66699 20 -11v5
c0 18 -5.16699 33.833 -15.5 47.5s-26.833 20.5 -49.5 20.5c-24 0 -45.333 -11.167 -64 -33.5s-28 -52.5 -28 -90.5c0 -20.667 3.16699 -38.334 9.5 -53.001s14.666 -26.667 24.999 -36s22.333 -16.166 36 -20.499s28.167 -6.5 43.5 -6.5c38 0 67.833 14.167 89.5 42.5
s32.5 67.5 32.5 117.5c0 8.66699 -0.5 17.334 -1.5 26.001s-2.16699 17.667 -3.5 27c10.667 -2 20.334 -6.16699 29.001 -12.5s16.5 -14 23.5 -23s13 -18.667 18 -29s9.16699 -20.166 12.5 -29.499v24c0 15.333 -1.16699 27.833 -3.5 37.5s-5.83301 20.167 -10.5 31.5
c19.333 -4.66699 37 -15.334 53 -32.001s27.333 -34.667 34 -54c0.666992 3.33301 1.16699 6.83301 1.5 10.5s0.5 7.16699 0.5 10.5c0 20.667 -4.33301 38.334 -13 53.001c19.333 -5.33301 35.166 -14.833 47.499 -28.5s22.5 -28.167 30.5 -43.5v16
c0 6.66699 -0.166992 12.167 -0.5 16.5s-1.16602 8.83301 -2.49902 13.5c11.333 -2.66699 22.333 -6.83398 33 -12.501l33.5 -17.5c11.667 -6 24.667 -11.5 39 -16.5s31.166 -8.16699 50.499 -9.5c-8 -3.33301 -18.5 -6.83301 -31.5 -10.5s-24.167 -5.5 -33.5 -5.5
c-8.66699 0 -18.834 1.5 -30.501 4.5s-21.167 7.83301 -28.5 14.5c0 -26.667 -8.66699 -43 -26 -49c-3.33301 0 -6.66602 2 -9.99902 6s-6.5 8.83301 -9.5 14.5s-6 11.834 -9 18.501s-5.83301 12.667 -8.5 18c-2.66699 -18 -7 -33.667 -13 -47s-14 -20 -24 -20
c-7.33301 0 -11.5 5 -12.5 15s-4.16699 21 -9.5 33l-11 23c-0.666992 -24.667 -5.33398 -44.334 -14.001 -59.001s-18.667 -22 -30 -22c-2 0 -4.33301 2 -7 6s-5.33398 9.16699 -8.00098 15.5s-5.33398 13.166 -8.00098 20.499l-8 21c-1.33301 -28.667 -7.33301 -53 -18 -73
s-23.834 -36.333 -39.501 -49s-32.667 -22 -51 -28s-35.833 -9 -52.5 -9c-26 0 -49.333 4.16699 -70 12.5s-38.167 19.666 -52.5 33.999s-25.166 31.333 -32.499 51s-11 40.834 -11 63.501s3.33301 43.834 10 63.501s16.334 36.834 29.001 51.501s27.5 26.334 44.5 35.001
s36.167 13 57.5 13z" />
    <glyph glyph-name="uni1EA0" unicode="&#x1ea0;" horiz-adv-x="442" 
d="M292 188l-71 204h-2l-71 -204h144zM448 0h-89l-45 125h-189l-44 -125h-86l182 473h88zM268 -87c0 -13.333 -4.5 -24.666 -13.5 -33.999s-20.167 -14 -33.5 -14s-24.666 4.66699 -33.999 14s-14 20.666 -14 33.999s4.66699 24.5 14 33.5s20.666 13.5 33.999 13.5
s24.5 -4.5 33.5 -13.5s13.5 -20.167 13.5 -33.5z" />
    <glyph glyph-name="uni1EA1" unicode="&#x1ea1;" 
d="M251 115v57.001c-9.33301 -6.66699 -23 -11.334 -41 -14.001s-35.333 -5 -52 -7c-40.667 -6.66699 -61 -25.667 -61 -57c0 -15.333 8 -27 24 -35c13.333 -6 28.333 -9 45 -9c20.667 0 39 5 55 15c20 12 30 28.667 30 50zM363 -0.999023
c-14.667 -5.33301 -30.334 -8 -47.001 -8c-34 0 -53.667 13.667 -59 41c-28 -27.333 -67.333 -41 -118 -41c-33.333 0 -60.666 8.33301 -81.999 25c-24 18 -36 43 -36 75c0 38 14 65.333 42 82c18 10 48 18.333 90 25c24 3.33301 48 7 72 11c20.667 6 31 18.333 31 37
c0 30.667 -23.667 46 -71 46c-46.667 0 -72 -18 -76 -54h-75c4 76 56 114 156 114c38 0 69.333 -7.33301 94 -22c28.667 -18 43 -43.667 43 -77v-177c0 -17.333 6 -26 18 -26c6.66699 0 12.667 0.666992 18 2v-53zM231 -86.999c0 -13.333 -4.5 -24.666 -13.5 -33.999
s-20.167 -14 -33.5 -14s-24.666 4.66699 -33.999 14s-14 20.666 -14 33.999s4.66699 24.5 14 33.5s20.666 13.5 33.999 13.5s24.5 -4.5 33.5 -13.5s13.5 -20.167 13.5 -33.5z" />
    <glyph glyph-name="uni1EA2" unicode="&#x1ea2;" horiz-adv-x="442" 
d="M292 188l-71 204h-2l-71 -204h144zM448 0h-89l-45 125h-189l-44 -125h-86l182 473h88zM296 603c0 -9.33301 -2.66895 -17.168 -8.00195 -23.501s-11.166 -12.333 -17.499 -18s-12.166 -11.5 -17.499 -17.5s-8 -13.333 -8 -22h-45
c0.666992 12 3.33398 21.833 8.00098 29.5s9.66699 14.167 15 19.5l15 14.5c4.66699 4.33301 7 9.5 7 15.5c0 3.33301 -1.33301 8 -4 14s-9.66699 9 -21 9c-12.667 0 -21.5 -4.66699 -26.5 -14s-7.5 -19.666 -7.5 -30.999h-44c0 24 6.66699 43.667 20 59s34 23 62 23
c21.333 0 38.666 -5.33301 51.999 -16s20 -24.667 20 -42z" />
    <glyph glyph-name="uni1EA3" unicode="&#x1ea3;" 
d="M251 115v57.001c-9.33301 -6.66699 -23 -11.334 -41 -14.001s-35.333 -5 -52 -7c-40.667 -6.66699 -61 -25.667 -61 -57c0 -15.333 8 -27 24 -35c13.333 -6 28.333 -9 45 -9c20.667 0 39 5 55 15c20 12 30 28.667 30 50zM363 -0.999023
c-14.667 -5.33301 -30.334 -8 -47.001 -8c-34 0 -53.667 13.667 -59 41c-28 -27.333 -67.333 -41 -118 -41c-33.333 0 -60.666 8.33301 -81.999 25c-24 18 -36 43 -36 75c0 38 14 65.333 42 82c18 10 48 18.333 90 25c24 3.33301 48 7 72 11c20.667 6 31 18.333 31 37
c0 30.667 -23.667 46 -71 46c-46.667 0 -72 -18 -76 -54h-75c4 76 56 114 156 114c38 0 69.333 -7.33301 94 -22c28.667 -18 43 -43.667 43 -77v-177c0 -17.333 6 -26 18 -26c6.66699 0 12.667 0.666992 18 2v-53zM261 472.001
c0 -9.33301 -2.66895 -17.168 -8.00195 -23.501s-11.166 -12.333 -17.499 -18s-12.166 -11.5 -17.499 -17.5s-8 -13.333 -8 -22h-45c0.666992 12 3.33398 21.833 8.00098 29.5s9.66699 14.167 15 19.5l15 14.5c4.66699 4.33301 7 9.5 7 15.5c0 3.33301 -1.33301 8 -4 14
s-9.66699 9 -21 9c-12.667 0 -21.5 -4.66699 -26.5 -14s-7.5 -19.666 -7.5 -30.999h-44c0 24 6.66699 43.667 20 59s34 23 62 23c21.333 0 38.666 -5.33301 51.999 -16s20 -24.667 20 -42z" />
    <glyph glyph-name="uni1EA4" unicode="&#x1ea4;" horiz-adv-x="442" 
d="M292 188l-71 204h-2l-71 -204h144zM448 0h-89l-45 125h-189l-44 -125h-86l182 473h88zM329 522h-61l-47 60l-47 -60h-61l71 95h74zM469 672l-94 -95h-55l60 95h89z" />
    <glyph glyph-name="uni1EA5" unicode="&#x1ea5;" 
d="M251 115v57.001c-9.33301 -6.66699 -23 -11.334 -41 -14.001s-35.333 -5 -52 -7c-40.667 -6.66699 -61 -25.667 -61 -57c0 -15.333 8 -27 24 -35c13.333 -6 28.333 -9 45 -9c20.667 0 39 5 55 15c20 12 30 28.667 30 50zM363 -0.999023
c-14.667 -5.33301 -30.334 -8 -47.001 -8c-34 0 -53.667 13.667 -59 41c-28 -27.333 -67.333 -41 -118 -41c-33.333 0 -60.666 8.33301 -81.999 25c-24 18 -36 43 -36 75c0 38 14 65.333 42 82c18 10 48 18.333 90 25c24 3.33301 48 7 72 11c20.667 6 31 18.333 31 37
c0 30.667 -23.667 46 -71 46c-46.667 0 -72 -18 -76 -54h-75c4 76 56 114 156 114c38 0 69.333 -7.33301 94 -22c28.667 -18 43 -43.667 43 -77v-177c0 -17.333 6 -26 18 -26c6.66699 0 12.667 0.666992 18 2v-53zM292 388.001h-61l-47 60l-47 -60h-61l71 95h74z
M430 541.001l-94 -95h-55l60 95h89z" />
    <glyph glyph-name="uni1EA6" unicode="&#x1ea6;" horiz-adv-x="442" 
d="M292 188l-71 204h-2l-71 -204h144zM448 0h-89l-45 125h-189l-44 -125h-86l182 473h88zM329 522h-61l-47 60l-47 -60h-61l71 95h74zM407 577h-55l-94 95h89z" />
    <glyph glyph-name="uni1EA7" unicode="&#x1ea7;" 
d="M251 115v57.001c-9.33301 -6.66699 -23 -11.334 -41 -14.001s-35.333 -5 -52 -7c-40.667 -6.66699 -61 -25.667 -61 -57c0 -15.333 8 -27 24 -35c13.333 -6 28.333 -9 45 -9c20.667 0 39 5 55 15c20 12 30 28.667 30 50zM363 -0.999023
c-14.667 -5.33301 -30.334 -8 -47.001 -8c-34 0 -53.667 13.667 -59 41c-28 -27.333 -67.333 -41 -118 -41c-33.333 0 -60.666 8.33301 -81.999 25c-24 18 -36 43 -36 75c0 38 14 65.333 42 82c18 10 48 18.333 90 25c24 3.33301 48 7 72 11c20.667 6 31 18.333 31 37
c0 30.667 -23.667 46 -71 46c-46.667 0 -72 -18 -76 -54h-75c4 76 56 114 156 114c38 0 69.333 -7.33301 94 -22c28.667 -18 43 -43.667 43 -77v-177c0 -17.333 6 -26 18 -26c6.66699 0 12.667 0.666992 18 2v-53zM299 388.001h-61l-47 60l-47 -60h-61l71 95h74z
M370 446.001h-55l-94 95h89z" />
    <glyph glyph-name="uni1EA8" unicode="&#x1ea8;" horiz-adv-x="442" 
d="M292 188l-71 204h-2l-71 -204h144zM448 0h-89l-45 125h-189l-44 -125h-86l182 473h88zM336 522h-61l-47 60l-47 -60h-61l71 95h74zM436 658c0 -9.33301 -2.66895 -17.168 -8.00195 -23.501s-11.166 -12.333 -17.499 -18s-12.166 -11.5 -17.499 -17.5s-8 -13.333 -8 -22
h-45c0.666992 12 3.33398 21.833 8.00098 29.5s9.66699 14.167 15 19.5l15 14.5c4.66699 4.33301 7 9.5 7 15.5c0 3.33301 -1.33301 8 -4 14s-9.66699 9 -21 9c-12.667 0 -21.5 -4.66699 -26.5 -14s-7.5 -19.666 -7.5 -30.999h-44c0 24 6.66699 43.667 20 59s34 23 62 23
c21.333 0 38.666 -5.33301 51.999 -16s20 -24.667 20 -42z" />
    <glyph glyph-name="uni1EA9" unicode="&#x1ea9;" 
d="M251 115v57.001c-9.33301 -6.66699 -23 -11.334 -41 -14.001s-35.333 -5 -52 -7c-40.667 -6.66699 -61 -25.667 -61 -57c0 -15.333 8 -27 24 -35c13.333 -6 28.333 -9 45 -9c20.667 0 39 5 55 15c20 12 30 28.667 30 50zM363 -0.999023
c-14.667 -5.33301 -30.334 -8 -47.001 -8c-34 0 -53.667 13.667 -59 41c-28 -27.333 -67.333 -41 -118 -41c-33.333 0 -60.666 8.33301 -81.999 25c-24 18 -36 43 -36 75c0 38 14 65.333 42 82c18 10 48 18.333 90 25c24 3.33301 48 7 72 11c20.667 6 31 18.333 31 37
c0 30.667 -23.667 46 -71 46c-46.667 0 -72 -18 -76 -54h-75c4 76 56 114 156 114c38 0 69.333 -7.33301 94 -22c28.667 -18 43 -43.667 43 -77v-177c0 -17.333 6 -26 18 -26c6.66699 0 12.667 0.666992 18 2v-53zM299 388.001h-61l-47 60l-47 -60h-61l71 95h74z
M394 527.001c0 -9.33301 -2.66895 -17.168 -8.00195 -23.501s-11.166 -12.333 -17.499 -18s-12.166 -11.5 -17.499 -17.5s-8 -13.333 -8 -22h-45c0.666992 12 3.33398 21.833 8.00098 29.5s9.66699 14.167 15 19.5l15 14.5c4.66699 4.33301 7 9.5 7 15.5
c0 3.33301 -1.33301 8 -4 14s-9.66699 9 -21 9c-12.667 0 -21.5 -4.66699 -26.5 -14s-7.5 -19.666 -7.5 -30.999h-44c0 24 6.66699 43.667 20 59s34 23 62 23c21.333 0 38.666 -5.33301 51.999 -16s20 -24.667 20 -42z" />
    <glyph glyph-name="uni1EAA" unicode="&#x1eaa;" horiz-adv-x="442" 
d="M292 188l-71 204h-2l-71 -204h144zM448 0h-89l-45 125h-189l-44 -125h-86l182 473h88zM329 522h-61l-47 60l-47 -60h-61l71 95h74zM338 728c-3.33301 -21.333 -10.6699 -39.334 -22.0029 -54.001s-28.666 -22 -51.999 -22c-7.33301 0 -15.166 1.33301 -23.499 4
s-16.666 5.5 -24.999 8.5l-24.5 8.5c-8 2.66699 -15 4 -21 4c-8 0 -14.667 -3 -20 -9s-8 -12.333 -8 -19h-38c1.33301 8.66699 3.66602 17.334 6.99902 26.001s8 16.667 14 24s13 13.333 21 18s17 7 27 7s19.5 -1.33301 28.5 -4s17.333 -5.5 25 -8.5l21.5 -8.5
c6.66699 -2.66699 13.334 -4 20.001 -4c9.33301 0 16.5 2.66699 21.5 8s8.83301 12.333 11.5 21h37z" />
    </font>
</defs>
</svg>
