<?xml version="1.0" standalone="no"?>
<!DOCTYPE svg PUBLIC "-//W3C//DTD SVG 1.1//EN" "http://www.w3.org/Graphics/SVG/1.1/DTD/svg11.dtd" >
<svg>
<metadata>
Created by FontForge 20090914 at Mon Oct  5 09:55:47 2020
 By www-data
Copyright (c) 2008 by FTPI. All rights reserved.
</metadata>
<defs>
<font id="TFSrivichai" horiz-adv-x="0" >
  <font-face 
    font-family="TF Srivichai"
    font-weight="400"
    font-stretch="normal"
    units-per-em="1000"
    panose-1="2 0 5 6 0 0 0 2 0 4"
    ascent="800"
    descent="-200"
    x-height="342"
    cap-height="473"
    bbox="-467.001 -433.002 815 848"
    underline-thickness="30"
    underline-position="-20"
    unicode-range="U+0020-U+FE69"
  />
<missing-glyph horiz-adv-x="500" 
d="M402 35v625h-305v-625h305zM436 0h-373v695h373v-695z" />
    <glyph glyph-name="ffj" unicode="ffj" horiz-adv-x="467" 
d="M426 -32c0 -63.333 -24.3369 -95 -73.0039 -95c-3.33301 0 -8.16602 0.333008 -14.499 1s-11.166 1 -14.499 1v34h23c24.667 0 37 16.333 37 49v349h-108v-307h-42v307h-130v-307h-42v307h-58v35h58v31c0 66.667 27.667 100 83 100c14.667 0 26.334 -0.666992 35.001 -2
v-36c-10.667 2 -20.667 3 -30 3c-21.333 0 -35 -6.33301 -41 -19c-3.33301 -7.33301 -5 -23 -5 -47v-30h130v31c0 66.667 27.667 100 83 100c14.667 0 26.334 -0.666992 35.001 -2v-36c-10.667 2 -20.667 3 -30 3c-21.333 0 -35 -6.33301 -41 -19
c-3.33301 -7.33301 -5 -23 -5 -47v-30h150v-374zM439.996 440c0 -9.33301 -3.33301 -17.333 -10 -24s-14.667 -10 -24 -10s-17.333 3.33301 -24 10s-10 14.667 -10 24s3.33301 17.333 10 24s14.667 10 24 10s17.333 -3.33301 24 -10s10 -14.667 10 -24z" />
    <glyph glyph-name="fj" unicode="fj" horiz-adv-x="295" 
d="M254 -32c0 -63.333 -24.3359 -95 -73.0029 -95c-3.33301 0 -8.16602 0.333008 -14.499 1s-11.166 1 -14.499 1v34h23c24.667 0 37 16.333 37 49v349h-108v-307h-42v307h-58v35h58v31c0 66.667 27.667 100 83 100c14.667 0 26.334 -0.666992 35.001 -2v-36
c-10.667 2 -20.667 3 -30 3c-21.333 0 -35 -6.33301 -41 -19c-3.33301 -7.33301 -5 -23 -5 -47v-30h150v-374zM267.997 440c0 -9.33301 -3.33301 -17.333 -10 -24s-14.667 -10 -24 -10s-17.333 3.33301 -24 10s-10 14.667 -10 24s3.33301 17.333 10 24s14.667 10 24 10
s17.333 -3.33301 24 -10s10 -14.667 10 -24z" />
    <glyph glyph-name="uni0E24.liga" unicode="&#xe24;&#xe32;" horiz-adv-x="639" 
d="M347 -156h-35v445c0 54.667 -39.333 82 -118 82c-46 0 -79 -10 -99 -30c25.333 -7.33301 44.666 -22.666 57.999 -45.999c-31.333 -12.667 -47 -35 -47 -67v-117c10 6.66699 21 10 33 10c17.333 0 32.166 -6.16699 44.499 -18.5s18.5 -27.166 18.5 -44.499
s-6 -31.666 -18 -42.999s-27 -17 -45 -17c-22 0 -38.833 6.66699 -50.5 20s-17.5 29.666 -17.5 48.999v164c0 37.333 13 60.666 39 69.999c-17.333 15.333 -41.666 24.666 -72.999 27.999c36.667 48.667 91 73 163 73c44.667 0 80.334 -9.66699 107.001 -29s40 -46 40 -80
v-449zM169 58c0 8.66699 -2.83301 15.834 -8.5 21.501s-12.834 8.5 -21.501 8.5s-15.667 -2.83301 -21 -8.5s-8 -12.834 -8 -21.501s2.66699 -15.667 8 -21s12.333 -8 21 -8s15.834 2.66699 21.501 8s8.5 12.333 8.5 21zM584 -156l-34.9971 -0.000976562v426
c0 31.333 -9 56.333 -27 75s-43 28 -75 28c-30.667 0 -54.667 -9.16699 -72 -27.5s-26.333 -41.5 -27 -69.5h-36c3.33301 36.667 17.166 66.834 41.499 90.501s55.166 35.5 92.499 35.5c43.333 0 77.166 -12.167 101.499 -36.5s36.5 -56.5 36.5 -96.5v-425z" />
    <glyph glyph-name="uni0E26.liga" unicode="&#xe26;&#xe32;" horiz-adv-x="676" 
d="M384 -156l-34.999 0.00292969v445c0 54.667 -37.667 82 -113 82c-44 0 -76 -10 -96 -30c25.333 -7.33301 44.666 -22.666 57.999 -45.999c-31.333 -12.667 -47 -35 -47 -67v-161c0 -19.333 -5.33301 -35.333 -16 -48c-12.667 -14 -30 -21 -52 -21
c-18 0 -33 5.66699 -45 17s-18 25.666 -18 42.999s6.16699 32.166 18.5 44.499s27.166 18.5 44.499 18.5c12 0 23 -3.33301 33 -10v120c0 37.333 13 60.666 39 69.999c-17.333 15.333 -41.666 24.666 -72.999 27.999c36.667 48.667 90 73 160 73
c44 0 78.667 -9.66699 104 -29s38 -46 38 -80v-449zM112.001 58.0029c0 8.66699 -2.83301 15.834 -8.5 21.501s-12.834 8.5 -21.501 8.5s-15.667 -2.83301 -21 -8.5s-8 -12.834 -8 -21.501s2.66699 -15.667 8 -21s12.333 -8 21 -8s15.834 2.66699 21.501 8
s8.5 12.333 8.5 21zM621.001 -155.997l-34.9971 -0.000976562v426c0 31.333 -9 56.333 -27 75s-43 28 -75 28c-30.667 0 -54.667 -9.16699 -72 -27.5s-26.333 -41.5 -27 -69.5h-36c3.33301 36.667 17.166 66.834 41.499 90.501s55.166 35.5 92.499 35.5
c43.333 0 77.166 -12.167 101.499 -36.5s36.5 -56.5 36.5 -96.5v-425z" />
    <glyph glyph-name="ff" unicode="ff" horiz-adv-x="344" 
d="M276 0h-42.002v307h-130v-307h-42v307h-58v35h58v31c0 66.667 27.667 100 83 100c14.667 0 26.334 -0.666992 35.001 -2v-36c-10.667 2 -20.667 3 -30 3c-21.333 0 -35 -6.33301 -41 -19c-3.33301 -7.33301 -5 -23 -5 -47v-30h130v31c0 66.667 27.667 100 83 100
c14.667 0 26.334 -0.666992 35.001 -2v-36c-10.667 2 -20.667 3 -30 3c-21.333 0 -35 -6.33301 -41 -19c-3.33301 -7.33301 -5 -23 -5 -47v-30h68v-35h-68v-307z" />
    <glyph glyph-name="fi" unicode="fi" horiz-adv-x="294" 
d="M212 0l0.000976562 307h-108v-307h-42v307h-58v35h58v31c0 14.667 1.16699 28.167 3.5 40.5s6.66602 22.833 12.999 31.5s14.833 15.5 25.5 20.5s24.334 7.5 41.001 7.5h17c5.33301 0 11.333 -0.666992 18 -2v-36c-11.333 2 -21.333 3 -30 3c-12 0 -21 -1.66699 -27 -5
s-10.333 -8 -13 -14s-4.33398 -13 -5.00098 -21s-1 -16.667 -1 -26v-30h150v-342h-42zM268.001 440c0 -9.33301 -3.33301 -17.333 -10 -24s-14.667 -10 -24 -10s-17.333 3.33301 -24 10s-10 14.667 -10 24s3.33301 17.333 10 24s14.667 10 24 10s17.333 -3.33301 24 -10
s10 -14.667 10 -24z" />
    <glyph glyph-name="fl" unicode="fl" horiz-adv-x="294" 
d="M212 0l0.000976562 438h-62c-12 0 -21 -1.66699 -27 -5s-10.333 -8 -13 -14s-4.33398 -13 -5.00098 -21s-1 -16.667 -1 -26v-30h68v-35h-68v-307h-42v307h-58v35h58v31c0 14.667 1.16699 28.167 3.5 40.5s6.66602 22.833 12.999 31.5s14.833 15.5 25.5 20.5
s24.334 7.5 41.001 7.5h109v-473h-42z" />
    <glyph glyph-name="ffi" unicode="ffi" horiz-adv-x="467" 
d="M426 0h-42.002v307h-108v-307h-42v307h-130v-307h-42v307h-58v35h58v31c0 66.667 27.667 100 83 100c14.667 0 26.334 -0.666992 35.001 -2v-36c-10.667 2 -20.667 3 -30 3c-21.333 0 -35 -6.33301 -41 -19c-3.33301 -7.33301 -5 -23 -5 -47v-30h130v31
c0 66.667 27.667 100 83 100c14.667 0 26.334 -0.666992 35.001 -2v-36c-10.667 2 -20.667 3 -30 3c-21.333 0 -35 -6.33301 -41 -19c-3.33301 -7.33301 -5 -23 -5 -47v-30h150v-342zM438.998 440c0 -9.33301 -3.33301 -17.333 -10 -24s-14.667 -10 -24 -10
s-17.333 3.33301 -24 10s-10 14.667 -10 24s3.33301 17.333 10 24s14.667 10 24 10s17.333 -3.33301 24 -10s10 -14.667 10 -24z" />
    <glyph glyph-name="ffl" unicode="ffl" horiz-adv-x="467" 
d="M426 0h-42.001v438h-62c-21.333 0 -35 -6.33301 -41 -19c-3.33301 -7.33301 -5 -23 -5 -47v-30h68v-35h-68v-307h-42v307h-130v-307h-42v307h-58v35h58v31c0 66.667 27.667 100 83 100c14.667 0 26.334 -0.666992 35.001 -2v-36c-10.667 2 -20.667 3 -30 3
c-21.333 0 -35 -6.33301 -41 -19c-3.33301 -7.33301 -5 -23 -5 -47v-30h130v31c0 66.667 27.667 100 83 100h109v-473z" />
    <glyph glyph-name="RSAD" unicode="RSADLogo" horiz-adv-x="723" 
d="M154 189c-3.33301 10 -9.33301 15.999 -18 17.999c8.66699 2 14.334 7 17.001 15c1.33301 -5.33301 4 -9.5 8 -12.5s8.66699 -5.5 14 -7.5c9.33301 -3.33301 18.166 -5.66602 26.499 -6.99902s12.5 -4.33301 12.5 -9c0 -5.33301 -5 -8 -15 -8
c-8.66699 0 -14 3.66699 -16 11h-29zM108 238.999c9.33301 0 14 -3.33301 14 -10c0 -8 -4.66699 -12 -14 -12h-24v22h24zM289 287.999c-10.667 -10 -19.167 -21.832 -25.5 -35.499s-9.5 -28.167 -9.5 -43.5s3.16699 -29.833 9.5 -43.5s14.833 -25.167 25.5 -34.5h-233
c-8 0 -15 2.66699 -21 8s-9 11.666 -9 18.999v102c0 7.33301 3 13.833 9 19.5s13 8.5 21 8.5h233zM245 232c-1.33301 9.33301 -5.66992 17.502 -13.0029 24.502s-18.666 10.5 -33.999 10.5c-9.33301 0 -18.333 -1.83301 -27 -5.5s-14.667 -9.83398 -18 -18.501
c-3.33301 14 -18.666 21 -45.999 21h-36c-7.33301 0 -12.5 -2.33301 -15.5 -7s-4.5 -9.66699 -4.5 -15v-68c0 -7.33301 1.5 -12.166 4.5 -14.499s7.16699 -3.5 12.5 -3.5h16v37h19c8 0 13 -1.33301 15 -4s3 -7.33398 3 -14.001c0 -10.667 1.66699 -17 5 -19h32l-3 16
c5.33301 -7.33301 11.833 -12.333 19.5 -15s15.167 -4 22.5 -4c15.333 0 27.5 3 36.5 9s13.5 15.333 13.5 28c0 10 -3.16699 17.167 -9.5 21.5s-13.5 7.5 -21.5 9.5l-21.5 5.5c-6.33301 1.66699 -9.5 4.5 -9.5 8.5c0 4.66699 4 7 12 7c2 0 5 -0.666992 9 -2
c2.66699 -2.66699 4.33398 -5.33398 5.00098 -8.00098h34zM682.996 140.002c-3.33301 0 -5 1.66699 -5 5s1.66699 5 5 5s5 -1.66699 5 -5s-1.66699 -5 -5 -5zM691.996 171.002c-4 0 -6 1.66699 -6 5s2 5 6 5c3.33301 0 5 -1.66699 5 -5s-1.66699 -5 -5 -5zM693.996 202.002
c-3.33301 0 -5 1.66699 -5 5s1.66699 5 5 5s5 -1.66699 5 -5s-1.66699 -5 -5 -5zM691.996 236.002c-4 0 -6 1.66699 -6 5s2 5 6 5c3.33301 0 5 -1.66699 5 -5s-1.66699 -5 -5 -5zM682.996 269.002c-3.33301 0 -5 1.66699 -5 5s1.66699 5 5 5s5 -1.66699 5 -5
s-1.66699 -5 -5 -5zM648.996 138.002c-4 0 -6 2.33301 -6 7c0 4 2 6 6 6c4.66699 0 7 -2 7 -6c0 -4.66699 -2.33301 -7 -7 -7zM657.996 169.002c-4.66699 0 -7 2.33301 -7 7c0 4 2.33301 6 7 6c4 0 6 -2 6 -6c0 -4.66699 -2 -7 -6 -7zM659.996 201.002c-4.66699 0 -7 2 -7 6
c0 4.66699 2.33301 7 7 7c4 0 6 -2.33301 6 -7c0 -4 -2 -6 -6 -6zM657.996 234.002c-4.66699 0 -7 2.33301 -7 7c0 4 2.33301 6 7 6c4 0 6 -2 6 -6c0 -4.66699 -2 -7 -6 -7zM655.996 274.002c0 -4 -2.33301 -6 -7 -6c-4 0 -6 2 -6 6c0 4.66699 2 7 6 7
c4.66699 0 7 -2.33301 7 -7zM614.996 137.002c-5.33301 0 -8 2.66699 -8 8s2.66699 8 8 8s8 -2.66699 8 -8s-2.66699 -8 -8 -8zM623.996 168.002c-5.33301 0 -8 2.66699 -8 8s2.66699 8 8 8c4.66699 0 7 -2.66699 7 -8s-2.33301 -8 -7 -8zM625.996 199.002
c-5.33301 0 -8 2.66699 -8 8s2.66699 8 8 8c4.66699 0 7 -2.66699 7 -8s-2.33301 -8 -7 -8zM623.996 233.002c-5.33301 0 -8 2.66699 -8 8s2.66699 8 8 8c4.66699 0 7 -2.66699 7 -8s-2.33301 -8 -7 -8zM614.996 266.002c-5.33301 0 -8 2.66699 -8 8s2.66699 8 8 8
s8 -2.66699 8 -8s-2.66699 -8 -8 -8zM580.996 135.002c-6 0 -9 3.33301 -9 10c0 6 3 9 9 9c6.66699 0 10 -3 10 -9c0 -6.66699 -3.33301 -10 -10 -10zM598.996 176.002c0 -6 -3.33301 -9 -10 -9c-6 0 -9 3 -9 9s3 9 9 9c6.66699 0 10 -3 10 -9zM591.996 198.002
c-6.66699 0 -10 3 -10 9c0 6.66699 3.33301 10 10 10c6 0 9 -3.33301 9 -10c0 -6 -3 -9 -9 -9zM588.996 231.002c-6 0 -9 3.33301 -9 10c0 6 3 9 9 9c6.66699 0 10 -3 10 -9c0 -6.66699 -3.33301 -10 -10 -10zM590.996 274.002c0 -6 -3.33301 -9 -10 -9c-6 0 -9 3 -9 9
s3 9 9 9c6.66699 0 10 -3 10 -9zM546.996 134.002c-7.33301 0 -11 3.66699 -11 11c0 6.66699 3.66699 10 11 10s11 -3.33301 11 -10c0 -7.33301 -3.66699 -11 -11 -11zM554.996 165.002c-6.66699 0 -10 3.66699 -10 11s3.33301 11 10 11c7.33301 0 11 -3.66699 11 -11
s-3.66699 -11 -11 -11zM557.996 197.002c-7.33301 0 -11 3.33301 -11 10c0 7.33301 3.66699 11 11 11c6.66699 0 10 -3.66699 10 -11c0 -6.66699 -3.33301 -10 -10 -10zM554.996 230.002c-6.66699 0 -10 3.66699 -10 11c0 6.66699 3.33301 10 10 10
c7.33301 0 11 -3.33301 11 -10c0 -7.33301 -3.66699 -11 -11 -11zM546.996 263.002c-7.33301 0 -11 3.66699 -11 11s3.66699 11 11 11s11 -3.66699 11 -11s-3.66699 -11 -11 -11zM510.996 133.002c-3.33301 0 -6.16504 1.16797 -8.49805 3.50098s-3.5 5.16602 -3.5 8.49902
s1.16699 6.16602 3.5 8.49902s5.16602 3.5 8.49902 3.5s6.16602 -1.16699 8.49902 -3.5s3.5 -5.16602 3.5 -8.49902c0 -8 -4 -12 -12 -12zM533.997 176.003c0 -8 -4.33301 -11.998 -13 -11.998c-3.33301 0 -6.16602 1.16699 -8.49902 3.5s-3.5 5.16602 -3.5 8.49902
s1.16699 6.16602 3.5 8.49902s5.16602 3.5 8.49902 3.5c8.66699 0 13 -4 13 -12zM535.997 207.005c0 -3.33301 -1.33301 -6.16504 -4 -8.49805s-5.66699 -3.5 -9 -3.5s-6.16602 1.16699 -8.49902 3.5s-3.5 5.16602 -3.5 8.49902s1.16699 6.16602 3.5 8.49902
s5.16602 3.5 8.49902 3.5c8.66699 0 13 -4 13 -12zM533.997 241.006c0 -8 -4.33301 -11.999 -13 -11.999c-3.33301 0 -6.16602 1.16699 -8.49902 3.5s-3.5 5.16602 -3.5 8.49902s1.16699 6.16602 3.5 8.49902s5.16602 3.5 8.49902 3.5s6.33301 -1.16699 9 -3.5
s4 -5.16602 4 -8.49902zM510.997 262.007c-3.33301 0 -6.16602 1.16895 -8.49902 3.50195s-3.5 5.16602 -3.5 8.49902s1.16699 6.16602 3.5 8.49902s5.16602 3.5 8.49902 3.5c8 0 12 -4 12 -12s-4 -12 -12 -12zM472.997 131.009c-8.66699 0 -13 4.66699 -13 14
c0 8.66699 4.33301 13 13 13c9.33301 0 14 -4.33301 14 -13c0 -9.33301 -4.66699 -14 -14 -14zM484.997 162.009c-8.66699 0 -13 4.66699 -13 14c0 3.33301 1.33301 6.5 4 9.5s5.66699 4.5 9 4.5c4 0 7.33301 -1.5 10 -4.5s4 -6.16699 4 -9.5
c0 -9.33301 -4.66699 -14 -14 -14zM502.997 207.009c0 -8.66699 -4.66699 -13 -14 -13c-8.66699 0 -13 4.33301 -13 13c0 9.33301 4.33301 14 13 14c9.33301 0 14 -4.66699 14 -14zM484.997 227.009c-8.66699 0 -13 4.66699 -13 14c0 8.66699 4.33301 13 13 13
c9.33301 0 14 -4.33301 14 -13c0 -9.33301 -4.66699 -14 -14 -14zM472.997 260.009c-3.33301 0 -6.33301 1.5 -9 4.5s-4 6.16699 -4 9.5c0 9.33301 4.33301 14 13 14c9.33301 0 14 -4.66699 14 -14c0 -3.33301 -1.33301 -6.5 -4 -9.5s-6 -4.5 -10 -4.5zM367.997 172.009
h31.001c9.33301 0 16.666 3.66699 21.999 11s8 16 8 26c0 11.333 -2.66699 20.5 -8 27.5s-14.333 10.5 -27 10.5h-26v-75zM374.998 178.009l8.00195 62.998h9c5.33301 -0.666992 9.16602 -1.16699 11.499 -1.5s4.16602 -0.833008 5.49902 -1.5
c5.33301 -3.33301 8.83301 -7.66602 10.5 -12.999s2.5 -10.666 2.5 -15.999s-1.33301 -11.833 -4 -19.5s-9.66699 -11.5 -21 -11.5h-22zM343 200.007l-13 1h-14l16 38zM361 172.007l-29 75h-8l-29 -75h13l6 20l19 1l13 1l7 -22h8zM361 110.007c-28 0 -51.5 9.5 -70.5 28.5
s-28.5 42.5 -28.5 70.5s9.5 51.5 28.5 70.5s42.5 28.5 70.5 28.5s51.5 -9.5 70.5 -28.5s28.5 -42.5 28.5 -70.5s-9.5 -51.5 -28.5 -70.5s-42.5 -28.5 -70.5 -28.5zM451 209.007c0 25.333 -8.66699 46.666 -26 63.999s-38.666 26 -63.999 26s-46.666 -8.66699 -63.999 -26
s-26 -38.666 -26 -63.999s8.66699 -46.666 26 -63.999s38.666 -26 63.999 -26s46.666 8.66699 63.999 26s26 38.666 26 63.999zM361 125.007c-23.333 0 -43.166 8.16699 -59.499 24.5s-24.5 36.166 -24.5 59.499s8.16699 43.166 24.5 59.499s36.166 24.5 59.499 24.5
s43.166 -8.16699 59.499 -24.5s24.5 -36.166 24.5 -59.499s-8.16699 -43.166 -24.5 -59.499s-36.166 -24.5 -59.499 -24.5z" />
    <glyph glyph-name=".notdef" horiz-adv-x="500" 
d="M402 35v625h-305v-625h305zM436 0h-373v695h373v-695z" />
    <glyph glyph-name="space" unicode=" " horiz-adv-x="240" 
 />
    <glyph glyph-name="exclam" unicode="!" horiz-adv-x="160" 
d="M93 118h-25l-10 214v141h45v-141zM118 36c0 -10.667 -3.66699 -19.667 -11 -27s-16.333 -11 -27 -11s-19.667 3.66699 -27 11s-11 16.333 -11 27s3.66699 19.667 11 27s16.333 11 27 11s19.667 -3.66699 27 -11s11 -16.333 11 -27z" />
    <glyph glyph-name="quotedbl" unicode="&#x22;" horiz-adv-x="245" 
d="M99 312h-41v161h41v-161zM188 312h-42v161h42v-161z" />
    <glyph glyph-name="numbersign" unicode="#" horiz-adv-x="369" 
d="M235 0h-33l21 148h-94l-20 -148h-33l20 148h-73v30h77l15 103h-73v30h77l20 147h33l-20 -147h93l21 147h33l-21 -147h70v-30h-74l-14 -103h70v-30h-74zM227 178l14 103h-93l-15 -103h94z" />
    <glyph glyph-name="dollar" unicode="$" horiz-adv-x="369" 
d="M196 25c31.333 0 57 7.66797 77 23.001c23.333 17.333 35 42 35 74c0 45.333 -37.333 76.666 -112 93.999v-191zM170 448.001c-64.667 0 -97 -33.001 -97 -99.001c0 -27.333 10 -47.666 30 -60.999c12.667 -8.66699 35 -17 67 -25v185zM196 -66h-26v57
c-51.333 4.66699 -88.833 19.834 -112.5 45.501s-36.5 63.834 -38.5 114.501h42c0.666992 -76 37 -118 109 -126v196c-45.333 10 -78 22.667 -98 38c-27.333 21.333 -41 53 -41 95c0 39.333 13.333 70.666 40 93.999s59.667 35 99 35v52h26v-52c40 0 73.667 -13.333 101 -40
s40.666 -61.334 39.999 -104.001h-42c-0.666992 33.333 -10 59.833 -28 79.5s-41.667 29.5 -71 29.5v-191c47.333 -10 82.333 -22.667 105 -38c32 -22.667 48 -54.667 48 -96s-15.167 -74 -45.5 -98s-66.166 -35.667 -107.499 -35v-56z" />
    <glyph glyph-name="percent" unicode="%" horiz-adv-x="589" 
d="M221 342c0 64 -23.333 96 -70 96s-70 -32 -70 -96c0 -63.333 23.333 -95 70 -95s70 31.667 70 95zM158 -23h-32l300 504h31zM548 115c0 -83.333 -35.333 -125 -106 -125c-70 0 -105 41.667 -105 125c0 84 35 126 105 126c70.667 0 106 -42 106 -126zM512 115
c0 64 -23.333 96 -70 96s-70 -32 -70 -96c0 -63.333 23.333 -95 70 -95s70 31.667 70 95zM257 343c0 -84 -35.333 -126 -106 -126c-70 0 -105 42 -105 126c0 83.333 35 125 105 125c70.667 0 106 -41.667 106 -125z" />
    <glyph glyph-name="ampersand" unicode="&#x26;" horiz-adv-x="405" 
d="M164 236c-64 -35.333 -95.998 -74.333 -95.998 -117c0 -27.333 10.167 -49.833 30.5 -67.5s44.166 -26.5 71.499 -26.5c43.333 0 80.666 22.667 111.999 68zM411.002 0l-51.999 -0.000976562l-51 62c-38 -48 -84.333 -72 -139 -72c-42 0 -76.333 11.667 -103 35
s-40 56 -40 98c0 52.667 38.667 99.334 116 140.001c-22 29.333 -35 47 -39 53c-12.667 20.667 -19 41 -19 61c0 28.667 10 51.834 30 69.501s44.667 26.5 74 26.5s54.166 -8.83301 74.499 -26.5s30.5 -40.834 30.5 -69.501c0 -43.333 -31 -84 -93 -122l104 -125
c9.33301 19.333 14 46 14 80h41c0 -41.333 -9.33301 -79.333 -28 -114zM125.003 376.999c0 -19.333 17.667 -51 53 -95c48.667 29.333 73 61 73 95c0 18.667 -6 33.5 -18 44.5s-27 16.5 -45 16.5s-33 -5.5 -45 -16.5s-18 -25.833 -18 -44.5z" />
    <glyph glyph-name="quotesingle" unicode="'" horiz-adv-x="184" 
d="M113 312h-41v161h41v-161z" />
    <glyph glyph-name="parenleft" unicode="(" horiz-adv-x="160" 
d="M127 -127c-62 102.667 -93 203.666 -93 302.999c0 108 31 210.333 93 307h33c-56 -89.333 -84 -196.666 -84 -321.999c0 -99.333 28 -195.333 84 -288h-33z" />
    <glyph glyph-name="parenright" unicode=")" horiz-adv-x="160" 
d="M-1 -127c56.667 91.333 85 198.999 85 322.999c0 100 -28.333 195.667 -85 287h33c62.667 -103.333 94 -204.333 94 -303c0 -107.333 -31.333 -209.666 -94 -306.999h-33z" />
    <glyph glyph-name="asterisk" unicode="*" horiz-adv-x="233" 
d="M185 304l-21 -16l-49 67l-48 -67l-21 16l48 65l-76 25l9 25l76 -27v81h26v-81l77 27l9 -25l-78 -25z" />
    <glyph glyph-name="plus" unicode="+" horiz-adv-x="398" 
d="M366 149h-149v-149h-35v149h-150v35h150v149h35v-149h149v-35z" />
    <glyph glyph-name="comma" unicode="," horiz-adv-x="184" 
d="M131 20c0 -34 -19.666 -63.998 -58.999 -89.998l-16 11c10 7.33301 18.833 16.166 26.5 26.499s14.167 21.166 19.5 32.499c-6.66699 -2.66699 -12 -4 -16 -4c-10.667 0 -19.667 3.66699 -27 11s-11 16.333 -11 27s3.66699 19.667 11 27s16.333 11 27 11
c15.333 0 26.666 -5.33301 33.999 -16s11 -22.667 11 -36z" />
    <glyph glyph-name="hyphen" unicode="-" horiz-adv-x="245" 
d="M206 163h-166v39h166v-39z" />
    <glyph glyph-name="period" unicode="." horiz-adv-x="184" 
d="M130 34c0 -10.667 -3.66699 -19.667 -11 -27s-16.333 -11 -27 -11s-19.667 3.66699 -27 11s-11 16.333 -11 27s3.66699 19.667 11 27s16.333 11 27 11s19.667 -3.66699 27 -11s11 -16.333 11 -27z" />
    <glyph glyph-name="slash" unicode="/" horiz-adv-x="221" 
d="M27 -10h-36l205 493h33z" />
    <glyph glyph-name="zero" unicode="0" horiz-adv-x="369" 
d="M304 229c0 136 -40 204 -120 204s-120 -68 -120 -204s40 -204 120 -204s120 68 120 204zM346 229c0 -159.333 -54 -239 -162 -239c-107.333 0 -161 79.667 -161 239s53.667 239 161 239c108 0 162 -79.667 162 -239z" />
    <glyph glyph-name="one" unicode="1" horiz-adv-x="369" 
d="M229 0l-42 0.000976562v345h-123v30c44 1.33301 73.333 5.66602 88 12.999c22.667 12 37 37.333 43 76h34v-464z" />
    <glyph glyph-name="two" unicode="2" horiz-adv-x="369" 
d="M330 0l-306.001 0.000976562c0.666992 41.333 14.667 77.666 42 108.999c17.333 20 47 44 89 72c45.333 30.667 76 54 92 70c26 26 39 55 39 87c0 28.667 -10 51.667 -30 69s-44.667 26 -74 26c-36 0 -63.333 -13 -82 -39c-16 -22.667 -23.667 -52.667 -23 -90h-42
c-1.33301 49.333 10.834 89 36.501 119s63.167 45 112.5 45c42 0 76.5 -11.333 103.5 -34s40.5 -55 40.5 -97c0 -58.667 -39 -113.667 -117 -165c-52.667 -34.667 -80 -53 -82 -55c-33.333 -26 -52.333 -52.333 -57 -79h258v-38z" />
    <glyph glyph-name="three" unicode="3" horiz-adv-x="369" 
d="M340 131c0 -44 -16.001 -79 -48.001 -105c-29.333 -24 -66.666 -36 -111.999 -36c-49.333 0 -88.833 14.167 -118.5 42.5s-42.834 66.833 -39.501 115.5h42c-1.33301 -37.333 8.33398 -67.166 29.001 -89.499s49.667 -33.5 87 -33.5c32 0 59.667 9.33301 83 28
s35 43.667 35 75c0 32 -10.333 56.333 -31 73s-47.334 25 -80.001 25h-35v35h35c24 0 45 6.66699 63 20c20.667 16 31 37.333 31 64c0 29.333 -9.5 51.333 -28.5 66s-43.167 22 -72.5 22c-34 0 -60.333 -10.667 -79 -32s-27.667 -49.666 -27 -84.999h-42
c0.666992 44.667 14.334 81.167 41.001 109.5s62 42.5 106 42.5c40 0 73 -9.33301 99 -28c30 -21.333 45 -51.333 45 -90c0 -25.333 -7 -47.333 -21 -66s-33 -31 -57 -37v-1c30 -4.66699 53.333 -17.334 70 -38.001s25 -46.334 25 -77.001z" />
    <glyph glyph-name="four" unicode="4" horiz-adv-x="369" 
d="M272 0h-38v115h-214v41l215 308h37v-313h70v-36h-70v-115zM234 151v252h-1l-175 -252h176z" />
    <glyph glyph-name="five" unicode="5" horiz-adv-x="369" 
d="M66 133c0.666992 -32 11.832 -58 33.499 -78s48.5 -30 80.5 -30c34.667 0 62.667 12.333 84 37s32 54.667 32 90c0 34 -11.333 62.5 -34 85.5s-51 34.5 -85 34.5c-46 0 -80.333 -18.333 -103 -55h-36l45 241h232v-38h-203l-30 -154l2 -1
c24.667 28.667 57.334 43 98.001 43c46.667 0 84.167 -15 112.5 -45s42.5 -68.667 42.5 -116c0 -45.333 -15.5 -82.833 -46.5 -112.5s-69.167 -44.5 -114.5 -44.5c-44 0 -79.667 12.667 -107 38c-29.333 26 -44.333 61 -45 105h42z" />
    <glyph glyph-name="six" unicode="6" horiz-adv-x="369" 
d="M304 145c0 34.667 -10 63.667 -30 87s-47.333 35 -82 35c-35.333 0 -63.333 -11.5 -84 -34.5s-31 -52.167 -31 -87.5s9.33301 -63.666 28 -84.999c20 -23.333 49.333 -35 88 -35c32 0 58.5 11.667 79.5 35s31.5 51.666 31.5 84.999zM346 147
c0 -45.333 -14.835 -82.833 -44.502 -112.5s-67.167 -44.5 -112.5 -44.5c-57.333 0 -98.666 18.833 -123.999 56.5s-38 101.167 -38 190.5c0 52 8.66699 97.333 26 136c27.333 63.333 73.666 95 138.999 95c85.333 0 133 -40.333 143 -121h-42
c-3.33301 26 -13.666 46.833 -30.999 62.5s-39.333 23.5 -66 23.5c-85.333 0 -128 -69.333 -128 -208h2c10.667 22.667 27.334 41.167 50.001 55.5s47 21.5 73 21.5c46 0 83 -14.333 111 -43s42 -66 42 -112z" />
    <glyph glyph-name="seven" unicode="7" horiz-adv-x="369" 
d="M145 0h-46.001c6 79.333 23.5 151 52.5 215s75.167 132.333 138.5 205h-256v38h298v-38c-117.333 -123.333 -179.666 -263.333 -186.999 -420z" />
    <glyph glyph-name="eight" unicode="8" horiz-adv-x="369" 
d="M302 130c0 32 -11.668 57.332 -35.001 75.999c-22 16.667 -49.667 25 -83 25s-61.333 -8.66699 -84 -26s-34 -42.333 -34 -75c0 -33.333 11.667 -59.666 35 -78.999c21.333 -17.333 49 -26 83 -26c34.667 0 62.334 8.66699 83.001 26c23.333 18.667 35 45 35 79z
M343.999 129.999c0 -44.667 -15.167 -79.166 -45.5 -103.499s-68.5 -36.5 -114.5 -36.5s-83.333 11.667 -112 35c-31.333 25.333 -47 60.333 -47 105c0 30 8.66699 56 26 78s40 35.667 68 41v1c-50.667 15.333 -76 49.333 -76 102c0 37.333 15 66.666 45 87.999
c26 18.667 58 28 96 28s70 -9.33301 96 -28c30 -21.333 45 -50.666 45 -87.999c0 -52.667 -25.333 -86.667 -76 -102v-1c63.333 -12.667 95 -52.334 95 -119.001zM282.999 352c0 25.333 -9.16895 45.166 -27.502 59.499s-42.166 21.5 -71.499 21.5
c-27.333 0 -50.666 -7.16699 -69.999 -21.5s-29 -34.166 -29 -59.499c0 -28.667 10.333 -50.667 31 -66c18 -13.333 40.667 -20 68 -20c28 0 51.333 7.33301 70 22c19.333 14.667 29 36 29 64z" />
    <glyph glyph-name="nine" unicode="9" horiz-adv-x="369" 
d="M292 314c0 34.667 -9.66699 63.167 -29 85.5s-48.333 33.5 -87 33.5c-32.667 0 -59.5 -11.667 -80.5 -35s-31.5 -51.333 -31.5 -84c0 -35.333 10 -64.666 30 -87.999s47.333 -35 82 -35c35.333 0 63.5 11.667 84.5 35s31.5 52.666 31.5 87.999zM342 221
c0 -51.333 -8.66797 -96.667 -26.001 -136c-28 -63.333 -74.667 -95 -140 -95c-84.667 0 -132 40.333 -142 121h42c3.33301 -26 13.666 -46.833 30.999 -62.5s39 -23.5 65 -23.5c48 0 83 24.333 105 73c15.333 34.667 23 79.667 23 135h-1
c-11.333 -23.333 -28.166 -42 -50.499 -56s-46.5 -21 -72.5 -21c-46 0 -83 14.333 -111 43s-42 66 -42 112c0 45.333 14.667 82.833 44 112.5s67 44.5 113 44.5c56.667 0 97.834 -18.833 123.501 -56.5s38.5 -101.167 38.5 -190.5z" />
    <glyph glyph-name="colon" unicode=":" horiz-adv-x="184" 
d="M130 34c0 -10.667 -3.66699 -19.667 -11 -27s-16.333 -11 -27 -11s-19.667 3.66699 -27 11s-11 16.333 -11 27s3.66699 19.667 11 27s16.333 11 27 11s19.667 -3.66699 27 -11s11 -16.333 11 -27zM130 296c0 -10.667 -3.66699 -19.667 -11 -27s-16.333 -11 -27 -11
s-19.667 3.66699 -27 11s-11 16.333 -11 27s3.66699 19.667 11 27s16.333 11 27 11s19.667 -3.66699 27 -11s11 -16.333 11 -27z" />
    <glyph glyph-name="semicolon" unicode=";" horiz-adv-x="184" 
d="M130 296c0 -10.667 -3.66699 -19.667 -11 -27s-16.333 -11 -27 -11s-19.667 3.66699 -27 11s-11 16.333 -11 27s3.66699 19.667 11 27s16.333 11 27 11s19.667 -3.66699 27 -11s11 -16.333 11 -27zM131 20c0 -34 -19.666 -63.998 -58.999 -89.998l-16 11
c10 7.33301 18.833 16.166 26.5 26.499s14.167 21.166 19.5 32.499c-6.66699 -2.66699 -12 -4 -16 -4c-10.667 0 -19.667 3.66699 -27 11s-11 16.333 -11 27s3.66699 19.667 11 27s16.333 11 27 11c15.333 0 26.666 -5.33301 33.999 -16s11 -22.667 11 -36z" />
    <glyph glyph-name="less" unicode="&#x3c;" horiz-adv-x="398" 
d="M367 -5l-337 155v36l337 155v-37l-295 -136l295 -137v-36z" />
    <glyph glyph-name="equal" unicode="=" horiz-adv-x="398" 
d="M366 215h-334v36h334v-36zM366 85h-334v35h334v-35z" />
    <glyph glyph-name="greater" unicode="&#x3e;" horiz-adv-x="398" 
d="M367 150l-337 -155v36l296 137l-296 136v37l337 -155v-36z" />
    <glyph glyph-name="question" unicode="?" horiz-adv-x="356" 
d="M202 119h-41.9971c-0.666992 37.333 4.66602 66.666 15.999 87.999c8.66699 14.667 28.667 36.667 60 66c28.667 26.667 43 55.334 43 86.001c0 26 -9.16699 47.333 -27.5 64s-40.833 25 -67.5 25c-34.667 0 -61.334 -11.167 -80.001 -33.5
s-27.334 -51.166 -26.001 -86.499h-42c0 47.333 13.167 85 39.5 113s63.166 42 110.499 42c38.667 0 70.834 -11 96.501 -33s38.5 -51.667 38.5 -89s-19.333 -75 -58 -113c-30.667 -30 -47.667 -48.333 -51 -55c-6 -10.667 -9.33301 -35.334 -10 -74.001zM220.003 36
c0 -10.667 -3.66699 -19.667 -11 -27s-16.333 -11 -27 -11s-19.667 3.66699 -27 11s-11 16.333 -11 27s3.66699 19.667 11 27s16.333 11 27 11s19.667 -3.66699 27 -11s11 -16.333 11 -27z" />
    <glyph glyph-name="at" unicode="@" horiz-adv-x="530" 
d="M225 59c28.667 0 54.667 18.667 78 56c21.333 34 32 67 32 99c0 16 -5.5 30.333 -16.5 43s-23.167 19 -36.5 19c-31.333 0 -58.333 -17.667 -81 -53c-20.667 -32 -31 -65.333 -31 -100c0 -42.667 18.333 -64 55 -64zM482 46c-20 -36 -48.668 -64.666 -86.001 -85.999
s-77 -32 -119 -32c-70.667 0 -129.334 23.833 -176.001 71.5s-70 106.834 -70 177.501c0 68.667 23.5 126.5 70.5 173.5s104.5 70.5 172.5 70.5c64.667 0 118.334 -19.167 161.001 -57.5s64 -87.833 64 -148.5c0 -52 -16 -97 -48 -135s-67.333 -57 -106 -57
c-26 0 -40.667 14.667 -44 44h-1c-27.333 -28.667 -55.666 -43 -84.999 -43c-26 0 -47 9.16699 -63 27.5s-24 41.166 -24 68.499c0 48 14.333 91.333 43 130c31.333 40.667 69.333 61 114 61c33.333 0 56.666 -18.333 69.999 -55l17 43h35l-64 -191
c-4.66699 -14.667 -7 -26.334 -7 -35.001c0 -13.333 5.33301 -20 16 -20c28.667 0 54.5 17.667 77.5 53s34.5 72.333 34.5 111c0 53.333 -18.667 96 -56 128c-34.667 30.667 -78.667 46 -132 46c-61.333 0 -111.666 -21 -150.999 -63s-59 -94 -59 -156
c0 -60.667 20.167 -111.5 60.5 -152.5s90.5 -61.5 150.5 -61.5c32.667 0 64.667 7.83301 96 23.5s56.333 37.167 75 64.5h34z" />
    <glyph glyph-name="A" unicode="A" horiz-adv-x="418" 
d="M422 0h-48l-58 147h-215l-57 -147h-49l191 473h51zM301 186l-91 242l-95 -242h186z" />
    <glyph glyph-name="B" unicode="B" horiz-adv-x="442" 
d="M373 136c0 60.667 -41.667 91 -125 91h-155v-189h155c83.333 0 125 32.667 125 98zM318 250c30.667 -4 55 -16.501 73 -37.501s27 -46.833 27 -77.5c0 -90 -56.667 -135 -170 -135h-200v473h200c101.333 0 152 -38.667 152 -116c0 -24.667 -7.66699 -47.167 -23 -67.5
s-35 -33.166 -59 -38.499v-1zM355 345.999c0 59.333 -35.667 89 -107 89h-155v-169h155c34.667 0 61.667 8 81 24c17.333 14 26 32.667 26 56z" />
    <glyph glyph-name="C" unicode="C" horiz-adv-x="467" 
d="M446 180c-6.66699 -58.667 -27.499 -104.999 -62.499 -138.999s-79.833 -51 -134.5 -51c-71.333 0 -127.333 25 -168 75c-37.333 45.333 -56 102.666 -56 171.999c0 68.667 18.667 125.667 56 171c40.667 50 96.667 75 168 75c47.333 0 88.666 -13 123.999 -39
c38 -28 60 -66 66 -114h-45c-8 36 -25.333 64.167 -52 84.5s-57.667 30.5 -93 30.5c-58.667 0 -104.334 -21.667 -137.001 -65c-28 -38 -42 -85.667 -42 -143s14 -105 42 -143c32.667 -43.333 78.334 -65 137.001 -65c42 0 76.667 14.333 104 43s43 64.667 47 108h46z" />
    <glyph glyph-name="D" unicode="D" horiz-adv-x="454" 
d="M429 237c0 -158 -72.667 -237 -218 -237h-163v473h163c145.333 0 218 -78.667 218 -236zM384 237c0 70 -15.333 120.5 -46 151.5s-80.334 46.5 -149.001 46.5h-96v-397h96c68.667 0 118.334 15.5 149.001 46.5s46 81.833 46 152.5z" />
    <glyph glyph-name="E" unicode="E" horiz-adv-x="393" 
d="M378 0h-330v473h327v-38h-282v-171h264v-39h-264v-187h285v-38z" />
    <glyph glyph-name="F" unicode="F" horiz-adv-x="356" 
d="M320 225h-227v-225h-45v473h300v-38h-255v-171h227v-39z" />
    <glyph glyph-name="G" unicode="G" horiz-adv-x="491" 
d="M452 0l-32 0.000976562l-6 86h-2c-29.333 -64 -83.666 -96 -162.999 -96c-71.333 0 -127.333 25 -168 75c-37.333 45.333 -56 102.666 -56 171.999c0 68.667 18.667 125.667 56 171c40.667 50 96.667 75 168 75c51.333 0 94.333 -13 129 -39
c37.333 -28 60 -67.333 68 -118h-45c-3.33301 30 -18 56.667 -44 80c-30 26 -66 39 -108 39c-58.667 0 -104.334 -21.667 -137.001 -65c-28 -38 -42 -85.667 -42 -143s14 -105 42 -143c32.667 -43.333 78.334 -65 137.001 -65c51.333 0 91.666 16.167 120.999 48.5
s43.333 73.833 42 124.5h-161v39h201v-241z" />
    <glyph glyph-name="H" unicode="H" horiz-adv-x="467" 
d="M419 0h-45v229h-281v-229h-45v473h45v-205h281v205h45v-473z" />
    <glyph glyph-name="I" unicode="I" horiz-adv-x="147" 
d="M96 0h-45v473h45v-473z" />
    <glyph glyph-name="J" unicode="J" horiz-adv-x="331" 
d="M284 132c0 -49.333 -10.502 -85.332 -31.502 -107.999s-56.5 -34 -106.5 -34c-89.333 0 -133.333 54 -132 162h45c0.666992 -36.667 4.33398 -62.334 11.001 -77.001c12.667 -30.667 39.334 -46 80.001 -46c34 0 57.333 9.16699 70 27.5s19 49.833 19 94.5v322h45v-341z
" />
    <glyph glyph-name="K" unicode="K" horiz-adv-x="430" 
d="M439 0h-58l-197 247l-91 -85v-162h-45v473h45v-254l275 254h61l-212 -195z" />
    <glyph glyph-name="L" unicode="L" horiz-adv-x="356" 
d="M358 0h-310v473h45v-435h265v-38z" />
    <glyph glyph-name="M" unicode="M" horiz-adv-x="552" 
d="M506 0h-45v409h-2l-161 -409h-43l-162 409h-2v-409h-45v473h67l163 -415l164 415h66v-473z" />
    <glyph glyph-name="N" unicode="N" horiz-adv-x="467" 
d="M420 0h-51l-276 400h-1v-400h-45v473h50l276 -400h2v400h45v-473z" />
    <glyph glyph-name="O" unicode="O" horiz-adv-x="491" 
d="M469 237c0 -69.333 -18.667 -126.666 -56 -171.999c-40.667 -50 -96.334 -75 -167.001 -75s-126.334 25 -167.001 75c-37.333 45.333 -56 102.666 -56 171.999c0 68.667 18.667 125.667 56 171c40.667 50 96.334 75 167.001 75s126.334 -25 167.001 -75
c37.333 -45.333 56 -102.333 56 -171zM424 237c0 57.333 -14 105 -42 143c-32 43.333 -77.333 65 -136 65s-104 -21.667 -136 -65c-28 -38 -42 -85.667 -42 -143s14 -105 42 -143c32 -43.333 77.333 -65 136 -65s104 21.667 136 65c28 38 42 85.667 42 143z" />
    <glyph glyph-name="P" unicode="P" horiz-adv-x="418" 
d="M398 338c0 -42 -12.667 -74.999 -38 -98.999s-59.333 -36 -102 -36h-165v-203h-45v473h210c43.333 0 77.5 -11.833 102.5 -35.5s37.5 -56.834 37.5 -99.501zM353 338.001c0 64.667 -35 97 -105 97h-155v-194h155c70 0 105 32.333 105 97z" />
    <glyph glyph-name="Q" unicode="Q" horiz-adv-x="491" 
d="M424 237c0 57.333 -14 105 -42 143c-32 43.333 -77.333 65 -136 65s-104 -21.667 -136 -65c-28 -38 -42 -85.667 -42 -143s14 -105 42 -143c32 -43.333 77.333 -65 136 -65c36 0 65 7.66699 87 23l-62 47l23 28l69 -52c40.667 38.667 61 92.667 61 162zM469 237
c0 -79.333 -24.001 -141.999 -72.001 -187.999l68 -52l-23 -27l-73 55c-34.667 -23.333 -75.667 -35 -123 -35c-70.667 0 -126.334 25 -167.001 75c-37.333 45.333 -56 102.666 -56 171.999c0 68.667 18.667 125.667 56 171c40.667 50 96.334 75 167.001 75
s126.334 -25 167.001 -75c37.333 -45.333 56 -102.333 56 -171z" />
    <glyph glyph-name="R" unicode="R" horiz-adv-x="442" 
d="M421 0l-49.999 0.000976562c-6 10 -10 34.667 -12 74c-2.66699 44 -8.33398 75 -17.001 93c-14 28.667 -40 43 -78 43h-171v-210h-45v473h217c42 0 75.667 -9.66699 101 -29c28 -22 42 -53.333 42 -94c0 -31.333 -7.66699 -57.333 -23 -78
c-16.667 -22.667 -39.667 -37 -69 -43v-1c52 -6.66699 79.667 -42.334 83 -107.001c2 -36 3.33301 -57.333 4 -64c3.33301 -28 9.33301 -47 18 -57zM363.001 341.001c0 62.667 -34.001 94 -102.001 94h-168v-186h168c28.667 0 52.834 8.33301 72.501 25s29.5 39 29.5 67z
" />
    <glyph glyph-name="S" unicode="S" horiz-adv-x="418" 
d="M394 125c0 -30.667 -9 -56.999 -27 -78.999c-30.667 -37.333 -82 -56 -154 -56c-59.333 0 -105.333 13.333 -138 40c-36.667 28.667 -53.667 70.667 -51 126h45c-2 -84.667 49.333 -127 154 -127c30 0 57.333 7.33301 82 22c29.333 18 44 42.667 44 74
c0 40.667 -32.667 69 -98 85l-105 26c-71.333 17.333 -107 55.333 -107 114c0 32 10.667 60 32 84c28.667 32.667 72.334 49 131.001 49c50 0 91 -12.333 123 -37c35.333 -26.667 52.666 -63.334 51.999 -110.001h-45c-0.666992 34.667 -14 62 -40 82
c-24 18 -53.667 27 -89 27c-79.333 0 -119 -31.333 -119 -94c0 -36.667 24 -61 72 -73l115 -28c82 -20 123 -61.667 123 -125z" />
    <glyph glyph-name="T" unicode="T" horiz-adv-x="369" 
d="M207 0h-45v435h-165v38h375v-38h-165v-435z" />
    <glyph glyph-name="U" unicode="U" horiz-adv-x="454" 
d="M411 170c0 -52.667 -14 -94.667 -42 -126c-32.667 -36 -80 -54 -142 -54s-109 18 -141 54c-28.667 31.333 -43 73.333 -43 126v303h45v-293c0 -100.667 46.333 -151 139 -151s139 50.333 139 151v293h45v-303z" />
    <glyph glyph-name="V" unicode="V" horiz-adv-x="393" 
d="M223 0h-52l-176 473h49l154 -423h1l152 423h48z" />
    <glyph glyph-name="W" unicode="W" horiz-adv-x="601" 
d="M469 0h-48l-120 424h-1l-120 -424h-49l-131 473h48l108 -414h1l115 414h57l116 -414h1l108 414h45z" />
    <glyph glyph-name="X" unicode="X" horiz-adv-x="381" 
d="M387 0h-54l-144 209l-146 -209h-51l170 244l-160 229h53l134 -198l139 198h50l-162 -230z" />
    <glyph glyph-name="Y" unicode="Y" horiz-adv-x="405" 
d="M225 0h-45v195l-187 278h54l156 -240l155 240h54l-187 -278v-195z" />
    <glyph glyph-name="Z" unicode="Z" horiz-adv-x="381" 
d="M372 0h-369v40l312 395h-290v38h340v-39l-311 -396h318v-38z" />
    <glyph glyph-name="bracketleft" unicode="[" horiz-adv-x="185" 
d="M157 -127h-107v610h107v-35h-65v-539h65v-36z" />
    <glyph glyph-name="backslash" unicode="\" horiz-adv-x="221" 
d="M229 -10h-35l-203 493h34z" />
    <glyph glyph-name="bracketright" unicode="]" horiz-adv-x="185" 
d="M134 -127h-106v36h65v539h-65v35h106v-610z" />
    <glyph glyph-name="asciicircum" unicode="^" horiz-adv-x="398" 
d="M369 158h-38l-133 258l-130 -258h-39l153 300h34z" />
    <glyph glyph-name="underscore" unicode="_" horiz-adv-x="331" 
d="M331 -83h-331v33h331v-33z" />
    <glyph glyph-name="grave" unicode="`" horiz-adv-x="123" 
d="M101 506h-34l-88 93h52z" />
    <glyph glyph-name="a" unicode="a" horiz-adv-x="344" 
d="M259 187l-2 -0.000976562c-3.33301 -6 -15 -11 -35 -15c-35.333 -6.66699 -70.666 -13 -105.999 -19c-35.333 -11.333 -53 -31.333 -53 -60c0 -20 7.5 -36.333 22.5 -49s32.833 -19 53.5 -19c33.333 0 61.666 9.83301 84.999 29.5s35 45.834 35 78.501v54zM338 2.99902
c-8.66699 -2 -17.667 -3 -27 -3c-32.667 0 -49 20 -49 60h-1c-16.667 -24.667 -33 -42 -49 -52c-19.333 -12 -44.666 -18 -75.999 -18c-33.333 0 -60.333 8 -81 24c-22.667 18 -34 43.333 -34 76c0 42 19.333 71 58 87c19.333 8 61.333 15.667 126 23
c19.333 2 33.166 6 41.499 12s12.5 17.667 12.5 35c0 46.667 -30 70 -90 70s-90.333 -26.667 -91 -80h-42c4 76.667 50 115 138 115c84 0 126 -36.667 126 -110v-182c0 -16.667 8.33301 -25 25 -25c6 0 10.333 1 13 3v-35z" />
    <glyph glyph-name="b" unicode="b" horiz-adv-x="381" 
d="M314 171c0 39.333 -8.66699 72.668 -26 100.001c-20.667 30.667 -49.334 46 -86.001 46c-41.333 0 -72.333 -15.333 -93 -46c-18 -26 -27 -59.333 -27 -100s9 -74 27 -100c20.667 -30.667 51.667 -46 93 -46c36.667 0 65.334 15.333 86.001 46
c17.333 27.333 26 60.666 26 99.999zM355 171.002c0 -52 -12.335 -94.334 -37.002 -127.001c-28 -36 -66.667 -54 -116 -54c-27.333 0 -52.166 6.83301 -74.499 20.5s-38.166 31.834 -47.499 54.501h-2v-65h-38v473h42v-196h1c8.66699 24 24 42.5 46 55.5
s46.333 19.5 73 19.5c49.333 0 88 -18 116 -54c24.667 -32.667 37 -75 37 -127z" />
    <glyph glyph-name="c" unicode="c" horiz-adv-x="344" 
d="M326 123c-6 -41.333 -21.5 -73.833 -46.5 -97.5s-56.833 -35.5 -95.5 -35.5c-50 0 -89.667 18 -119 54c-28 33.333 -42 75.666 -42 126.999s14 93.666 42 126.999c29.333 36 69 54 119 54c38 0 69.5 -10 94.5 -30s39.833 -49 44.5 -87h-42c-12 54.667 -44.333 82 -97 82
c-38 0 -68 -15.333 -90 -46c-20 -27.333 -30 -60.666 -30 -99.999s10 -72.666 30 -99.999c22 -30.667 52 -46 90 -46c26 0 48.5 9.16699 67.5 27.5s29.833 41.833 32.5 70.5h42z" />
    <glyph glyph-name="d" unicode="d" horiz-adv-x="381" 
d="M299 171c0 40.667 -9 74 -27 100c-20.667 30.667 -51.667 46 -93 46c-37.333 0 -66 -15.333 -86 -46c-17.333 -26.667 -26 -60 -26 -100s8.66699 -73.333 26 -100c20 -30.667 48.667 -46 86 -46c41.333 0 72.333 15.333 93 46c18 26 27 59.333 27 100zM341 0
l-38.999 -0.000976562v65h-1c-8.66699 -21.333 -24.834 -39.166 -48.501 -53.499s-48.167 -21.5 -73.5 -21.5c-49.333 0 -88 18 -116 54c-25.333 32.667 -38 75 -38 127s12.667 94.333 38 127c28 36 66.667 54 116 54c26.667 0 51 -6.5 73 -19.5s37.333 -31.5 46 -55.5h1
v196h42v-473z" />
    <glyph glyph-name="e" unicode="e" horiz-adv-x="344" 
d="M326 113c-18.667 -82 -68.335 -123 -149.002 -123c-51.333 0 -90.666 18 -117.999 54c-24 32 -36 74.333 -36 127c0 50 12 91.333 36 124c28 38 67.333 57 118 57c51.333 0 90.666 -20 117.999 -60c23.333 -35.333 34.333 -79.333 33 -132h-264
c0.666992 -35.333 9.66699 -65.333 27 -90c20.667 -30 49.334 -45 86.001 -45c56.667 0 92.334 29.333 107.001 88h42zM285.999 195c-1.33301 33.333 -11.667 62 -31 86s-45.333 36 -78 36c-32 0 -58.333 -12.667 -79 -38c-18.667 -22 -30 -50 -34 -84h222z" />
    <glyph glyph-name="f" unicode="f" horiz-adv-x="172" 
d="M104 0h-42.001v307h-58v35h58v31c0 66.667 27.667 100 83 100c14.667 0 26.334 -0.666992 35.001 -2v-36c-10.667 2 -20.667 3 -30 3c-21.333 0 -35 -6.33301 -41 -19c-3.33301 -7.33301 -5 -23 -5 -47v-30h68v-35h-68v-307z" />
    <glyph glyph-name="g" unicode="g" horiz-adv-x="369" 
d="M287 175c0 38 -8.33301 70 -25 96c-20 30.667 -48.333 46 -85 46c-37.333 0 -66 -14.667 -86 -44c-18 -26 -27 -58.667 -27 -98c0 -37.333 9.33301 -68.666 28 -93.999c20.667 -28 49 -42 85 -42c34 0 61.333 14 82 42c18.667 25.333 28 56.666 28 93.999zM329 28
c0 -110 -50.6689 -165 -152.002 -165c-37.333 0 -68.666 8.33301 -93.999 25c-29.333 18.667 -45.333 45 -48 79h42c8 -45.333 41.333 -68 100 -68c73.333 0 110 43 110 129v46h-1c-21.333 -46.667 -57.666 -70 -108.999 -70c-52 0 -91.333 17 -118 51
c-24 30.667 -36 72.334 -36 125.001c0 49.333 13.333 89.666 40 120.999c28 34 66 51 114 51c24 0 46 -6.5 66 -19.5s34.333 -29.5 43 -49.5h1v59h42v-314z" />
    <glyph glyph-name="h" unicode="h" horiz-adv-x="356" 
d="M317 0l-42.001 -0.00195312v213c0 69.333 -29 104 -87 104c-32.667 0 -58.667 -11 -78 -33s-29 -50 -29 -84v-200h-42v473h42v-190h1c7.33301 20.667 21.333 37.334 42 50.001s43.334 19 68.001 19c46 0 79 -11.667 99 -35c17.333 -21.333 26 -53.666 26 -96.999v-220z
" />
    <glyph glyph-name="i" unicode="i" horiz-adv-x="123" 
d="M82 0h-42v342h42v-342zM95 440c0 -9.33301 -3.33301 -17.333 -10 -24s-14.667 -10 -24 -10s-17.333 3.33301 -24 10s-10 14.667 -10 24s3.33301 17.333 10 24s14.667 10 24 10s17.333 -3.33301 24 -10s10 -14.667 10 -24z" />
    <glyph glyph-name="j" unicode="j" horiz-adv-x="123" 
d="M82 -32c0 -63.333 -24.335 -95 -73.002 -95c-3.33301 0 -8.16602 0.333008 -14.499 1s-11.166 1 -14.499 1v34h23c24.667 0 37 16.333 37 49v384h42v-374zM94.998 440c0 -9.33301 -3.33301 -17.333 -10 -24s-14.667 -10 -24 -10s-17.333 3.33301 -24 10
s-10 14.667 -10 24s3.33301 17.333 10 24s14.667 10 24 10s17.333 -3.33301 24 -10s10 -14.667 10 -24z" />
    <glyph glyph-name="k" unicode="k" horiz-adv-x="331" 
d="M337 0h-53l-135 186l-67 -56v-130h-42v473h42v-297l189 166h56l-146 -127z" />
    <glyph glyph-name="l" unicode="l" horiz-adv-x="123" 
d="M82 0h-42v473h42v-473z" />
    <glyph glyph-name="m" unicode="m" horiz-adv-x="552" 
d="M512 0h-41v230c0 58 -27 87 -81 87c-62 0 -93 -41 -93 -123v-194h-42v232c0 56.667 -23.667 85 -71 85c-68 0 -102 -42 -102 -126v-191h-42v342h38v-58h2c24 45.333 61.333 68 112 68c53.333 0 86 -22.333 98 -67c20.667 44.667 57 67 109 67c75.333 0 113 -40 113 -120
v-232z" />
    <glyph glyph-name="n" unicode="n" horiz-adv-x="356" 
d="M317 0l-42.001 -0.00195312v213c0 69.333 -29 104 -87 104c-32.667 0 -58.667 -11 -78 -33s-29 -50 -29 -84v-200h-42v342h42v-59h1c7.33301 20.667 21.333 37.334 42 50.001s43.334 19 68.001 19c46 0 79 -11.667 99 -35c17.333 -21.333 26 -53.666 26 -96.999v-220z
" />
    <glyph glyph-name="o" unicode="o" horiz-adv-x="369" 
d="M346 171c0 -51.333 -14 -93.666 -42 -126.999c-29.333 -36 -69.333 -54 -120 -54c-50 0 -89.667 18 -119 54c-28 33.333 -42 75.666 -42 126.999s14 93.666 42 126.999c29.333 36 69 54 119 54c50.667 0 90.667 -18 120 -54c28 -33.333 42 -75.666 42 -126.999zM304 171
c0 40 -10 73.3311 -30 99.998c-22 30.667 -52 46 -90 46s-68 -15.333 -90 -46c-20 -27.333 -30 -60.666 -30 -99.999s10 -72.666 30 -99.999c22 -30.667 52 -46 90 -46s68 15.333 90 46c20 26.667 30 60 30 100z" />
    <glyph glyph-name="p" unicode="p" horiz-adv-x="381" 
d="M314 171c0 39.333 -8.66699 72.668 -26 100.001c-20.667 30.667 -49.334 46 -86.001 46c-80 0 -120 -48.667 -120 -146c0 -40.667 9 -74 27 -100c20.667 -30.667 51.667 -46 93 -46c36.667 0 65.334 15.333 86.001 46c17.333 27.333 26 60.666 26 99.999zM355 171.002
c0 -52 -12.333 -94.333 -37 -127c-28 -36 -66.667 -54 -116 -54c-26.667 0 -51 6.5 -73 19.5s-37.333 31.5 -46 55.5h-1v-192h-42v469h38v-65h2c20 50 60.667 75 122 75c49.333 0 88 -18 116 -54c24.667 -32.667 37 -75 37 -127z" />
    <glyph glyph-name="q" unicode="q" horiz-adv-x="381" 
d="M299 171c0 40.667 -9 74 -27 100c-20.667 30.667 -51.667 46 -93 46c-37.333 0 -66 -15.333 -86 -46c-17.333 -26.667 -26 -60 -26 -100s8.66699 -73.333 26 -100c20 -30.667 48.667 -46 86 -46c41.333 0 72.333 15.333 93 46c18 26 27 59.333 27 100zM341 -127h-42.001
v192h-1c-8.66699 -24 -24 -42.5 -46 -55.5s-46.333 -19.5 -73 -19.5c-49.333 0 -88 18 -116 54c-25.333 32.667 -38 75 -38 127s12.667 94.333 38 127c28 36 66.667 54 116 54c25.333 0 49.833 -7 73.5 -21s39.834 -32 48.501 -54h1v65h39v-469z" />
    <glyph glyph-name="r" unicode="r" horiz-adv-x="209" 
d="M82 0h-42v342h38v-80h2c22.667 58.667 65.667 87 129 85v-42c-37.333 2 -67.833 -9 -91.5 -33s-35.5 -54 -35.5 -90v-182z" />
    <glyph glyph-name="s" unicode="s" horiz-adv-x="319" 
d="M298 93c0 -34 -14.668 -60.333 -44.001 -79c-25.333 -16 -56.333 -24 -93 -24c-87.333 0 -134 40.333 -140 121h41c4 -57.333 37.667 -86 101 -86c23.333 0 44 5 62 15c21.333 11.333 32 28 32 50c0 30 -25 50.667 -75 62l-54 12c-64 14 -96 44.667 -96 92
c0 32 14 56.667 42 74c23.333 14.667 52.333 22 87 22c36 0 65 -9 87 -27c24.667 -20 37.334 -47.667 38.001 -83h-41c-2 50 -32 75 -90 75c-21.333 0 -39.333 -4.33301 -54 -13c-18 -10.667 -27 -26 -27 -46c0 -28.667 23.667 -48 71 -58l56 -12
c64.667 -14 97 -45.667 97 -95z" />
    <glyph glyph-name="t" unicode="t" horiz-adv-x="196" 
d="M176 -3c-4.66699 0 -11 -0.333008 -19 -1h-18c-28 0 -47.5 5.66699 -58.5 17s-16.5 31.333 -16.5 60v234h-59v35h59v103h42v-103h70v-35h-70v-231c0 -28.667 11.333 -43.667 34 -45c5.33301 0 17.333 0.666992 36 2v-36z" />
    <glyph glyph-name="u" unicode="u" horiz-adv-x="356" 
d="M317 0h-39v62h-1c-22.667 -48 -62 -72 -118 -72c-80 0 -120 43.333 -120 130v222h42v-223c0 -62.667 30.333 -94 91 -94c34 0 60.333 14.333 79 43c16 24.667 24 56 24 94v180h42v-342z" />
    <glyph glyph-name="v" unicode="v" horiz-adv-x="307" 
d="M178 0h-45l-132 342h47l107 -300h1l107 300h43z" />
    <glyph glyph-name="w" unicode="w" horiz-adv-x="491" 
d="M376 0h-46l-84 288h-1l-84 -288h-46l-110 342h45l87 -293h2l83 293h47l84 -293h1l88 293h44z" />
    <glyph glyph-name="x" unicode="x" horiz-adv-x="319" 
d="M318 0h-53l-107 144l-106 -144h-51l132 178l-122 164h52l97 -130l96 130h52l-123 -164z" />
    <glyph glyph-name="y" unicode="y" horiz-adv-x="307" 
d="M157 -52c-11.333 -30 -22.833 -50.168 -34.5 -60.501s-30.167 -15.166 -55.5 -14.499c-15.333 0 -26 1.33301 -32 4v35c10 -2 19.667 -3 29 -3c16.667 0 29.667 4.66699 39 14c6 6.66699 12.667 19.667 20 39l15 39l-137 341h45l112 -292l106 292h42z" />
    <glyph glyph-name="z" unicode="z" horiz-adv-x="307" 
d="M296 0h-286v34l223 273h-208v35h261v-30l-226 -277h236v-35z" />
    <glyph glyph-name="braceleft" unicode="{" horiz-adv-x="221" 
d="M194 -127l-33 -0.00195312c-38.667 0 -58 27.667 -58 83v98c0 70.667 -16 106 -48 106v36c32 0 48 35.333 48 106v98c0 55.333 19.333 83 58 83h33v-35h-13c-24 0 -36 -22.667 -36 -68v-94c0 -30.667 -6.66699 -57 -20 -79c-8.66699 -13.333 -17.667 -22.666 -27 -27.999
v-1c9.33301 -5.33301 18.333 -14.666 27 -27.999c13.333 -22 20 -48.667 20 -80v-93c0 -45.333 12 -68 36 -68h13v-36z" />
    <glyph glyph-name="bar" unicode="|" horiz-adv-x="147" 
d="M91 -142h-35v663h35v-663z" />
    <glyph glyph-name="braceright" unicode="}" horiz-adv-x="221" 
d="M118 -44c0 -55.333 -19.333 -82.998 -58 -82.998h-33v36h13c24 0 36 22.667 36 68v93c0 31.333 6.66699 58 20 80c8.66699 13.333 17.667 22.666 27 27.999v1c-9.33301 5.33301 -18.333 14.666 -27 27.999c-13.333 22 -20 48.333 -20 79v94c0 45.333 -12 68 -36 68h-13
v35h33c38.667 0 58 -27.667 58 -83v-98c0 -70.667 16 -106 48 -106v-35c-32 0 -48 -35.333 -48 -106v-99z" />
    <glyph glyph-name="asciitilde" unicode="~" horiz-adv-x="398" 
d="M352 185c-27.333 -38 -55 -57 -83 -57c-17.333 0 -41.333 7.16699 -72 21.5s-54.667 21.5 -72 21.5c-24 0 -42.333 -15.333 -55 -46l-24 24c19.333 38 47 57 83 57c18.667 0 44.167 -7.16699 76.5 -21.5s53.833 -21.5 64.5 -21.5c18.667 0 38 15.333 58 46z" />
    <glyph glyph-name="nonbreakingspace" unicode="&#xa0;" horiz-adv-x="240" 
 />
    <glyph glyph-name="exclamdown" unicode="&#xa1;" horiz-adv-x="160" 
d="M103 10v-137h-45v137l10 214h25zM118 307c0 -10.667 -3.66699 -19.667 -11 -27s-16.333 -11 -27 -11s-19.667 3.66699 -27 11s-11 16.333 -11 27s3.66699 19.667 11 27s16.333 11 27 11s19.667 -3.66699 27 -11s11 -16.333 11 -27z" />
    <glyph glyph-name="cent" unicode="&#xa2;" horiz-adv-x="369" 
d="M179 26v289.998c-17.333 -2.66699 -32.166 -8.5 -44.499 -17.5s-22.833 -20.167 -31.5 -33.5s-15 -28.166 -19 -44.499s-6 -32.833 -6 -49.5s2 -33.167 6 -49.5s10.333 -31.166 19 -44.499s19.167 -24.5 31.5 -33.5s27.166 -14.833 44.499 -17.5zM339 122.998
c-5.33301 -40 -20.002 -71.833 -44.002 -95.5s-54 -36.167 -90 -37.5v-67h-26v68c-23.333 2 -43.833 8.33301 -61.5 19s-32.5 24 -44.5 40s-21.167 34.333 -27.5 55s-9.5 42.667 -9.5 66c0 22.667 3.16699 44.5 9.5 65.5s15.5 39.5 27.5 55.5s26.833 29.333 44.5 40
s38.167 17 61.5 19v59h26v-58c34.667 -1.33301 64 -11.666 88 -30.999s38.333 -48 43 -86h-42c-5.33301 24.667 -15.166 44.167 -29.499 58.5s-34.166 22.166 -59.499 23.499v-292c24 1.33301 44.667 11 62 29s27.333 41 30 69h42z" />
    <glyph glyph-name="sterling" unicode="&#xa3;" horiz-adv-x="369" 
d="M359 30c-14.667 -12.667 -29.5029 -22.499 -44.5029 -29.499s-32.167 -10.5 -51.5 -10.5c-14.667 0 -27.5 1.33301 -38.5 4s-21.833 5.66699 -32.5 9c-10 3.33301 -20.333 6.5 -31 9.5s-22.667 4.5 -36 4.5c-16.667 0 -29.667 -2.66699 -39 -8l-34 -19l-23 36
c19.333 15.333 36.5 33 51.5 53s22.5 43.333 22.5 70c0 10.667 -1.83301 22.667 -5.5 36s-8.16699 24.666 -13.5 33.999h-54v21h42c-10 16 -18.5 33 -25.5 51s-10.5 36.667 -10.5 56c0 24 4.33301 44.5 13 61.5s20 31 34 42s30 19.167 48 24.5s36.667 8 56 8
c48.667 0 86.834 -13.833 114.501 -41.5s40.834 -66.167 39.501 -115.5h-42c0 36 -9.33301 65.333 -28 88s-46.667 34 -84 34c-14 0 -27.5 -2.16699 -40.5 -6.5s-24.667 -10.666 -35 -18.999s-18.5 -19 -24.5 -32s-9 -28.5 -9 -46.5c0 -11.333 1.16699 -21.333 3.5 -30
s5.5 -16.834 9.5 -24.501s8.33301 -15.5 13 -23.5s9 -16.667 13 -26h106v-21h-94c5.33301 -8 9.33301 -18.5 12 -31.5s4 -24.167 4 -33.5c0 -24.667 -7.66699 -47.167 -23 -67.5s-32 -37.833 -50 -52.5l1 -2c9.33301 5.33301 19.5 10 30.5 14s22.167 6 33.5 6
c14.667 0 27.334 -1.33301 38.001 -4s20.667 -5.66699 30 -9l27 -9.5c8.66699 -3 18.667 -4.5 30 -4.5c14 0 27.833 3.66699 41.5 11s25.167 16 34.5 26z" />
    <glyph glyph-name="currency" unicode="&#xa4;" horiz-adv-x="369" 
d="M349 229c0 -19.333 -3.33301 -37.832 -10 -55.499s-15.667 -33.5 -27 -47.5l36 -36l-25 -25l-37 36c-28 -24 -61.667 -36 -101 -36c-19.333 0 -38 3.33301 -56 10s-33.667 15.667 -47 27l-38 -37l-25 25l38 38c-24 29.333 -36 63 -36 101c0 19.333 3 37.666 9 54.999
s14.667 33 26 47l-37 38l25 25l38 -37c13.333 11.333 28.833 20.333 46.5 27s36.5 10 56.5 10c39.333 0 73 -12.333 101 -37l37 37l25 -25l-36 -36c11.333 -14 20.333 -29.833 27 -47.5s10 -36.5 10 -56.5zM308 229.001c0 18 -3.16699 34.667 -9.5 50
s-15.166 28.666 -26.499 39.999s-24.5 20.166 -39.5 26.499s-30.833 9.5 -47.5 9.5c-17.333 0 -33.333 -3.16699 -48 -9.5s-27.667 -15.166 -39 -26.499s-20.166 -24.666 -26.499 -39.999s-9.5 -32 -9.5 -50s3.16699 -34.667 9.5 -50s15.166 -28.666 26.499 -39.999
s24.333 -20.166 39 -26.499s30.667 -9.5 48 -9.5c16.667 0 32.5 3.16699 47.5 9.5s28.167 15.166 39.5 26.499s20.166 24.666 26.499 39.999s9.5 32 9.5 50z" />
    <glyph glyph-name="yen" unicode="&#xa5;" horiz-adv-x="369" 
d="M295 117h-91v-117h-42v117h-89v30h89v48l-4 7h-85v29h70l-139 242h48l132 -242l133 242h46l-140 -242h72v-29h-87l-4 -7v-48h91v-30z" />
    <glyph glyph-name="brokenbar" unicode="&#xa6;" horiz-adv-x="147" 
d="M91 -59h-35v166h35v-166zM91 272h-35v166h35v-166z" />
    <glyph glyph-name="section" unicode="&#xa7;" horiz-adv-x="369" 
d="M297 152c0 18 -6.33105 33.6699 -18.998 47.0029s-27.834 25.666 -45.501 36.999s-36.334 21.666 -56.001 30.999s-36.5 19 -50.5 29c-16 -6.66699 -29 -15.667 -39 -27s-15 -26 -15 -44c0 -16.667 6.16699 -31.667 18.5 -45s27.333 -25.833 45 -37.5
s36.167 -22.334 55.5 -32.001s36 -19.5 50 -29.5c16 6.66699 29.333 15.667 40 27s16 26 16 44zM339.002 153.003c0 -22 -7.16602 -40.999 -21.499 -56.999s-31.166 -28 -50.499 -36c22 -20 33 -44 33 -72c0 -15.333 -3.33301 -28.833 -10 -40.5s-15.167 -21.5 -25.5 -29.5
s-22.166 -14.167 -35.499 -18.5s-27 -6.5 -41 -6.5c-38 0 -68 10.167 -90 30.5s-33 49.5 -33 87.5h42c-1.33301 -22.667 5.33398 -42.167 20.001 -58.5s33.667 -24.5 57 -24.5c18.667 0 35.667 4.66699 51 14s23 24.333 23 45c0 16.667 -5.66699 31.167 -17 43.5
s-25.333 23.666 -42 33.999s-35 20.333 -55 30s-38.333 20.334 -55 32.001s-30.667 25.167 -42 40.5s-17 34 -17 56s7.16699 41.167 21.5 57.5s31.166 28.166 50.499 35.499c-22 18.667 -33 43 -33 73c0 15.333 3.33301 28.833 10 40.5s15.167 21.5 25.5 29.5
s22.166 14 35.499 18s27 6 41 6c37.333 0 67.166 -10 89.499 -30s33.5 -49 33.5 -87h-42c1.33301 22.667 -5.33398 42 -20.001 58s-33.667 24 -57 24c-18.667 0 -35.667 -4.5 -51 -13.5s-23 -24.167 -23 -45.5c0 -16.667 5.66699 -31 17 -43s25.333 -23.167 42 -33.5
s35 -20.333 55 -30s38.333 -20.5 55 -32.5s30.667 -25.667 42 -41s17 -34 17 -56z" />
    <glyph glyph-name="dieresis" unicode="&#xa8;" horiz-adv-x="123" 
d="M34 426c0 -8.66699 -3 -16 -9 -22s-13.333 -9 -22 -9s-16 3 -22 9s-9 13.333 -9 22s3 16 9 22s13.333 9 22 9s16 -3 22 -9s9 -13.333 9 -22zM152 426c0 -8.66699 -3 -16 -9 -22s-13.333 -9 -22 -9s-16 3 -22 9s-9 13.333 -9 22s3 16 9 22s13.333 9 22 9s16 -3 22 -9
s9 -13.333 9 -22z" />
    <glyph glyph-name="copyright" unicode="&#xa9;" horiz-adv-x="530" 
d="M488 237c0 -31.333 -5.66699 -60.5 -17 -87.5s-27.166 -50.667 -47.499 -71s-44 -36.166 -71 -47.499s-56.167 -17 -87.5 -17s-60.5 5.66699 -87.5 17s-50.5 27.166 -70.5 47.499s-35.667 44 -47 71s-17 56.167 -17 87.5s5.66699 60.5 17 87.5s27 50.5 47 70.5
s43.5 35.667 70.5 47s56.167 17 87.5 17s60.5 -5.66699 87.5 -17s50.667 -27 71 -47s36.166 -43.5 47.499 -70.5s17 -56.167 17 -87.5zM453 237c0 26.667 -4.66699 51.5 -14 74.5s-22.5 43.167 -39.5 60.5s-36.833 30.833 -59.5 40.5s-47.667 14.5 -75 14.5
s-52.333 -4.83301 -75 -14.5s-42.334 -23.167 -59.001 -40.5s-29.834 -37.5 -39.501 -60.5s-14.5 -47.833 -14.5 -74.5s4.83301 -51.667 14.5 -75s22.834 -43.666 39.501 -60.999s36.334 -30.833 59.001 -40.5s47.667 -14.5 75 -14.5s52.333 4.83301 75 14.5
s42.5 23.167 59.5 40.5s30.167 37.666 39.5 60.999s14 48.333 14 75zM382 190c-4.66699 -28.667 -17.334 -50.832 -38.001 -66.499s-45 -23.5 -73 -23.5c-21.333 0 -39.833 3.33301 -55.5 10s-29 16 -40 28s-19.5 26.667 -25.5 44s-9 35.666 -9 54.999s3 37.5 9 54.5
s14.5 31.667 25.5 44s24.333 21.833 40 28.5s34.167 10 55.5 10c28 0 52.333 -7.83301 73 -23.5s33.334 -38.167 38.001 -67.5h-31c-3.33301 18 -12 33 -26 45s-31.667 18.333 -53 19c-33.333 0 -58.333 -10.5 -75 -31.5s-25 -47.167 -25 -78.5s8.33301 -57.5 25 -78.5
s41.667 -31.5 75 -31.5c21.333 0 39 6 53 18s22.667 27 26 45h31z" />
    <glyph glyph-name="ordfeminine" unicode="&#xaa;" horiz-adv-x="206" 
d="M151 364l-1.00098 0.000976562c-1.33301 -3.33301 -4.5 -5.5 -9.5 -6.5s-9.5 -1.83301 -13.5 -2.5l-38 -5.5c-12 -1.66699 -22.5 -4 -31.5 -7s-16.167 -7 -21.5 -12s-8 -12.167 -8 -21.5c0 -12 5 -21.5 15 -28.5s20.333 -10.5 31 -10.5
c20.667 0 38.834 5.66699 54.501 17s23.167 26.666 22.5 45.999v31zM4.99902 396.001c1.33301 25.333 10.332 43.667 26.999 55s38.334 17 65.001 17c10.667 0 21.167 -0.833008 31.5 -2.5s19.5 -5 27.5 -10s14.333 -11.667 19 -20s7 -19.5 7 -33.5v-114
c1.33301 -10.667 7 -16 17 -16c2 0 5 0.666992 9 2v-22c-6.66699 -1.33301 -12.667 -2 -18 -2c-14 0 -22.833 3.16699 -26.5 9.5s-5.5 15.5 -5.5 27.5h-2c-17.333 -28.667 -44.333 -43 -81 -43c-22.667 0 -41.334 5 -56.001 15s-22 26.333 -22 49
c0 15.333 3.5 27.166 10.5 35.499s16.167 14.833 27.5 19.5s24 7.83398 38 9.50098s28.333 3.16699 43 4.5c11.333 1.33301 20 3.33301 26 6s9 7.66699 9 15c0 18 -5.66699 29.833 -17 35.5s-25 8.5 -41 8.5c-15.333 0 -28.666 -3.66699 -39.999 -11s-17 -19 -17 -35h-31z
" />
    <glyph glyph-name="guillemotleft" unicode="&#xab;" horiz-adv-x="282" 
d="M235 79l-88 83v41l88 83v-45l-63 -59l63 -59v-44zM128 79l-88 83v41l88 83v-45l-62 -59l62 -59v-44z" />
    <glyph glyph-name="logicalnot" unicode="&#xac;" horiz-adv-x="398" 
d="M366 74h-35v141h-299v36h334v-177z" />
    <glyph glyph-name="uni00AD" unicode="&#xad;" horiz-adv-x="398" 
d="M366 149h-334v35h334v-35z" />
    <glyph glyph-name="registered" unicode="&#xae;" horiz-adv-x="308" 
d="M273 371c0 -17.333 -2.83398 -33.167 -8.50098 -47.5s-14 -27 -25 -38s-23.833 -19.333 -38.5 -25s-30.667 -8.5 -48 -8.5c-34 0 -62.167 11.333 -84.5 34s-33.5 51 -33.5 85c0 34.667 11.167 63 33.5 85s50.5 33 84.5 33c34.667 0 63.334 -11 86.001 -33
s34 -50.333 34 -85zM245.999 370.999c0 25.333 -8.66699 47.166 -26 65.499s-39.666 27.5 -66.999 27.5c-26.667 0 -48.667 -9.16699 -66 -27.5s-26 -40.166 -26 -65.499c0 -26.667 8.83301 -49 26.5 -67s39.5 -27 65.5 -27c27.333 0 49.666 9 66.999 27s26 40.333 26 67z
M206.999 398.999c0 -20.667 -10 -33 -30 -37l34 -52h-24l-34 52h-22v-52h-19v127h49c30.667 0 46 -12.667 46 -38zM185.999 398.999c0 7.33301 -2.16699 12.668 -6.5 16.001s-11.833 5 -22.5 5h-26v-42h26c10.667 0 18.167 1.66699 22.5 5s6.5 8.66602 6.5 15.999z" />
    <glyph glyph-name="macron" unicode="&#xaf;" horiz-adv-x="123" 
d="M170 420h-218v30h218v-30z" />
    <glyph glyph-name="degree" unicode="&#xb0;" horiz-adv-x="265" 
d="M228 373c0 -26.667 -9.16699 -49.334 -27.5 -68.001s-40.833 -28 -67.5 -28s-49.334 9.33301 -68.001 28s-28 41.334 -28 68.001s9.33301 49.167 28 67.5s41.334 27.5 68.001 27.5s49.167 -9.16699 67.5 -27.5s27.5 -40.833 27.5 -67.5zM202 373
c0 19.333 -6.66699 35.666 -20 48.999s-29.666 20 -48.999 20s-35.833 -6.66699 -49.5 -20s-20.5 -29.666 -20.5 -48.999s6.83301 -35.833 20.5 -49.5s30.167 -20.5 49.5 -20.5s35.666 6.83301 48.999 20.5s20 30.167 20 49.5z" />
    <glyph glyph-name="plusminus" unicode="&#xb1;" horiz-adv-x="398" 
d="M366 179h-149v-119h-35v119h-149v35h149v119h35v-119h149v-35zM366 0h-334v35h334v-35z" />
    <glyph glyph-name="two.superior" unicode="&#xb2;" horiz-adv-x="239" 
d="M216 182l-202.998 0.000976562c1.33301 23.333 8.16602 43.166 20.499 59.499s34.166 34.166 65.499 53.499c16.667 10 30.5 18.833 41.5 26.5s19.5 15 25.5 22s10.167 13.833 12.5 20.5s3.5 14 3.5 22c0 16 -6.16699 28.833 -18.5 38.5s-27.5 14.5 -45.5 14.5
c-18.667 0 -34 -6 -46 -18s-18 -31.667 -18 -59h-34c0 32 8.16699 57.333 24.5 76s41.166 28 74.499 28c28.667 0 51.834 -7 69.501 -21s26.5 -34 26.5 -60c0 -9.33301 -1.83301 -18.5 -5.5 -27.5s-10.167 -18.667 -19.5 -29s-22.5 -21.666 -39.5 -33.999
s-38.5 -26.5 -64.5 -42.5c-10 -6 -17.833 -12.667 -23.5 -20s-9.5 -14.333 -11.5 -21h165v-29z" />
    <glyph glyph-name="three.superior" unicode="&#xb3;" horiz-adv-x="239" 
d="M223 263c0 -26.667 -10 -47.833 -30 -63.5s-45 -23.5 -75 -23.5c-34 0 -59.833 8.83301 -77.5 26.5s-26.5 42.167 -26.5 73.5h32c0 -22.667 6.16699 -40.5 18.5 -53.5s30.166 -19.5 53.499 -19.5c20 0 37.167 5.33301 51.5 16s21.5 24.667 21.5 42
c0 18.667 -6.33301 32.5 -19 41.5s-29.334 13.5 -50.001 13.5h-25v27h25c17.333 0 31.333 4.33301 42 13s16 20 16 34c0 16 -6 28.167 -18 36.5s-26.667 12.5 -44 12.5c-20.667 0 -36.667 -6.5 -48 -19.5s-17 -29.5 -17 -49.5h-34c0.666992 28 9.83398 51 27.501 69
s40.834 27 69.501 27c28 0 51.167 -6.5 69.5 -19.5s27.5 -31.167 27.5 -54.5c0 -13.333 -3.83301 -25.333 -11.5 -36s-17.5 -18.667 -29.5 -24c34 -9.33301 51 -32.333 51 -69z" />
    <glyph glyph-name="acute" unicode="&#xb4;" horiz-adv-x="123" 
d="M56 388h-34l69 93h52z" />
    <glyph glyph-name="mu" unicode="&#xb5;" horiz-adv-x="356" 
d="M317 0h-39v62h-1c-11.333 -23.333 -27.5 -41.166 -48.5 -53.499s-44.167 -18.5 -69.5 -18.5c-14 0 -27.667 1.83301 -41 5.5s-25.333 9.5 -36 17.5v-140h-43v469h42v-223c1.33301 -30.667 8.5 -54 21.5 -70s36.167 -24 69.5 -24c18 0 33.5 3.83301 46.5 11.5
s23.667 18 32 31s14.5 27.667 18.5 44s6 33.166 6 50.499v180h42v-342z" />
    <glyph glyph-name="paragraph" unicode="&#xb6;" horiz-adv-x="398" 
d="M344 -117l-42 -0.000976562v555h-79v-555h-42v334c-19.333 0 -37.333 3.33301 -54 10s-31.167 15.834 -43.5 27.501s-22 25 -29 40s-10.5 31.167 -10.5 48.5c0 42 13 74.167 39 96.5s62.333 33.5 109 33.5h152v-590z" />
    <glyph glyph-name="periodcentered" unicode="&#xb7;" horiz-adv-x="184" 
d="M130 209c0 -10.667 -3.66699 -19.667 -11 -27s-16.333 -11 -27 -11s-19.667 3.66699 -27 11s-11 16.333 -11 27s3.66699 19.667 11 27s16.333 11 27 11s19.667 -3.66699 27 -11s11 -16.333 11 -27z" />
    <glyph glyph-name="cedilla" unicode="&#xb8;" horiz-adv-x="123" 
d="M131 -80c0 -10 -2.16602 -18.6689 -6.49902 -26.002s-10 -13.166 -17 -17.499s-14.833 -7.66602 -23.5 -9.99902s-17.334 -3.5 -26.001 -3.5c-21.333 0 -42 4.66699 -62 14l9 22c6 -2.66699 13.833 -5 23.5 -7s19.5 -3 29.5 -3c9.33301 0 17.5 2.33301 24.5 7
s10.5 12 10.5 22c0 8 -2.83301 14.167 -8.5 18.5s-12.5 6.5 -20.5 6.5c-16 0 -27.333 -1.66699 -34 -5l-10 10l40 52h24l-30 -38c8 1.33301 16.5 1.83301 25.5 1.5s17.333 -2 25 -5s14 -7.5 19 -13.5s7.5 -14.333 7.5 -25z" />
    <glyph glyph-name="one.superior" unicode="&#xb9;" horiz-adv-x="239" 
d="M150 182h-33.001v205h-79v23c30.667 1.33301 50 4 58 8c14.667 6.66699 23.334 21.667 26.001 45h28v-281z" />
    <glyph glyph-name="ordmasculine" unicode="&#xba;" horiz-adv-x="221" 
d="M219 356c0 -31.333 -9.33301 -57.833 -28 -79.5s-46.667 -32.5 -84 -32.5c-34 0 -60 10.833 -78 32.5s-27 48.167 -27 79.5s9 57.833 27 79.5s44 32.5 78 32.5c18.667 0 35 -3 49 -9s25.667 -14 35 -24s16.333 -21.833 21 -35.5s7 -28.167 7 -43.5zM188 356
c0 10.667 -1.66699 21.167 -5 31.5s-8.16602 19.5 -14.499 27.5s-14.333 14.5 -24 19.5s-20.834 7.5 -33.501 7.5s-23.834 -2.5 -33.501 -7.5s-17.834 -11.5 -24.501 -19.5s-11.667 -17.167 -15 -27.5s-5 -20.833 -5 -31.5s1.66699 -21.167 5 -31.5s8.33301 -19.5 15 -27.5
s14.834 -14.5 24.501 -19.5s20.834 -7.5 33.501 -7.5s23.834 2.5 33.501 7.5s17.667 11.5 24 19.5s11.166 17.167 14.499 27.5s5 20.833 5 31.5z" />
    <glyph glyph-name="guillemotright" unicode="&#xbb;" horiz-adv-x="282" 
d="M243 162l-89 -83v44l63 59l-63 59v45l89 -83v-41zM136 162l-88 -83v44l62 59l-62 59v45l88 -83v-41z" />
    <glyph glyph-name="onequarter" unicode="&#xbc;" horiz-adv-x="591" 
d="M145 182h-33.001v205h-79v23c30.667 1.33301 50 4 58 8c14.667 6.66699 23.334 21.667 26.001 45h28v-281zM494.999 0h-31v68h-136v29l139 184h28v-185h44v-28h-44v-68zM463.999 96v137l-103 -137h103zM145.999 -23h-32l301 504h31z" />
    <glyph glyph-name="onehalf" unicode="&#xbd;" horiz-adv-x="591" 
d="M145 182h-33.001v205h-79v23c30.667 1.33301 50 4 58 8c14.667 6.66699 23.334 21.667 26.001 45h28v-281zM556.999 0l-202.998 0.000976562c1.33301 23.333 8.16602 43.166 20.499 59.499s34.166 34.166 65.499 53.499c16.667 10 30.5 18.833 41.5 26.5s19.5 15 25.5 22
s10.167 13.833 12.5 20.5s3.5 14 3.5 22c0 16 -6.16699 28.833 -18.5 38.5s-27.5 14.5 -45.5 14.5c-18.667 0 -34 -6 -46 -18s-18 -31.667 -18 -59h-34c0 32 8.16699 57.333 24.5 76s41.166 28 74.499 28c28.667 0 51.834 -7 69.501 -21s26.5 -34 26.5 -60
c0 -9.33301 -1.83301 -18.5 -5.5 -27.5s-10.167 -18.667 -19.5 -29s-22.5 -21.666 -39.5 -33.999s-38.5 -26.5 -64.5 -42.5c-10 -6 -17.833 -12.667 -23.5 -20s-9.5 -14.333 -11.5 -21h165v-29zM146.001 -22.999h-32l301 504h31z" />
    <glyph glyph-name="threequarters" unicode="&#xbe;" horiz-adv-x="591" 
d="M233 263c0 -26.667 -10 -47.833 -30 -63.5s-45 -23.5 -75 -23.5c-34 0 -59.833 8.83301 -77.5 26.5s-26.5 42.167 -26.5 73.5h32c0 -22.667 6.16699 -40.5 18.5 -53.5s30.166 -19.5 53.499 -19.5c20 0 37.167 5.33301 51.5 16s21.5 24.667 21.5 42
c0 18.667 -6.33301 32.5 -19 41.5s-29.334 13.5 -50.001 13.5h-25v27h25c17.333 0 31.333 4.33301 42 13s16 20 16 34c0 16 -6 28.167 -18 36.5s-26.667 12.5 -44 12.5c-20.667 0 -36.667 -6.5 -48 -19.5s-17 -29.5 -17 -49.5h-34c0.666992 28 9.83398 51 27.501 69
s40.834 27 69.501 27c28 0 51.167 -6.5 69.5 -19.5s27.5 -31.167 27.5 -54.5c0 -13.333 -3.83301 -25.333 -11.5 -36s-17.5 -18.667 -29.5 -24c34 -9.33301 51 -32.333 51 -69zM146 -22.999h-32l301 504h31zM495 0.000976562h-31v68h-136v29l139 184h28v-185h44v-28h-44v-68
zM464 96.001v137l-103 -137h103z" />
    <glyph glyph-name="questiondown" unicode="&#xbf;" horiz-adv-x="356" 
d="M321 19c-0.666992 -47.333 -13.835 -85.165 -39.502 -113.498s-62.834 -42.5 -111.501 -42.5c-18 0 -35.167 2.83301 -51.5 8.5s-30.666 13.667 -42.999 24s-22 23.166 -29 38.499s-10.5 32.666 -10.5 51.999c0 24.667 5.33301 45.667 16 63s24.334 34 41.001 50
c14 14 25.167 24.833 33.5 32.5s14.5 15.167 18.5 22.5s6.5 16.5 7.5 27.5s1.83301 26.5 2.5 46.5h42c0.666992 -20 -0.333008 -37 -3 -51s-7.16699 -26.5 -13.5 -37.5s-14.333 -21.5 -24 -31.5s-21.5 -21.333 -35.5 -34c-12.667 -12 -23 -25 -31 -39s-12 -29.667 -12 -47
c0 -13.333 2.5 -25.5 7.5 -36.5s11.833 -20.333 20.5 -28s18.667 -13.667 30 -18s23.333 -6.5 36 -6.5c36.667 0 63.834 11.5 81.501 34.5s26.167 51.5 25.5 85.5h42zM213.999 307.001c0 -10.667 -3.66699 -19.667 -11 -27s-16.333 -11 -27 -11s-19.667 3.66699 -27 11
s-11 16.333 -11 27s3.66699 19.667 11 27s16.333 11 27 11s19.667 -3.66699 27 -11s11 -16.333 11 -27z" />
    <glyph glyph-name="Agrave" unicode="&#xc0;" horiz-adv-x="418" 
d="M422 0h-48l-58 147h-215l-57 -147h-49l191 473h51zM301 186l-91 242l-95 -242h186zM239 522h-34l-88 93h52z" />
    <glyph glyph-name="Aacute" unicode="&#xc1;" horiz-adv-x="418" 
d="M422 0h-48l-58 147h-215l-57 -147h-49l191 473h51zM301 186l-91 242l-95 -242h186zM193 522h-34l69 93h52z" />
    <glyph glyph-name="Acircumflex" unicode="&#xc2;" horiz-adv-x="418" 
d="M422 0h-48l-58 147h-215l-57 -147h-49l191 473h51zM301 186l-91 242l-95 -242h186zM265 522l-57 67l-59 -67h-38l75 93h46l76 -93h-43z" />
    <glyph glyph-name="Atilde" unicode="&#xc3;" horiz-adv-x="418" 
d="M422 0h-48l-58 147h-215l-57 -147h-49l191 473h51zM301 186l-91 242l-95 -242h186zM313 587c-8 -42 -27.332 -63 -57.999 -63c-8.66699 0 -17.167 1.66699 -25.5 5s-16.166 6.66602 -23.499 9.99902c-8 3.33301 -15.333 6.83301 -22 10.5s-12.667 5.5 -18 5.5
c-10 0 -18.333 -2.83301 -25 -8.5s-10 -14.167 -10 -25.5h-26c0 42.667 19.667 64 59 64c9.33301 0 18.166 -1.66699 26.499 -5s16.166 -6.66602 23.499 -9.99902l20.5 -9.5c6.33301 -3 12.5 -4.5 18.5 -4.5c10.667 0 18.5 3 23.5 9s8.16699 13.333 9.5 22h27z" />
    <glyph glyph-name="Adieresis" unicode="&#xc4;" horiz-adv-x="418" 
d="M422 0h-48l-58 147h-215l-57 -147h-49l191 473h51zM301 186l-91 242l-95 -242h186zM182 548c0 -8.66699 -3 -16 -9 -22s-13.333 -9 -22 -9s-16 3 -22 9s-9 13.333 -9 22s3 16 9 22s13.333 9 22 9s16 -3 22 -9s9 -13.333 9 -22zM300 548c0 -8.66699 -3 -16 -9 -22
s-13.333 -9 -22 -9s-16 3 -22 9s-9 13.333 -9 22s3 16 9 22s13.333 9 22 9s16 -3 22 -9s9 -13.333 9 -22z" />
    <glyph glyph-name="Aring" unicode="&#xc5;" horiz-adv-x="418" 
d="M422 0h-48l-58 147h-215l-57 -147h-49l191 473h51zM301 186l-91 242l-95 -242h186zM276 555c0 -18 -6.66699 -33.667 -20 -47s-29 -20 -47 -20s-33.667 6.66699 -47 20s-20 29 -20 47c0 18.667 6.5 34.5 19.5 47.5s28.833 19.5 47.5 19.5s34.5 -6.5 47.5 -19.5
s19.5 -28.833 19.5 -47.5zM252 555c0 12 -4.16699 22.167 -12.5 30.5s-18.5 12.5 -30.5 12.5c-11.333 0 -21.166 -4.16699 -29.499 -12.5s-12.5 -18.5 -12.5 -30.5c0 -11.333 4.16699 -21.166 12.5 -29.499s18.166 -12.5 29.499 -12.5c12 0 22.167 4.16699 30.5 12.5
s12.5 18.166 12.5 29.499z" />
    <glyph glyph-name="AE" unicode="&#xc6;" horiz-adv-x="601" 
d="M586 0h-291v150h-172l-77 -150h-51l248 473h340v-38h-243v-171h228v-39h-228v-187h246v-38zM295 188v247h-26l-126 -247h152z" />
    <glyph glyph-name="Ccedilla" unicode="&#xc7;" horiz-adv-x="467" 
d="M446 180c-6.66699 -58.667 -27.499 -104.999 -62.499 -138.999s-79.833 -51 -134.5 -51c-71.333 0 -127.333 25 -168 75c-37.333 45.333 -56 102.666 -56 171.999c0 68.667 18.667 125.667 56 171c40.667 50 96.667 75 168 75c47.333 0 88.666 -13 123.999 -39
c38 -28 60 -66 66 -114h-45c-8 36 -25.333 64.167 -52 84.5s-57.667 30.5 -93 30.5c-58.667 0 -104.334 -21.667 -137.001 -65c-28 -38 -42 -85.667 -42 -143s14 -105 42 -143c32.667 -43.333 78.334 -65 137.001 -65c42 0 76.667 14.333 104 43s43 64.667 47 108h46z
M302.001 -79.999c0 -10 -2.16602 -18.6689 -6.49902 -26.002s-10 -13.166 -17 -17.499s-14.833 -7.66602 -23.5 -9.99902s-17.334 -3.5 -26.001 -3.5c-21.333 0 -42 4.66699 -62 14l9 22c6 -2.66699 13.833 -5 23.5 -7s19.5 -3 29.5 -3c9.33301 0 17.5 2.33301 24.5 7
s10.5 12 10.5 22c0 8 -2.83301 14.167 -8.5 18.5s-12.5 6.5 -20.5 6.5c-16 0 -27.333 -1.66699 -34 -5l-10 10l40 52h24l-30 -38c8 1.33301 16.5 1.83301 25.5 1.5s17.333 -2 25 -5s14 -7.5 19 -13.5s7.5 -14.333 7.5 -25z" />
    <glyph glyph-name="Egrave" unicode="&#xc8;" horiz-adv-x="393" 
d="M378 0h-330v473h327v-38h-282v-171h264v-39h-264v-187h285v-38zM256 522h-34l-88 93h52z" />
    <glyph glyph-name="Eacute" unicode="&#xc9;" horiz-adv-x="393" 
d="M378 0h-330v473h327v-38h-282v-171h264v-39h-264v-187h285v-38zM181 522h-34l69 93h52z" />
    <glyph glyph-name="Ecircumflex" unicode="&#xca;" horiz-adv-x="393" 
d="M378 0h-330v473h327v-38h-282v-171h264v-39h-264v-187h285v-38zM271 522l-57 67l-59 -67h-38l75 93h46l76 -93h-43z" />
    <glyph glyph-name="Edieresis" unicode="&#xcb;" horiz-adv-x="393" 
d="M378 0h-330v473h327v-38h-282v-171h264v-39h-264v-187h285v-38zM194 548c0 -8.66699 -3 -16 -9 -22s-13.333 -9 -22 -9s-16 3 -22 9s-9 13.333 -9 22s3 16 9 22s13.333 9 22 9s16 -3 22 -9s9 -13.333 9 -22zM312 548c0 -8.66699 -3 -16 -9 -22s-13.333 -9 -22 -9
s-16 3 -22 9s-9 13.333 -9 22s3 16 9 22s13.333 9 22 9s16 -3 22 -9s9 -13.333 9 -22z" />
    <glyph glyph-name="Igrave" unicode="&#xcc;" horiz-adv-x="147" 
d="M96 0h-45v473h45v-473zM134 522h-34l-88 93h52z" />
    <glyph glyph-name="Iacute" unicode="&#xcd;" horiz-adv-x="147" 
d="M96 0h-45v473h45v-473zM46 522h-34l69 93h52z" />
    <glyph glyph-name="Icircumflex" unicode="&#xce;" horiz-adv-x="147" 
d="M96 0h-45v473h45v-473zM129 522l-57 67l-59 -67h-38l75 93h46l76 -93h-43z" />
    <glyph glyph-name="Idieresis" unicode="&#xcf;" horiz-adv-x="147" 
d="M96 0h-45v473h45v-473zM46 548c0 -8.66699 -3 -16 -9 -22s-13.333 -9 -22 -9s-16 3 -22 9s-9 13.333 -9 22s3 16 9 22s13.333 9 22 9s16 -3 22 -9s9 -13.333 9 -22zM164 548c0 -8.66699 -3 -16 -9 -22s-13.333 -9 -22 -9s-16 3 -22 9s-9 13.333 -9 22s3 16 9 22
s13.333 9 22 9s16 -3 22 -9s9 -13.333 9 -22z" />
    <glyph glyph-name="Eth" unicode="&#xd0;" horiz-adv-x="454" 
d="M429 237c0 -158 -72.667 -237 -218 -237h-163v218h-34v39h34v216h163c145.333 0 218 -78.667 218 -236zM312 218h-219v-180h96c68.667 0 118.334 15.5 149.001 46.5s46 81.833 46 152.5c0 70 -15.333 120.5 -46 151.5s-80.334 46.5 -149.001 46.5h-96v-178h219v-39z" />
    <glyph glyph-name="Ntilde" unicode="&#xd1;" horiz-adv-x="467" 
d="M420 0h-51l-276 400h-1v-400h-45v473h50l276 -400h2v400h45v-473zM340 587c-8 -42 -27.332 -63 -57.999 -63c-8.66699 0 -17.167 1.66699 -25.5 5s-16.166 6.66602 -23.499 9.99902c-8 3.33301 -15.333 6.83301 -22 10.5s-12.667 5.5 -18 5.5
c-10 0 -18.333 -2.83301 -25 -8.5s-10 -14.167 -10 -25.5h-26c0 42.667 19.667 64 59 64c9.33301 0 18.166 -1.66699 26.499 -5s16.166 -6.66602 23.499 -9.99902l20.5 -9.5c6.33301 -3 12.5 -4.5 18.5 -4.5c10.667 0 18.5 3 23.5 9s8.16699 13.333 9.5 22h27z" />
    <glyph glyph-name="Ograve" unicode="&#xd2;" horiz-adv-x="491" 
d="M469 237c0 -69.333 -18.667 -126.666 -56 -171.999c-40.667 -50 -96.334 -75 -167.001 -75s-126.334 25 -167.001 75c-37.333 45.333 -56 102.666 -56 171.999c0 68.667 18.667 125.667 56 171c40.667 50 96.334 75 167.001 75s126.334 -25 167.001 -75
c37.333 -45.333 56 -102.333 56 -171zM424 237c0 57.333 -14 105 -42 143c-32 43.333 -77.333 65 -136 65s-104 -21.667 -136 -65c-28 -38 -42 -85.667 -42 -143s14 -105 42 -143c32 -43.333 77.333 -65 136 -65s104 21.667 136 65c28 38 42 85.667 42 143zM306 522h-34
l-88 93h52z" />
    <glyph glyph-name="Oacute" unicode="&#xd3;" horiz-adv-x="491" 
d="M469 237c0 -69.333 -18.667 -126.666 -56 -171.999c-40.667 -50 -96.334 -75 -167.001 -75s-126.334 25 -167.001 75c-37.333 45.333 -56 102.666 -56 171.999c0 68.667 18.667 125.667 56 171c40.667 50 96.334 75 167.001 75s126.334 -25 167.001 -75
c37.333 -45.333 56 -102.333 56 -171zM424 237c0 57.333 -14 105 -42 143c-32 43.333 -77.333 65 -136 65s-104 -21.667 -136 -65c-28 -38 -42 -85.667 -42 -143s14 -105 42 -143c32 -43.333 77.333 -65 136 -65s104 21.667 136 65c28 38 42 85.667 42 143zM218 522h-34
l69 93h52z" />
    <glyph glyph-name="Ocircumflex" unicode="&#xd4;" horiz-adv-x="491" 
d="M469 237c0 -69.333 -18.667 -126.666 -56 -171.999c-40.667 -50 -96.334 -75 -167.001 -75s-126.334 25 -167.001 75c-37.333 45.333 -56 102.666 -56 171.999c0 68.667 18.667 125.667 56 171c40.667 50 96.334 75 167.001 75s126.334 -25 167.001 -75
c37.333 -45.333 56 -102.333 56 -171zM424 237c0 57.333 -14 105 -42 143c-32 43.333 -77.333 65 -136 65s-104 -21.667 -136 -65c-28 -38 -42 -85.667 -42 -143s14 -105 42 -143c32 -43.333 77.333 -65 136 -65s104 21.667 136 65c28 38 42 85.667 42 143zM301 522l-57 67
l-59 -67h-38l75 93h46l76 -93h-43z" />
    <glyph glyph-name="Otilde" unicode="&#xd5;" horiz-adv-x="491" 
d="M469 237c0 -69.333 -18.667 -126.666 -56 -171.999c-40.667 -50 -96.334 -75 -167.001 -75s-126.334 25 -167.001 75c-37.333 45.333 -56 102.666 -56 171.999c0 68.667 18.667 125.667 56 171c40.667 50 96.334 75 167.001 75s126.334 -25 167.001 -75
c37.333 -45.333 56 -102.333 56 -171zM424 237c0 57.333 -14 105 -42 143c-32 43.333 -77.333 65 -136 65s-104 -21.667 -136 -65c-28 -38 -42 -85.667 -42 -143s14 -105 42 -143c32 -43.333 77.333 -65 136 -65s104 21.667 136 65c28 38 42 85.667 42 143zM349 582
c-8 -42 -27.332 -63 -57.999 -63c-8.66699 0 -17.167 1.66699 -25.5 5s-16.166 6.66602 -23.499 9.99902c-8 3.33301 -15.333 6.83301 -22 10.5s-12.667 5.5 -18 5.5c-10 0 -18.333 -2.83301 -25 -8.5s-10 -14.167 -10 -25.5h-26c0 42.667 19.667 64 59 64
c9.33301 0 18.166 -1.66699 26.499 -5s16.166 -6.66602 23.499 -9.99902l20.5 -9.5c6.33301 -3 12.5 -4.5 18.5 -4.5c10.667 0 18.5 3 23.5 9s8.16699 13.333 9.5 22h27z" />
    <glyph glyph-name="Odieresis" unicode="&#xd6;" horiz-adv-x="491" 
d="M469 237c0 -69.333 -18.667 -126.666 -56 -171.999c-40.667 -50 -96.334 -75 -167.001 -75s-126.334 25 -167.001 75c-37.333 45.333 -56 102.666 -56 171.999c0 68.667 18.667 125.667 56 171c40.667 50 96.334 75 167.001 75s126.334 -25 167.001 -75
c37.333 -45.333 56 -102.333 56 -171zM424 237c0 57.333 -14 105 -42 143c-32 43.333 -77.333 65 -136 65s-104 -21.667 -136 -65c-28 -38 -42 -85.667 -42 -143s14 -105 42 -143c32 -43.333 77.333 -65 136 -65s104 21.667 136 65c28 38 42 85.667 42 143zM218 549
c0 -8.66699 -3 -16 -9 -22s-13.333 -9 -22 -9s-16 3 -22 9s-9 13.333 -9 22s3 16 9 22s13.333 9 22 9s16 -3 22 -9s9 -13.333 9 -22zM336 549c0 -8.66699 -3 -16 -9 -22s-13.333 -9 -22 -9s-16 3 -22 9s-9 13.333 -9 22s3 16 9 22s13.333 9 22 9s16 -3 22 -9
s9 -13.333 9 -22z" />
    <glyph glyph-name="multiply" unicode="&#xd7;" horiz-adv-x="398" 
d="M349 41l-25 -24l-125 124l-125 -124l-25 24l125 125l-125 126l25 24l125 -125l125 125l25 -24l-126 -126z" />
    <glyph glyph-name="Oslash" unicode="&#xd8;" horiz-adv-x="491" 
d="M424 237c0 24.667 -3.16602 49 -9.49902 73s-16.166 45.667 -29.499 65l-264 -294c15.333 -16.667 33.166 -29.5 53.499 -38.5s44.166 -13.5 71.499 -13.5c31.333 0 58.166 6 80.499 18s40.833 27.667 55.5 47s25.334 41.5 32.001 66.5s10 50.5 10 76.5zM370.001 393
c-14.667 15.333 -32.168 27.834 -52.501 37.501s-44.166 14.5 -71.499 14.5c-31.333 0 -58.166 -6 -80.499 -18s-40.833 -27.833 -55.5 -47.5s-25.334 -41.834 -32.001 -66.501s-10 -50 -10 -76c0 -25.333 3 -49.833 9 -73.5s15.667 -45.167 29 -64.5zM469 237.001
c0 -32.667 -4.66602 -63.832 -13.999 -93.499s-23.333 -55.834 -42 -78.501s-42 -40.834 -70 -54.501s-60.333 -20.5 -97 -20.5c-33.333 0 -62.666 5.33301 -87.999 16s-47 25 -65 43l-51 -57l-17 17l52 58c-18.667 23.333 -32.334 49.5 -41.001 78.5s-13 59.5 -13 91.5
s4.66699 62.833 14 92.5s23.166 55.834 41.499 78.501s41.5 40.834 69.5 54.501s60.667 20.5 98 20.5c32.667 0 61.667 -5.16699 87 -15.5s47 -24.5 65 -42.5l48 52l17 -16l-49 -53c18.667 -22.667 32.5 -48.834 41.5 -78.501s13.5 -60.5 13.5 -92.5z" />
    <glyph glyph-name="Ugrave" unicode="&#xd9;" horiz-adv-x="454" 
d="M411 170c0 -52.667 -14 -94.667 -42 -126c-32.667 -36 -80 -54 -142 -54s-109 18 -141 54c-28.667 31.333 -43 73.333 -43 126v303h45v-293c0 -100.667 46.333 -151 139 -151s139 50.333 139 151v293h45v-303zM288 522h-34l-88 93h52z" />
    <glyph glyph-name="Uacute" unicode="&#xda;" horiz-adv-x="454" 
d="M411 170c0 -52.667 -14 -94.667 -42 -126c-32.667 -36 -80 -54 -142 -54s-109 18 -141 54c-28.667 31.333 -43 73.333 -43 126v303h45v-293c0 -100.667 46.333 -151 139 -151s139 50.333 139 151v293h45v-303zM200 522h-34l69 93h52z" />
    <glyph glyph-name="Ucircumflex" unicode="&#xdb;" horiz-adv-x="454" 
d="M411 170c0 -52.667 -14 -94.667 -42 -126c-32.667 -36 -80 -54 -142 -54s-109 18 -141 54c-28.667 31.333 -43 73.333 -43 126v303h45v-293c0 -100.667 46.333 -151 139 -151s139 50.333 139 151v293h45v-303zM283 522l-57 67l-59 -67h-38l75 93h46l76 -93h-43z" />
    <glyph glyph-name="Udieresis" unicode="&#xdc;" horiz-adv-x="454" 
d="M411 170c0 -52.667 -14 -94.667 -42 -126c-32.667 -36 -80 -54 -142 -54s-109 18 -141 54c-28.667 31.333 -43 73.333 -43 126v303h45v-293c0 -100.667 46.333 -151 139 -151s139 50.333 139 151v293h45v-303zM200 548c0 -8.66699 -3 -16 -9 -22s-13.333 -9 -22 -9
s-16 3 -22 9s-9 13.333 -9 22s3 16 9 22s13.333 9 22 9s16 -3 22 -9s9 -13.333 9 -22zM318 548c0 -8.66699 -3 -16 -9 -22s-13.333 -9 -22 -9s-16 3 -22 9s-9 13.333 -9 22s3 16 9 22s13.333 9 22 9s16 -3 22 -9s9 -13.333 9 -22z" />
    <glyph glyph-name="Yacute" unicode="&#xdd;" horiz-adv-x="405" 
d="M225 0h-45v195l-187 278h54l156 -240l155 240h54l-187 -278v-195zM176 522h-34l69 93h52z" />
    <glyph glyph-name="Thorn" unicode="&#xde;" horiz-adv-x="418" 
d="M398 261c0 -43.333 -12.667 -76.832 -38 -100.499s-59.333 -35.5 -102 -35.5h-165v-125h-45v473h45v-77h165c42.667 0 76.667 -11.833 102 -35.5s38 -56.834 38 -99.501zM353 261.001c0 32.667 -9.66699 56.833 -29 72.5s-44.666 23.5 -75.999 23.5h-155v-193h155
c31.333 0 56.666 8 75.999 24s29 40.333 29 73z" />
    <glyph glyph-name="uni00DF" unicode="&#xdf;" horiz-adv-x="356" 
d="M326 143c0 -49.333 -14.0049 -86 -42.0049 -110s-63 -36.667 -105 -38h-16.5c-5.66699 0 -11.167 0.333008 -16.5 1v36c5.33301 -1.33301 10.5 -2 15.5 -2h15.5c13.333 0 26.5 1.83301 39.5 5.5s24.5 9.83398 34.5 18.501s18 19.667 24 33s9 29.666 9 48.999
c0 22.667 -3.33301 41.167 -10 55.5s-16.167 25.333 -28.5 33s-27 12.834 -44 15.501s-35.5 4 -55.5 4v35c14.667 0 28.834 1.33301 42.501 4s25.834 7.16699 36.501 13.5s19.334 15 26.001 26s10 25.167 10 42.5c0 12 -2.33301 23.167 -7 33.5s-11 19.166 -19 26.499
s-17.333 13 -28 17s-22 6 -34 6c-33.333 0 -56.833 -8.16699 -70.5 -24.5s-20.5 -40.5 -20.5 -72.5v-351h-42v355c0 44 12 76.333 36 97s56 31 96 31c18 0 34.833 -2.5 50.5 -7.5s29.334 -12.5 41.001 -22.5s21 -22.167 28 -36.5s10.5 -30.833 10.5 -49.5
c0 -24 -6.5 -45.333 -19.5 -64s-31.5 -30.667 -55.5 -36v-1c32.667 -2.66699 57.334 -16.167 74.001 -40.5s25 -51.833 25 -82.5z" />
    <glyph glyph-name="agrave" unicode="&#xe0;" horiz-adv-x="344" 
d="M259 187l-2 -0.000976562c-3.33301 -6 -15 -11 -35 -15c-35.333 -6.66699 -70.666 -13 -105.999 -19c-35.333 -11.333 -53 -31.333 -53 -60c0 -20 7.5 -36.333 22.5 -49s32.833 -19 53.5 -19c33.333 0 61.666 9.83301 84.999 29.5s35 45.834 35 78.501v54zM338 2.99902
c-8.66699 -2 -17.667 -3 -27 -3c-32.667 0 -49 20 -49 60h-1c-16.667 -24.667 -33 -42 -49 -52c-19.333 -12 -44.666 -18 -75.999 -18c-33.333 0 -60.333 8 -81 24c-22.667 18 -34 43.333 -34 76c0 42 19.333 71 58 87c19.333 8 61.333 15.667 126 23
c19.333 2 33.166 6 41.499 12s12.5 17.667 12.5 35c0 46.667 -30 70 -90 70s-90.333 -26.667 -91 -80h-42c4 76.667 50 115 138 115c84 0 126 -36.667 126 -110v-182c0 -16.667 8.33301 -25 25 -25c6 0 10.333 1 13 3v-35zM214 390.999h-34l-88 93h52z" />
    <glyph glyph-name="aacute" unicode="&#xe1;" horiz-adv-x="344" 
d="M259 187l-2 -0.000976562c-3.33301 -6 -15 -11 -35 -15c-35.333 -6.66699 -70.666 -13 -105.999 -19c-35.333 -11.333 -53 -31.333 -53 -60c0 -20 7.5 -36.333 22.5 -49s32.833 -19 53.5 -19c33.333 0 61.666 9.83301 84.999 29.5s35 45.834 35 78.501v54zM338 2.99902
c-8.66699 -2 -17.667 -3 -27 -3c-32.667 0 -49 20 -49 60h-1c-16.667 -24.667 -33 -42 -49 -52c-19.333 -12 -44.666 -18 -75.999 -18c-33.333 0 -60.333 8 -81 24c-22.667 18 -34 43.333 -34 76c0 42 19.333 71 58 87c19.333 8 61.333 15.667 126 23
c19.333 2 33.166 6 41.499 12s12.5 17.667 12.5 35c0 46.667 -30 70 -90 70s-90.333 -26.667 -91 -80h-42c4 76.667 50 115 138 115c84 0 126 -36.667 126 -110v-182c0 -16.667 8.33301 -25 25 -25c6 0 10.333 1 13 3v-35zM141 387.999h-34l69 93h52z" />
    <glyph glyph-name="acircumflex" unicode="&#xe2;" horiz-adv-x="344" 
d="M259 187l-2 -0.000976562c-3.33301 -6 -15 -11 -35 -15c-35.333 -6.66699 -70.666 -13 -105.999 -19c-35.333 -11.333 -53 -31.333 -53 -60c0 -20 7.5 -36.333 22.5 -49s32.833 -19 53.5 -19c33.333 0 61.666 9.83301 84.999 29.5s35 45.834 35 78.501v54zM338 2.99902
c-8.66699 -2 -17.667 -3 -27 -3c-32.667 0 -49 20 -49 60h-1c-16.667 -24.667 -33 -42 -49 -52c-19.333 -12 -44.666 -18 -75.999 -18c-33.333 0 -60.333 8 -81 24c-22.667 18 -34 43.333 -34 76c0 42 19.333 71 58 87c19.333 8 61.333 15.667 126 23
c19.333 2 33.166 6 41.499 12s12.5 17.667 12.5 35c0 46.667 -30 70 -90 70s-90.333 -26.667 -91 -80h-42c4 76.667 50 115 138 115c84 0 126 -36.667 126 -110v-182c0 -16.667 8.33301 -25 25 -25c6 0 10.333 1 13 3v-35zM228 387.999l-57 67l-59 -67h-38l75 93h46l76 -93
h-43z" />
    <glyph glyph-name="atilde" unicode="&#xe3;" horiz-adv-x="344" 
d="M259 187l-2 -0.000976562c-3.33301 -6 -15 -11 -35 -15c-35.333 -6.66699 -70.666 -13 -105.999 -19c-35.333 -11.333 -53 -31.333 -53 -60c0 -20 7.5 -36.333 22.5 -49s32.833 -19 53.5 -19c33.333 0 61.666 9.83301 84.999 29.5s35 45.834 35 78.501v54zM338 2.99902
c-8.66699 -2 -17.667 -3 -27 -3c-32.667 0 -49 20 -49 60h-1c-16.667 -24.667 -33 -42 -49 -52c-19.333 -12 -44.666 -18 -75.999 -18c-33.333 0 -60.333 8 -81 24c-22.667 18 -34 43.333 -34 76c0 42 19.333 71 58 87c19.333 8 61.333 15.667 126 23
c19.333 2 33.166 6 41.499 12s12.5 17.667 12.5 35c0 46.667 -30 70 -90 70s-90.333 -26.667 -91 -80h-42c4 76.667 50 115 138 115c84 0 126 -36.667 126 -110v-182c0 -16.667 8.33301 -25 25 -25c6 0 10.333 1 13 3v-35zM280 452.999c-8 -42 -27.332 -63 -57.999 -63
c-8.66699 0 -17.167 1.66699 -25.5 5s-16.166 6.66602 -23.499 9.99902c-8 3.33301 -15.333 6.83301 -22 10.5s-12.667 5.5 -18 5.5c-10 0 -18.333 -2.83301 -25 -8.5s-10 -14.167 -10 -25.5h-26c0 42.667 19.667 64 59 64c9.33301 0 18.166 -1.66699 26.499 -5
s16.166 -6.66602 23.499 -9.99902l20.5 -9.5c6.33301 -3 12.5 -4.5 18.5 -4.5c10.667 0 18.5 3 23.5 9s8.16699 13.333 9.5 22h27z" />
    <glyph glyph-name="adieresis" unicode="&#xe4;" horiz-adv-x="344" 
d="M259 187l-2 -0.000976562c-3.33301 -6 -15 -11 -35 -15c-35.333 -6.66699 -70.666 -13 -105.999 -19c-35.333 -11.333 -53 -31.333 -53 -60c0 -20 7.5 -36.333 22.5 -49s32.833 -19 53.5 -19c33.333 0 61.666 9.83301 84.999 29.5s35 45.834 35 78.501v54zM338 2.99902
c-8.66699 -2 -17.667 -3 -27 -3c-32.667 0 -49 20 -49 60h-1c-16.667 -24.667 -33 -42 -49 -52c-19.333 -12 -44.666 -18 -75.999 -18c-33.333 0 -60.333 8 -81 24c-22.667 18 -34 43.333 -34 76c0 42 19.333 71 58 87c19.333 8 61.333 15.667 126 23
c19.333 2 33.166 6 41.499 12s12.5 17.667 12.5 35c0 46.667 -30 70 -90 70s-90.333 -26.667 -91 -80h-42c4 76.667 50 115 138 115c84 0 126 -36.667 126 -110v-182c0 -16.667 8.33301 -25 25 -25c6 0 10.333 1 13 3v-35zM141 415.999c0 -8.66699 -3 -16 -9 -22
s-13.333 -9 -22 -9s-16 3 -22 9s-9 13.333 -9 22s3 16 9 22s13.333 9 22 9s16 -3 22 -9s9 -13.333 9 -22zM259 415.999c0 -8.66699 -3 -16 -9 -22s-13.333 -9 -22 -9s-16 3 -22 9s-9 13.333 -9 22s3 16 9 22s13.333 9 22 9s16 -3 22 -9s9 -13.333 9 -22z" />
    <glyph glyph-name="aring" unicode="&#xe5;" horiz-adv-x="344" 
d="M259 187l-2 -0.000976562c-3.33301 -6 -15 -11 -35 -15c-35.333 -6.66699 -70.666 -13 -105.999 -19c-35.333 -11.333 -53 -31.333 -53 -60c0 -20 7.5 -36.333 22.5 -49s32.833 -19 53.5 -19c33.333 0 61.666 9.83301 84.999 29.5s35 45.834 35 78.501v54zM338 2.99902
c-8.66699 -2 -17.667 -3 -27 -3c-32.667 0 -49 20 -49 60h-1c-16.667 -24.667 -33 -42 -49 -52c-19.333 -12 -44.666 -18 -75.999 -18c-33.333 0 -60.333 8 -81 24c-22.667 18 -34 43.333 -34 76c0 42 19.333 71 58 87c19.333 8 61.333 15.667 126 23
c19.333 2 33.166 6 41.499 12s12.5 17.667 12.5 35c0 46.667 -30 70 -90 70s-90.333 -26.667 -91 -80h-42c4 76.667 50 115 138 115c84 0 126 -36.667 126 -110v-182c0 -16.667 8.33301 -25 25 -25c6 0 10.333 1 13 3v-35zM236 442.999c0 -18 -6.66699 -33.667 -20 -47
s-29 -20 -47 -20s-33.667 6.66699 -47 20s-20 29 -20 47c0 18.667 6.5 34.5 19.5 47.5s28.833 19.5 47.5 19.5s34.5 -6.5 47.5 -19.5s19.5 -28.833 19.5 -47.5zM212 442.999c0 12 -4.16699 22.167 -12.5 30.5s-18.5 12.5 -30.5 12.5
c-11.333 0 -21.166 -4.16699 -29.499 -12.5s-12.5 -18.5 -12.5 -30.5c0 -11.333 4.16699 -21.166 12.5 -29.499s18.166 -12.5 29.499 -12.5c12 0 22.167 4.16699 30.5 12.5s12.5 18.166 12.5 29.499z" />
    <glyph glyph-name="ae" unicode="&#xe6;" horiz-adv-x="577" 
d="M516 195c0 16 -2.50098 31.333 -7.50098 46s-12.167 27.667 -21.5 39s-20.666 20.333 -33.999 27s-28.333 10 -45 10c-17.333 0 -32.833 -3.33301 -46.5 -10s-25 -15.667 -34 -27s-15.833 -24.333 -20.5 -39s-7 -30 -7 -46h216zM258.999 133l0.000976562 54h-2
c-2.66699 -5.33301 -7.83398 -8.83301 -15.501 -10.5s-14.167 -3.16699 -19.5 -4.5c-18 -3.33301 -36.333 -6.16602 -55 -8.49902s-35.667 -6 -51 -11s-28 -12 -38 -21s-15 -21.833 -15 -38.5c0 -21.333 7.83301 -38 23.5 -50s33.167 -18 52.5 -18c16 0 31.167 2.5 45.5 7.5
s27 12.167 38 21.5s19.833 20.666 26.5 33.999s10 28.333 10 45zM555 111c-8.66699 -38.667 -25.6621 -68.502 -50.9951 -89.502s-58 -31.5 -98 -31.5c-62.667 0 -104.667 28.667 -126 86h-1c-2.66699 -14 -8.83398 -26.5 -18.501 -37.5s-21.167 -20 -34.5 -27
s-28 -12.333 -44 -16s-31.333 -5.5 -46 -5.5c-16 0 -30.833 2 -44.5 6s-25.834 10 -36.501 18s-19 18.333 -25 31s-9 27.667 -9 45c0 24 5.33301 42.833 16 56.5s24.667 24 42 31s37 11.833 59 14.5l67 8c17.333 2 30.666 5.5 39.999 10.5s14 17.167 14 36.5
c0 28 -8.83301 46.667 -26.5 56s-38.834 14 -63.501 14c-26 0 -47.5 -6.33301 -64.5 -19s-25.833 -33 -26.5 -61h-42c2 40.667 15.667 70 41 88s57.666 27 96.999 27c12 0 24.167 -1 36.5 -3s24 -5.66699 35 -11s20.333 -12.5 28 -21.5s12.5 -20.833 14.5 -35.5h2
c9.33301 24 25.333 41.833 48 53.5s46.667 17.5 72 17.5c28 0 51.5 -5.33301 70.5 -16s34.167 -25 45.5 -43s19.5 -38.5 24.5 -61.5s7.5 -46.833 7.5 -71.5h-258c-1.33301 -18 0 -35.167 4 -51.5s10.667 -30.666 20 -42.999s21.333 -22.166 36 -29.499s32 -11 52 -11
c28 0 50.333 7.5 67 22.5s28 36.167 34 63.5h42z" />
    <glyph glyph-name="ccedilla" unicode="&#xe7;" horiz-adv-x="344" 
d="M326 123c-6 -41.333 -21.5 -73.833 -46.5 -97.5s-56.833 -35.5 -95.5 -35.5c-50 0 -89.667 18 -119 54c-28 33.333 -42 75.666 -42 126.999s14 93.666 42 126.999c29.333 36 69 54 119 54c38 0 69.5 -10 94.5 -30s39.833 -49 44.5 -87h-42c-12 54.667 -44.333 82 -97 82
c-38 0 -68 -15.333 -90 -46c-20 -27.333 -30 -60.666 -30 -99.999s10 -72.666 30 -99.999c22 -30.667 52 -46 90 -46c26 0 48.5 9.16699 67.5 27.5s29.833 41.833 32.5 70.5h42zM250 -80c0 -10 -2.16602 -18.6689 -6.49902 -26.002s-10 -13.166 -17 -17.499
s-14.833 -7.66602 -23.5 -9.99902s-17.334 -3.5 -26.001 -3.5c-21.333 0 -42 4.66699 -62 14l9 22c6 -2.66699 13.833 -5 23.5 -7s19.5 -3 29.5 -3c9.33301 0 17.5 2.33301 24.5 7s10.5 12 10.5 22c0 8 -2.83301 14.167 -8.5 18.5s-12.5 6.5 -20.5 6.5
c-16 0 -27.333 -1.66699 -34 -5l-10 10l40 52h24l-30 -38c8 1.33301 16.5 1.83301 25.5 1.5s17.333 -2 25 -5s14 -7.5 19 -13.5s7.5 -14.333 7.5 -25z" />
    <glyph glyph-name="egrave" unicode="&#xe8;" horiz-adv-x="344" 
d="M326 113c-18.667 -82 -68.335 -123 -149.002 -123c-51.333 0 -90.666 18 -117.999 54c-24 32 -36 74.333 -36 127c0 50 12 91.333 36 124c28 38 67.333 57 118 57c51.333 0 90.666 -20 117.999 -60c23.333 -35.333 34.333 -79.333 33 -132h-264
c0.666992 -35.333 9.66699 -65.333 27 -90c20.667 -30 49.334 -45 86.001 -45c56.667 0 92.334 29.333 107.001 88h42zM285.999 195c-1.33301 33.333 -11.667 62 -31 86s-45.333 36 -78 36c-32 0 -58.333 -12.667 -79 -38c-18.667 -22 -30 -50 -34 -84h222zM232.998 391h-34
l-88 93h52z" />
    <glyph glyph-name="eacute" unicode="&#xe9;" horiz-adv-x="344" 
d="M326 113c-18.667 -82 -68.335 -123 -149.002 -123c-51.333 0 -90.666 18 -117.999 54c-24 32 -36 74.333 -36 127c0 50 12 91.333 36 124c28 38 67.333 57 118 57c51.333 0 90.666 -20 117.999 -60c23.333 -35.333 34.333 -79.333 33 -132h-264
c0.666992 -35.333 9.66699 -65.333 27 -90c20.667 -30 49.334 -45 86.001 -45c56.667 0 92.334 29.333 107.001 88h42zM285.999 195c-1.33301 33.333 -11.667 62 -31 86s-45.333 36 -78 36c-32 0 -58.333 -12.667 -79 -38c-18.667 -22 -30 -50 -34 -84h222zM144.998 391h-34
l69 93h52z" />
    <glyph glyph-name="ecircumflex" unicode="&#xea;" horiz-adv-x="344" 
d="M326 113c-18.667 -82 -68.335 -123 -149.002 -123c-51.333 0 -90.666 18 -117.999 54c-24 32 -36 74.333 -36 127c0 50 12 91.333 36 124c28 38 67.333 57 118 57c51.333 0 90.666 -20 117.999 -60c23.333 -35.333 34.333 -79.333 33 -132h-264
c0.666992 -35.333 9.66699 -65.333 27 -90c20.667 -30 49.334 -45 86.001 -45c56.667 0 92.334 29.333 107.001 88h42zM285.999 195c-1.33301 33.333 -11.667 62 -31 86s-45.333 36 -78 36c-32 0 -58.333 -12.667 -79 -38c-18.667 -22 -30 -50 -34 -84h222zM227.998 388
l-57 67l-59 -67h-38l75 93h46l76 -93h-43z" />
    <glyph glyph-name="edieresis" unicode="&#xeb;" horiz-adv-x="344" 
d="M326 113c-18.667 -82 -68.335 -123 -149.002 -123c-51.333 0 -90.666 18 -117.999 54c-24 32 -36 74.333 -36 127c0 50 12 91.333 36 124c28 38 67.333 57 118 57c51.333 0 90.666 -20 117.999 -60c23.333 -35.333 34.333 -79.333 33 -132h-264
c0.666992 -35.333 9.66699 -65.333 27 -90c20.667 -30 49.334 -45 86.001 -45c56.667 0 92.334 29.333 107.001 88h42zM285.999 195c-1.33301 33.333 -11.667 62 -31 86s-45.333 36 -78 36c-32 0 -58.333 -12.667 -79 -38c-18.667 -22 -30 -50 -34 -84h222zM143.998 416
c0 -8.66699 -3 -16 -9 -22s-13.333 -9 -22 -9s-16 3 -22 9s-9 13.333 -9 22s3 16 9 22s13.333 9 22 9s16 -3 22 -9s9 -13.333 9 -22zM261.998 416c0 -8.66699 -3 -16 -9 -22s-13.333 -9 -22 -9s-16 3 -22 9s-9 13.333 -9 22s3 16 9 22s13.333 9 22 9s16 -3 22 -9
s9 -13.333 9 -22z" />
    <glyph glyph-name="igrave" unicode="&#xec;" horiz-adv-x="123" 
d="M122 391h-34l-88 93h52zM82 0h-42v342h42v-342z" />
    <glyph glyph-name="iacute" unicode="&#xed;" horiz-adv-x="123" 
d="M38 388h-34l69 93h52zM82 0h-42v342h42v-342z" />
    <glyph glyph-name="icircumflex" unicode="&#xee;" horiz-adv-x="123" 
d="M117 388l-57 67l-59 -67h-38l75 93h46l76 -93h-43zM82 0h-42v342h42v-342z" />
    <glyph glyph-name="idieresis" unicode="&#xef;" horiz-adv-x="123" 
d="M34 416c0 -8.66699 -3 -16 -9 -22s-13.333 -9 -22 -9s-16 3 -22 9s-9 13.333 -9 22s3 16 9 22s13.333 9 22 9s16 -3 22 -9s9 -13.333 9 -22zM152 416c0 -8.66699 -3 -16 -9 -22s-13.333 -9 -22 -9s-16 3 -22 9s-9 13.333 -9 22s3 16 9 22s13.333 9 22 9s16 -3 22 -9
s9 -13.333 9 -22zM82 0h-42v342h42v-342z" />
    <glyph glyph-name="eth" unicode="&#xf0;" horiz-adv-x="369" 
d="M300 166c0 16.667 -2.1709 32.999 -6.50391 48.999s-11.166 30.333 -20.499 43s-21.5 22.834 -36.5 30.501s-32.833 11.5 -53.5 11.5c-21.333 0 -39.666 -3.66699 -54.999 -11s-27.666 -17.166 -36.999 -29.499s-16.166 -26.833 -20.499 -43.5s-6.5 -34 -6.5 -52
s2.33301 -35.333 7 -52s11.667 -31.5 21 -44.5s21.5 -23.333 36.5 -31s32.833 -11.5 53.5 -11.5c39.333 0 68.833 13.167 88.5 39.5s29.5 60.166 29.5 101.499zM341.996 170.999c0 -24.667 -3.33496 -48.002 -10.002 -70.002s-16.667 -41.167 -30 -57.5
s-30.166 -29.333 -50.499 -39s-44.166 -14.5 -71.499 -14.5c-26.667 0 -49.834 4.5 -69.501 13.5s-36 21.333 -49 37s-22.667 34.167 -29 55.5s-9.5 44.333 -9.5 69c0 22.667 3.5 44.334 10.5 65.001s17.167 38.834 30.5 54.501s29.666 28 48.999 37
s41.666 13.5 66.999 13.5c16 0 32.333 -1.66699 49 -5s29.667 -10.333 39 -21h1c-11.333 20.667 -24.333 39.5 -39 56.5s-31 32.833 -49 47.5l-70 -39l-21 21l66 37c-10 7.33301 -20.167 14 -30.5 20s-20.833 11.667 -31.5 17l24 23c11.333 -6 22.833 -12.5 34.5 -19.5
s23.167 -14.5 34.5 -22.5l76 42l21 -21l-72 -41c18.667 -15.333 35.834 -32 51.501 -50s29.334 -37.667 41.001 -59s20.834 -44.5 27.501 -69.5s10 -51.833 10 -80.5z" />
    <glyph glyph-name="ntilde" unicode="&#xf1;" horiz-adv-x="356" 
d="M317 0l-42.001 -0.00195312v213c0 69.333 -29 104 -87 104c-32.667 0 -58.667 -11 -78 -33s-29 -50 -29 -84v-200h-42v342h42v-59h1c7.33301 20.667 21.333 37.334 42 50.001s43.334 19 68.001 19c46 0 79 -11.667 99 -35c17.333 -21.333 26 -53.666 26 -96.999v-220z
M281.999 450.998c-8 -42 -27.332 -63 -57.999 -63c-8.66699 0 -17.167 1.66699 -25.5 5s-16.166 6.66602 -23.499 9.99902c-8 3.33301 -15.333 6.83301 -22 10.5s-12.667 5.5 -18 5.5c-10 0 -18.333 -2.83301 -25 -8.5s-10 -14.167 -10 -25.5h-26c0 42.667 19.667 64 59 64
c9.33301 0 18.166 -1.66699 26.499 -5s16.166 -6.66602 23.499 -9.99902l20.5 -9.5c6.33301 -3 12.5 -4.5 18.5 -4.5c10.667 0 18.5 3 23.5 9s8.16699 13.333 9.5 22h27z" />
    <glyph glyph-name="ograve" unicode="&#xf2;" horiz-adv-x="369" 
d="M346 171c0 -51.333 -14 -93.666 -42 -126.999c-29.333 -36 -69.333 -54 -120 -54c-50 0 -89.667 18 -119 54c-28 33.333 -42 75.666 -42 126.999s14 93.666 42 126.999c29.333 36 69 54 119 54c50.667 0 90.667 -18 120 -54c28 -33.333 42 -75.666 42 -126.999zM304 171
c0 40 -10 73.3311 -30 99.998c-22 30.667 -52 46 -90 46s-68 -15.333 -90 -46c-20 -27.333 -30 -60.666 -30 -99.999s10 -72.666 30 -99.999c22 -30.667 52 -46 90 -46s68 15.333 90 46c20 26.667 30 60 30 100zM245 390.998h-34l-88 93h52z" />
    <glyph glyph-name="oacute" unicode="&#xf3;" horiz-adv-x="369" 
d="M346 171c0 -51.333 -14 -93.666 -42 -126.999c-29.333 -36 -69.333 -54 -120 -54c-50 0 -89.667 18 -119 54c-28 33.333 -42 75.666 -42 126.999s14 93.666 42 126.999c29.333 36 69 54 119 54c50.667 0 90.667 -18 120 -54c28 -33.333 42 -75.666 42 -126.999zM304 171
c0 40 -10 73.3311 -30 99.998c-22 30.667 -52 46 -90 46s-68 -15.333 -90 -46c-20 -27.333 -30 -60.666 -30 -99.999s10 -72.666 30 -99.999c22 -30.667 52 -46 90 -46s68 15.333 90 46c20 26.667 30 60 30 100zM157 390.998h-34l69 93h52z" />
    <glyph glyph-name="ocircumflex" unicode="&#xf4;" horiz-adv-x="369" 
d="M346 171c0 -51.333 -14 -93.666 -42 -126.999c-29.333 -36 -69.333 -54 -120 -54c-50 0 -89.667 18 -119 54c-28 33.333 -42 75.666 -42 126.999s14 93.666 42 126.999c29.333 36 69 54 119 54c50.667 0 90.667 -18 120 -54c28 -33.333 42 -75.666 42 -126.999zM304 171
c0 40 -10 73.3311 -30 99.998c-22 30.667 -52 46 -90 46s-68 -15.333 -90 -46c-20 -27.333 -30 -60.666 -30 -99.999s10 -72.666 30 -99.999c22 -30.667 52 -46 90 -46s68 15.333 90 46c20 26.667 30 60 30 100zM240 387.998l-57 67l-59 -67h-38l75 93h46l76 -93h-43z" />
    <glyph glyph-name="otilde" unicode="&#xf5;" horiz-adv-x="369" 
d="M346 171c0 -51.333 -14 -93.666 -42 -126.999c-29.333 -36 -69.333 -54 -120 -54c-50 0 -89.667 18 -119 54c-28 33.333 -42 75.666 -42 126.999s14 93.666 42 126.999c29.333 36 69 54 119 54c50.667 0 90.667 -18 120 -54c28 -33.333 42 -75.666 42 -126.999zM304 171
c0 40 -10 73.3311 -30 99.998c-22 30.667 -52 46 -90 46s-68 -15.333 -90 -46c-20 -27.333 -30 -60.666 -30 -99.999s10 -72.666 30 -99.999c22 -30.667 52 -46 90 -46s68 15.333 90 46c20 26.667 30 60 30 100zM288 450.998c-8 -42 -27.332 -63 -57.999 -63
c-8.66699 0 -17.167 1.66699 -25.5 5s-16.166 6.66602 -23.499 9.99902c-8 3.33301 -15.333 6.83301 -22 10.5s-12.667 5.5 -18 5.5c-10 0 -18.333 -2.83301 -25 -8.5s-10 -14.167 -10 -25.5h-26c0 42.667 19.667 64 59 64c9.33301 0 18.166 -1.66699 26.499 -5
s16.166 -6.66602 23.499 -9.99902l20.5 -9.5c6.33301 -3 12.5 -4.5 18.5 -4.5c10.667 0 18.5 3 23.5 9s8.16699 13.333 9.5 22h27z" />
    <glyph glyph-name="odieresis" unicode="&#xf6;" horiz-adv-x="369" 
d="M346 171c0 -51.333 -14 -93.666 -42 -126.999c-29.333 -36 -69.333 -54 -120 -54c-50 0 -89.667 18 -119 54c-28 33.333 -42 75.666 -42 126.999s14 93.666 42 126.999c29.333 36 69 54 119 54c50.667 0 90.667 -18 120 -54c28 -33.333 42 -75.666 42 -126.999zM304 171
c0 40 -10 73.3311 -30 99.998c-22 30.667 -52 46 -90 46s-68 -15.333 -90 -46c-20 -27.333 -30 -60.666 -30 -99.999s10 -72.666 30 -99.999c22 -30.667 52 -46 90 -46s68 15.333 90 46c20 26.667 30 60 30 100zM156 415.998c0 -8.66699 -3 -16 -9 -22s-13.333 -9 -22 -9
s-16 3 -22 9s-9 13.333 -9 22s3 16 9 22s13.333 9 22 9s16 -3 22 -9s9 -13.333 9 -22zM274 415.998c0 -8.66699 -3 -16 -9 -22s-13.333 -9 -22 -9s-16 3 -22 9s-9 13.333 -9 22s3 16 9 22s13.333 9 22 9s16 -3 22 -9s9 -13.333 9 -22z" />
    <glyph glyph-name="divide" unicode="&#xf7;" horiz-adv-x="398" 
d="M366 149h-334v35h334v-35zM236 300c0 -9.33301 -3.66797 -17.833 -11.001 -25.5s-15.666 -11.5 -24.999 -11.5c-10.667 0 -19.667 3.66699 -27 11s-11 16 -11 26c0 10.667 3.66699 19.5 11 26.5s16 10.5 26 10.5s18.667 -3.66699 26 -11s11 -16 11 -26zM235.999 33
c0 -9.33301 -3.66797 -17.833 -11.001 -25.5s-15.666 -11.5 -24.999 -11.5c-10.667 0 -19.667 3.66699 -27 11s-11 16 -11 26c0 10.667 3.66699 19.5 11 26.5s16 10.5 26 10.5s18.667 -3.66699 26 -11s11 -16 11 -26z" />
    <glyph glyph-name="oslash" unicode="&#xf8;" horiz-adv-x="369" 
d="M269 277c-9.33301 12 -21.167 21.668 -35.5 29.001s-30.833 11 -49.5 11c-20 0 -37.5 -4.16699 -52.5 -12.5s-27.5 -19.333 -37.5 -33s-17.5 -29.334 -22.5 -47.001s-7.5 -35.5 -7.5 -53.5c0 -33.333 8 -63 24 -89zM303.999 171.001c0 16 -1.83301 31.498 -5.5 46.498
s-9.5 29.167 -17.5 42.5l-181 -196c9.33301 -11.333 21 -20.666 35 -27.999s30.333 -11 49 -11c20 0 37.5 4.16699 52.5 12.5s27.5 19.333 37.5 33s17.5 29.334 22.5 47.001s7.5 35.5 7.5 53.5zM345.999 170.999c0 -24.667 -3.5 -48.001 -10.5 -70.001
s-17.333 -41.167 -31 -57.5s-30.667 -29.333 -51 -39s-43.5 -14.5 -69.5 -14.5c-23.333 0 -44.333 4 -63 12s-34.667 19 -48 33l-39 -42l-15 13l41 44c-12.667 16 -22 34.333 -28 55s-9 42.667 -9 66c0 24.667 3.5 47.834 10.5 69.501s17.333 40.834 31 57.501
s30.5 29.834 50.5 39.501s43 14.5 69 14.5c24 0 45.5 -4 64.5 -12s35.167 -19 48.5 -33l34 37l15 -13l-36 -39c12 -16.667 21 -35.334 27 -56.001s9 -42.334 9 -65.001z" />
    <glyph glyph-name="ugrave" unicode="&#xf9;" horiz-adv-x="356" 
d="M317 0h-39v62h-1c-22.667 -48 -62 -72 -118 -72c-80 0 -120 43.333 -120 130v222h42v-223c0 -62.667 30.333 -94 91 -94c34 0 60.333 14.333 79 43c16 24.667 24 56 24 94v180h42v-342zM239 391h-34l-88 93h52z" />
    <glyph glyph-name="uacute" unicode="&#xfa;" horiz-adv-x="356" 
d="M317 0h-39v62h-1c-22.667 -48 -62 -72 -118 -72c-80 0 -120 43.333 -120 130v222h42v-223c0 -62.667 30.333 -94 91 -94c34 0 60.333 14.333 79 43c16 24.667 24 56 24 94v180h42v-342zM151 391h-34l69 93h52z" />
    <glyph glyph-name="ucircumflex" unicode="&#xfb;" horiz-adv-x="356" 
d="M317 0h-39v62h-1c-22.667 -48 -62 -72 -118 -72c-80 0 -120 43.333 -120 130v222h42v-223c0 -62.667 30.333 -94 91 -94c34 0 60.333 14.333 79 43c16 24.667 24 56 24 94v180h42v-342zM234 388l-57 67l-59 -67h-38l75 93h46l76 -93h-43z" />
    <glyph glyph-name="udieresis" unicode="&#xfc;" horiz-adv-x="356" 
d="M317 0h-39v62h-1c-22.667 -48 -62 -72 -118 -72c-80 0 -120 43.333 -120 130v222h42v-223c0 -62.667 30.333 -94 91 -94c34 0 60.333 14.333 79 43c16 24.667 24 56 24 94v180h42v-342zM150 416c0 -8.66699 -3 -16 -9 -22s-13.333 -9 -22 -9s-16 3 -22 9s-9 13.333 -9 22
s3 16 9 22s13.333 9 22 9s16 -3 22 -9s9 -13.333 9 -22zM268 416c0 -8.66699 -3 -16 -9 -22s-13.333 -9 -22 -9s-16 3 -22 9s-9 13.333 -9 22s3 16 9 22s13.333 9 22 9s16 -3 22 -9s9 -13.333 9 -22z" />
    <glyph glyph-name="yacute" unicode="&#xfd;" horiz-adv-x="307" 
d="M157 -52c-11.333 -30 -22.833 -50.168 -34.5 -60.501s-30.167 -15.166 -55.5 -14.499c-15.333 0 -26 1.33301 -32 4v35c10 -2 19.667 -3 29 -3c16.667 0 29.667 4.66699 39 14c6 6.66699 12.667 19.667 20 39l15 39l-137 341h45l112 -292l106 292h42zM146 390.999h-34
l69 93h52z" />
    <glyph glyph-name="thorn" unicode="&#xfe;" horiz-adv-x="381" 
d="M355 171c0 -24 -3.16699 -47 -9.5 -69s-15.666 -41.333 -27.999 -58s-28.166 -29.834 -47.499 -39.501s-42 -14.5 -68 -14.5c-25.333 0 -49.166 6.33301 -71.499 19s-38.166 31.334 -47.499 56.001h-1v-192h-42v600h42v-196h1
c9.33301 24.667 25.166 43.334 47.499 56.001s46.166 19 71.499 19c26 0 48.667 -4.83301 68 -14.5s35.166 -22.834 47.499 -39.501s21.666 -36 27.999 -58s9.5 -45 9.5 -69zM314 171c0 18 -2.16699 35.667 -6.5 53s-11 32.833 -20 46.5s-20.5 24.834 -34.5 33.501
s-31 13 -51 13c-22 0 -40.667 -4.33301 -56 -13s-27.833 -19.834 -37.5 -33.501s-16.5 -29.167 -20.5 -46.5s-6 -35 -6 -53s2 -35.667 6 -53s10.833 -32.833 20.5 -46.5s22.167 -24.834 37.5 -33.501s34 -13 56 -13c20 0 37 4.33301 51 13s25.5 19.834 34.5 33.501
s15.667 29.167 20 46.5s6.5 35 6.5 53z" />
    <glyph glyph-name="ydieresis" unicode="&#xff;" horiz-adv-x="307" 
d="M157 -52c-11.333 -30 -22.833 -50.168 -34.5 -60.501s-30.167 -15.166 -55.5 -14.499c-15.333 0 -26 1.33301 -32 4v35c10 -2 19.667 -3 29 -3c16.667 0 29.667 4.66699 39 14c6 6.66699 12.667 19.667 20 39l15 39l-137 341h45l112 -292l106 292h42zM125 415.999
c0 -8.66699 -3 -16 -9 -22s-13.333 -9 -22 -9s-16 3 -22 9s-9 13.333 -9 22s3 16 9 22s13.333 9 22 9s16 -3 22 -9s9 -13.333 9 -22zM243 415.999c0 -8.66699 -3 -16 -9 -22s-13.333 -9 -22 -9s-16 3 -22 9s-9 13.333 -9 22s3 16 9 22s13.333 9 22 9s16 -3 22 -9
s9 -13.333 9 -22z" />
    <glyph glyph-name="Abreve" unicode="&#x102;" horiz-adv-x="418" 
d="M422 0h-48l-58 147h-215l-57 -147h-49l191 473h51zM301 186l-91 242l-95 -242h186zM304 602c-3.33301 -26 -13.501 -46.667 -30.501 -62s-38.833 -23 -65.5 -23s-48.5 7.33301 -65.5 22s-26.5 35.667 -28.5 63h26c1.33301 -18 8.83301 -31.667 22.5 -41
s28.834 -14 45.501 -14s32 4.83301 46 14.5s22.333 23.167 25 40.5h25z" />
    <glyph glyph-name="abreve" unicode="&#x103;" horiz-adv-x="344" 
d="M259 187l-2 -0.000976562c-3.33301 -6 -15 -11 -35 -15c-35.333 -6.66699 -70.666 -13 -105.999 -19c-35.333 -11.333 -53 -31.333 -53 -60c0 -20 7.5 -36.333 22.5 -49s32.833 -19 53.5 -19c33.333 0 61.666 9.83301 84.999 29.5s35 45.834 35 78.501v54zM338 2.99902
c-8.66699 -2 -17.667 -3 -27 -3c-32.667 0 -49 20 -49 60h-1c-16.667 -24.667 -33 -42 -49 -52c-19.333 -12 -44.666 -18 -75.999 -18c-33.333 0 -60.333 8 -81 24c-22.667 18 -34 43.333 -34 76c0 42 19.333 71 58 87c19.333 8 61.333 15.667 126 23
c19.333 2 33.166 6 41.499 12s12.5 17.667 12.5 35c0 46.667 -30 70 -90 70s-90.333 -26.667 -91 -80h-42c4 76.667 50 115 138 115c84 0 126 -36.667 126 -110v-182c0 -16.667 8.33301 -25 25 -25c6 0 10.333 1 13 3v-35zM267 470.999
c-3.33301 -26 -13.501 -46.667 -30.501 -62s-38.833 -23 -65.5 -23s-48.5 7.33301 -65.5 22s-26.5 35.667 -28.5 63h26c1.33301 -18 8.83301 -31.667 22.5 -41s28.834 -14 45.501 -14s32 4.83301 46 14.5s22.333 23.167 25 40.5h25z" />
    <glyph glyph-name="Cacute" unicode="&#x106;" horiz-adv-x="467" 
d="M446 180c-6.66699 -58.667 -27.499 -104.999 -62.499 -138.999s-79.833 -51 -134.5 -51c-71.333 0 -127.333 25 -168 75c-37.333 45.333 -56 102.666 -56 171.999c0 68.667 18.667 125.667 56 171c40.667 50 96.667 75 168 75c47.333 0 88.666 -13 123.999 -39
c38 -28 60 -66 66 -114h-45c-8 36 -25.333 64.167 -52 84.5s-57.667 30.5 -93 30.5c-58.667 0 -104.334 -21.667 -137.001 -65c-28 -38 -42 -85.667 -42 -143s14 -105 42 -143c32.667 -43.333 78.334 -65 137.001 -65c42 0 76.667 14.333 104 43s43 64.667 47 108h46z
M206.001 522.001h-34l69 93h52z" />
    <glyph glyph-name="cacute" unicode="&#x107;" horiz-adv-x="344" 
d="M326 123c-6 -41.333 -21.5 -73.833 -46.5 -97.5s-56.833 -35.5 -95.5 -35.5c-50 0 -89.667 18 -119 54c-28 33.333 -42 75.666 -42 126.999s14 93.666 42 126.999c29.333 36 69 54 119 54c38 0 69.5 -10 94.5 -30s39.833 -49 44.5 -87h-42c-12 54.667 -44.333 82 -97 82
c-38 0 -68 -15.333 -90 -46c-20 -27.333 -30 -60.666 -30 -99.999s10 -72.666 30 -99.999c22 -30.667 52 -46 90 -46c26 0 48.5 9.16699 67.5 27.5s29.833 41.833 32.5 70.5h42zM145 391h-34l69 93h52z" />
    <glyph glyph-name="Ccaron" unicode="&#x10c;" horiz-adv-x="467" 
d="M446 180c-6.66699 -58.667 -27.499 -104.999 -62.499 -138.999s-79.833 -51 -134.5 -51c-71.333 0 -127.333 25 -168 75c-37.333 45.333 -56 102.666 -56 171.999c0 68.667 18.667 125.667 56 171c40.667 50 96.667 75 168 75c47.333 0 88.666 -13 123.999 -39
c38 -28 60 -66 66 -114h-45c-8 36 -25.333 64.167 -52 84.5s-57.667 30.5 -93 30.5c-58.667 0 -104.334 -21.667 -137.001 -65c-28 -38 -42 -85.667 -42 -143s14 -105 42 -143c32.667 -43.333 78.334 -65 137.001 -65c42 0 76.667 14.333 104 43s43 64.667 47 108h46z
M256.001 524.001h-46l-75 93h43l57 -67l58 67h39z" />
    <glyph glyph-name="ccaron" unicode="&#x10d;" horiz-adv-x="344" 
d="M326 123c-6 -41.333 -21.5 -73.833 -46.5 -97.5s-56.833 -35.5 -95.5 -35.5c-50 0 -89.667 18 -119 54c-28 33.333 -42 75.666 -42 126.999s14 93.666 42 126.999c29.333 36 69 54 119 54c38 0 69.5 -10 94.5 -30s39.833 -49 44.5 -87h-42c-12 54.667 -44.333 82 -97 82
c-38 0 -68 -15.333 -90 -46c-20 -27.333 -30 -60.666 -30 -99.999s10 -72.666 30 -99.999c22 -30.667 52 -46 90 -46c26 0 48.5 9.16699 67.5 27.5s29.833 41.833 32.5 70.5h42zM195 390h-46l-75 93h43l57 -67l58 67h39z" />
    <glyph glyph-name="Dcroat" unicode="&#x110;" horiz-adv-x="454" 
d="M429 237c0 -158 -72.667 -237 -218 -237h-163v218h-34v39h34v216h163c145.333 0 218 -78.667 218 -236zM312 218h-219v-180h96c68.667 0 118.334 15.5 149.001 46.5s46 81.833 46 152.5c0 70 -15.333 120.5 -46 151.5s-80.334 46.5 -149.001 46.5h-96v-178h219v-39z" />
    <glyph glyph-name="dcroat" unicode="&#x111;" horiz-adv-x="381" 
d="M341 0l-38.999 -0.000976562v65h-1c-8.66699 -21.333 -24.834 -39.166 -48.501 -53.499s-48.167 -21.5 -73.5 -21.5c-49.333 0 -88 18 -116 54c-25.333 32.667 -38 75 -38 127s12.667 94.333 38 127c28 36 66.667 54 116 54c26.667 0 51 -6.5 73 -19.5
s37.333 -31.5 46 -55.5h1v126h-97v32h97v38h42v-38h37v-32h-37v-403zM299.001 170.999c0 40.667 -9 74 -27 100c-20.667 30.667 -51.667 46 -93 46c-37.333 0 -66 -15.333 -86 -46c-17.333 -26.667 -26 -60 -26 -100s8.66699 -73.333 26 -100c20 -30.667 48.667 -46 86 -46
c41.333 0 72.333 15.333 93 46c18 26 27 59.333 27 100z" />
    <glyph glyph-name="Gbreve" unicode="&#x11e;" horiz-adv-x="491" 
d="M452 0l-32 0.000976562l-6 86h-2c-29.333 -64 -83.666 -96 -162.999 -96c-71.333 0 -127.333 25 -168 75c-37.333 45.333 -56 102.666 -56 171.999c0 68.667 18.667 125.667 56 171c40.667 50 96.667 75 168 75c51.333 0 94.333 -13 129 -39
c37.333 -28 60 -67.333 68 -118h-45c-3.33301 30 -18 56.667 -44 80c-30 26 -66 39 -108 39c-58.667 0 -104.334 -21.667 -137.001 -65c-28 -38 -42 -85.667 -42 -143s14 -105 42 -143c32.667 -43.333 78.334 -65 137.001 -65c51.333 0 91.666 16.167 120.999 48.5
s43.333 73.833 42 124.5h-161v39h201v-241zM340 605.001c-3.33301 -26 -13.501 -46.667 -30.501 -62s-38.833 -23 -65.5 -23s-48.5 7.33301 -65.5 22s-26.5 35.667 -28.5 63h26c1.33301 -18 8.83301 -31.667 22.5 -41s28.834 -14 45.501 -14s32 4.83301 46 14.5
s22.333 23.167 25 40.5h25z" />
    <glyph glyph-name="gbreve" unicode="&#x11f;" horiz-adv-x="369" 
d="M287 175c0 38 -8.33301 70 -25 96c-20 30.667 -48.333 46 -85 46c-37.333 0 -66 -14.667 -86 -44c-18 -26 -27 -58.667 -27 -98c0 -37.333 9.33301 -68.666 28 -93.999c20.667 -28 49 -42 85 -42c34 0 61.333 14 82 42c18.667 25.333 28 56.666 28 93.999zM329 28
c0 -110 -50.6689 -165 -152.002 -165c-37.333 0 -68.666 8.33301 -93.999 25c-29.333 18.667 -45.333 45 -48 79h42c8 -45.333 41.333 -68 100 -68c73.333 0 110 43 110 129v46h-1c-21.333 -46.667 -57.666 -70 -108.999 -70c-52 0 -91.333 17 -118 51
c-24 30.667 -36 72.334 -36 125.001c0 49.333 13.333 89.666 40 120.999c28 34 66 51 114 51c24 0 46 -6.5 66 -19.5s34.333 -29.5 43 -49.5h1v59h42v-314zM270.998 470c-3.33301 -26 -13.501 -46.667 -30.501 -62s-38.833 -23 -65.5 -23s-48.5 7.33301 -65.5 22
s-26.5 35.667 -28.5 63h26c1.33301 -18 8.83301 -31.667 22.5 -41s28.834 -14 45.501 -14s32 4.83301 46 14.5s22.333 23.167 25 40.5h25z" />
    <glyph glyph-name="Itilde" unicode="&#x128;" horiz-adv-x="147" 
d="M96 0h-45v473h45v-473zM177 582c-8 -42 -27.332 -63 -57.999 -63c-8.66699 0 -17.167 1.66699 -25.5 5s-16.166 6.66602 -23.499 9.99902c-8 3.33301 -15.333 6.83301 -22 10.5s-12.667 5.5 -18 5.5c-10 0 -18.333 -2.83301 -25 -8.5s-10 -14.167 -10 -25.5h-26
c0 42.667 19.667 64 59 64c9.33301 0 18.166 -1.66699 26.499 -5s16.166 -6.66602 23.499 -9.99902l20.5 -9.5c6.33301 -3 12.5 -4.5 18.5 -4.5c10.667 0 18.5 3 23.5 9s8.16699 13.333 9.5 22h27z" />
    <glyph glyph-name="itilde" unicode="&#x129;" horiz-adv-x="147" 
d="M98 0h-42v342h42v-342zM177 451c-8 -42 -27.332 -63 -57.999 -63c-8.66699 0 -17.167 1.66699 -25.5 5s-16.166 6.66602 -23.499 9.99902c-8 3.33301 -15.333 6.83301 -22 10.5s-12.667 5.5 -18 5.5c-10 0 -18.333 -2.83301 -25 -8.5s-10 -14.167 -10 -25.5h-26
c0 42.667 19.667 64 59 64c9.33301 0 18.166 -1.66699 26.499 -5s16.166 -6.66602 23.499 -9.99902l20.5 -9.5c6.33301 -3 12.5 -4.5 18.5 -4.5c10.667 0 18.5 3 23.5 9s8.16699 13.333 9.5 22h27z" />
    <glyph glyph-name="Idotaccent" unicode="&#x130;" horiz-adv-x="147" 
d="M96 0h-45v473h45v-473zM114 553c0 -10.667 -3.5 -19.834 -10.5 -27.501s-16.167 -11.5 -27.5 -11.5c-10 0 -18.667 3.83301 -26 11.5s-11 16.834 -11 27.501s3.66699 19.667 11 27s16 11 26 11c10.667 0 19.667 -3.66699 27 -11s11 -16.333 11 -27z" />
    <glyph glyph-name="dotlessi" unicode="&#x131;" horiz-adv-x="123" 
d="M82 0h-42v342h42v-342z" />
    <glyph glyph-name="Lslash" unicode="&#x141;" horiz-adv-x="356" 
d="M358 0h-310v166l-55 -37v37l55 37v270h45v-239l161 111v-37l-161 -110v-160h265v-38z" />
    <glyph glyph-name="lslash" unicode="&#x142;" horiz-adv-x="123" 
d="M82 0h-42v225l-44 -36v36l44 37v211h42v-177l45 37v-37l-45 -36v-260z" />
    <glyph glyph-name="OE" unicode="&#x152;" horiz-adv-x="712" 
d="M377 337c0 11.333 -0.168945 20.167 -0.501953 26.5s-1.16602 12.166 -2.49902 17.499c-4 10 -10.5 19 -19.5 27s-19.5 14.833 -31.5 20.5s-24.5 9.83398 -37.5 12.501s-25.167 4 -36.5 4c-29.333 0 -55 -5.66699 -77 -17s-40.667 -26.5 -56 -45.5s-26.833 -41 -34.5 -66
s-11.5 -51.5 -11.5 -79.5s3.83301 -54.667 11.5 -80s19.167 -47.5 34.5 -66.5s34 -34 56 -45s47.667 -16.5 77 -16.5c24 0 45.5 3.83301 64.5 11.5s36.167 21.167 51.5 40.5c4.66699 5.33301 7.83398 11 9.50098 17s2.5 12.333 2.5 19v220zM376.998 0.000976562v46
c-15.333 -18.667 -34.833 -32.667 -58.5 -42s-46.834 -14 -69.501 -14c-35.333 0 -67 6.66699 -95 20s-51.5 31.333 -70.5 54s-33.5 48.834 -43.5 78.501s-15 61.167 -15 94.5c0 32.667 5 64 15 94s24.5 56.167 43.5 78.5s42.5 40.166 70.5 53.499s59.667 20 95 20
c24.667 0 48.334 -3.83301 71.001 -11.5s41.667 -20.167 57 -37.5v39h315v-38h-270v-171h244v-39h-244v-187h271v-38h-316z" />
    <glyph glyph-name="oe" unicode="&#x153;" horiz-adv-x="589" 
d="M175 25c21.333 0 38.498 4.49902 51.498 13.499s23.167 20.667 30.5 35s12.333 30.333 15 48s4 35.167 4 52.5s-1.33301 34.5 -4 51.5s-7.66699 32.333 -15 46s-17.5 24.667 -30.5 33s-29.833 12.5 -50.5 12.5c-22 0 -40 -4.66699 -54 -14s-25.167 -21.333 -33.5 -36
s-14.166 -31.167 -17.499 -49.5s-5 -36.5 -5 -54.5c0 -17.333 2 -34.166 6 -50.499s10.333 -31 19 -44s19.834 -23.5 33.501 -31.5s30.5 -12 50.5 -12zM571.998 109.999c-9.33301 -38 -26.999 -67.498 -52.999 -88.498s-59 -31.5 -99 -31.5c-28 0 -53.5 7.5 -76.5 22.5
s-38.167 36.5 -45.5 64.5h-1c-8.66699 -29.333 -23.834 -51.166 -45.501 -65.499s-47.5 -21.5 -77.5 -21.5c-26.667 0 -49.5 5 -68.5 15s-34.5 23.167 -46.5 39.5s-20.833 35.5 -26.5 57.5s-8.5 45 -8.5 69s3 46.833 9 68.5s15.333 40.834 28 57.501s28.5 30 47.5 40
s41.5 15 67.5 15c30 0 55.5 -6.83301 76.5 -20.5s36.167 -34.834 45.5 -63.501h2c9.33301 25.333 25 45.666 47 60.999s48.333 23 79 23c50 0 86.833 -16.333 110.5 -49s35.5 -80.334 35.5 -143.001h-254c0 -16.667 2 -33.167 6 -49.5s10.333 -30.833 19 -43.5
s19.667 -22.834 33 -30.501s29.333 -11.5 48 -11.5c29.333 0 52.333 7.5 69 22.5s29 35.833 37 62.5h42zM529.999 195.001c0 16 -2.33398 31.333 -7.00098 46s-11.5 27.667 -20.5 39s-20 20.333 -33 27s-28.167 10 -45.5 10s-32.666 -3.33301 -45.999 -10
s-24.5 -15.5 -33.5 -26.5s-15.667 -24 -20 -39s-6.5 -30.5 -6.5 -46.5h212z" />
    <glyph glyph-name="Scedilla" unicode="&#x15e;" horiz-adv-x="418" 
d="M394 125c0 -30.667 -9 -56.999 -27 -78.999c-30.667 -37.333 -82 -56 -154 -56c-59.333 0 -105.333 13.333 -138 40c-36.667 28.667 -53.667 70.667 -51 126h45c-2 -84.667 49.333 -127 154 -127c30 0 57.333 7.33301 82 22c29.333 18 44 42.667 44 74
c0 40.667 -32.667 69 -98 85l-105 26c-71.333 17.333 -107 55.333 -107 114c0 32 10.667 60 32 84c28.667 32.667 72.334 49 131.001 49c50 0 91 -12.333 123 -37c35.333 -26.667 52.666 -63.334 51.999 -110.001h-45c-0.666992 34.667 -14 62 -40 82
c-24 18 -53.667 27 -89 27c-79.333 0 -119 -31.333 -119 -94c0 -36.667 24 -61 72 -73l115 -28c82 -20 123 -61.667 123 -125zM277 -79.999c0 -10 -2.16602 -18.6689 -6.49902 -26.002s-10 -13.166 -17 -17.499s-14.833 -7.66602 -23.5 -9.99902s-17.334 -3.5 -26.001 -3.5
c-21.333 0 -42 4.66699 -62 14l9 22c6 -2.66699 13.833 -5 23.5 -7s19.5 -3 29.5 -3c9.33301 0 17.5 2.33301 24.5 7s10.5 12 10.5 22c0 8 -2.83301 14.167 -8.5 18.5s-12.5 6.5 -20.5 6.5c-16 0 -27.333 -1.66699 -34 -5l-10 10l40 52h24l-30 -38
c8 1.33301 16.5 1.83301 25.5 1.5s17.333 -2 25 -5s14 -7.5 19 -13.5s7.5 -14.333 7.5 -25z" />
    <glyph glyph-name="scedilla" unicode="&#x15f;" horiz-adv-x="319" 
d="M298 93c0 -34 -14.668 -60.333 -44.001 -79c-25.333 -16 -56.333 -24 -93 -24c-87.333 0 -134 40.333 -140 121h41c4 -57.333 37.667 -86 101 -86c23.333 0 44 5 62 15c21.333 11.333 32 28 32 50c0 30 -25 50.667 -75 62l-54 12c-64 14 -96 44.667 -96 92
c0 32 14 56.667 42 74c23.333 14.667 52.333 22 87 22c36 0 65 -9 87 -27c24.667 -20 37.334 -47.667 38.001 -83h-41c-2 50 -32 75 -90 75c-21.333 0 -39.333 -4.33301 -54 -13c-18 -10.667 -27 -26 -27 -46c0 -28.667 23.667 -48 71 -58l56 -12
c64.667 -14 97 -45.667 97 -95zM226.999 -80c0 -10 -2.16602 -18.6689 -6.49902 -26.002s-10 -13.166 -17 -17.499s-14.833 -7.66602 -23.5 -9.99902s-17.334 -3.5 -26.001 -3.5c-21.333 0 -42 4.66699 -62 14l9 22c6 -2.66699 13.833 -5 23.5 -7s19.5 -3 29.5 -3
c9.33301 0 17.5 2.33301 24.5 7s10.5 12 10.5 22c0 8 -2.83301 14.167 -8.5 18.5s-12.5 6.5 -20.5 6.5c-16 0 -27.333 -1.66699 -34 -5l-10 10l40 52h24l-30 -38c8 1.33301 16.5 1.83301 25.5 1.5s17.333 -2 25 -5s14 -7.5 19 -13.5s7.5 -14.333 7.5 -25z" />
    <glyph glyph-name="Scaron" unicode="&#x160;" horiz-adv-x="418" 
d="M394 125c0 -30.667 -9 -56.999 -27 -78.999c-30.667 -37.333 -82 -56 -154 -56c-59.333 0 -105.333 13.333 -138 40c-36.667 28.667 -53.667 70.667 -51 126h45c-2 -84.667 49.333 -127 154 -127c30 0 57.333 7.33301 82 22c29.333 18 44 42.667 44 74
c0 40.667 -32.667 69 -98 85l-105 26c-71.333 17.333 -107 55.333 -107 114c0 32 10.667 60 32 84c28.667 32.667 72.334 49 131.001 49c50 0 91 -12.333 123 -37c35.333 -26.667 52.666 -63.334 51.999 -110.001h-45c-0.666992 34.667 -14 62 -40 82
c-24 18 -53.667 27 -89 27c-79.333 0 -119 -31.333 -119 -94c0 -36.667 24 -61 72 -73l115 -28c82 -20 123 -61.667 123 -125zM232 524.001h-46l-75 93h43l57 -67l58 67h39z" />
    <glyph glyph-name="scaron" unicode="&#x161;" horiz-adv-x="319" 
d="M298 93c0 -34 -14.668 -60.333 -44.001 -79c-25.333 -16 -56.333 -24 -93 -24c-87.333 0 -134 40.333 -140 121h41c4 -57.333 37.667 -86 101 -86c23.333 0 44 5 62 15c21.333 11.333 32 28 32 50c0 30 -25 50.667 -75 62l-54 12c-64 14 -96 44.667 -96 92
c0 32 14 56.667 42 74c23.333 14.667 52.333 22 87 22c36 0 65 -9 87 -27c24.667 -20 37.334 -47.667 38.001 -83h-41c-2 50 -32 75 -90 75c-21.333 0 -39.333 -4.33301 -54 -13c-18 -10.667 -27 -26 -27 -46c0 -28.667 23.667 -48 71 -58l56 -12
c64.667 -14 97 -45.667 97 -95zM181.999 390h-46l-75 93h43l57 -67l58 67h39z" />
    <glyph glyph-name="Utilde" unicode="&#x168;" horiz-adv-x="454" 
d="M411 170c0 -52.667 -14 -94.667 -42 -126c-32.667 -36 -80 -54 -142 -54s-109 18 -141 54c-28.667 31.333 -43 73.333 -43 126v303h45v-293c0 -100.667 46.333 -151 139 -151s139 50.333 139 151v293h45v-303zM331 582c-8 -42 -27.332 -63 -57.999 -63
c-8.66699 0 -17.167 1.66699 -25.5 5s-16.166 6.66602 -23.499 9.99902c-8 3.33301 -15.333 6.83301 -22 10.5s-12.667 5.5 -18 5.5c-10 0 -18.333 -2.83301 -25 -8.5s-10 -14.167 -10 -25.5h-26c0 42.667 19.667 64 59 64c9.33301 0 18.166 -1.66699 26.499 -5
s16.166 -6.66602 23.499 -9.99902l20.5 -9.5c6.33301 -3 12.5 -4.5 18.5 -4.5c10.667 0 18.5 3 23.5 9s8.16699 13.333 9.5 22h27z" />
    <glyph glyph-name="utilde" unicode="&#x169;" horiz-adv-x="356" 
d="M317 0h-39v62h-1c-22.667 -48 -62 -72 -118 -72c-80 0 -120 43.333 -120 130v222h42v-223c0 -62.667 30.333 -94 91 -94c34 0 60.333 14.333 79 43c16 24.667 24 56 24 94v180h42v-342zM282 451c-8 -42 -27.332 -63 -57.999 -63c-8.66699 0 -17.167 1.66699 -25.5 5
s-16.166 6.66602 -23.499 9.99902c-8 3.33301 -15.333 6.83301 -22 10.5s-12.667 5.5 -18 5.5c-10 0 -18.333 -2.83301 -25 -8.5s-10 -14.167 -10 -25.5h-26c0 42.667 19.667 64 59 64c9.33301 0 18.166 -1.66699 26.499 -5s16.166 -6.66602 23.499 -9.99902l20.5 -9.5
c6.33301 -3 12.5 -4.5 18.5 -4.5c10.667 0 18.5 3 23.5 9s8.16699 13.333 9.5 22h27z" />
    <glyph glyph-name="Ydieresis" unicode="&#x178;" horiz-adv-x="405" 
d="M225 0h-45v195l-187 278h54l156 -240l155 240h54l-187 -278v-195zM174 549c0 -8.66699 -3 -16 -9 -22s-13.333 -9 -22 -9s-16 3 -22 9s-9 13.333 -9 22s3 16 9 22s13.333 9 22 9s16 -3 22 -9s9 -13.333 9 -22zM292 549c0 -8.66699 -3 -16 -9 -22s-13.333 -9 -22 -9
s-16 3 -22 9s-9 13.333 -9 22s3 16 9 22s13.333 9 22 9s16 -3 22 -9s9 -13.333 9 -22z" />
    <glyph glyph-name="Zcaron" unicode="&#x17d;" horiz-adv-x="381" 
d="M372 0h-369v40l312 395h-290v38h340v-39l-311 -396h318v-38zM213 524h-46l-75 93h43l57 -67l58 67h39z" />
    <glyph glyph-name="zcaron" unicode="&#x17e;" horiz-adv-x="307" 
d="M296 0h-286v34l223 273h-208v35h261v-30l-226 -277h236v-35zM176 390h-46l-75 93h43l57 -67l58 67h39z" />
    <glyph glyph-name="florin" unicode="&#x192;" horiz-adv-x="369" 
d="M11 -76c5.33301 -1.33301 11.001 -2.33496 17.001 -3.00195s11.667 -1 17 -1c10 0.666992 18.333 3.33398 25 8.00098s12.5 10.667 17.5 18s8.83301 15.333 11.5 24s5 17 7 25l50 261h-66l5 35h67l9 46l12 50.5c4 16.333 9.83301 30.833 17.5 43.5s18 22.834 31 30.501
s30.5 11.5 52.5 11.5c13.333 0 27 -1 41 -3l-8 -34c-5.33301 0.666992 -10.5 1.16699 -15.5 1.5s-10.167 0.5 -15.5 0.5c-14 0 -25.167 -3.33301 -33.5 -10s-15 -15 -20 -25s-8.83301 -21 -11.5 -33l-8 -35l-9 -44h75l-6 -35h-75l-40 -214l-11.5 -58.5
c-3.66699 -19 -9.66699 -35.833 -18 -50.5s-19.833 -26.5 -34.5 -35.5s-34.667 -13.167 -60 -12.5c-4.66699 0 -9.33398 0.333008 -14.001 1s-9.66699 1.66699 -15 3z" />
    <glyph glyph-name="Ohorn" unicode="&#x1a0;" horiz-adv-x="491" 
d="M469 237c0 -69.333 -18.667 -126.666 -56 -171.999c-40.667 -50 -96.334 -75 -167.001 -75s-126.334 25 -167.001 75c-37.333 45.333 -56 102.666 -56 171.999c0 68.667 18.667 125.667 56 171c40.667 50 96.334 75 167.001 75c66.667 0 120 -22.333 160 -67
c13.333 7.33301 23.5 18.666 30.5 33.999s10.5 29 10.5 41h39c0 -9.33301 -1.66699 -19.166 -5 -29.499s-7.66602 -20.333 -12.999 -30s-11.5 -18.5 -18.5 -26.5s-13.833 -14.333 -20.5 -19c26.667 -41.333 40 -91 40 -149zM424 237c0 57.333 -14 105 -42 143
c-32 43.333 -77.333 65 -136 65s-104 -21.667 -136 -65c-28 -38 -42 -85.667 -42 -143s14 -105 42 -143c32 -43.333 77.333 -65 136 -65s104 21.667 136 65c28 38 42 85.667 42 143z" />
    <glyph glyph-name="ohorn" unicode="&#x1a1;" horiz-adv-x="369" 
d="M346 171c0 -51.333 -13.999 -93.668 -41.999 -127.001c-29.333 -36 -69.333 -54 -120 -54c-50 0 -89.667 18 -119 54c-28 33.333 -42 75.666 -42 126.999s14 93.666 42 126.999c29.333 36 69 54 119 54c50.667 0 90.667 -18 120 -54
c2.66699 -3.33301 5 -6.66602 7 -9.99902c11.333 8.66699 19.666 19.834 24.999 33.501s8 25.834 8 36.501h39c0 -8.66699 -1.5 -17.834 -4.5 -27.501s-7 -19.167 -12 -28.5s-10.667 -18.166 -17 -26.499s-12.833 -14.833 -19.5 -19.5c10.667 -24.667 16 -53 16 -85z
M304.001 170.998c0 40 -10 73.3311 -30 99.998c-22 30.667 -52 46 -90 46s-68 -15.333 -90 -46c-20 -27.333 -30 -60.666 -30 -99.999s10 -72.666 30 -99.999c22 -30.667 52 -46 90 -46s68 15.333 90 46c20 26.667 30 60 30 100z" />
    <glyph glyph-name="Uhorn" unicode="&#x1af;" horiz-adv-x="454" 
d="M411 170c0 -53.333 -14 -95.333 -42 -126c-33.333 -36 -80.666 -54 -141.999 -54c-62 0 -109 18 -141 54c-28.667 30.667 -43 72.667 -43 126v303h45v-293c0 -100.667 46.333 -151 139 -151s139 50.333 139 151v293h45c11.333 2 21.166 8.5 29.499 19.5
s12.5 22.5 12.5 34.5h38c0 -8 -1.66699 -17 -5 -27s-8.33301 -19.5 -15 -28.5s-15 -16.667 -25 -23s-21.667 -9.5 -35 -9.5v-269z" />
    <glyph glyph-name="uhorn" unicode="&#x1b0;" horiz-adv-x="356" 
d="M317 0h-38.999v62h-1c-22.667 -48 -62 -72 -118 -72c-80 0 -120 43.333 -120 130v222h42v-223c0 -62.667 30.333 -94 91 -94c34 0 60.333 14.333 79 43c16 24.667 24 56 24 94v180h42c11.333 2 21.166 8.5 29.499 19.5s12.5 22.5 12.5 34.5h38c0 -8 -1.66699 -17 -5 -27
s-8.33301 -19.5 -15 -28.5s-15 -16.667 -25 -23s-21.667 -9.5 -35 -9.5v-308z" />
    <glyph glyph-name="circumflex" unicode="&#x2c6;" horiz-adv-x="123" 
d="M117 388l-57 67l-59 -67h-38l75 93h46l76 -93h-43z" />
    <glyph glyph-name="caron" unicode="&#x2c7;" horiz-adv-x="123" 
d="M84 390h-46l-75 93h43l57 -67l58 67h39z" />
    <glyph glyph-name="breve" unicode="&#x2d8;" horiz-adv-x="123" 
d="M156 466c-3.33301 -26 -13.501 -46.667 -30.501 -62s-38.833 -23 -65.5 -23s-48.5 7.33301 -65.5 22s-26.5 35.667 -28.5 63h26c1.33301 -18 8.83301 -31.667 22.5 -41s28.834 -14 45.501 -14s32 4.83301 46 14.5s22.333 23.167 25 40.5h25z" />
    <glyph glyph-name="dotaccent" unicode="&#x2d9;" horiz-adv-x="238" 
d="M157 424c0 -10.667 -3.5 -19.834 -10.5 -27.501s-16.167 -11.5 -27.5 -11.5c-10 0 -18.667 3.83301 -26 11.5s-11 16.834 -11 27.501s3.66699 19.667 11 27s16 11 26 11c10.667 0 19.667 -3.66699 27 -11s11 -16.333 11 -27z" />
    <glyph glyph-name="ring" unicode="&#x2da;" horiz-adv-x="238" 
d="M186 430c0 -18 -6.66699 -33.667 -20 -47s-29 -20 -47 -20s-33.667 6.66699 -47 20s-20 29 -20 47c0 18.667 6.5 34.5 19.5 47.5s28.833 19.5 47.5 19.5s34.5 -6.5 47.5 -19.5s19.5 -28.833 19.5 -47.5zM162 430c0 12 -4.16699 22.167 -12.5 30.5s-18.5 12.5 -30.5 12.5
c-11.333 0 -21.166 -4.16699 -29.499 -12.5s-12.5 -18.5 -12.5 -30.5c0 -11.333 4.16699 -21.166 12.5 -29.499s18.166 -12.5 29.499 -12.5c12 0 22.167 4.16699 30.5 12.5s12.5 18.166 12.5 29.499z" />
    <glyph glyph-name="ogonek" unicode="&#x2db;" horiz-adv-x="238" 
d="M212 -100c-20 -11.333 -35.168 -18.667 -45.501 -22s-21.833 -5 -34.5 -5c-25.333 0 -45.166 6.33301 -59.499 19s-21.5 28 -21.5 46c0 12 2.5 24.333 7.5 37s11.833 23 20.5 31h19c-6 -13.333 -9 -25 -9 -35c0 -23.333 8 -40.5 24 -51.5s33 -16.5 51 -16.5
c10 0 23.667 2.66699 41 8z" />
    <glyph glyph-name="tilde" unicode="&#x2dc;" horiz-adv-x="123" 
d="M165 453c-8 -42 -27.332 -63 -57.999 -63c-8.66699 0 -17.167 1.66699 -25.5 5s-16.166 6.66602 -23.499 9.99902c-8 3.33301 -15.333 6.83301 -22 10.5s-12.667 5.5 -18 5.5c-10 0 -18.333 -2.83301 -25 -8.5s-10 -14.167 -10 -25.5h-26c0 42.667 19.667 64 59 64
c9.33301 0 18.166 -1.66699 26.499 -5s16.166 -6.66602 23.499 -9.99902l20.5 -9.5c6.33301 -3 12.5 -4.5 18.5 -4.5c10.667 0 18.5 3 23.5 9s8.16699 13.333 9.5 22h27z" />
    <glyph glyph-name="hungarumlaut" unicode="&#x2dd;" horiz-adv-x="238" 
d="M39 365h-12l23 120h66zM149 365h-12l22 120h66z" />
    <glyph glyph-name="gravecomb" unicode="&#x300;" 
d="M-25 522h-34l-88 93h52z" />
    <glyph glyph-name="acutecomb" unicode="&#x301;" 
d="M-113 522h-34l69 93h52z" />
    <glyph glyph-name="tildecomb" unicode="&#x303;" 
d="M-12 582c-8 -42 -27.332 -63 -57.999 -63c-8.66699 0 -17.167 1.66699 -25.5 5s-16.166 6.66602 -23.499 9.99902c-8 3.33301 -15.333 6.83301 -22 10.5s-12.667 5.5 -18 5.5c-10 0 -18.333 -2.83301 -25 -8.5s-10 -14.167 -10 -25.5h-26c0 42.667 19.667 64 59 64
c9.33301 0 18.166 -1.66699 26.499 -5s16.166 -6.66602 23.499 -9.99902l20.5 -9.5c6.33301 -3 12.5 -4.5 18.5 -4.5c10.667 0 18.5 3 23.5 9s8.16699 13.333 9.5 22h27z" />
    <glyph glyph-name="hookabovecomb" unicode="&#x309;" 
d="M-49 581c0 -8 -2 -14.334 -6 -19.001s-8.33301 -9 -13 -13s-9 -8.33301 -13 -13s-6 -11 -6 -19h-23c0 11.333 2 19.833 6 25.5s8.33301 10.334 13 14.001l13 10c4 3 6 7.5 6 13.5c0 16 -8 24 -24 24c-18 0 -27 -11.667 -27 -35h-22c0 16.667 4.33301 30.167 13 40.5
s20.667 15.5 36 15.5c14.667 0 26.167 -4 34.5 -12s12.5 -18.667 12.5 -32z" />
    <glyph glyph-name="dotbelowcomb" unicode="&#x323;" 
d="M-244 -77c0 -9.33301 -3.5 -17.333 -10.5 -24s-15.167 -10 -24.5 -10s-17.5 3.33301 -24.5 10s-10.5 14.667 -10.5 24c0 10 3.5 18.333 10.5 25s15.167 10 24.5 10s17.5 -3.33301 24.5 -10s10.5 -15 10.5 -25z" />
    <glyph glyph-name="alpha" unicode="&#x3b1;" horiz-adv-x="365" 
d="M339 -8c-8 0 -15.4961 0.333008 -22.4961 1s-13.333 3.16699 -19 7.5s-10.334 11 -14.001 20s-6.16699 22.167 -7.5 39.5c-28.667 -44.667 -68.334 -67 -119.001 -67c-37.333 0 -68 14.333 -92 43s-36 67.334 -36 116.001c0 26 4 49.5 12 70.5s18.5 39 31.5 54
s28 26.667 45 35s34.5 12.5 52.5 12.5c22 0 42.167 -4.33301 60.5 -13s33.166 -25.667 44.499 -51l9 57h39c-0.666992 -8.66699 -1.5 -21.334 -2.5 -38.001s-1.83301 -35.5 -2.5 -56.5s-1.33398 -43.167 -2.00098 -66.5s-1 -46 -1 -68c0 -36 10.667 -56 32 -60zM270.004 164
c0 14 -1.99707 28.334 -5.99707 43.001s-9.83301 28 -17.5 40s-17.334 21.833 -29.001 29.5s-24.834 11.5 -39.501 11.5c-30 0 -54 -12.5 -72 -37.5s-27 -57.167 -27 -96.5c0 -16 2 -31.5 6 -46.5s10 -28.333 18 -40s17.833 -20.834 29.5 -27.501s25.167 -10 40.5 -10
s29 4 41 12s22.167 18.333 30.5 31s14.666 27 18.999 43s6.5 32 6.5 48z" />
    <glyph glyph-name="beta" unicode="&#x3b2;" horiz-adv-x="371" 
d="M346 127c0 -22 -3.83594 -41.335 -11.5029 -58.002s-17.834 -30.667 -30.501 -42s-27.167 -19.833 -43.5 -25.5s-32.833 -8.5 -49.5 -8.5c-22 0 -41.833 3.33301 -59.5 10s-35.834 17 -54.501 31v-52c0 -18.667 0.333008 -39 1 -61s2.33398 -40.667 5.00098 -56h-42
c-3.33301 11.333 -5.5 27 -6.5 47s-1.5 40.667 -1.5 62v314c0 22.667 1.33301 42.5 4 59.5s6.33398 31.5 11.001 43.5s9.83398 22.333 15.501 31s11.5 16 17.5 22c9.33301 9.33301 21.833 17.333 37.5 24s34.167 10 55.5 10c32 0 58.667 -10.167 80 -30.5s32 -47.5 32 -81.5
c0 -24.667 -7.66699 -46.667 -23 -66s-32.333 -33.666 -51 -42.999c14.667 -3.33301 28.834 -8.66602 42.501 -15.999s25.834 -16.5 36.501 -27.5s19.167 -23.667 25.5 -38s9.5 -30.5 9.5 -48.5zM300.997 126.998c0 35.333 -11.001 61.8311 -33.001 79.498
s-49 27.167 -81 28.5h-12v26h3c14 0 26.5 2.83301 37.5 8.5s20 13 27 22s12.333 19.333 16 31s5.5 23.167 5.5 34.5c0 26 -7 47.167 -21 63.5s-32 24.5 -54 24.5c-30 0 -53 -12.667 -69 -38s-24 -62.666 -24 -111.999v-210c8.66699 -15.333 21.834 -29.166 39.501 -41.499
s39.167 -18.5 64.5 -18.5c29.333 0 53.5 9.5 72.5 28.5s28.5 43.5 28.5 73.5z" />
    <glyph glyph-name="gamma" unicode="&#x3b3;" horiz-adv-x="308" 
d="M293 300c0 -20 -3.16797 -41.665 -9.50098 -64.998s-15 -47.5 -26 -72.5s-23.5 -50.167 -37.5 -75.5s-28.333 -49.666 -43 -72.999c-1.33301 -2.66699 -2.5 -6 -3.5 -10s-1.5 -7.33301 -1.5 -10c1.33301 -18.667 2 -39.167 2 -61.5v-67.5h-45c0.666992 10.667 1 20 1 28
v28c0 21.333 -0.833008 43.166 -2.5 65.499s-5.16699 44.166 -10.5 65.499c-6 24 -13.5 48.5 -22.5 73.5s-18.667 49.333 -29 73s-20.666 45.667 -30.999 66s-19.5 37.5 -27.5 51.5h51c6.66699 -12 14.667 -27.5 24 -46.5s18.666 -40.5 27.999 -64.5s18.333 -49.667 27 -77
s16 -55 22 -83l29 55c10.667 20.667 20.334 42.167 29.001 64.5s16 45.166 22 68.499s9 45.333 9 66v17h44c0.666992 -3.33301 1 -6 1 -8v-8z" />
    <glyph glyph-name="delta" unicode="&#x3b4;" horiz-adv-x="362" 
d="M337 153c0 -24.667 -4.00098 -46.832 -12.001 -66.499s-19 -36.5 -33 -50.5s-30.333 -24.667 -49 -32s-38.334 -11 -59.001 -11s-40.167 3.5 -58.5 10.5s-34.5 17.167 -48.5 30.5s-25.167 29.833 -33.5 49.5s-12.5 42.167 -12.5 67.5c0 20 3.5 38.667 10.5 56
s16.5 33 28.5 47s25.833 26.667 41.5 38s32.167 21.333 49.5 30c-19.333 17.333 -34.666 32.5 -45.999 45.5s-17 26.167 -17 39.5c0 17.333 8.83301 33.5 26.5 48.5s44.834 22.5 81.501 22.5c20 0 39 -3 57 -9s32 -12.333 42 -19l-10 -27
c-10 5.33301 -22.833 10.666 -38.5 15.999s-32.167 8 -49.5 8c-20 0 -35.5 -3.83301 -46.5 -11.5s-16.5 -16.834 -16.5 -27.501c0 -4 1.16699 -8.16699 3.5 -12.5s6.83301 -9.66602 13.5 -15.999s16 -14.333 28 -24l48 -38.5c34 -27.333 59.167 -53.5 75.5 -78.5
s24.5 -53.5 24.5 -85.5zM290.999 149.002c0 23.333 -7.83301 47.168 -23.5 71.501s-43.167 52.166 -82.5 83.499c-14 -7.33301 -27.5 -15.666 -40.5 -24.999s-24.5 -20.333 -34.5 -33s-18 -26.834 -24 -42.501s-9 -33.167 -9 -52.5c0 -20 3.16699 -38 9.5 -54
s14.5 -29.5 24.5 -40.5s21.667 -19.333 35 -25s27 -8.5 41 -8.5s27.333 2.83301 40 8.5s23.667 14 33 25s16.833 24.333 22.5 40s8.5 33.167 8.5 52.5z" />
    <glyph glyph-name="theta" unicode="&#x3b8;" horiz-adv-x="354" 
d="M330 239c0 -37.333 -2.99902 -71.167 -8.99902 -101.5s-15.167 -56.166 -27.5 -77.499s-27.833 -37.833 -46.5 -49.5s-40.667 -17.5 -66 -17.5c-46.667 0 -83.334 20.5 -110.001 61.5s-40 102.5 -40 184.5c0 34 3.33301 65.5 10 94.5s16.334 54.167 29.001 75.5
s28.5 38.166 47.5 50.499s40.833 18.5 65.5 18.5c25.333 0 47.166 -5.66699 65.499 -17s33.5 -27.5 45.5 -48.5s21 -46.167 27 -75.5s9 -62 9 -98zM285.001 257.999c0 26 -2.33203 50.667 -6.99902 74s-11.334 43.5 -20.001 60.5s-19.5 30.5 -32.5 40.5s-28.167 15 -45.5 15
c-16 0 -30.5 -5.16699 -43.5 -15.5s-24 -24.333 -33 -42s-15.833 -38 -20.5 -61s-7 -46.833 -7 -71.5h209zM285.002 227.999h-209.002c0 -66 9.83301 -116.667 29.5 -152s45.5 -53 77.5 -53c16.667 0 31.334 5 44.001 15s23.334 24.167 32.001 42.5s15.167 40 19.5 65
s6.5 52.5 6.5 82.5z" />
    <glyph glyph-name="lambda" unicode="&#x3bb;" horiz-adv-x="313" 
d="M298 0l-47 0.00292969l-92 277l-34 -90c-11.333 -30 -22.333 -61.167 -33 -93.5l-32 -93.5h-46l115 295c1.33301 2.66699 2.16602 6 2.49902 10s0.5 8 0.5 12c0 10 -2.66699 22.167 -8 36.5s-12.666 28.166 -21.999 41.499s-20 24.666 -32 33.999s-24.667 14 -38 14l2 16
c1.33301 7.33301 2.5 12.166 3.5 14.499s6.16699 3.5 15.5 3.5c27.333 0 50.333 -14 69 -42s36.667 -64.333 54 -109z" />
    <glyph glyph-name="pi" unicode="&#x3c0;" horiz-adv-x="368" 
d="M306 0l-45.999 -0.00195312c-2 6 -3.5 15.833 -4.5 29.5s-1.5 32.5 -1.5 56.5v197h-122c-0.666992 -21.333 -2.33398 -45.5 -5.00098 -72.5s-6 -53.667 -10 -80s-8.5 -51.166 -13.5 -74.499s-10.5 -42 -16.5 -56h-40c6 16.667 11.333 36.667 16 60
s8.83398 47.833 12.501 73.5s6.66699 51.5 9 77.5s3.83301 50 4.5 72c-13.333 0 -26 -0.166992 -38 -0.5s-22.333 -1.5 -31 -3.5l-7 23c8.66699 3.33301 20.167 6.5 34.5 9.5s32.166 4.5 53.499 4.5h249l-4 -33h-47v-192c0 -23.333 0.666992 -42.166 2 -56.499
s3 -25.833 5 -34.5z" />
    <glyph glyph-name="uni0E00" unicode="&#xe00;" horiz-adv-x="428" 
 />
    <glyph glyph-name="uni0E01" unicode="&#xe01;" horiz-adv-x="402" 
d="M347 0l-35.001 0.000976562v289c0 54.667 -39.333 82 -118 82c-46 0 -79 -10 -99 -30c25.333 -7.33301 44.666 -22.666 57.999 -45.999c-31.333 -12.667 -47 -35 -47 -67v-228h-35v231c0 37.333 13 60.666 39 69.999c-17.333 15.333 -41.666 24.666 -72.999 27.999
c36.667 48.667 91 73 163 73c44.667 0 80.334 -9.66699 107.001 -29s40 -46 40 -80v-293z" />
    <glyph glyph-name="uni0E02" unicode="&#xe02;" horiz-adv-x="374" 
d="M319 0l-190 0.000976562v33h37v194c0 12 4.66699 26.667 14 44s14 32 14 44c0.666992 39.333 -21 59 -65 59c-25.333 0 -41 -7.66699 -47 -23h8c38 0 57 -20 57 -60c0 -16.667 -5.66699 -31.167 -17 -43.5s-26 -18.5 -44 -18.5c-22 0 -39 7.66699 -51 23
c-10 12.667 -15 28.667 -15 48c0 32 12 57.667 36 77c21.333 16.667 47.333 25 78 25c27.333 0 49.833 -7.83301 67.5 -23.5s26.5 -36.5 26.5 -62.5c0 -16.667 -4.5 -33.334 -13.5 -50.001s-13.5 -29 -13.5 -37v-196h83v367h35v-400zM115 292.001c0 9.33301 -3 17 -9 23
s-13.667 9 -23 9s-16.833 -3 -22.5 -9s-8.5 -13.667 -8.5 -23s2.83301 -16.833 8.5 -22.5s13.167 -8.5 22.5 -8.5s17 2.83301 23 8.5s9 13.167 9 22.5z" />
    <glyph glyph-name="uni0E03" unicode="&#xe03;" horiz-adv-x="403" 
d="M348 0l-190 -0.000976562v33h37v234c0 14 6 29.167 18 45.5s18 23.833 18 22.5c0 2.66699 -3.5 7.33398 -10.5 14.001s-11.5 10 -13.5 10l-44 -31l-58 40c-9.33301 0 -18 -5.83301 -26 -17.5s-12 -19.834 -12 -24.501c8.66699 2.66699 17.667 4 27 4
c17.333 0 31.833 -5.66699 43.5 -17s17.5 -26 17.5 -44c0 -17.333 -6.33301 -32.166 -19 -44.499s-28 -18.5 -46 -18.5c-23.333 0 -41.333 9.33301 -54 28c-10.667 15.333 -16 33 -16 53c0 35.333 13 64.666 39 87.999c20 18 37.333 27 52 27l51 -35l48 35
c16 -8 31.667 -21 47 -39c13.333 -14.667 20 -23.667 20 -27c-31.333 -31.333 -47 -53.666 -47 -66.999v-236h83v367h35v-400zM124 268.999c0 9.33301 -3 17 -9 23s-13.667 9 -23 9s-16.833 -3 -22.5 -9s-8.5 -13.667 -8.5 -23s2.83301 -16.833 8.5 -22.5
s13.167 -8.5 22.5 -8.5s17 2.83301 23 8.5s9 13.167 9 22.5z" />
    <glyph glyph-name="uni0E04" unicode="&#xe04;" horiz-adv-x="417" 
d="M362 0l-34.999 0.000976562v258c0 76.667 -37.667 115 -113 115c-36 0 -64.333 -10.833 -85 -32.5s-31 -49.167 -31 -82.5v-164l44 137c16 50 41 75 75 75c18.667 0 33.667 -5.66699 45 -17s17.333 -25.333 18 -42c0.666992 -18 -5 -33.333 -17 -46s-27 -19 -45 -19
c-22.667 0 -38.667 7.33301 -48 22l-70 -204h-37v258c0 41.333 13.667 75.666 41 102.999s63.666 41 108.999 41c48.667 0 86 -14 112 -42c24.667 -25.333 37 -59.333 37 -102v-258zM248.001 244.001c0 8.66699 -3 16 -9 22s-13.333 9 -22 9s-16 -3 -22 -9
s-9 -13.333 -9 -22s3 -16 9 -22s13.333 -9 22 -9s16 3 22 9s9 13.333 9 22z" />
    <glyph glyph-name="uni0E05" unicode="&#xe05;" horiz-adv-x="420" 
d="M365 0l-35.002 -0.00195312v300c0 46.667 -15 70 -45 70c-13.333 0 -23.666 -3 -30.999 -9l-40 -32l-40 32c-7.33301 6 -17.666 9 -30.999 9c-30 0 -45 -23.333 -45 -70v-221l61 164c10.667 29.333 30.667 44 60 44c17.333 0 32.166 -6.16699 44.499 -18.5
s18.5 -27.166 18.5 -44.499s-6.16699 -32.166 -18.5 -44.499s-27.166 -18.5 -44.499 -18.5c-20 0 -36 7 -48 21l-70 -182h-38v301c0 67.333 27 101 81 101c16.667 0 29.667 -3.33301 39 -10l30 -22l32 22c10 6.66699 23.667 10 41 10c26 0 45.667 -9.16699 59 -27.5
s20 -41.5 20 -69.5v-305zM249.998 223.998c0 8.66699 -3 16 -9 22s-13.333 9 -22 9s-16 -3 -22 -9s-9 -13.333 -9 -22s3 -16 9 -22s13.333 -9 22 -9s16 3 22 9s9 13.333 9 22z" />
    <glyph glyph-name="uni0E06" unicode="&#xe06;" horiz-adv-x="482" 
d="M195 58v73l-5 1h-8c-16 0 -30 -5.5 -42 -16.5s-18 -24.833 -18 -41.5c0 -32 14.667 -48 44 -48c19.333 0 29 10.667 29 32zM427 0h-35.001c-23.333 47.333 -56.666 83 -99.999 107c-21.333 12 -42 19.667 -62 23v-63c0 -46 -21 -69 -63 -69
c-22.667 0 -41.334 6.5 -56.001 19.5s-22 31.5 -22 55.5c0 33.333 13.333 58 40 74c18.667 10.667 39 16 61 16h5v104c0 14 6 29.167 18 45.5s18 23.833 18 22.5c0 2.66699 -3.5 7.33398 -10.5 14.001s-11.5 10 -13.5 10l-44 -31l-58 40c-9.33301 0 -18 -5.83301 -26 -17.5
s-12 -19.834 -12 -24.501c8.66699 2.66699 17.667 4 27 4c17.333 0 31.833 -5.66699 43.5 -17s17.5 -26 17.5 -44c0 -17.333 -6.33301 -32.166 -19 -44.499s-28 -18.5 -46 -18.5c-23.333 0 -41.333 9.33301 -54 28c-10.667 15.333 -16 33 -16 53
c0 35.333 13 64.666 39 87.999c20 18 37.333 27 52 27l51 -35l48 35c16 -8 31.667 -21 47 -39c13.333 -14.667 20 -23.667 20 -27c-31.333 -31.333 -47 -53.666 -47 -66.999v-107c28 -4.66699 58.333 -16.334 91 -35.001s56.334 -39 71.001 -61v334h35v-400zM123.999 269
c0 9.33301 -3 17 -9 23s-13.667 9 -23 9s-16.833 -3 -22.5 -9s-8.5 -13.667 -8.5 -23s2.83301 -16.833 8.5 -22.5s13.167 -8.5 22.5 -8.5s17 2.83301 23 8.5s9 13.167 9 22.5z" />
    <glyph glyph-name="uni0E07" unicode="&#xe07;" horiz-adv-x="315" 
d="M260 0l-38.999 0.000976562l-203 208l23 23l184 -186v243c-10.667 -5.33301 -21.334 -8 -32.001 -8c-17.333 0 -31.666 5.66699 -42.999 17s-17 25.666 -17 42.999s5.66699 32 17 44s25.666 18 42.999 18c44.667 0 67 -20.667 67 -62v-340zM223.001 340.001
c0 8.66699 -2.83301 15.834 -8.5 21.501s-12.834 8.5 -21.501 8.5s-15.667 -2.83301 -21 -8.5s-8 -12.834 -8 -21.501s2.66699 -15.667 8 -21s12.333 -8 21 -8s15.834 2.66699 21.501 8s8.5 12.333 8.5 21z" />
    <glyph glyph-name="uni0E08" unicode="&#xe08;" horiz-adv-x="382" 
d="M327 0l-35.001 -0.000976562l-67 192c-12.667 -12.667 -28.334 -19 -47.001 -19c-17.333 0 -31.833 5.83301 -43.5 17.5s-17.5 26.167 -17.5 43.5c0 18 5.83301 33.167 17.5 45.5s26.167 18.5 43.5 18.5c26.667 0 46.334 -11.333 59.001 -34c2 -4 9 -23.667 21 -59
l34 -102v146c0 82.667 -36.333 124 -109 124c-38 0 -67.167 -11.5 -87.5 -34.5s-30.5 -51.833 -30.5 -86.5v-24h-35v16c0 44.667 11.667 81.334 35 110.001c26.667 32 64.334 48 113.001 48s85.667 -12.5 111 -37.5s38 -58.167 38 -99.5v-265zM210.999 234.999
c0 9.33301 -3 17 -9 23s-13.667 9 -23 9s-16.833 -3 -22.5 -9s-8.5 -13.667 -8.5 -23s2.83301 -16.833 8.5 -22.5s13.167 -8.5 22.5 -8.5s17 2.83301 23 8.5s9 13.167 9 22.5z" />
    <glyph glyph-name="uni0E09" unicode="&#xe09;" horiz-adv-x="415" 
d="M360 118c28.667 -8 43 -27.6689 43 -59.002c0 -17.333 -6 -32 -18 -44s-26.667 -18 -44 -18s-32 6 -44 18s-18 26.667 -18 44v2l-79 -61h-39v153c0 10 2.33301 17.333 7 22c-16 1.33301 -29.5 7.83301 -40.5 19.5s-16.5 25.834 -16.5 42.501c0 17.333 6.16699 32 18.5 44
s26.833 18 43.5 18c17.333 0 32 -6 44 -18s18 -26.667 18 -44c0 -12 -6.5 -26.167 -19.5 -42.5s-19.5 -29.833 -19.5 -40.5v-117c52.667 48.667 95.667 77.334 129 86.001v116c0 90 -42 135 -126 135c-36.667 0 -67.167 -12.833 -91.5 -38.5s-36.5 -56.5 -36.5 -92.5v-35
h-34v30c0 46.667 15 85.667 45 117s69.667 47 119 47c53.333 0 94 -16 122 -48c24.667 -28 37 -65.333 37 -112v-124zM204 236.998c0 8.66699 -3 16 -9 22s-13.333 9 -22 9s-16 -3 -22 -9s-9 -13.333 -9 -22s3 -16 9 -22s13.333 -9 22 -9s16 3 22 9s9 13.333 9 22z
M371 58.998c0 8.66699 -2.83301 15.834 -8.5 21.501s-12.834 8.5 -21.501 8.5s-15.834 -2.83301 -21.501 -8.5s-8.5 -12.834 -8.5 -21.501s2.83301 -15.834 8.5 -21.501s12.834 -8.5 21.501 -8.5s15.834 2.83301 21.501 8.5s8.5 12.834 8.5 21.501z" />
    <glyph glyph-name="uni0E0A" unicode="&#xe0a;" horiz-adv-x="397" 
d="M342 0l-197.998 0.00195312v33h39v223c0 28 18.333 57 55 87c-18 18 -47 27 -87 27c-26 0 -45.333 -5.33301 -58 -16c16 -2.66699 29.167 -9.83398 39.5 -21.501s15.5 -25.834 15.5 -42.501c0 -18.667 -6.16699 -33.834 -18.5 -45.501s-27.833 -17.5 -46.5 -17.5
s-33.834 5.83301 -45.501 17.5s-17.5 26.834 -17.5 45.501c0 32 13.333 58.333 40 79c27.333 21.333 58.666 32 93.999 32c41.333 0 77.333 -12.333 108 -37l68 62l22 -21l-65 -58l55 -46v-301zM307.002 33.002v256l-44 37c-30 -23.333 -45 -48 -45 -74v-219h89z
M115.002 290.002c0 9.33301 -3 17 -9 23s-13.667 9 -23 9s-16.833 -3 -22.5 -9s-8.5 -13.667 -8.5 -23s2.83301 -16.833 8.5 -22.5s13.167 -8.5 22.5 -8.5s17 2.83301 23 8.5s9 13.167 9 22.5z" />
    <glyph glyph-name="uni0E0B" unicode="&#xe0b;" horiz-adv-x="400" 
d="M345 0l-198 0.000976562v33h39v223c0 28 18.333 57 55 87l-29 21l-49 -36l-58 40c-9.33301 0 -18 -5.83301 -26 -17.5s-12 -19.834 -12 -24.501c8.66699 2.66699 17.667 4 27 4c17.333 0 31.833 -5.66699 43.5 -17s17.5 -26 17.5 -44
c0 -17.333 -6.33301 -32.166 -19 -44.499s-28 -18.5 -46 -18.5c-23.333 0 -41.333 9.33301 -54 28c-10.667 15.333 -16 33 -16 53c0 35.333 13 64.666 39 87.999c20 18 37.333 27 52 27l51 -35l48 35l55 -38l68 62l22 -21l-65 -58l55 -46v-301zM310 33.001v256.001l-44 37
c-30 -22.667 -45 -47.334 -45 -74.001v-219h89zM124 269.002c0 9.33301 -3 17 -9 23s-13.667 9 -23 9s-16.833 -3 -22.5 -9s-8.5 -13.667 -8.5 -23s2.83301 -16.833 8.5 -22.5s13.167 -8.5 22.5 -8.5s17 2.83301 23 8.5s9 13.167 9 22.5z" />
    <glyph glyph-name="uni0E0C" unicode="&#xe0c;" horiz-adv-x="587" 
d="M312 69v59c-2 0.666992 -4.66699 1 -8 1c-24.667 0 -37 -17 -37 -51c0 -30.667 9 -46 27 -46c12 0 18 12.333 18 37zM532 0l-33 0.000976562c-5.33301 28 -26.666 56 -63.999 84c-32.667 24.667 -62 39 -88 43v-71c0 -39.333 -17.333 -59 -52 -59
c-18.667 0 -33.667 7.16699 -45 21.5s-17 33.166 -17 56.499c0 56.667 26.333 86.334 79 89.001v125c0 54.667 -39.333 82 -118 82c-46 0 -79 -10 -99 -30c25.333 -7.33301 44.666 -22.666 57.999 -45.999c-31.333 -12.667 -47 -35 -47 -67v-117c10 6.66699 21 10 33 10
c17.333 0 32.166 -6.16699 44.499 -18.5s18.5 -27.166 18.5 -44.499s-6 -31.666 -18 -42.999s-27 -17 -45 -17c-22 0 -38.833 6.66699 -50.5 20s-17.5 29.666 -17.5 48.999v164c0 37.333 13 60.666 39 69.999c-17.333 15.333 -41.666 24.666 -72.999 27.999
c36.667 48.667 91 73 163 73c44.667 0 80.334 -9.66699 107.001 -29s40 -46 40 -80v-132c23.333 -0.666992 52.666 -12.334 87.999 -35.001c33.333 -22 54 -41.667 62 -59v333h35v-400zM169 58.001c0 8.66699 -2.83301 15.834 -8.5 21.501s-12.834 8.5 -21.501 8.5
s-15.667 -2.83301 -21 -8.5s-8 -12.834 -8 -21.501s2.66699 -15.667 8 -21s12.333 -8 21 -8s15.834 2.66699 21.501 8s8.5 12.333 8.5 21z" />
    <glyph glyph-name="uni0E0D" unicode="&#xe0d;" horiz-adv-x="596" 
d="M541 0h-229v289c0 54.667 -39.333 82 -118 82c-46 0 -79 -10 -99 -30c25.333 -7.33301 44.666 -22.666 57.999 -45.999c-31.333 -12.667 -47 -35 -47 -67v-117c10 6.66699 21 10 33 10c17.333 0 32.166 -6.16699 44.499 -18.5s18.5 -27.166 18.5 -44.499
s-6 -31.666 -18 -42.999s-27 -17 -45 -17c-22 0 -38.833 6.66699 -50.5 20s-17.5 29.666 -17.5 48.999v164c0 37.333 13 60.666 39 69.999c-17.333 15.333 -41.666 24.666 -72.999 27.999c36.667 48.667 91 73 163 73c44.667 0 80.334 -9.66699 107.001 -29s40 -46 40 -80
v-260h159v367h35v-400zM541 -40c0 -38.667 -13 -70.333 -39 -95c-28.667 -26 -67.667 -39 -117 -39c-20 0 -37.333 4.66699 -52 14c-20 12 -30 31 -30 57c0 17.333 5.83301 32 17.5 44s26.5 18 44.5 18s33.167 -6 45.5 -18s18.5 -26.667 18.5 -44
c0 -10.667 -3.33301 -21.667 -10 -33c26 0.666992 47.333 12 64 34c14.667 19.333 22 40 22 62h36zM169 58.001c0 8.66699 -2.83301 15.834 -8.5 21.501s-12.834 8.5 -21.501 8.5s-15.667 -2.83301 -21 -8.5s-8 -12.834 -8 -21.501s2.66699 -15.667 8 -21s12.333 -8 21 -8
s15.834 2.66699 21.501 8s8.5 12.333 8.5 21zM397 -102.999c0 8.66699 -3 16 -9 22s-13.667 9 -23 9s-16.833 -3 -22.5 -9s-8.5 -13.333 -8.5 -22s2.83301 -16.167 8.5 -22.5s13.167 -9.5 22.5 -9.5s17 3.16699 23 9.5s9 13.833 9 22.5z" />
    <glyph glyph-name="uni0E0E" unicode="&#xe0e;" horiz-adv-x="439" 
d="M384 -116l-81.998 -113.998l-115 69v-6c0 -18.667 -6.33301 -34.334 -19 -47.001s-28.334 -19 -47.001 -19s-34.334 6.33301 -47.001 19s-19 28.334 -19 47.001s6.33301 34.334 19 47.001s28.334 19 47.001 19c11.333 0 22.333 -2.66699 33 -8v59h34v-75l103 -62l58 78
v398c0 54.667 -37.667 82 -113 82c-44 0 -76 -10 -96 -30c25.333 -7.33301 44.666 -22.666 57.999 -45.999c-31.333 -12.667 -47 -35 -47 -67v-161c0 -19.333 -5.33301 -35.333 -16 -48c-12.667 -14 -30 -21 -52 -21c-18 0 -33 5.66699 -45 17s-18 25.666 -18 42.999
s6.16699 32.166 18.5 44.499s27.166 18.5 44.499 18.5c12 0 23 -3.33301 33 -10v120c0 37.333 13 60.666 39 69.999c-17.333 15.333 -41.666 24.666 -72.999 27.999c36.667 48.667 90 73 160 73c44 0 78.667 -9.66699 104 -29s38 -46 38 -80v-409zM112.002 58.002
c0 8.66699 -2.83301 15.834 -8.5 21.501s-12.834 8.5 -21.501 8.5s-15.667 -2.83301 -21 -8.5s-8 -12.834 -8 -21.501s2.66699 -15.667 8 -21s12.333 -8 21 -8s15.834 2.66699 21.501 8s8.5 12.333 8.5 21zM155.002 -166.998c0 9.33301 -3.33301 17.333 -10 24
s-14.667 10 -24 10s-17.333 -3.33301 -24 -10s-10 -14.667 -10 -24s3.33301 -17.333 10 -24s14.667 -10 24 -10s17.333 3.33301 24 10s10 14.667 10 24z" />
    <glyph glyph-name="uni0E0F" unicode="&#xe0f;" horiz-adv-x="439" 
d="M384 -159l-59.999 -69.999l-46 37l-46 -41l-47 50c-8 -33.333 -29.333 -50 -64 -50c-18.667 0 -34.334 6.33301 -47.001 19s-19 28.334 -19 47.001s6.33301 34.334 19 47.001s28.334 19 47.001 19c11.333 0 22.333 -2.66699 33 -8v59h34v-89l47 -49l42 35l39 -33l33 38
v437c0 54.667 -37.667 82 -113 82c-44 0 -76 -10 -96 -30c25.333 -7.33301 44.666 -22.666 57.999 -45.999c-31.333 -12.667 -47 -35 -47 -67v-161c0 -19.333 -5.33301 -35.333 -16 -48c-12.667 -14 -30 -21 -52 -21c-18 0 -33 5.66699 -45 17s-18 25.666 -18 42.999
s6.16699 32.166 18.5 44.499s27.166 18.5 44.499 18.5c12 0 23 -3.33301 33 -10v120c0 37.333 13 60.666 39 69.999c-17.333 15.333 -41.666 24.666 -72.999 27.999c36.667 48.667 90 73 160 73c44 0 78.667 -9.66699 104 -29s38 -46 38 -80v-452zM112.001 58.001
c0 8.66699 -2.83301 15.834 -8.5 21.501s-12.834 8.5 -21.501 8.5s-15.667 -2.83301 -21 -8.5s-8 -12.834 -8 -21.501s2.66699 -15.667 8 -21s12.333 -8 21 -8s15.834 2.66699 21.501 8s8.5 12.333 8.5 21zM155.001 -166.999c0 9.33301 -3.33301 17.333 -10 24
s-14.667 10 -24 10s-17.333 -3.33301 -24 -10s-10 -14.667 -10 -24s3.33301 -17.333 10 -24s14.667 -10 24 -10s17.333 3.33301 24 10s10 14.667 10 24z" />
    <glyph glyph-name="uni0E10" unicode="&#xe10;" horiz-adv-x="391" 
d="M284 0l-35.002 0.000976562l-63 151c-13.333 -15.333 -29.666 -23 -48.999 -23c-17.333 0 -32.333 6.33301 -45 19s-19 27.667 -19 45s6.33301 32.166 19 44.499s27.667 18.5 45 18.5c31.333 0 52.333 -13.667 63 -41l58 -148l26 182c0 34 -41.333 51 -124 51
c-25.333 0 -64 -3 -116 -9c0 38 15.333 67.333 46 88c26 17.333 58.333 26 97 26c22.667 0 46.167 -3.5 70.5 -10.5s37.5 -10.5 39.5 -10.5c7.33301 0 11 6 11 18v27h33v-38c0 -26.667 -10.667 -40 -32 -40c-5.33301 0 -21.666 3.66699 -48.999 11s-51.333 11 -72 11
c-60 0 -94.667 -16.667 -104 -50c-1.33301 0 9.16699 1 31.5 3s40.5 3 54.5 3c70 0 115.667 -11.333 137 -34c9.33301 -10 14 -22 14 -36zM302.998 -189.999l-61.999 -60.002l-39 32l-40 -32l-41 43c-10 -28 -29 -42 -57 -42c-16.667 0 -30.5 5.83301 -41.5 17.5
s-16.5 25.834 -16.5 42.501c0 16 5.5 29.667 16.5 41s24.833 17 41.5 17c11.333 0 21.666 -2.66699 30.999 -8v89h32v-120l40 -41l36 27l36 -27l32 29v25c-9.33301 -4.66699 -18.333 -7 -27 -7c-16 0 -29.5 5.83301 -40.5 17.5s-16.5 25.5 -16.5 41.5s5.5 29.5 16.5 40.5
s24.5 16.5 40.5 16.5c16.667 0 30.667 -5.66699 42 -17s17 -24.666 17 -39.999v-85zM272.999 -106.001c0 7.33301 -2.83301 13.833 -8.5 19.5s-12.5 8.5 -20.5 8.5s-14.667 -2.83301 -20 -8.5s-8 -12.167 -8 -19.5s2.66699 -14 8 -20s12 -9 20 -9s14.833 3 20.5 9
s8.5 12.667 8.5 20zM93.999 -189.001c0 8 -2.83301 14.833 -8.5 20.5s-12.834 8.5 -21.501 8.5s-15.667 -2.83301 -21 -8.5s-8 -12.5 -8 -20.5s2.66699 -15 8 -21s12.333 -9 21 -9s15.834 3 21.501 9s8.5 13 8.5 21zM168.999 190.999c0 9.33301 -3 17 -9 23s-13.667 9 -23 9
s-17 -3 -23 -9s-9 -13.667 -9 -23s3 -17 9 -23s13.667 -9 23 -9s17 3 23 9s9 13.667 9 23z" />
    <glyph glyph-name="uni0E11" unicode="&#xe11;" horiz-adv-x="511" 
d="M456 0l-35 -0.000976562v309c0 24 -3.66699 40 -11 48s-22.333 12 -45 12l-134 -369h-36v267c0 14 6 29.167 18 45.5s18 23.833 18 22.5c0 2.66699 -3.5 7.33398 -10.5 14.001s-11.5 10 -13.5 10l-44 -31l-58 40c-9.33301 0 -18 -5.83301 -26 -17.5
s-12 -19.834 -12 -24.501c8.66699 2.66699 17.667 4 27 4c17.333 0 31.833 -5.66699 43.5 -17s17.5 -26 17.5 -44c0 -17.333 -6.33301 -32.166 -19 -44.499s-28 -18.5 -46 -18.5c-23.333 0 -41.333 9.33301 -54 28c-10.667 15.333 -16 33 -16 53
c0 35.333 13 64.666 39 87.999c20 18 37.333 27 52 27l51 -35l48 35c16 -8 31.667 -21 47 -39c13.333 -14.667 20 -23.667 20 -27c-31.333 -31.333 -47 -53.666 -47 -66.999v-182l111 313h35c53.333 0 80 -33.333 80 -100v-300zM124 268.999c0 9.33301 -3 17 -9 23
s-13.667 9 -23 9s-16.833 -3 -22.5 -9s-8.5 -13.667 -8.5 -23s2.83301 -16.833 8.5 -22.5s13.167 -8.5 22.5 -8.5s17 2.83301 23 8.5s9 13.167 9 22.5z" />
    <glyph glyph-name="uni0E12" unicode="&#xe12;" horiz-adv-x="605" 
d="M330 69v59c-2 0.666992 -4.66699 1 -8 1c-24.667 0 -37 -17 -37 -51c0 -30.667 9 -46 27 -46c12 0 18 12.333 18 37zM550 0l-33.0049 0.00292969c-5.33301 28 -26.666 56 -63.999 84c-32.667 24.667 -62 39 -88 43v-71c0 -39.333 -17.333 -59 -52 -59
c-18.667 0 -33.667 7.16699 -45 21.5s-17 33.166 -17 56.499c0 36 12.333 61.333 37 76c13.333 8.66699 27.333 13 42 13v136c0 46.667 -15 70 -45 70c-13.333 0 -23.666 -3 -30.999 -9l-40 -32l-40 32c-7.33301 6 -17.666 9 -30.999 9c-30 0 -45 -23.333 -45 -70v-255
l106 132c-33.333 6 -50 26 -50 60c0 17.333 5.83301 32 17.5 44s25.834 18 42.501 18c17.333 0 32 -6 44 -18s18 -26.667 18 -44c0 -15.333 -5.66699 -30 -17 -44l-158 -193h-38v301c0 67.333 27 101 81 101c17.333 0 30.333 -3.33301 39 -10l31 -23l31 23
c8.66699 6.66699 21.667 10 39 10c54 0 81 -33.667 81 -101v-140c20.667 -0.666992 48.834 -12.334 84.501 -35.001s57.5 -42.334 65.5 -59.001v333h35v-400zM244.995 237.003c0 8.66699 -3 16 -9 22s-13.333 9 -22 9s-15.834 -3 -21.501 -9s-8.5 -13.333 -8.5 -22
s2.83301 -15.834 8.5 -21.501s12.834 -8.5 21.501 -8.5s16 2.83301 22 8.5s9 12.834 9 21.501z" />
    <glyph glyph-name="uni0E13" unicode="&#xe13;" horiz-adv-x="589" 
d="M584 68c0 -20 -7.00098 -36.998 -21.001 -50.998s-31.333 -21 -52 -21c-20 0 -37 7 -51 21s-21 31 -21 51c0 10 1.33301 18 4 24c-32 -12.667 -61.667 -43.334 -89 -92.001h-42v289c-5.33301 54.667 -44.666 82 -117.999 82c-46 0 -79 -10 -99 -30
c25.333 -7.33301 44.666 -22.666 57.999 -45.999c-31.333 -12.667 -47 -35 -47 -67v-117c10 6.66699 21 10 33 10c17.333 0 32.166 -6.16699 44.499 -18.5s18.5 -27.166 18.5 -44.499s-6 -31.666 -18 -42.999s-27 -17 -45 -17c-22 0 -38.833 6.66699 -50.5 20
s-17.5 29.666 -17.5 48.999v164c0 37.333 13 60.666 39 69.999c-17.333 15.333 -41.666 24.666 -72.999 27.999c36.667 48.667 91 73 163 73c44.667 0 80.334 -9.66699 107.001 -29s40 -46 40 -80v-254c10.667 23.333 29 44.666 55 63.999c30 22.667 62.333 35 97 37v260h35
v-263c33.333 -10.667 50 -33.667 50 -69zM550.999 68.002c0 11.333 -3.83301 20.833 -11.5 28.5s-17.167 11.5 -28.5 11.5c-10.667 0 -20 -3.83301 -28 -11.5s-12 -17.167 -12 -28.5c0 -10.667 4 -20 12 -28s17.333 -12 28 -12c11.333 0 20.833 4 28.5 12
s11.5 17.333 11.5 28zM168.999 58.002c0 8.66699 -2.83301 15.834 -8.5 21.501s-12.834 8.5 -21.501 8.5s-15.667 -2.83301 -21 -8.5s-8 -12.834 -8 -21.501s2.66699 -15.667 8 -21s12.333 -8 21 -8s15.834 2.66699 21.501 8s8.5 12.333 8.5 21z" />
    <glyph glyph-name="uni0E14" unicode="&#xe14;" horiz-adv-x="416" 
d="M361 0h-35.0029v262c0 31.333 -10.167 57.166 -30.5 77.499s-48.166 30.5 -83.499 30.5s-63.166 -10.167 -83.499 -30.5s-30.5 -46.166 -30.5 -77.499v-217l106 132c-33.333 6 -50 26 -50 60c0 17.333 5.83301 32 17.5 44s25.834 18 42.501 18c17.333 0 32 -6 44 -18
s18 -26.667 18 -44c0 -15.333 -5.66699 -30 -17 -44l-158 -193h-38v263c0 42.667 15 77 45 103c27.333 24 62 36 104 36s77 -12 105 -36c29.333 -26 44 -60.333 44 -103v-263zM244.997 237c0 8.66699 -3 16 -9 22s-13.333 9 -22 9s-15.834 -3 -21.501 -9
s-8.5 -13.333 -8.5 -22s2.83301 -15.834 8.5 -21.501s12.834 -8.5 21.501 -8.5s16 2.83301 22 8.5s9 12.834 9 21.501z" />
    <glyph glyph-name="uni0E15" unicode="&#xe15;" horiz-adv-x="420" 
d="M365 0h-35.0029v300c0 46.667 -15 70 -45 70c-13.333 0 -23.666 -3 -30.999 -9l-40 -32l-40 32c-7.33301 6 -17.666 9 -30.999 9c-30 0 -45 -23.333 -45 -70v-255l106 132c-33.333 6 -50 26 -50 60c0 17.333 5.83301 32 17.5 44s25.834 18 42.501 18
c17.333 0 32 -6 44 -18s18 -26.667 18 -44c0 -15.333 -5.66699 -30 -17 -44l-158 -193h-38v301c0 67.333 27 101 81 101c17.333 0 30.333 -3.33301 39 -10l31 -23l31 23c8.66699 6.66699 21.667 10 39 10c54 0 81 -33.667 81 -101v-301zM244.997 237c0 8.66699 -3 16 -9 22
s-13.333 9 -22 9s-15.834 -3 -21.501 -9s-8.5 -13.333 -8.5 -22s2.83301 -15.834 8.5 -21.501s12.834 -8.5 21.501 -8.5s16 2.83301 22 8.5s9 12.834 9 21.501z" />
    <glyph glyph-name="uni0E16" unicode="&#xe16;" horiz-adv-x="402" 
d="M347 0h-35v289c0 54.667 -39.333 82 -118 82c-46 0 -79 -10 -99 -30c25.333 -7.33301 44.666 -22.666 57.999 -45.999c-31.333 -12.667 -47 -35 -47 -67v-117c10 6.66699 21 10 33 10c17.333 0 32.166 -6.16699 44.499 -18.5s18.5 -27.166 18.5 -44.499
s-6 -31.666 -18 -42.999s-27 -17 -45 -17c-22 0 -38.833 6.66699 -50.5 20s-17.5 29.666 -17.5 48.999v164c0 37.333 13 60.666 39 69.999c-17.333 15.333 -41.666 24.666 -72.999 27.999c36.667 48.667 91 73 163 73c44.667 0 80.334 -9.66699 107.001 -29s40 -46 40 -80
v-293zM169 58c0 8.66699 -2.83301 15.834 -8.5 21.501s-12.834 8.5 -21.501 8.5s-15.667 -2.83301 -21 -8.5s-8 -12.834 -8 -21.501s2.66699 -15.667 8 -21s12.333 -8 21 -8s15.834 2.66699 21.501 8s8.5 12.333 8.5 21z" />
    <glyph glyph-name="uni0E17" unicode="&#xe17;" horiz-adv-x="455" 
d="M400 0l-35.001 0.00195312v326c0 17.333 -7 30 -21 38c-8 4.66699 -23 7 -45 7l-137 -371h-36v289c-10 -6.66699 -21 -10 -33 -10c-17.333 0 -32.166 6.16699 -44.499 18.5s-18.5 27.166 -18.5 44.499s6 31.666 18 42.999s27 17 45 17c45.333 0 68 -22 68 -66v-246
l114 310h40c26.667 0 47.5 -7.5 62.5 -22.5s22.5 -41.5 22.5 -79.5v-298zM121.999 341.002c0 8.66699 -2.83301 15.834 -8.5 21.501s-12.834 8.5 -21.501 8.5s-15.667 -2.83301 -21 -8.5s-8 -12.834 -8 -21.501s2.66699 -15.667 8 -21s12.333 -8 21 -8
s15.834 2.66699 21.501 8s8.5 12.333 8.5 21z" />
    <glyph glyph-name="uni0E18" unicode="&#xe18;" horiz-adv-x="364" 
d="M304 0h-230v33h43v213h-75v7c0 42 15.833 77.5 47.5 106.5s69.167 43.5 112.5 43.5c58 0 105.667 -20.333 143 -61l-22 -21c-34 34 -74.333 51 -121 51c-28.667 0 -55.5 -9.83301 -80.5 -29.5s-37.5 -41.167 -37.5 -64.5h159c18 0 32.667 -5.83301 44 -17.5
s17 -26.5 17 -44.5v-216zM269 33v176c0 24.667 -12.333 37 -37 37h-80v-213h117z" />
    <glyph glyph-name="uni0E19" unicode="&#xe19;" horiz-adv-x="454" 
d="M389 137c33.333 -10.667 49.999 -33.665 49.999 -68.998c0 -20 -7 -37 -21 -51s-31.333 -21 -52 -21c-20 0 -37 7 -51 21s-21 31 -21 51c0 10 1.33301 18 4 24c-44.667 -18 -87.667 -48.667 -129 -92h-43v289c-10 -6.66699 -21 -10 -33 -10
c-17.333 0 -32.166 6.16699 -44.499 18.5s-18.5 27.166 -18.5 44.499s6 31.666 18 42.999s27 17 45 17c45.333 0 68 -22 68 -66v-298c72.667 64 137 98 193 102v260h35v-263zM405.999 68.002c0 11.333 -3.83301 20.833 -11.5 28.5s-17.167 11.5 -28.5 11.5
c-10.667 0 -20 -3.83301 -28 -11.5s-12 -17.167 -12 -28.5c0 -10.667 4 -20 12 -28s17.333 -12 28 -12c11.333 0 20.833 4 28.5 12s11.5 17.333 11.5 28zM121.999 341.002c0 8.66699 -2.83301 15.834 -8.5 21.501s-12.834 8.5 -21.501 8.5s-15.667 -2.83301 -21 -8.5
s-8 -12.834 -8 -21.501s2.66699 -15.667 8 -21s12.333 -8 21 -8s15.834 2.66699 21.501 8s8.5 12.333 8.5 21z" />
    <glyph glyph-name="uni0E1A" unicode="&#xe1a;" horiz-adv-x="456" 
d="M401 0l-318.001 0.00195312v33h43v256c-10 -6.66699 -21 -10 -33 -10c-17.333 0 -32.166 6.16699 -44.499 18.5s-18.5 27.166 -18.5 44.499s6 31.666 18 42.999s27 17 45 17c45.333 0 68 -22 68 -66v-303h205v367h35v-400zM121.999 341.002
c0 8.66699 -2.83301 15.834 -8.5 21.501s-12.834 8.5 -21.501 8.5s-15.667 -2.83301 -21 -8.5s-8 -12.834 -8 -21.501s2.66699 -15.667 8 -21s12.333 -8 21 -8s15.834 2.66699 21.501 8s8.5 12.333 8.5 21z" />
    <glyph glyph-name="uni0E1B" unicode="&#xe1b;" horiz-adv-x="456" 
d="M401 0l-318.001 0.00195312v33h43v256c-10 -6.66699 -21 -10 -33 -10c-17.333 0 -32.166 6.16699 -44.499 18.5s-18.5 27.166 -18.5 44.499s6 31.666 18 42.999s27 17 45 17c45.333 0 68 -22 68 -66v-303h205v598h35v-631zM121.999 341.002
c0 8.66699 -2.83301 15.834 -8.5 21.501s-12.834 8.5 -21.501 8.5s-15.667 -2.83301 -21 -8.5s-8 -12.834 -8 -21.501s2.66699 -15.667 8 -21s12.333 -8 21 -8s15.834 2.66699 21.501 8s8.5 12.333 8.5 21z" />
    <glyph glyph-name="uni0E1C" unicode="&#xe1c;" horiz-adv-x="408" 
d="M353 0l-35.001 -0.00195312l-114 185l-114 -185h-35v336c0 44 22.667 66 68 66c18 0 33 -5.66699 45 -17s18 -25.666 18 -42.999s-6.16699 -32.166 -18.5 -44.499s-27.166 -18.5 -44.499 -18.5c-12 0 -23 3.33301 -33 10v-236l95 160h38l95 -160v347h35v-400z
M152.999 340.998c0 8.66699 -2.83301 15.834 -8.5 21.501s-12.834 8.5 -21.501 8.5s-15.667 -2.83301 -21 -8.5s-8 -12.834 -8 -21.501s2.66699 -15.667 8 -21s12.333 -8 21 -8s15.834 2.66699 21.501 8s8.5 12.333 8.5 21z" />
    <glyph glyph-name="uni0E1D" unicode="&#xe1d;" horiz-adv-x="408" 
d="M353 0l-35.001 -0.00195312l-114 185l-114 -185h-35v336c0 44 22.667 66 68 66c18 0 33 -5.66699 45 -17s18 -25.666 18 -42.999s-6.16699 -32.166 -18.5 -44.499s-27.166 -18.5 -44.499 -18.5c-12 0 -23 3.33301 -33 10v-236l95 160h38l95 -160v578h35v-631z
M152.999 340.998c0 8.66699 -2.83301 15.834 -8.5 21.501s-12.834 8.5 -21.501 8.5s-15.667 -2.83301 -21 -8.5s-8 -12.834 -8 -21.501s2.66699 -15.667 8 -21s12.333 -8 21 -8s15.834 2.66699 21.501 8s8.5 12.333 8.5 21z" />
    <glyph glyph-name="uni0E1E" unicode="&#xe1e;" horiz-adv-x="486" 
d="M431 0l-36.001 0.00195312l-117 351l-116 -351h-36v289c-10 -6.66699 -21 -10 -33 -10c-17.333 0 -32.166 6.16699 -44.499 18.5s-18.5 27.166 -18.5 44.499s6 31.666 18 42.999s27 17 45 17c45.333 0 68 -22 68 -66v-233l99 297h37l99 -297v297h35v-400z
M121.999 341.002c0 8.66699 -2.83301 15.834 -8.5 21.501s-12.834 8.5 -21.501 8.5s-15.667 -2.83301 -21 -8.5s-8 -12.834 -8 -21.501s2.66699 -15.667 8 -21s12.333 -8 21 -8s15.834 2.66699 21.501 8s8.5 12.333 8.5 21z" />
    <glyph glyph-name="uni0E1F" unicode="&#xe1f;" horiz-adv-x="486" 
d="M431 0l-36.001 0.00195312l-117 351l-116 -351h-36v289c-10 -6.66699 -21 -10 -33 -10c-17.333 0 -32.166 6.16699 -44.499 18.5s-18.5 27.166 -18.5 44.499s6 31.666 18 42.999s27 17 45 17c45.333 0 68 -22 68 -66v-233l99 297h37l99 -297v528h35v-631z
M121.999 341.002c0 8.66699 -2.83301 15.834 -8.5 21.501s-12.834 8.5 -21.501 8.5s-15.667 -2.83301 -21 -8.5s-8 -12.834 -8 -21.501s2.66699 -15.667 8 -21s12.333 -8 21 -8s15.834 2.66699 21.501 8s8.5 12.333 8.5 21z" />
    <glyph glyph-name="uni0E20" unicode="&#xe20;" horiz-adv-x="439" 
d="M384 0l-34.999 0.00292969v289c0 54.667 -37.667 82 -113 82c-44 0 -76 -10 -96 -30c25.333 -7.33301 44.666 -22.666 57.999 -45.999c-31.333 -12.667 -47 -35 -47 -67v-161c0 -19.333 -5.33301 -35.333 -16 -48c-12.667 -14 -30 -21 -52 -21c-18 0 -33 5.66699 -45 17
s-18 25.666 -18 42.999s6.16699 32.166 18.5 44.499s27.166 18.5 44.499 18.5c12 0 23 -3.33301 33 -10v120c0 37.333 13 60.666 39 69.999c-17.333 15.333 -41.666 24.666 -72.999 27.999c36.667 48.667 90 73 160 73c44 0 78.667 -9.66699 104 -29s38 -46 38 -80v-293z
M112.001 58.0029c0 8.66699 -2.83301 15.834 -8.5 21.501s-12.834 8.5 -21.501 8.5s-15.667 -2.83301 -21 -8.5s-8 -12.834 -8 -21.501s2.66699 -15.667 8 -21s12.333 -8 21 -8s15.834 2.66699 21.501 8s8.5 12.333 8.5 21z" />
    <glyph glyph-name="uni0E21" unicode="&#xe21;" horiz-adv-x="441" 
d="M151 58v73l-5 1h-8c-16 0 -30 -5.5 -42 -16.5s-18 -24.833 -18 -41.5c0 -32 14.667 -48 44 -48c19.333 0 29 10.667 29 32zM386 0l-35.001 0.00195312c-23.333 47.333 -57 83 -101 107c-22 12 -43.333 19.667 -64 23v-63c0 -46 -21 -69 -63 -69
c-22.667 0 -41.334 6.5 -56.001 19.5s-22 31.5 -22 55.5c0 33.333 13.333 58 40 74c18.667 10.667 39 16 61 16h5v126c-10 -6.66699 -21 -10 -33 -10c-17.333 0 -32.166 6.16699 -44.499 18.5s-18.5 27.166 -18.5 44.499s6 31.666 18 42.999s27 17 45 17
c45.333 0 68 -22 68 -66v-174c28.667 -4.66699 59.334 -16 92.001 -34c34 -20 58.333 -40.667 73 -62v334h35v-400zM146.999 341.002c0 8.66699 -2.83301 15.834 -8.5 21.501s-12.834 8.5 -21.501 8.5s-15.667 -2.83301 -21 -8.5s-8 -12.834 -8 -21.501
s2.66699 -15.667 8 -21s12.333 -8 21 -8s15.834 2.66699 21.501 8s8.5 12.333 8.5 21z" />
    <glyph glyph-name="uni0E22" unicode="&#xe22;" horiz-adv-x="412" 
d="M357 0l-264 -0.000976562v138c0 25.333 10.667 45.333 32 60c-12.667 1.33301 -26.334 8 -41.001 20c-21.333 17.333 -32 41 -32 71s9.83301 56.167 29.5 78.5s44.834 33.5 75.501 33.5c17.333 0 32 -6 44 -18s18 -26.667 18 -44s-6 -31.666 -18 -42.999
s-26.667 -17 -44 -17c-34 0 -53.667 15.667 -59 47c-6 -8 -9 -19.667 -9 -35c0 -35.333 16.333 -57.333 49 -66c17.333 -4.66699 36 -7 56 -7h21v-29h-45c-28 0 -42 -16 -42 -48v-108h194v367h35v-400zM187 339.999c0 8.66699 -2.83301 15.834 -8.5 21.501
s-12.834 8.5 -21.501 8.5s-15.667 -2.83301 -21 -8.5s-8 -12.834 -8 -21.501s2.66699 -15.667 8 -21s12.333 -8 21 -8s15.834 2.66699 21.501 8s8.5 12.333 8.5 21z" />
    <glyph glyph-name="uni0E23" unicode="&#xe23;" horiz-adv-x="325" 
d="M216 66c0 -19.333 -5.33301 -35.3301 -16 -47.9971c-12.667 -14 -30 -21 -52 -21c-18 0 -33 5.66699 -45 17s-18 25.666 -18 42.999s6.16699 32.166 18.5 44.499s27.166 18.5 44.499 18.5c12 0 23 -3.33301 33 -10v161h-142c0 37.333 12.167 68.166 36.5 92.499
s55.833 36.5 94.5 36.5c34 0 63.333 -9 88 -27c27.333 -20.667 41 -47.667 41 -81h-37c0 23.333 -9.16699 42.333 -27.5 57s-39.166 22 -62.499 22c-22 0 -42 -6 -60 -18s-28.333 -28.667 -31 -50h135v-237zM177 57.0029c0 8.66699 -2.83301 15.834 -8.5 21.501
s-12.834 8.5 -21.501 8.5s-15.667 -2.83301 -21 -8.5s-8 -12.834 -8 -21.501s2.66699 -15.667 8 -21s12.333 -8 21 -8s15.834 2.66699 21.501 8s8.5 12.333 8.5 21z" />
    <glyph glyph-name="uni0E24" unicode="&#xe24;" horiz-adv-x="402" 
d="M347 -156h-35v445c0 54.667 -39.333 82 -118 82c-46 0 -79 -10 -99 -30c25.333 -7.33301 44.666 -22.666 57.999 -45.999c-31.333 -12.667 -47 -35 -47 -67v-117c10 6.66699 21 10 33 10c17.333 0 32.166 -6.16699 44.499 -18.5s18.5 -27.166 18.5 -44.499
s-6 -31.666 -18 -42.999s-27 -17 -45 -17c-22 0 -38.833 6.66699 -50.5 20s-17.5 29.666 -17.5 48.999v164c0 37.333 13 60.666 39 69.999c-17.333 15.333 -41.666 24.666 -72.999 27.999c36.667 48.667 91 73 163 73c44.667 0 80.334 -9.66699 107.001 -29s40 -46 40 -80
v-449zM169 58c0 8.66699 -2.83301 15.834 -8.5 21.501s-12.834 8.5 -21.501 8.5s-15.667 -2.83301 -21 -8.5s-8 -12.834 -8 -21.501s2.66699 -15.667 8 -21s12.333 -8 21 -8s15.834 2.66699 21.501 8s8.5 12.333 8.5 21z" />
    <glyph glyph-name="uni0E25" unicode="&#xe25;" horiz-adv-x="405" 
d="M350 0l-35.002 -0.00195312c-4 28 -14.333 63.667 -31 107c-24 62 -53.333 116.333 -88 163c-18 -14 -36 -37.667 -54 -71c-19.333 -35.333 -29 -63.666 -29 -84.999c8 3.33301 15.667 5 23 5c17.333 0 31.833 -5.83301 43.5 -17.5s17.5 -26.167 17.5 -43.5
s-5.83301 -31.666 -17.5 -42.999s-26.167 -17 -43.5 -17c-42 0 -63 27 -63 81c0 42 13.333 87 40 135s55.334 79.667 86.001 95c51.333 -47.333 90.333 -116.333 117 -207v160c0 32 -11.667 58.333 -35 79s-51.666 31 -84.999 31c-38 0 -68.333 -16.333 -91 -49
c-21.333 -30 -32 -66 -32 -108h-33c0 54 12.333 97.333 37 130c28 36.667 68.667 55 122 55c41.333 0 76.833 -12.667 106.5 -38s44.5 -59 44.5 -101v-261zM166.998 58.998c0 8.66699 -2.83301 15.834 -8.5 21.501s-12.834 8.5 -21.501 8.5s-15.834 -2.83301 -21.501 -8.5
s-8.5 -12.834 -8.5 -21.501s2.83301 -15.834 8.5 -21.501s12.834 -8.5 21.501 -8.5s15.834 2.83301 21.501 8.5s8.5 12.834 8.5 21.501z" />
    <glyph glyph-name="uni0E26" unicode="&#xe26;" horiz-adv-x="439" 
d="M384 -156l-34.999 0.00292969v445c0 54.667 -37.667 82 -113 82c-44 0 -76 -10 -96 -30c25.333 -7.33301 44.666 -22.666 57.999 -45.999c-31.333 -12.667 -47 -35 -47 -67v-161c0 -19.333 -5.33301 -35.333 -16 -48c-12.667 -14 -30 -21 -52 -21
c-18 0 -33 5.66699 -45 17s-18 25.666 -18 42.999s6.16699 32.166 18.5 44.499s27.166 18.5 44.499 18.5c12 0 23 -3.33301 33 -10v120c0 37.333 13 60.666 39 69.999c-17.333 15.333 -41.666 24.666 -72.999 27.999c36.667 48.667 90 73 160 73
c44 0 78.667 -9.66699 104 -29s38 -46 38 -80v-449zM112.001 58.0029c0 8.66699 -2.83301 15.834 -8.5 21.501s-12.834 8.5 -21.501 8.5s-15.667 -2.83301 -21 -8.5s-8 -12.834 -8 -21.501s2.66699 -15.667 8 -21s12.333 -8 21 -8s15.834 2.66699 21.501 8
s8.5 12.333 8.5 21z" />
    <glyph glyph-name="uni0E27" unicode="&#xe27;" horiz-adv-x="358" 
d="M303 67c0 -19.333 -5.33203 -35.333 -15.999 -48c-12.667 -14 -30 -21 -52 -21c-18 0 -33 5.66699 -45 17s-18 25.666 -18 42.999s6.16699 32.166 18.5 44.499s27.166 18.5 44.499 18.5c12 0 23 -3.33301 33 -10v154c0 70.667 -30.333 106.334 -91 107.001
c-67.333 0.666992 -101 -37.666 -101 -114.999v-50h-35v36c0 106 45.667 159 137 159c42.667 0 75 -13.333 97 -40c18.667 -22.667 28 -52.667 28 -90v-205zM264.001 58c0 8.66699 -2.83301 15.834 -8.5 21.501s-12.834 8.5 -21.501 8.5s-15.667 -2.83301 -21 -8.5
s-8 -12.834 -8 -21.501s2.66699 -15.667 8 -21s12.333 -8 21 -8s15.834 2.66699 21.501 8s8.5 12.333 8.5 21z" />
    <glyph glyph-name="uni0E28" unicode="&#xe28;" horiz-adv-x="417" 
d="M362 0l-34.999 0.00390625v258c0 28 -6.33301 51.667 -19 71c-15.333 -20.667 -29 -36.334 -41 -47.001c8.66699 -10.667 13 -22.334 13 -35.001c0.666992 -18 -5 -33.333 -17 -46s-27 -19 -45 -19c-22.667 0 -38.667 7.33301 -48 22l-70 -204h-37v258
c0 41.333 13.667 75.666 41 102.999s63.666 41 108.999 41c37.333 0 68 -8.33301 92 -25c13.333 20 20 36.667 20 50h37c0 -14 -11 -37.667 -33 -71c22 -24.667 33 -57.334 33 -98.001v-258zM98.001 94.0039l43.999 137c16 50 41 75 75 75c9.33301 0 18 -1.66699 26 -5
c14.667 12.667 29.334 29.667 44.001 51c-18 14 -42.333 21 -73 21c-36 0 -64.333 -10.833 -85 -32.5s-31 -49.167 -31 -82.5v-164zM248 244.004c0 8.66699 -3 16 -9 22s-13.333 9 -22 9s-16 -3 -22 -9s-9 -13.333 -9 -22s3 -16 9 -22s13.333 -9 22 -9s16 3 22 9
s9 13.333 9 22z" />
    <glyph glyph-name="uni0E29" unicode="&#xe29;" horiz-adv-x="456" 
d="M401 0l-318 0.00195312v33h43v256c-10 -6.66699 -21 -10 -33 -10c-17.333 0 -32.166 6.16699 -44.499 18.5s-18.5 27.166 -18.5 44.499s6 31.666 18 42.999s27 17 45 17c45.333 0 68 -22 68 -66v-303h205v154c-24 -7.33301 -49.667 -11 -77 -11
c-70 0 -105 22.667 -105 68c0 17.333 6.66699 32.333 20 45s28.666 19 45.999 19s32.333 -6.33301 45 -19s19 -27.667 19 -45c0 -13.333 -4 -25.666 -12 -36.999c22.667 0 44 4 64 12v181h35v-162c20 13.333 39.667 30.666 59 51.999l12 -34
c-14 -21.333 -37.667 -42 -71 -62v-194zM122 341.002c0 8.66699 -2.83301 15.834 -8.5 21.501s-12.834 8.5 -21.501 8.5s-15.667 -2.83301 -21 -8.5s-8 -12.834 -8 -21.501s2.66699 -15.667 8 -21s12.333 -8 21 -8s15.834 2.66699 21.501 8s8.5 12.333 8.5 21zM281 244.002
c0 8.66699 -3 16 -9 22s-13.333 9 -22 9s-16 -3 -22 -9s-9 -13.333 -9 -22s3 -16 9 -22s13.333 -9 22 -9s16 3 22 9s9 13.333 9 22z" />
    <glyph glyph-name="uni0E2A" unicode="&#xe2a;" horiz-adv-x="405" 
d="M350 0l-35 -0.00292969c-4 28 -14.333 63.667 -31 107c-24 62 -53.333 116.333 -88 163c-18 -14 -36 -37.667 -54 -71c-19.333 -35.333 -29 -63.666 -29 -84.999c8 3.33301 15.667 5 23 5c17.333 0 31.833 -5.83301 43.5 -17.5s17.5 -26.167 17.5 -43.5
s-5.83301 -31.666 -17.5 -42.999s-26.167 -17 -43.5 -17c-42 0 -63 27 -63 81c0 48.667 11.667 92.667 35 132c16.667 27.333 43.334 58.333 80.001 93l67 54c-18.667 9.33301 -38.334 14 -59.001 14c-38 0 -68.333 -16.333 -91 -49c-21.333 -30 -32 -66 -32 -108h-33
c0 54 12.333 97.333 37 130c28 36.667 68.667 55 122 55c28.667 0 54.667 -6.66699 78 -20c14 15.333 24.333 31 31 47h32c-3.33301 -18 -16.333 -39 -39 -63c32.667 -27.333 49 -61.666 49 -102.999v-261zM316 101.997v160.001c0 32.667 -12.333 59.667 -37 81l-64 -53
c45.333 -50.667 79 -113.334 101 -188.001zM167 58.998c0 8.66699 -2.83301 15.834 -8.5 21.501s-12.834 8.5 -21.501 8.5s-15.834 -2.83301 -21.501 -8.5s-8.5 -12.834 -8.5 -21.501s2.83301 -15.834 8.5 -21.501s12.834 -8.5 21.501 -8.5s15.834 2.83301 21.501 8.5
s8.5 12.834 8.5 21.501z" />
    <glyph glyph-name="uni0E2B" unicode="&#xe2b;" horiz-adv-x="451" 
d="M396 0h-35.001v241c0 8.66699 -5.66699 15.667 -17 21c-10 -1.33301 -18 -6.66602 -24 -15.999l-161 -246h-33v289c-10 -6.66699 -21 -10 -33 -10c-17.333 0 -32.166 6.16699 -44.499 18.5s-18.5 27.166 -18.5 44.499s6 31.666 18 42.999s27 17 45 17
c45.333 0 68 -22 68 -66v-281l135 205c6 8.66699 15.333 15.334 28 20.001c-25.333 8.66699 -38 28 -38 58c0 18 5.66699 33 17 45s26 18 44 18s33 -6 45 -18s18 -27 18 -45c0 -28.667 -13 -47.667 -39 -57c16.667 -11.333 25 -24 25 -38v-243zM121.999 341
c0 8.66699 -2.83301 15.834 -8.5 21.501s-12.834 8.5 -21.501 8.5s-15.667 -2.83301 -21 -8.5s-8 -12.834 -8 -21.501s2.66699 -15.667 8 -21s12.333 -8 21 -8s15.834 2.66699 21.501 8s8.5 12.333 8.5 21zM376.999 340c0 8.66699 -2.83301 15.834 -8.5 21.501
s-12.834 8.5 -21.501 8.5s-15.667 -2.83301 -21 -8.5s-8 -12.834 -8 -21.501s2.66699 -15.667 8 -21s12.333 -8 21 -8s15.834 2.66699 21.501 8s8.5 12.333 8.5 21z" />
    <glyph glyph-name="uni0E2C" unicode="&#xe2c;" horiz-adv-x="486" 
d="M431 0l-36.001 0.00195312l-117 260l-116 -260h-36v289c-10 -6.66699 -21 -10 -33 -10c-17.333 0 -32.166 6.16699 -44.499 18.5s-18.5 27.166 -18.5 44.499s6 31.666 18 42.999s27 17 45 17c45.333 0 68 -22 68 -66v-251l99 218h37l99 -218v254
c-8.66699 -4.66699 -19 -7 -31 -7c-18 0 -32.667 5.66699 -44 17s-17 26 -17 44s5.66699 33 17 45s26 18 44 18c32 0 52 -15 60 -45l31 31l22 -22l-47 -49v-371zM121.999 341.002c0 8.66699 -2.83301 15.834 -8.5 21.501s-12.834 8.5 -21.501 8.5s-15.667 -2.83301 -21 -8.5
s-8 -12.834 -8 -21.501s2.66699 -15.667 8 -21s12.333 -8 21 -8s15.834 2.66699 21.501 8s8.5 12.333 8.5 21zM394.999 395.002c0 8.66699 -2.83301 15.834 -8.5 21.501s-12.834 8.5 -21.501 8.5s-15.667 -2.83301 -21 -8.5s-8 -12.834 -8 -21.501s2.66699 -15.667 8 -21
s12.333 -8 21 -8s15.834 2.66699 21.501 8s8.5 12.333 8.5 21z" />
    <glyph glyph-name="uni0E2D" unicode="&#xe2d;" horiz-adv-x="440" 
d="M385 0l-260.002 -0.00195312v215c0 53.333 22.667 80 68 80c18 0 33 -5.66699 45 -17s18 -25.666 18 -42.999s-6.16699 -32.166 -18.5 -44.499s-27.166 -18.5 -44.499 -18.5c-12 0 -23 3.33301 -33 10v-149h190v216c0 81.333 -42.667 122.333 -128 123
c-40 0 -73.167 -10.833 -99.5 -32.5s-39.5 -50.167 -39.5 -85.5v-56h-35v42c0 47.333 15 86.166 45 116.499s71.667 45.5 125 45.5c46.667 0 85.334 -12 116.001 -36c34 -27.333 51 -64.666 51 -111.999v-254zM222.998 233.998c0 8.66699 -2.83301 15.834 -8.5 21.501
s-12.834 8.5 -21.501 8.5s-15.667 -2.83301 -21 -8.5s-8 -12.834 -8 -21.501s2.66699 -15.667 8 -21s12.333 -8 21 -8s15.834 2.66699 21.501 8s8.5 12.333 8.5 21z" />
    <glyph glyph-name="uni0E2E" unicode="&#xe2e;" horiz-adv-x="391" 
d="M336 0l-274.002 -0.00195312v182c0 54 22.667 81 68 81c18 0 33 -5.66699 45 -17s18 -25.666 18 -42.999s-6.16699 -32.166 -18.5 -44.499s-27.166 -18.5 -44.499 -18.5c-12 0 -23 3.33301 -33 10v-117h204v231c0 32.667 -8 55 -24 67c-29.333 -31.333 -69 -47 -119 -47
c-70.667 0 -106 18.667 -106 56c0 22 14 38.667 42 50c20.667 8 45.334 12 74.001 12c42.667 0 80 -9.66699 112 -29c15.333 11.333 27.333 29.333 36 54h32c-11.333 -28.667 -27.333 -53 -48 -73c24 -19.333 36 -51.333 36 -96v-258zM255.998 349.998
c-32 15.333 -63 23 -93 23c-14.667 0 -29.667 -2 -45 -6c-21.333 -6 -32 -14.333 -32 -25c0 -18 24.667 -26.667 74 -26c28 0 52 5.66699 72 17c8 5.33301 16 11 24 17zM159.998 201.998c0 8.66699 -2.83301 15.834 -8.5 21.501s-12.834 8.5 -21.501 8.5
s-15.667 -2.83301 -21 -8.5s-8 -12.834 -8 -21.501s2.66699 -15.667 8 -21s12.333 -8 21 -8s15.834 2.66699 21.501 8s8.5 12.333 8.5 21z" />
    <glyph glyph-name="uni0E2F" unicode="&#xe2f;" horiz-adv-x="400" 
d="M333 0l-36 0.00292969v328c-11.333 -24.667 -29.333 -44.834 -54 -60.501s-52.334 -23.5 -83.001 -23.5c-29.333 0 -55 7.33301 -77 22c-26 17.333 -39 40.666 -39 69.999c0 19.333 6.33301 35.166 19 47.499s29 18.5 49 18.5c18.667 0 33.334 -6 44.001 -18
s16 -26.333 16 -43c0 -32 -15.333 -51.667 -46 -59c12 -4 23.333 -6 34 -6c32 0 61.333 13 88 39c24 24 40 52.333 48 85h37v-400zM141 342.003c0 9.33301 -3 17 -9 23s-13.667 9 -23 9s-17 -3 -23 -9s-9 -13.667 -9 -23s3 -17 9 -23s13.667 -9 23 -9s17 3 23 9
s9 13.667 9 23z" />
    <glyph glyph-name="uni0E30" unicode="&#xe30;" horiz-adv-x="369" 
d="M335 400c0 -38 -17.999 -71.667 -53.999 -101s-78 -44 -126 -44c-30.667 0 -56.334 6.33301 -77.001 19c-24 14.667 -36 35 -36 61c0 17.333 6.16699 32.166 18.5 44.499s27.5 18.5 45.5 18.5s33.5 -6.16699 46.5 -18.5s19.5 -27.166 19.5 -44.499
c0 -20 -7.66699 -36 -23 -48c3.33301 -0.666992 8.66602 -1 15.999 -1c32.667 0 62.334 11.5 89.001 34.5s41.667 49.5 45 79.5h36zM335.001 154c0 -38 -17.999 -71.667 -53.999 -101s-78 -44 -126 -44c-30.667 0 -56.334 6.33301 -77.001 19c-24 14.667 -36 35 -36 61
c0 17.333 6.16699 32.166 18.5 44.499s27.5 18.5 45.5 18.5s33.5 -6.16699 46.5 -18.5s19.5 -27.166 19.5 -44.499c0 -20 -7.66699 -36 -23 -48c3.33301 -0.666992 8.66602 -1 15.999 -1c32.667 0 62.334 11.5 89.001 34.5s41.667 49.5 45 79.5h36zM141.002 336
c0 9.33301 -3.16699 17.166 -9.5 23.499s-14.166 9.5 -23.499 9.5s-17 -3.16699 -23 -9.5s-9 -14.166 -9 -23.499s3 -17 9 -23s13.667 -9 23 -9s17.166 3 23.499 9s9.5 13.667 9.5 23zM141.002 90c0 9.33301 -3.16699 17.166 -9.5 23.499s-14.166 9.5 -23.499 9.5
s-17 -3.16699 -23 -9.5s-9 -14.166 -9 -23.499s3 -17 9 -23s13.667 -9 23 -9s17.166 3 23.499 9s9.5 13.667 9.5 23z" />
    <glyph glyph-name="uni0E31" unicode="&#xe31;" 
d="M60 612c-6.66699 -34 -30 -62.334 -70 -85.001s-84.333 -34 -133 -34c-62.667 0 -94 21.667 -94 65c0 16 6.16699 29.5 18.5 40.5s26.5 16.5 42.5 16.5s29.5 -5.5 40.5 -16.5s16.5 -24.5 16.5 -40.5c0 -11.333 -3.66699 -22.666 -11 -33.999c34 0 66.167 8.33301 96.5 25
s49.833 37.667 58.5 63h35zM-149 556.999c0 8.66699 -2.83301 15.834 -8.5 21.501s-12.167 8.5 -19.5 8.5c-8 0 -15 -2.83301 -21 -8.5s-9 -12.834 -9 -21.501c0 -8 3 -14.667 9 -20s13 -8 21 -8c7.33301 0 13.833 2.66699 19.5 8s8.5 12 8.5 20z" />
    <glyph glyph-name="uni0E32" unicode="&#xe32;" horiz-adv-x="347" 
d="M292 0l-34.9971 -0.000976562v270c0 31.333 -9 56.333 -27 75s-43 28 -75 28c-30.667 0 -54.667 -9.16699 -72 -27.5s-26.333 -41.5 -27 -69.5h-36c3.33301 36.667 17.166 66.834 41.499 90.501s55.166 35.5 92.499 35.5c43.333 0 77.166 -12.167 101.499 -36.5
s36.5 -56.5 36.5 -96.5v-269z" />
    <glyph glyph-name="uni0E33" unicode="&#xe33;" horiz-adv-x="347" 
d="M292 0l-34.9971 -0.000976562v270c0 31.333 -9 56.333 -27 75s-43 28 -75 28c-30.667 0 -54.667 -9.16699 -72 -27.5s-26.333 -41.5 -27 -69.5h-36c3.33301 36.667 17.166 66.834 41.499 90.501s55.166 35.5 92.499 35.5c43.333 0 77.166 -12.167 101.499 -36.5
s36.5 -56.5 36.5 -96.5v-269zM0.00292969 573.999c0 -20 -7 -37 -21 -51s-31 -21 -51 -21s-37 7 -51 21s-21 31 -21 51s7 37 21 51s31 21 51 21s37 -7 51 -21s21 -31 21 -51zM-32.9971 573.999c0 11.333 -3.83301 20.666 -11.5 27.999s-16.834 11 -27.501 11
c-11.333 0 -20.666 -3.66699 -27.999 -11s-11 -16.666 -11 -27.999c0 -10.667 3.66699 -19.834 11 -27.501s16.666 -11.5 27.999 -11.5c10.667 0 19.834 3.83301 27.501 11.5s11.5 16.834 11.5 27.501z" />
    <glyph glyph-name="uni0E34" unicode="&#xe34;" 
d="M-52 470c-70 30 -145.668 45.001 -227.001 45.001c-34.667 0 -67 -2.33301 -97 -7c22.667 80.667 75.334 121 158.001 121c46 0 84.333 -14.833 115 -44.5s47.667 -67.834 51 -114.501zM-93.001 512.001c-7.33301 26 -24.666 47.333 -51.999 64
c-24.667 14.667 -49.667 22 -75 22c-52.667 0 -88.334 -19.667 -107.001 -59c20 2 39.667 3 59 3c58 0 116.333 -10 175 -30z" />
    <glyph glyph-name="uni0E35" unicode="&#xe35;" 
d="M-55 493c2 -6.66699 2.99902 -14.333 2.99902 -23c-70 30 -145.667 45 -227 45c-34.667 0 -67 -2.33301 -97 -7c22.667 80.667 75.334 121 158.001 121c54 0 96.667 -19.333 128 -58v91h35v-169zM-93.001 512.001c-7.33301 26 -24.666 47.333 -51.999 64
c-24.667 14.667 -49.667 22 -75 22c-52.667 0 -88.334 -19.667 -107.001 -59c20 2 39.667 3 59 3c58 0 116.333 -10 175 -30z" />
    <glyph glyph-name="uni0E36" unicode="&#xe36;" 
d="M-93 512c-7.33301 26 -24.666 47.333 -51.999 64c-24.667 14.667 -49.667 22 -75 22c-52.667 0 -88.334 -19.667 -107.001 -59c20 2 39.667 3 59 3c58 0 116.333 -10 175 -30zM-44 616c0 -28 -13 -46 -39 -54c18.667 -26 29 -56.667 31 -92c-70 30 -145.667 45 -227 45
c-34.667 0 -67 -2.33301 -97 -7c22.667 80.667 75.334 121 158.001 121c20 0 40 -3.33301 60 -10c0.666992 15.333 6.66699 28.333 18 39s24.666 16 39.999 16s28.5 -5.5 39.5 -16.5s16.5 -24.833 16.5 -41.5zM-71 616c0 8.66699 -2.83301 15.834 -8.5 21.501
s-12.5 8.5 -20.5 8.5s-15 -2.83301 -21 -8.5s-9 -12.834 -9 -21.501s3 -15.667 9 -21s13 -8 21 -8s14.833 2.66699 20.5 8s8.5 12.333 8.5 21z" />
    <glyph glyph-name="uni0E37" unicode="&#xe37;" 
d="M-55 493c2 -6.66699 2.99902 -14.333 2.99902 -23c-70 30 -145.667 45 -227 45c-34.667 0 -67 -2.33301 -97 -7c22.667 80.667 75.334 121 158.001 121c22 0 41.667 -3.33301 59 -10v43h35v-60c14.667 -10 26 -20.333 34 -31v91h35v-169zM-93.001 512.001
c-7.33301 26 -24.666 47.333 -51.999 64c-24.667 14.667 -49.667 22 -75 22c-52.667 0 -88.334 -19.667 -107.001 -59c20 2 39.667 3 59 3c58 0 116.333 -10 175 -30z" />
    <glyph glyph-name="uni0E38" unicode="&#xe38;" 
d="M-55 -235l-34.999 -0.00195312v75c-6.66699 -4 -16.334 -6 -29.001 -6c-15.333 0 -28.833 5.83301 -40.5 17.5s-17.5 25.167 -17.5 40.5c0 16.667 5.83301 30.834 17.5 42.501s25.167 17.5 40.5 17.5c20 0 35.667 -5.66699 47 -17s17 -25.666 17 -42.999v-127z
M-88.999 -106.002c0 8 -2.66699 14.667 -8 20s-12 8 -20 8s-14.833 -2.66699 -20.5 -8s-8.5 -12 -8.5 -20s2.83301 -14.833 8.5 -20.5s12.5 -8.5 20.5 -8.5s14.667 2.83301 20 8.5s8 12.5 8 20.5z" />
    <glyph glyph-name="uni0E39" unicode="&#xe39;" 
d="M-55 -233l-150.999 -0.00195312v31h21v42c-6.66699 -4 -16.334 -6 -29.001 -6c-15.333 0 -28.833 5.83301 -40.5 17.5s-17.5 25.167 -17.5 40.5c0 16.667 5.83301 30.834 17.5 42.501s25.167 17.5 40.5 17.5c20 0 35.667 -5.66699 47 -17s17 -25.666 17 -42.999v-94h60
v153h35v-184zM-183.999 -106.002c0 8 -2.66699 14.667 -8 20s-12 8 -20 8s-14.833 -2.66699 -20.5 -8s-8.5 -12 -8.5 -20s2.83301 -14.833 8.5 -20.5s12.5 -8.5 20.5 -8.5s14.667 2.83301 20 8.5s8 12.5 8 20.5z" />
    <glyph glyph-name="uni0E3A" unicode="&#xe3a;" 
d="M-38 -84c0 -10 -3.5 -18.5 -10.5 -25.5s-15.5 -10.5 -25.5 -10.5s-18.5 3.5 -25.5 10.5s-10.5 15.5 -10.5 25.5s3.5 18.5 10.5 25.5s15.5 10.5 25.5 10.5s18.5 -3.5 25.5 -10.5s10.5 -15.5 10.5 -25.5z" />
    <glyph glyph-name="uni0E3F" unicode="&#xe3f;" horiz-adv-x="442" 
d="M418 135c0 -90 -56.667 -135.001 -170 -135.001h-39v-66h-26v66h-135v473h135v62h26v-62h39c101.333 0 152 -38.667 152 -116c0 -24.667 -7.66699 -47.167 -23 -67.5s-35 -33.166 -59 -38.499v-1c30.667 -4 55 -16.5 73 -37.5s27 -46.833 27 -77.5zM373 135.999
c0 60.667 -41.667 91 -125 91h-39v-189h39c83.333 0 125 32.667 125 98zM355 345.999c0 59.333 -35.667 89 -107 89h-39v-169h39c34.667 0 61.667 8 81 24c17.333 14 26 32.667 26 56zM183 37.999v189h-90v-189h90zM183 265.999v169h-90v-169h90z" />
    <glyph glyph-name="uni0E40" unicode="&#xe40;" horiz-adv-x="221" 
d="M201 58c0 -17.333 -5.99902 -31.667 -17.999 -43s-27 -17 -45 -17c-22 0 -38.833 6.66699 -50.5 20s-17.5 29.666 -17.5 48.999v333h35v-289c10 6.66699 21 10 33 10c17.333 0 32.166 -6.16699 44.499 -18.5s18.5 -27.166 18.5 -44.499zM168.001 57.999
c0 8.66699 -2.83301 15.834 -8.5 21.501s-12.834 8.5 -21.501 8.5s-15.667 -2.83301 -21 -8.5s-8 -12.834 -8 -21.501s2.66699 -15.667 8 -21s12.333 -8 21 -8s15.834 2.66699 21.501 8s8.5 12.333 8.5 21z" />
    <glyph glyph-name="uni0E41" unicode="&#xe41;" horiz-adv-x="389" 
d="M201 58c0 -17.333 -5.99902 -31.667 -17.999 -43s-27 -17 -45 -17c-22 0 -38.833 6.66699 -50.5 20s-17.5 29.666 -17.5 48.999v333h35v-289c10 6.66699 21 10 33 10c17.333 0 32.166 -6.16699 44.499 -18.5s18.5 -27.166 18.5 -44.499zM168.001 57.999
c0 8.66699 -2.83301 15.834 -8.5 21.501s-12.834 8.5 -21.501 8.5s-15.667 -2.83301 -21 -8.5s-8 -12.834 -8 -21.501s2.66699 -15.667 8 -21s12.333 -8 21 -8s15.834 2.66699 21.501 8s8.5 12.333 8.5 21zM369.001 57.999c0 -17.333 -5.99902 -31.667 -17.999 -43
s-27 -17 -45 -17c-22 0 -38.833 6.66699 -50.5 20s-17.5 29.666 -17.5 48.999v333h35v-289c10 6.66699 21 10 33 10c17.333 0 32.166 -6.16699 44.499 -18.5s18.5 -27.166 18.5 -44.499zM336.002 57.998c0 8.66699 -2.83301 15.834 -8.5 21.501s-12.834 8.5 -21.501 8.5
s-15.667 -2.83301 -21 -8.5s-8 -12.834 -8 -21.501s2.66699 -15.667 8 -21s12.333 -8 21 -8s15.834 2.66699 21.501 8s8.5 12.333 8.5 21z" />
    <glyph glyph-name="uni0E42" unicode="&#xe42;" horiz-adv-x="251" 
d="M231 58c0 -17.333 -5.99902 -31.666 -17.999 -42.999s-27 -17 -45 -17c-22 0 -38.833 6.66699 -50.5 20s-17.5 29.666 -17.5 48.999v417l-140 82c0 16.667 6.66699 35.667 20 57c20.667 33.333 52.334 50 95.001 50c40.667 0 71 -13.667 91 -41
c15.333 -20.667 23 -44.334 23 -71.001v-15h-33v10c0 18.667 -4.66699 35.334 -14 50.001c-14 22.667 -36 34 -66 34c-24.667 0 -44.334 -9 -59.001 -27c-10 -12.667 -15 -23.334 -15 -32.001l133 -79v-391c10 6.66699 21 10 33 10c17.333 0 32.166 -6.16699 44.499 -18.5
s18.5 -27.166 18.5 -44.499zM198.001 58c0 8.66699 -2.83301 15.834 -8.5 21.501s-12.834 8.5 -21.501 8.5s-15.667 -2.83301 -21 -8.5s-8 -12.834 -8 -21.501s2.66699 -15.667 8 -21s12.333 -8 21 -8s15.834 2.66699 21.501 8s8.5 12.333 8.5 21z" />
    <glyph glyph-name="uni0E43" unicode="&#xe43;" horiz-adv-x="258" 
d="M238 58c0 -17.333 -5.99902 -31.667 -17.999 -43s-27 -17 -45 -17c-22 0 -38.833 6.66699 -50.5 20s-17.5 29.666 -17.5 48.999v489c0 47.333 -19.667 71 -59 71c-16 0 -28.5 -3.66699 -37.5 -11s-13.5 -14 -13.5 -20c5.33301 1.33301 10 2 14 2
c14.667 0 27.167 -5.16699 37.5 -15.5s15.5 -22.833 15.5 -37.5s-5.16699 -27.167 -15.5 -37.5s-22.833 -15.5 -37.5 -15.5c-39.333 0 -59 21.333 -59 64c0 27.333 9.16699 51.333 27.5 72s41.833 31 70.5 31c61.333 0 92 -36 92 -108v-440c10 6.66699 21 10 33 10
c17.333 0 32.166 -6.16699 44.499 -18.5s18.5 -27.166 18.5 -44.499zM34.001 544.999c0 7.33301 -2.5 13.5 -7.5 18.5s-11.167 7.5 -18.5 7.5s-13.5 -2.5 -18.5 -7.5s-7.5 -11.167 -7.5 -18.5s2.5 -13.5 7.5 -18.5s11.167 -7.5 18.5 -7.5s13.5 2.5 18.5 7.5
s7.5 11.167 7.5 18.5zM205.001 57.999c0 8.66699 -2.83301 15.834 -8.5 21.501s-12.834 8.5 -21.501 8.5s-15.667 -2.83301 -21 -8.5s-8 -12.834 -8 -21.501s2.66699 -15.667 8 -21s12.333 -8 21 -8s15.834 2.66699 21.501 8s8.5 12.333 8.5 21z" />
    <glyph glyph-name="uni0E44" unicode="&#xe44;" horiz-adv-x="263" 
d="M243 58c0 -17.333 -5.99902 -31.667 -17.999 -43s-27 -17 -45 -17c-22 0 -38.833 6.66699 -50.5 20s-17.5 29.666 -17.5 48.999v547l-92 -118h-40v148c0 13.333 -3.33301 29.333 -10 48h36c5.33301 -16 8 -32 8 -48v-107l96 126h37v-552c10 6.66699 21 10 33 10
c17.333 0 32.166 -6.16699 44.499 -18.5s18.5 -27.166 18.5 -44.499zM210.001 57.999c0 8.66699 -2.83301 15.834 -8.5 21.501s-12.834 8.5 -21.501 8.5s-15.667 -2.83301 -21 -8.5s-8 -12.834 -8 -21.501s2.66699 -15.667 8 -21s12.333 -8 21 -8s15.834 2.66699 21.501 8
s8.5 12.333 8.5 21z" />
    <glyph glyph-name="uni0E45" unicode="&#xe45;" horiz-adv-x="237" 
d="M182 -156l-34.9971 -0.000976562v426c0 31.333 -9 56.333 -27 75s-43 28 -75 28c-30.667 0 -54.667 -9.16699 -72 -27.5s-26.333 -41.5 -27 -69.5h-36c3.33301 36.667 17.166 66.834 41.499 90.501s55.166 35.5 92.499 35.5c43.333 0 77.166 -12.167 101.499 -36.5
s36.5 -56.5 36.5 -96.5v-425z" />
    <glyph glyph-name="uni0E46" unicode="&#xe46;" horiz-adv-x="524" 
d="M460 -144l-35 0.000976562v513h-11c-12.667 0 -23.334 -3.83301 -32.001 -11.5s-13 -16.5 -13 -26.5v-16h-34v14c0 26.667 -23.667 40 -71 40c17.333 -14 26 -31 26 -51c0 -17.333 -6.33301 -32 -19 -44s-27.667 -18 -45 -18s-32 6 -44 18s-18 26.667 -18 44
c0 55.333 34 83 102 83c20 0 39.333 -4.33301 58 -13c16 -8 25.333 -15 28 -21c0.666992 5.33301 7.33398 12.166 20.001 20.499s25.667 12.5 39 12.5h49v-544zM257 318.001c0 8.66699 -3 16 -9 22s-13.333 9 -22 9s-15.834 -3 -21.501 -9s-8.5 -13.333 -8.5 -22
s2.83301 -15.834 8.5 -21.501s12.834 -8.5 21.501 -8.5s16 2.83301 22 8.5s9 12.834 9 21.501z" />
    <glyph glyph-name="uni0E47" unicode="&#xe47;" 
d="M-40 627c-2 -8.66699 -9.33203 -16.998 -21.999 -24.998c-11.333 -6 -27 -9 -47 -9h-101c-30 0 -45 -16.667 -45 -50c0 -24.667 5.66699 -40.334 17 -47.001l23 35h25c0 -7.33301 4 -14.833 12 -22.5s17.667 -11.5 29 -11.5c-4 6 -6 13.333 -6 22
c0 12 4.33301 22.333 13 31s19 13 31 13s22.333 -4.33301 31 -13s13 -19 13 -31c-0.666992 -33.333 -19.334 -50 -56.001 -50c-31.333 0 -58.333 11.333 -81 34l-24 -36h-22c-25.333 15.333 -38 40.666 -38 75.999c0 21.333 7 39.333 21 54s32.667 22 56 22h106
c10.667 0 19 1.33301 25 4c12.667 6 19.667 14.333 21 25zM-88.999 519.002c0 6 -2.16699 11.167 -6.5 15.5s-9.5 6.5 -15.5 6.5s-11.167 -2.16699 -15.5 -6.5s-6.5 -9.5 -6.5 -15.5s2.16699 -11.167 6.5 -15.5s9.5 -6.5 15.5 -6.5s11.167 2.16699 15.5 6.5
s6.5 9.5 6.5 15.5z" />
    <glyph glyph-name="uni0E48" unicode="&#xe48;" 
d="M-55 695h-35v116h35v-116z" />
    <glyph glyph-name="uni0E49" unicode="&#xe49;" 
d="M27 835c0 -29.333 -14.667 -58.332 -44 -86.999c-36.667 -36.667 -85.667 -58 -147 -64l-9 25c32 17.333 50 34 54 50c-6.66699 -3.33301 -14.667 -5 -24 -5c-12.667 0 -23.334 4.16699 -32.001 12.5s-13 19.166 -13 32.499s4.5 24.833 13.5 34.5s21.167 14.5 36.5 14.5
c14.667 0 26.834 -5.16699 36.501 -15.5s14.5 -22.5 14.5 -36.5c0 -32.667 -13.667 -59 -41 -79c19.333 0 43 10 71 30c35.333 24.667 53.333 54 54 88h30zM-116 801.001c0 6.66699 -2.33301 12.334 -7 17.001s-10.334 7 -17.001 7s-12.334 -2.33301 -17.001 -7
s-7 -10.334 -7 -17.001s2.33301 -12.334 7 -17.001s10.334 -7 17.001 -7s12.334 2.33301 17.001 7s7 10.334 7 17.001z" />
    <glyph glyph-name="uni0E4A" unicode="&#xe4a;" 
d="M55 836c0 -32 -4.66895 -59.6689 -14.002 -83.002c-11.333 -29.333 -32 -51.666 -62 -66.999h-46c2.66699 1.33301 7.33398 8 14.001 20c10 18.667 15 40.334 15 65.001c0 24 -8.33301 36 -25 36c-12 0 -24 -7.33301 -36 -22c-13.333 15.333 -27 23 -41 23
c-28 0 -42 -18.333 -42 -55c8.66699 8.66699 19 13 31 13c11.333 0 21 -4.16699 29 -12.5s12 -18.5 12 -30.5c0 -11.333 -4 -21 -12 -29s-17.667 -12 -29 -12c-20.667 0 -37 7.66699 -49 23c-10 13.333 -15 30 -15 50c0 24.667 8.33301 44.667 25 60c14 12.667 30 19 48 19
c21.333 0 35.666 -7.33301 42.999 -22c6.66699 14 20.334 21 41.001 21c34 0 51 -22.667 51 -68c0 -22.667 -5 -39 -15 -49c14.667 4.66699 26.334 21 35.001 49c6.66699 22 10 43 10 63v8h32zM-128.002 723.998c0 6.66699 -2.16699 12.167 -6.5 16.5
s-9.83301 6.5 -16.5 6.5s-12.167 -2.16699 -16.5 -6.5s-6.5 -9.83301 -6.5 -16.5s2.16699 -12.167 6.5 -16.5s9.83301 -6.5 16.5 -6.5s12.167 2.16699 16.5 6.5s6.5 9.83301 6.5 16.5z" />
    <glyph glyph-name="uni0E4B" unicode="&#xe4b;" 
d="M29 749h-84v-66h-35v66h-84v33h84v66h35v-66h84v-33z" />
    <glyph glyph-name="uni0E4C" unicode="&#xe4c;" 
d="M72 816c-7.33301 -8 -19.334 -17.333 -36.001 -28s-41 -20.667 -73 -30c-28 -8.66699 -42 -13.667 -42 -15c28.667 -9.33301 43 -29 43 -59c0 -17.333 -5.5 -32 -16.5 -44s-26.833 -18 -47.5 -18c-18.667 0 -34.167 6 -46.5 18s-18.5 27.667 -18.5 47
c0 36.667 22.333 64.334 67 83.001c34.667 10.667 65.334 21.167 92.001 31.5s44.667 23.166 54 38.499zM-64.001 685c0 9.33301 -3.33301 17.5 -10 24.5s-14.667 10.5 -24 10.5s-17.5 -3.5 -24.5 -10.5s-10.5 -15.167 -10.5 -24.5s3.5 -17.333 10.5 -24
s15.167 -10 24.5 -10s17.333 3.33301 24 10s10 14.667 10 24z" />
    <glyph glyph-name="uni0E4D" unicode="&#xe4d;" 
d="M0 574c0 -20 -7 -37 -21 -51s-31 -21 -51 -21s-37 7 -51 21s-21 31 -21 51s7 37 21 51s31 21 51 21s37 -7 51 -21s21 -31 21 -51zM-33 574c0 11.333 -3.83301 20.666 -11.5 27.999s-16.834 11 -27.501 11c-11.333 0 -20.666 -3.66699 -27.999 -11
s-11 -16.666 -11 -27.999c0 -10.667 3.66699 -19.834 11 -27.501s16.666 -11.5 27.999 -11.5c10.667 0 19.834 3.83301 27.501 11.5s11.5 16.834 11.5 27.501z" />
    <glyph glyph-name="uni0E4E" unicode="&#xe4e;" 
d="M-98 541c4.66699 -5.33301 7.66602 -11.166 8.99902 -17.499s2 -11.5 2 -15.5c0 -13.333 -7 -24.166 -21 -32.499s-30 -12.5 -48 -12.5c-15.333 0 -28 1.66699 -38 5s-17.833 7.5 -23.5 12.5s-9.5 10.333 -11.5 16s-3 11.167 -3 16.5c0 12 2.66699 22.5 8 31.5
s12.166 16.5 20.499 22.5s17.333 10.833 27 14.5s19.167 6.5 28.5 8.5c-13.333 1.33301 -23.666 5.5 -30.999 12.5s-11 15.5 -11 25.5c0 11.333 4 21.666 12 30.999s18.5 17.5 31.5 24.5s27.5 12.333 43.5 16s31.667 5.5 47 5.5c10 0 19.833 -0.833008 29.5 -2.5
s18.167 -4.5 25.5 -8.5l-15 -21c-2.66699 1.33301 -7.83398 2.66602 -15.501 3.99902s-15.167 2 -22.5 2c-9.33301 0 -19.666 -0.833008 -30.999 -2.5s-22 -4.16699 -32 -7.5s-18.333 -8.16602 -25 -14.499s-10 -13.833 -10 -22.5c0 -6.66699 6.33301 -14 19 -22
s29 -12 49 -12l-10 -21h-14c-9.33301 0 -19.5 -1.5 -30.5 -4.5s-21.167 -7.16699 -30.5 -12.5s-17.333 -11.5 -24 -18.5s-10 -14.5 -10 -22.5c0 -11.333 4.83301 -19.833 14.5 -25.5s20.167 -8.5 31.5 -8.5c8.66699 0 17.834 2.16699 27.501 6.5s14.5 11.166 14.5 20.499
c0 2 -0.333008 4.83301 -1 8.5s-3 7.16699 -7 10.5z" />
    <glyph glyph-name="uni0E4F" unicode="&#xe4f;" horiz-adv-x="453" 
d="M290 163c0 17.333 -6.16699 32.333 -18.5 45s-27.5 19 -45.5 19s-33.167 -6.33301 -45.5 -19s-18.5 -27.667 -18.5 -45c0 -18 6.16699 -33.167 18.5 -45.5s27.5 -18.5 45.5 -18.5s33.167 6.16699 45.5 18.5s18.5 27.5 18.5 45.5zM325 163c0 -28 -9.5 -51.667 -28.5 -71
s-42.5 -29 -70.5 -29s-51.5 9.66699 -70.5 29s-28.5 43 -28.5 71s9.5 51.5 28.5 70.5s42.5 28.5 70.5 28.5s51.5 -9.5 70.5 -28.5s28.5 -42.5 28.5 -70.5zM360 163c0 18.667 -3.5 36.168 -10.5 52.501s-16.5 30.5 -28.5 42.5s-26.167 21.5 -42.5 28.5
s-33.833 10.5 -52.5 10.5c-18 0 -35.167 -3.5 -51.5 -10.5s-30.666 -16.5 -42.999 -28.5s-22 -26.167 -29 -42.5s-10.5 -33.833 -10.5 -52.5s3.5 -36.167 10.5 -52.5s16.5 -30.666 28.5 -42.999s26.167 -22 42.5 -29s33.833 -10.5 52.5 -10.5c18 0 35.167 3.66699 51.5 11
s30.666 17.166 42.999 29.499s22 26.666 29 42.999s10.5 33.5 10.5 51.5zM395 163.001c0 -23.333 -4.5 -45.166 -13.5 -65.499s-21.167 -38.166 -36.5 -53.499s-33.166 -27.5 -53.499 -36.5s-42.166 -13.5 -65.499 -13.5s-45.333 4.33301 -66 13s-38.667 20.667 -54 36
s-27.333 33.333 -36 54s-13 42.667 -13 66s4.5 45.166 13.5 65.499s21.167 38.166 36.5 53.499s33.166 27.5 53.499 36.5s42.166 13.5 65.499 13.5c22.667 0 44.167 -4.5 64.5 -13.5s38.333 -21.333 54 -37s28 -33.667 37 -54s13.5 -41.833 13.5 -64.5z" />
    <glyph glyph-name="uni0E50" unicode="&#xe50;" horiz-adv-x="425" 
d="M379 140c0 -43.333 -14.499 -78.167 -43.499 -104.5s-69.167 -39.5 -120.5 -39.5c-50.667 0 -90.667 13.333 -120 40s-44 61.334 -44 104.001c0 40 14.667 74 44 102s68.666 42 117.999 42c50.667 0 91 -13.833 121 -41.5s45 -61.834 45 -102.501zM340.001 139.999
c0 33.333 -11.167 60.333 -33.5 81s-52.833 31 -91.5 31s-69.167 -10.167 -91.5 -30.5s-33.5 -47.5 -33.5 -81.5c0 -74 41.667 -111 125 -111s125 37 125 111z" />
    <glyph glyph-name="uni0E51" unicode="&#xe51;" horiz-adv-x="436" 
d="M263 -31c8 5.33301 15.999 10.998 23.999 16.998c18.667 14.667 34 31.667 46 51c16.667 26.667 25 55 25 85c0 38.667 -13.167 69.834 -39.5 93.501s-59.5 35.5 -99.5 35.5c-39.333 0 -71 -11.5 -95 -34.5s-36 -52.167 -36 -87.5c0 -36 12 -62.333 36 -79
c14.667 -10.667 30.334 -16 47.001 -16h8c-11.333 0 -21 7.33301 -29 22c-7.33301 12.667 -11 25 -11 37c0 17.333 5.83301 32.5 17.5 45.5s27.167 19.5 46.5 19.5c24 0 42.667 -7.33301 56 -22c10.667 -12.667 16 -27.667 16 -45c0 -27.333 -9.66699 -49.333 -29 -66
s-43.333 -25 -72 -25c-33.333 0 -62 12.667 -86 38s-36 56.333 -36 93c0 41.333 14.667 76 44 104c31.333 30.667 73.333 46 126 46c52 0 94 -15.667 126 -47c30 -29.333 45 -65.666 45 -108.999c0 -48 -16.667 -91.333 -50 -130c-19.333 -23.333 -37.333 -39 -54 -47z
M239.999 91.998c0 22.667 -11.333 34 -34 34s-34 -11.333 -34 -34s11.333 -34 34 -34s34 11.333 34 34z" />
    <glyph glyph-name="uni0E52" unicode="&#xe52;" horiz-adv-x="495" 
d="M440 0l-383.001 -0.00292969v348c0 10 -3 21.167 -9 33.5s-13.667 18.5 -23 18.5l24 25c0.666992 0.666992 1.66699 1 3 1c6.66699 0 14.667 -6.33301 24 -19c10.667 -15.333 16 -31.666 16 -48.999v-326h313v158c0 40 -16 60 -48 60c-16.667 0 -32 -8.33301 -46 -25
c-11.333 -13.333 -17 -22.666 -17 -27.999c0 4.66699 -6 14.334 -18 29.001c-15.333 17.333 -31 26 -47 26c-13.333 0 -24 -5.5 -32 -16.5s-12 -23.833 -12 -38.5c9.33301 4 18.333 6 27 6c18.667 0 33.667 -5.83301 45 -17.5s17 -26.5 17 -44.5
s-5.83301 -33.167 -17.5 -45.5s-26.5 -18.5 -44.5 -18.5c-21.333 0 -38.666 7.66699 -51.999 23s-20 37 -20 65c0 76.667 29.667 115 89 115c26.667 0 48 -12 64 -36c11.333 24.667 33 37 65 37c25.333 0 45.333 -7.16699 60 -21.5s22 -32.833 22 -55.5v-204z
M242.999 139.997c0 21.333 -10.667 32 -32 32s-32 -10.667 -32 -32s10.667 -32 32 -32s32 10.667 32 32z" />
    <glyph glyph-name="uni0E53" unicode="&#xe53;" horiz-adv-x="500" 
d="M447 0h-34.999v197c0 15.333 -4.16699 28.5 -12.5 39.5s-20.166 16.5 -35.499 16.5c-19.333 0 -34.666 -6.66699 -45.999 -20s-17 -30 -17 -50v-183h-35v181c0 16.667 -7 32 -21 46c-16.667 16.667 -38.334 25 -65.001 25s-49 -10.333 -67 -31s-27 -47.667 -27 -81
c0 -19.333 3 -37 9 -53c10 26 29.333 39 58 39c18 0 33.333 -6.33301 46 -19s19 -28 19 -46s-6.33301 -33 -19 -45s-28.334 -18 -47.001 -18c-32 0 -57.333 14.667 -76 44c-17.333 26 -26 58 -26 96c0 44.667 13.333 80 40 106c24.667 24.667 56 37 94 37
c31.333 0 57 -8.66699 77 -26c12 -10 19.333 -19.333 22 -28c2 9.33301 7.66699 19 17 29c15.333 17.333 36.666 26 63.999 26c26 0 46.333 -7.83301 61 -23.5s22 -35.5 22 -59.5v-199zM184.001 60c0 20.667 -10.333 31 -31 31c-20 0 -30 -10.333 -30 -31
c0 -20 10 -30 30 -30c20.667 0 31 10 31 30z" />
    <glyph glyph-name="uni0E54" unicode="&#xe54;" horiz-adv-x="495" 
d="M429 0l-245 -0.000976562c-39.333 0 -72.333 12 -99 36s-40 57 -40 99c0 50.667 17.333 88.334 52 113.001c29.333 21.333 68.333 32 117 32h134c24 0 47.833 6.33301 71.5 19s40.834 29 51.501 49l24 -22c0 -8 -11.667 -21 -35 -39
c-32.667 -25.333 -71.334 -38 -116.001 -38h-132c-37.333 0 -67.333 -8.66699 -90 -26c-26.667 -20 -40 -49 -40 -87c0 -32 9.83301 -57.333 29.5 -76s44.5 -28 74.5 -28h44c-38 25.333 -57 58.333 -57 99c0 17.333 5 33.333 15 48c13.333 19.333 32.333 29 57 29
c18 0 33.5 -6.5 46.5 -19.5s19.5 -28.5 19.5 -46.5s-6.5 -33.667 -19.5 -47s-28.5 -20 -46.5 -20h-8c4.66699 -12 14 -21.667 28 -29c18 -9.33301 38 -14 60 -14h104v-32zM278 141.999c0 9.33301 -3.16699 17.166 -9.5 23.499s-14.166 9.5 -23.499 9.5
c-8.66699 0 -16.334 -3.16699 -23.001 -9.5s-10 -14.166 -10 -23.499c0 -8.66699 3.33301 -16.334 10 -23.001s14.334 -10 23.001 -10c9.33301 0 17.166 3.33301 23.499 10s9.5 14.334 9.5 23.001z" />
    <glyph glyph-name="uni0E55" unicode="&#xe55;" horiz-adv-x="499" 
d="M464 0h-268c-38 0 -69.333 9 -94 27c-28.667 20.667 -43 50 -43 88c0 48 22 87.667 66 119c26 18 51.667 29.667 77 35c-24.667 14.667 -37 36.667 -37 66c0 21.333 7.66699 39.5 23 54.5s33.333 22.5 54 22.5c21.333 0 39.5 -7.5 54.5 -22.5s22.5 -33.167 22.5 -54.5
c0 -22 -8 -40.333 -24 -55c19.333 -2 36 -3 50 -3c36 0 65.333 7.66699 88 23c27.333 18.667 44 34.667 50 48l25 -26c-29.333 -52 -86 -78 -170 -78c-28.667 0 -57 3.33301 -85 10c-19.333 0 -45 -8.66699 -77 -26c-50 -26.667 -75 -64 -75 -112c0 -56 40 -84 120 -84h44
c-38 25.333 -57 58.333 -57 99c0 17.333 5 33.333 15 48c13.333 19.333 32.333 29 57 29c18 0 33.5 -6.5 46.5 -19.5s19.5 -28.5 19.5 -46.5s-6.5 -33.667 -19.5 -47s-28.5 -20 -46.5 -20h-8c4.66699 -12 14 -21.667 28 -29c18 -9.33301 38 -14 60 -14h104v-32zM286 334
c0 12 -4.33301 22.333 -13 31s-19 13 -31 13s-22.333 -4.33301 -31 -13s-13 -19 -13 -31s4.33301 -22.333 13 -31s19 -13 31 -13s22.333 4.33301 31 13s13 19 13 31zM313 142c0 9.33301 -3.16699 17.166 -9.5 23.499s-14.166 9.5 -23.499 9.5
c-8.66699 0 -16.334 -3.16699 -23.001 -9.5s-10 -14.166 -10 -23.499c0 -8.66699 3.33301 -16.334 10 -23.001s14.334 -10 23.001 -10c9.33301 0 17.166 3.33301 23.499 10s9.5 14.334 9.5 23.001z" />
    <glyph glyph-name="uni0E56" unicode="&#xe56;" horiz-adv-x="464" 
d="M419 172c0 -52 -24.668 -95 -74.001 -129c-45.333 -30.667 -98.333 -46 -159 -46c-84.667 0 -127 27.667 -127 83c0 18.667 6.66699 34.667 20 48s29.333 20 48 20s34.667 -6.66699 48 -20s20 -29.333 20 -48c0 -20 -8 -37.333 -24 -52c4 -0.666992 11.667 -1 23 -1
c34 0 68 8.33301 102 25c56.667 28 85 66.667 85 116c0 52.667 -42.667 79 -128 79c-33.333 0 -72.333 -4 -117 -12l-73 -14v122c0 14 -4.16699 27 -12.5 39s-15.166 18 -20.499 18l23 28c7.33301 0 16 -8 26 -24c12 -19.333 18 -41 18 -65v-74c70 10 125 15 165 15
c104.667 0 157 -36 157 -108zM159.999 80c0 9.33301 -3.16699 17.166 -9.5 23.499s-14.166 9.5 -23.499 9.5c-8.66699 0 -16.334 -3.16699 -23.001 -9.5s-10 -14.166 -10 -23.499c0 -8.66699 3.33301 -16.334 10 -23.001s14.334 -10 23.001 -10
c9.33301 0 17.166 3.33301 23.499 10s9.5 14.334 9.5 23.001z" />
    <glyph glyph-name="uni0E57" unicode="&#xe57;" horiz-adv-x="519" 
d="M462 92c0 -28.667 -8.83105 -51.165 -26.498 -67.498s-38.5 -24.5 -62.5 -24.5h-50v189c0 36.667 -14.333 55 -43 55c-14.667 0 -28.334 -6 -41.001 -18c-8.66699 -10 -13.667 -17.333 -15 -22c-15.333 25.333 -36.666 38 -63.999 38c-18.667 0 -34 -7.33301 -46 -22
c-15.333 -18 -23 -45 -23 -81c0 -18.667 3 -36 9 -52c10 26 29.333 39 58 39c18 0 33.333 -6.33301 46 -19s19 -28 19 -46s-6.33301 -33 -19 -45s-28.334 -18 -47.001 -18c-31.333 0 -57 15.333 -77 46c-17.333 27.333 -26 60 -26 98c0 41.333 9.83301 74.666 29.5 99.999
s44.5 38 74.5 38c33.333 0 55.666 -10.333 66.999 -31c12.667 20.667 31 31 55 31s43 -6.5 57 -19.5s21 -30.167 21 -51.5v-177h15c36 0 54 21 54 63v259c0 23.333 6.66699 42.666 20 57.999c10 12 18 18 24 18l20 -29c-4.66699 -0.666992 -12 -5.66699 -22 -15
c-4.66699 -8.66699 -7 -20.667 -7 -36v-258zM189.002 60.002c0 8.66699 -3 16 -9 22s-13.333 9 -22 9s-15.834 -3 -21.501 -9s-8.5 -13.333 -8.5 -22s2.83301 -15.834 8.5 -21.501s12.834 -8.5 21.501 -8.5s16 2.83301 22 8.5s9 12.834 9 21.501z" />
    <glyph glyph-name="uni0E58" unicode="&#xe58;" horiz-adv-x="542" 
d="M437 71c0 -21.333 -7.16602 -38.999 -21.499 -52.999s-32.833 -21 -55.5 -21c-27.333 0 -53 8.33301 -77 25c-4.66699 3.33301 -22 18.333 -52 45c-18 16.667 -33.667 25 -47 25c-32 0 -48 -30.667 -48 -92c-54 21.333 -81 68.333 -81 141
c0 41.333 12.333 74.833 37 100.5s58.334 38.5 101.001 38.5h132c35.333 0 64.333 6.33301 87 19c32.667 18.667 53 36 61 52l26 -23c-11.333 -17.333 -31 -34.333 -59 -51c-35.333 -20 -72.333 -30 -111 -30h-122c-76 0 -114 -37 -114 -111c0 -21.333 4 -38.666 12 -51.999
l12 -16c2 15.333 9.16699 29.166 21.5 41.499s28.166 18.5 47.499 18.5c24.667 0 47 -11.333 67 -34c11.333 -12.667 22.666 -23.667 33.999 -33c6 -4 11.667 -8 17 -12c-2 7.33301 -3 14.666 -3 21.999c0 19.333 6.66699 35.5 20 48.5s29.333 19.5 48 19.5
c19.333 0 35.5 -6.5 48.5 -19.5s19.5 -29.167 19.5 -48.5zM403.001 71.001c0 9.33301 -3.33301 17.333 -10 24s-14.667 10 -24 10s-17.333 -3.33301 -24 -10s-10 -14.667 -10 -24s3.33301 -17.333 10 -24s14.667 -10 24 -10s17.333 3.33301 24 10s10 14.667 10 24z" />
    <glyph glyph-name="uni0E59" unicode="&#xe59;" horiz-adv-x="533" 
d="M437 -4c-26.667 0 -49.333 8.66602 -68 25.999c-15.333 14 -31.666 42.333 -48.999 85c-20 49.333 -35.667 82 -47 98c-21.333 30.667 -48.666 46 -81.999 46c-31.333 0 -57.166 -11.667 -77.499 -35s-30.5 -52.333 -30.5 -87c0 -49.333 19.667 -79.666 59 -90.999
c-6 10.667 -9 21.334 -9 32.001c0 17.333 6.16699 32 18.5 44s27.166 18 44.499 18c19.333 0 35 -6.33301 47 -19s18 -28 18 -46c0 -21.333 -7.33301 -38.5 -22 -51.5s-35 -19.5 -61 -19.5c-34.667 0 -64 10.667 -88 32c-27.333 24.667 -41 59 -41 103
c0 42 13.833 77.5 41.5 106.5s61.5 43.5 101.5 43.5c33.333 0 62.666 -11 87.999 -33c13.333 -12 23 -24 29 -36c0 10.667 4.66699 23 14 37c14.667 21.333 36 32 64 32c22 0 39.667 -5.33301 53 -16c0.666992 -1.33301 5.66699 -8 15 -20c5.33301 0 11.666 7 18.999 21
s11 28 11 42v59c0 8.66699 -2.66699 17 -8 25s-12.666 12 -21.999 12l28 29c6.66699 0 14.5 -5.83301 23.5 -17.5s13.5 -22.834 13.5 -33.501v-74c0 -28 -7.66699 -50.667 -23 -68c-18 -20.667 -35.333 -32.667 -52 -36c0 4 -5 12 -15 24
c-12.667 15.333 -26.334 23 -41.001 23c-34 0 -51 -21 -51 -63c0 -38.667 10 -74.167 30 -106.5s41.667 -48.5 65 -48.5h4v-37zM231.001 67.999c0 9.33301 -3.33301 17.333 -10 24s-14.667 10 -24 10s-17.333 -3.33301 -24 -10s-10 -14.667 -10 -24s3.33301 -17.333 10 -24
s14.667 -10 24 -10s17.333 3.33301 24 10s10 14.667 10 24z" />
    <glyph glyph-name="uni0E5A" unicode="&#xe5a;" horiz-adv-x="479" 
d="M333 0l-36 0.00292969v328c-11.333 -24.667 -29.333 -44.834 -54 -60.501s-52.334 -23.5 -83.001 -23.5c-29.333 0 -55 7.33301 -77 22c-26 17.333 -39 40.666 -39 69.999c0 19.333 6.33301 35.166 19 47.499s29 18.5 49 18.5c18.667 0 33.334 -6 44.001 -18
s16 -26.333 16 -43c0 -32 -15.333 -51.667 -46 -59c12 -4 23.333 -6 34 -6c32 0 61.333 13 88 39c24 24 40 52.333 48 85h37v-400zM141 342.003c0 9.33301 -3 17 -9 23s-13.667 9 -23 9s-17 -3 -23 -9s-9 -13.667 -9 -23s3 -17 9 -23s13.667 -9 23 -9s17 3 23 9
s9 13.667 9 23zM412 0.00292969h-36v400h36v-400z" />
    <glyph glyph-name="uni0E5B" unicode="&#xe5b;" horiz-adv-x="697" 
d="M188 320v6h3c2 0 3 -1 3 -3s-1 -3 -3 -3h-3zM188 313v6h3c3.33301 0 5 1.33301 5 4s-1.66699 4 -5 4h-5v-14h2zM217 320v6h3c2 0 3 -1 3 -3s-1 -3 -3 -3h-3zM184 313v2h-7v12h-2v-14h9zM157 318c0 -2.66699 -1.33301 -4 -4 -4s-4 2 -4 6s1.33301 6 4 6
c2 0 3.33301 -1.33301 4 -4h2c-1.33301 3.33301 -3.33301 5 -6 5c-4 0 -6 -2.33301 -6 -7s2 -7 6 -7s6 1.66699 6 5h-2zM212 323c0 2.66699 -1.33301 4 -4 4c-3.33301 0 -5 -1.33301 -5 -4l2.5 -2.5c1 -1 2.83301 -2.16699 5.5 -3.5c0 -2 -1 -3 -3 -3s-3 1.33301 -3 4h-2
c0 -3.33301 1.66699 -5 5 -5s5 1.33301 5 4l-2.5 2.5c-1 1 -2.83301 2.16699 -5.5 3.5c0 2 1 3 3 3c1.33301 -1.33301 2 -2.33301 2 -3h2zM172 313v14h-2v-6h-7v6h-2v-14h2v7h7v-7h2zM238 313l-5 8l5 6h-3l-5 -7v7h-2v-14h2v5l2 2l3 -7h3zM217 313v6h3
c3.33301 0 5 1.33301 5 4s-1.66699 4 -5 4h-5v-14h2zM242 184c0 18.667 -9.33301 28 -28 28s-28 -9.33301 -28 -28s9.33301 -28 28 -28s28 9.33301 28 28zM669 179c-13.333 -7.33301 -26.9941 -11.002 -40.9941 -11.002c-22 0 -41.333 8.33301 -58 25
c-4 -32 -13.333 -50.333 -28 -55c-2.66699 0 -6 4 -10 12s-8.16699 17 -12.5 27l-12 28c-3.66699 8.66699 -5.83398 13.667 -6.50098 15c0 -61.333 -9 -92 -27 -92c-1.33301 0 -3.83301 4.16699 -7.5 12.5s-7.5 17.666 -11.5 27.999l-11 29.5c-3.33301 9.33301 -6 15 -8 17
c-4 -65.333 -16.667 -98 -38 -98c-1.33301 0 -3.83301 4.83301 -7.5 14.5l-12 32.5l-12 33.5c-3.66699 10.333 -5.83398 16.166 -6.50098 17.499c0 -127.333 -49.667 -191 -149 -191c-42 0 -74.833 14.333 -98.5 43s-35.5 67.334 -35.5 116.001c0 50 10.167 88.667 30.5 116
s49.5 41 87.5 41c30 0 53.667 -9.16699 71 -27.5s26 -43.5 26 -75.5s-6.83301 -58 -20.5 -78s-32.834 -30 -57.501 -30c-14.667 0 -27.334 5.5 -38.001 16.5s-16 23.833 -16 38.5c0 15.333 5.16699 28.333 15.5 39s23.166 16 38.499 16c17.333 0 31.666 -6.66699 42.999 -20
v11c0 21.333 -3.83301 39.833 -11.5 55.5s-23.5 23.5 -47.5 23.5c-28 0 -49.167 -11.833 -63.5 -35.5s-21.5 -55.5 -21.5 -95.5c0 -38 9.16699 -67.667 27.5 -89s41.833 -32 70.5 -32c40 0 70.333 14.5 91 43.5s31 69.5 31 121.5c0 20 -1 35.667 -3 47
c37.333 -7.33301 62.333 -42.666 75 -105.999c6 18.667 9 37.334 9 56.001c0 12.667 -2.66699 28.667 -8 48c28 -8 52.333 -37 73 -87l3.5 20c1 6 1.5 11.667 1.5 17c0 4 -0.5 9 -1.5 15l-3.5 22c28.667 -8 50 -36 64 -84c6.66699 8.66699 10 20.334 10 35.001
c0 8 -1 17 -3 27c2 -0.666992 6.66699 -3.83398 14 -9.50098s16.333 -11.667 27 -18s22.5 -12.166 35.5 -17.499s25.5 -8 37.5 -8h5z" />
    <glyph glyph-name="uni1EA0" unicode="&#x1ea0;" horiz-adv-x="418" 
d="M422 0h-48l-58 147h-215l-57 -147h-49l191 473h51zM301 186l-91 242l-95 -242h186zM244 -77c0 -9.33301 -3.5 -17.333 -10.5 -24s-15.167 -10 -24.5 -10s-17.5 3.33301 -24.5 10s-10.5 14.667 -10.5 24c0 10 3.5 18.333 10.5 25s15.167 10 24.5 10
s17.5 -3.33301 24.5 -10s10.5 -15 10.5 -25z" />
    <glyph glyph-name="uni1EA1" unicode="&#x1ea1;" horiz-adv-x="344" 
d="M259 187l-2 -0.000976562c-3.33301 -6 -15 -11 -35 -15c-35.333 -6.66699 -70.666 -13 -105.999 -19c-35.333 -11.333 -53 -31.333 -53 -60c0 -20 7.5 -36.333 22.5 -49s32.833 -19 53.5 -19c33.333 0 61.666 9.83301 84.999 29.5s35 45.834 35 78.501v54zM338 2.99902
c-8.66699 -2 -17.667 -3 -27 -3c-32.667 0 -49 20 -49 60h-1c-16.667 -24.667 -33 -42 -49 -52c-19.333 -12 -44.666 -18 -75.999 -18c-33.333 0 -60.333 8 -81 24c-22.667 18 -34 43.333 -34 76c0 42 19.333 71 58 87c19.333 8 61.333 15.667 126 23
c19.333 2 33.166 6 41.499 12s12.5 17.667 12.5 35c0 46.667 -30 70 -90 70s-90.333 -26.667 -91 -80h-42c4 76.667 50 115 138 115c84 0 126 -36.667 126 -110v-182c0 -16.667 8.33301 -25 25 -25c6 0 10.333 1 13 3v-35zM207 -77.001c0 -9.33301 -3.5 -17.333 -10.5 -24
s-15.167 -10 -24.5 -10s-17.5 3.33301 -24.5 10s-10.5 14.667 -10.5 24c0 10 3.5 18.333 10.5 25s15.167 10 24.5 10s17.5 -3.33301 24.5 -10s10.5 -15 10.5 -25z" />
    <glyph glyph-name="uni1EA2" unicode="&#x1ea2;" horiz-adv-x="418" 
d="M422 0h-48l-58 147h-215l-57 -147h-49l191 473h51zM301 186l-91 242l-95 -242h186zM257 581c0 -8 -2 -14.334 -6 -19.001s-8.33301 -9 -13 -13s-9 -8.33301 -13 -13s-6 -11 -6 -19h-23c0 11.333 2 19.833 6 25.5s8.33301 10.334 13 14.001l13 10c4 3 6 7.5 6 13.5
c0 16 -8 24 -24 24c-18 0 -27 -11.667 -27 -35h-22c0 16.667 4.33301 30.167 13 40.5s20.667 15.5 36 15.5c14.667 0 26.167 -4 34.5 -12s12.5 -18.667 12.5 -32z" />
    <glyph glyph-name="uni1EA3" unicode="&#x1ea3;" horiz-adv-x="344" 
d="M259 187l-2 -0.000976562c-3.33301 -6 -15 -11 -35 -15c-35.333 -6.66699 -70.666 -13 -105.999 -19c-35.333 -11.333 -53 -31.333 -53 -60c0 -20 7.5 -36.333 22.5 -49s32.833 -19 53.5 -19c33.333 0 61.666 9.83301 84.999 29.5s35 45.834 35 78.501v54zM338 2.99902
c-8.66699 -2 -17.667 -3 -27 -3c-32.667 0 -49 20 -49 60h-1c-16.667 -24.667 -33 -42 -49 -52c-19.333 -12 -44.666 -18 -75.999 -18c-33.333 0 -60.333 8 -81 24c-22.667 18 -34 43.333 -34 76c0 42 19.333 71 58 87c19.333 8 61.333 15.667 126 23
c19.333 2 33.166 6 41.499 12s12.5 17.667 12.5 35c0 46.667 -30 70 -90 70s-90.333 -26.667 -91 -80h-42c4 76.667 50 115 138 115c84 0 126 -36.667 126 -110v-182c0 -16.667 8.33301 -25 25 -25c6 0 10.333 1 13 3v-35zM220 453.999c0 -8 -2 -14.334 -6 -19.001
s-8.33301 -9 -13 -13s-9 -8.33301 -13 -13s-6 -11 -6 -19h-23c0 11.333 2 19.833 6 25.5s8.33301 10.334 13 14.001l13 10c4 3 6 7.5 6 13.5c0 16 -8 24 -24 24c-18 0 -27 -11.667 -27 -35h-22c0 16.667 4.33301 30.167 13 40.5s20.667 15.5 36 15.5
c14.667 0 26.167 -4 34.5 -12s12.5 -18.667 12.5 -32z" />
    <glyph glyph-name="uni1EA4" unicode="&#x1ea4;" horiz-adv-x="418" 
d="M422 0h-48l-58 147h-215l-57 -147h-49l191 473h51zM301 186l-91 242l-95 -242h186zM265 522l-57 67l-59 -67h-38l75 93h46l76 -93h-43zM320 577h-34l69 93h52z" />
    <glyph glyph-name="uni1EA5" unicode="&#x1ea5;" horiz-adv-x="344" 
d="M259 187l-2 -0.000976562c-3.33301 -6 -15 -11 -35 -15c-35.333 -6.66699 -70.666 -13 -105.999 -19c-35.333 -11.333 -53 -31.333 -53 -60c0 -20 7.5 -36.333 22.5 -49s32.833 -19 53.5 -19c33.333 0 61.666 9.83301 84.999 29.5s35 45.834 35 78.501v54zM338 2.99902
c-8.66699 -2 -17.667 -3 -27 -3c-32.667 0 -49 20 -49 60h-1c-16.667 -24.667 -33 -42 -49 -52c-19.333 -12 -44.666 -18 -75.999 -18c-33.333 0 -60.333 8 -81 24c-22.667 18 -34 43.333 -34 76c0 42 19.333 71 58 87c19.333 8 61.333 15.667 126 23
c19.333 2 33.166 6 41.499 12s12.5 17.667 12.5 35c0 46.667 -30 70 -90 70s-90.333 -26.667 -91 -80h-42c4 76.667 50 115 138 115c84 0 126 -36.667 126 -110v-182c0 -16.667 8.33301 -25 25 -25c6 0 10.333 1 13 3v-35zM228 387.999l-57 67l-59 -67h-38l75 93h46l76 -93
h-43zM283 445.999h-34l69 93h52z" />
    <glyph glyph-name="uni1EA6" unicode="&#x1ea6;" horiz-adv-x="418" 
d="M422 0h-48l-58 147h-215l-57 -147h-49l191 473h51zM301 186l-91 242l-95 -242h186zM265 522l-57 67l-59 -67h-38l75 93h46l76 -93h-43zM365 577h-34l-88 93h52z" />
    <glyph glyph-name="uni1EA7" unicode="&#x1ea7;" horiz-adv-x="344" 
d="M259 187l-2 -0.000976562c-3.33301 -6 -15 -11 -35 -15c-35.333 -6.66699 -70.666 -13 -105.999 -19c-35.333 -11.333 -53 -31.333 -53 -60c0 -20 7.5 -36.333 22.5 -49s32.833 -19 53.5 -19c33.333 0 61.666 9.83301 84.999 29.5s35 45.834 35 78.501v54zM338 2.99902
c-8.66699 -2 -17.667 -3 -27 -3c-32.667 0 -49 20 -49 60h-1c-16.667 -24.667 -33 -42 -49 -52c-19.333 -12 -44.666 -18 -75.999 -18c-33.333 0 -60.333 8 -81 24c-22.667 18 -34 43.333 -34 76c0 42 19.333 71 58 87c19.333 8 61.333 15.667 126 23
c19.333 2 33.166 6 41.499 12s12.5 17.667 12.5 35c0 46.667 -30 70 -90 70s-90.333 -26.667 -91 -80h-42c4 76.667 50 115 138 115c84 0 126 -36.667 126 -110v-182c0 -16.667 8.33301 -25 25 -25c6 0 10.333 1 13 3v-35zM228 387.999l-57 67l-59 -67h-38l75 93h46l76 -93
h-43zM328 445.999h-34l-88 93h52z" />
    <glyph glyph-name="uni1EA8" unicode="&#x1ea8;" horiz-adv-x="418" 
d="M422 0h-48l-58 147h-215l-57 -147h-49l191 473h51zM301 186l-91 242l-95 -242h186zM265 522l-57 67l-59 -67h-38l75 93h46l76 -93h-43zM355 641c0 -8 -2 -14.334 -6 -19.001s-8.33301 -9 -13 -13s-9 -8.33301 -13 -13s-6 -11 -6 -19h-23c0 11.333 2 19.833 6 25.5
s8.33301 10.334 13 14.001l13 10c4 3 6 7.5 6 13.5c0 16 -8 24 -24 24c-18 0 -27 -11.667 -27 -35h-22c0 16.667 4.33301 30.167 13 40.5s20.667 15.5 36 15.5c14.667 0 26.167 -4 34.5 -12s12.5 -18.667 12.5 -32z" />
    <glyph glyph-name="uni1EA9" unicode="&#x1ea9;" horiz-adv-x="344" 
d="M259 187l-2 -0.000976562c-3.33301 -6 -15 -11 -35 -15c-35.333 -6.66699 -70.666 -13 -105.999 -19c-35.333 -11.333 -53 -31.333 -53 -60c0 -20 7.5 -36.333 22.5 -49s32.833 -19 53.5 -19c33.333 0 61.666 9.83301 84.999 29.5s35 45.834 35 78.501v54zM338 2.99902
c-8.66699 -2 -17.667 -3 -27 -3c-32.667 0 -49 20 -49 60h-1c-16.667 -24.667 -33 -42 -49 -52c-19.333 -12 -44.666 -18 -75.999 -18c-33.333 0 -60.333 8 -81 24c-22.667 18 -34 43.333 -34 76c0 42 19.333 71 58 87c19.333 8 61.333 15.667 126 23
c19.333 2 33.166 6 41.499 12s12.5 17.667 12.5 35c0 46.667 -30 70 -90 70s-90.333 -26.667 -91 -80h-42c4 76.667 50 115 138 115c84 0 126 -36.667 126 -110v-182c0 -16.667 8.33301 -25 25 -25c6 0 10.333 1 13 3v-35zM228 387.999l-57 67l-59 -67h-38l75 93h46l76 -93
h-43zM318 509.999c0 -8 -2 -14.334 -6 -19.001s-8.33301 -9 -13 -13s-9 -8.33301 -13 -13s-6 -11 -6 -19h-23c0 11.333 2 19.833 6 25.5s8.33301 10.334 13 14.001l13 10c4 3 6 7.5 6 13.5c0 16 -8 24 -24 24c-18 0 -27 -11.667 -27 -35h-22
c0 16.667 4.33301 30.167 13 40.5s20.667 15.5 36 15.5c14.667 0 26.167 -4 34.5 -12s12.5 -18.667 12.5 -32z" />
    <glyph glyph-name="uni1EAA" unicode="&#x1eaa;" horiz-adv-x="418" 
d="M422 0h-48l-58 147h-215l-57 -147h-49l191 473h51zM301 186l-91 242l-95 -242h186zM265 522l-57 67l-59 -67h-38l75 93h46l76 -93h-43zM313 715c-8 -42 -27.332 -63 -57.999 -63c-8.66699 0 -17.167 1.66699 -25.5 5s-16.166 6.66602 -23.499 9.99902
c-8 3.33301 -15.333 6.83301 -22 10.5s-12.667 5.5 -18 5.5c-10 0 -18.333 -2.83301 -25 -8.5s-10 -14.167 -10 -25.5h-26c0 42.667 19.667 64 59 64c9.33301 0 18.166 -1.66699 26.499 -5s16.166 -6.66602 23.499 -9.99902l20.5 -9.5c6.33301 -3 12.5 -4.5 18.5 -4.5
c10.667 0 18.5 3 23.5 9s8.16699 13.333 9.5 22h27z" />
    </font>
</defs>
</svg>
